M48
METRIC,LZ,000.000
;FILE_FORMAT=3:3
;TYPE=PLATED
;Layer: PTH_Through_Via
;EasyEDA v6.5.48, 2025-03-08 11:52:12
;30e90ac5d70944fe866dc529022a22e9,369c048249c94b259d5cf78f180de413,10
;Gerber Generator version 0.2
;Holesize 1 = 0.310 mm
T01C0.310
%
G05
G90
T01
X042642Y-045796
X039792Y-037211
X038578Y-035921
X038567Y-042263
X044831Y-030782
X026457Y-033335
X046553Y-025842
X021654Y-037229
X044717Y-035225
X040292Y-035118
X030343Y-043531
X058296Y-041336
X047267Y-043922
X051402Y-045095
X027767Y-030853
X053404Y-044148
X038778Y-036848
X032609Y-045296
X049949Y-033307
X056987Y-033371
X044224Y-037818
X049116Y-034991
X043543Y-031920
X041087Y-035613
X049853Y-041526
X055311Y-036937
X047628Y-027384
X056393Y-045964
M30
