M48
METRIC,LZ,000.000
;FILE_FORMAT=3:3
;TYPE=PLATED
;Layer: PTH_Through
;EasyEDA v6.5.48, 2025-03-08 11:52:12
;30e90ac5d70944fe866dc529022a22e9,369c048249c94b259d5cf78f180de413,10
;Gerber Generator version 0.2
;Holesize 1 = 0.310 mm
T01C0.310
;Holesize 2 = 0.701 mm
T02C0.701
;Holesize 3 = 0.712 mm
T03C0.712
;Holesize 4 = 0.889 mm
T04C0.889
;Holesize 5 = 0.900 mm
T05C0.900
;Holesize 6 = 0.901 mm
T06C0.901
;Holesize 7 = 1.200 mm
T07C1.200
;Holesize 8 = 1.301 mm
T08C1.301
%
G05
G90
T01
X042642Y-045796
X039792Y-037211
X038578Y-035921
X038567Y-042263
X044831Y-030782
X026457Y-033335
X046553Y-025842
X021654Y-037229
X044717Y-035225
X040292Y-035118
X030343Y-043531
X058296Y-041336
X047267Y-043922
X051402Y-045095
X027767Y-030853
X053404Y-044148
X038778Y-036848
X032609Y-045296
X049949Y-033307
X056987Y-033371
X044224Y-037818
X049116Y-034991
X043543Y-031920
X041087Y-035613
X049853Y-041526
X055311Y-036937
X047628Y-027384
X056393Y-045964
T02
X052081Y-024003
X053583Y-024003
X060568Y-028829
X059066Y-028829
T03
X056134Y-031115
X053594Y-031115
X047752Y-025273
X047752Y-022733
X056134Y-028321
X053594Y-028321
T04
X072263Y-047625
X069723Y-047625
X067183Y-047625
X064643Y-047625
X062103Y-047625
X059563Y-047625
X057023Y-047625
X054483Y-047625
X051943Y-047625
X049403Y-047625
X046863Y-047625
X044323Y-047625
X041783Y-047625
X039243Y-047625
X036703Y-047625
X034163Y-047625
X031623Y-047625
X029083Y-047625
X026543Y-047625
X024003Y-047625
T05
X069215Y-030099
X069215Y-022479
X031369Y-021971
X023749Y-021971
X036068Y-024892
X043688Y-024892
X050673Y-034798
X050673Y-027178
X072136Y-029972
X072136Y-022352
X043688Y-021971
X036068Y-021971
T06
X063373Y-033020
X063373Y-030480
T07
X060654Y-035596
X054154Y-035596
X054154Y-040096
X060654Y-040096
X064822Y-040096
X071322Y-040096
X071322Y-035596
X064822Y-035596
X024702Y-024892
X032449Y-024892
T08
X057912Y-024003
X062992Y-024003
X060452Y-024003
M30
