G04 Layer: BottomLayer*
G04 EasyEDA v6.5.48, 2025-03-08 11:52:12*
G04 30e90ac5d70944fe866dc529022a22e9,369c048249c94b259d5cf78f180de413,10*
G04 Gerber Generator version 0.2*
G04 Scale: 100 percent, Rotated: No, Reflected: No *
G04 Dimensions in millimeters *
G04 leading zeros omitted , absolute positions ,4 integer and 5 decimal *
%FSLAX45Y45*%
%MOMM*%

%AMMACRO1*21,1,$1,$2,0,0,$3*%
%ADD10C,0.5000*%
%ADD11MACRO1,2.0015X1.0008X-90.0000*%
%ADD12MACRO1,2.0015X0.9982X-90.0000*%
%ADD13MACRO1,2.0015X0.9982X0.0000*%
%ADD14MACRO1,1.999X1.0008X0.0000*%
%ADD15MACRO1,2.0015X1.0008X90.0000*%
%ADD16MACRO1,1.999X1.0008X90.0000*%
%ADD17MACRO1,1.999X0.9982X90.0000*%
%ADD18MACRO1,2.0015X0.9982X90.0000*%
%ADD19C,2.0000*%
%ADD20C,1.8796*%
%ADD21C,1.6510*%
%ADD22C,1.1938*%
%ADD23C,2.1590*%
%ADD24MACRO1,2.0015X2.4994X0.0000*%
%ADD25O,1.9999959999999999X2.4999949999999997*%
%ADD26C,1.0000*%
%ADD27C,1.5748*%
%ADD28R,1.5748X1.5748*%
%ADD29C,0.6100*%
%ADD30C,0.0189*%

%LPD*%
G36*
X7355331Y-4913630D02*
G01*
X2222652Y-4901844D01*
X2218791Y-4901031D01*
X2215489Y-4898847D01*
X2213305Y-4895545D01*
X2212543Y-4891633D01*
X2215896Y-3749548D01*
X2216861Y-3745280D01*
X2217775Y-3743299D01*
X2219807Y-3740404D01*
X2506014Y-3454247D01*
X2509164Y-3450793D01*
X2511856Y-3447287D01*
X2514244Y-3443528D01*
X2516276Y-3439566D01*
X2518003Y-3435502D01*
X2519324Y-3431235D01*
X2520289Y-3426917D01*
X2520848Y-3422497D01*
X2521051Y-3417874D01*
X2521051Y-2619349D01*
X2521762Y-2615641D01*
X2523794Y-2612440D01*
X2526842Y-2610205D01*
X2534767Y-2606395D01*
X2548178Y-2597962D01*
X2560472Y-2587955D01*
X2571546Y-2576576D01*
X2576525Y-2570022D01*
X2579674Y-2567330D01*
X2583688Y-2566111D01*
X2587853Y-2566568D01*
X2591460Y-2568702D01*
X2593898Y-2572105D01*
X2594762Y-2576220D01*
X2594762Y-3307537D01*
X2593797Y-3311855D01*
X2592679Y-3314192D01*
X2590139Y-3323691D01*
X2589276Y-3333496D01*
X2590139Y-3343300D01*
X2592679Y-3352800D01*
X2593797Y-3355136D01*
X2594762Y-3359454D01*
X2594762Y-4357979D01*
X2594000Y-4361891D01*
X2591765Y-4365142D01*
X2364435Y-4592472D01*
X2361285Y-4595926D01*
X2358593Y-4599432D01*
X2356205Y-4603191D01*
X2354173Y-4607153D01*
X2352446Y-4611217D01*
X2351125Y-4615484D01*
X2350160Y-4619802D01*
X2349601Y-4624222D01*
X2349398Y-4628845D01*
X2349398Y-4647692D01*
X2348636Y-4651603D01*
X2346401Y-4654854D01*
X2343099Y-4657090D01*
X2339238Y-4657852D01*
X2322118Y-4657852D01*
X2315819Y-4658563D01*
X2310333Y-4660493D01*
X2305456Y-4663541D01*
X2301341Y-4667656D01*
X2298293Y-4672533D01*
X2296363Y-4678019D01*
X2295652Y-4684318D01*
X2295652Y-4840681D01*
X2296363Y-4846980D01*
X2298293Y-4852466D01*
X2301341Y-4857343D01*
X2305456Y-4861458D01*
X2310333Y-4864506D01*
X2315819Y-4866436D01*
X2322118Y-4867148D01*
X2478481Y-4867148D01*
X2484780Y-4866436D01*
X2490266Y-4864506D01*
X2495143Y-4861458D01*
X2499258Y-4857343D01*
X2502306Y-4852466D01*
X2504236Y-4846980D01*
X2504948Y-4840681D01*
X2504948Y-4684318D01*
X2504236Y-4678019D01*
X2502306Y-4672533D01*
X2499258Y-4667656D01*
X2495143Y-4663541D01*
X2490266Y-4660493D01*
X2484780Y-4658563D01*
X2478481Y-4657852D01*
X2467610Y-4657852D01*
X2463749Y-4657090D01*
X2460447Y-4654854D01*
X2458212Y-4651603D01*
X2457450Y-4647692D01*
X2458212Y-4643780D01*
X2460447Y-4640529D01*
X2681528Y-4419447D01*
X2684678Y-4415993D01*
X2687370Y-4412488D01*
X2689758Y-4408728D01*
X2691790Y-4404766D01*
X2693517Y-4400702D01*
X2694838Y-4396435D01*
X2695803Y-4392117D01*
X2696362Y-4387697D01*
X2696565Y-4383074D01*
X2696565Y-3359454D01*
X2697530Y-3355136D01*
X2698648Y-3352800D01*
X2701188Y-3343300D01*
X2702052Y-3333496D01*
X2701188Y-3323691D01*
X2698648Y-3314192D01*
X2697530Y-3311855D01*
X2696565Y-3307537D01*
X2696565Y-2418537D01*
X2696362Y-2413863D01*
X2695803Y-2409494D01*
X2694838Y-2405126D01*
X2693517Y-2400909D01*
X2691790Y-2396794D01*
X2689758Y-2392883D01*
X2687320Y-2389124D01*
X2684678Y-2385618D01*
X2681478Y-2382164D01*
X2497531Y-2198420D01*
X2495296Y-2195118D01*
X2492705Y-2175052D01*
X2489149Y-2160778D01*
X2483815Y-2147011D01*
X2476804Y-2134006D01*
X2468270Y-2121966D01*
X2458364Y-2111044D01*
X2447137Y-2101443D01*
X2434844Y-2093315D01*
X2421636Y-2086711D01*
X2407716Y-2081784D01*
X2393289Y-2078634D01*
X2378608Y-2077313D01*
X2363825Y-2077720D01*
X2349246Y-2080006D01*
X2335072Y-2084070D01*
X2321458Y-2089810D01*
X2308707Y-2097176D01*
X2296922Y-2106066D01*
X2286304Y-2116328D01*
X2277059Y-2127859D01*
X2269286Y-2140407D01*
X2263140Y-2153818D01*
X2258669Y-2167839D01*
X2255926Y-2182368D01*
X2255012Y-2197100D01*
X2255926Y-2211832D01*
X2258669Y-2226360D01*
X2263140Y-2240381D01*
X2269286Y-2253792D01*
X2277059Y-2266340D01*
X2286304Y-2277872D01*
X2296922Y-2288133D01*
X2308707Y-2297023D01*
X2321458Y-2304389D01*
X2335072Y-2310130D01*
X2349246Y-2314194D01*
X2363825Y-2316480D01*
X2378608Y-2316937D01*
X2393289Y-2315565D01*
X2407716Y-2312416D01*
X2421636Y-2307488D01*
X2434844Y-2300884D01*
X2440686Y-2297023D01*
X2443835Y-2295652D01*
X2447290Y-2295398D01*
X2450642Y-2296312D01*
X2453487Y-2298293D01*
X2494381Y-2339187D01*
X2496667Y-2342642D01*
X2497378Y-2346706D01*
X2496413Y-2350668D01*
X2493975Y-2353970D01*
X2490419Y-2356053D01*
X2486304Y-2356510D01*
X2474112Y-2355443D01*
X2458262Y-2355900D01*
X2442565Y-2358237D01*
X2427274Y-2362403D01*
X2412593Y-2368346D01*
X2398725Y-2376017D01*
X2385822Y-2385263D01*
X2374138Y-2395982D01*
X2363774Y-2407970D01*
X2354884Y-2421128D01*
X2347671Y-2435250D01*
X2342134Y-2450134D01*
X2338425Y-2465527D01*
X2336546Y-2481275D01*
X2336546Y-2497124D01*
X2338425Y-2512872D01*
X2342134Y-2528265D01*
X2347671Y-2543149D01*
X2354884Y-2557272D01*
X2363774Y-2570429D01*
X2374138Y-2582418D01*
X2385822Y-2593136D01*
X2398725Y-2602382D01*
X2412898Y-2610154D01*
X2416251Y-2612339D01*
X2418435Y-2615641D01*
X2419248Y-2619552D01*
X2419248Y-3392779D01*
X2418486Y-3396691D01*
X2416251Y-3399942D01*
X2233777Y-3582466D01*
X2230475Y-3584651D01*
X2226564Y-3585413D01*
X2222703Y-3584651D01*
X2219401Y-3582466D01*
X2217216Y-3579114D01*
X2216454Y-3575253D01*
X2220925Y-2055520D01*
X2221687Y-2051659D01*
X2223922Y-2048357D01*
X2227224Y-2046173D01*
X2231136Y-2045411D01*
X7355331Y-2057857D01*
X7359243Y-2058670D01*
X7362545Y-2060854D01*
X7364730Y-2064156D01*
X7365492Y-2068017D01*
X7365492Y-4903470D01*
X7364730Y-4907330D01*
X7362494Y-4910632D01*
X7359192Y-4912817D01*
G37*

%LPC*%
G36*
X3416300Y-4867148D02*
G01*
X3429965Y-4866233D01*
X3443376Y-4863541D01*
X3456330Y-4859172D01*
X3468624Y-4853127D01*
X3480003Y-4845507D01*
X3490264Y-4836464D01*
X3499307Y-4826203D01*
X3506927Y-4814824D01*
X3512972Y-4802530D01*
X3517341Y-4789576D01*
X3520033Y-4776165D01*
X3520948Y-4762500D01*
X3520033Y-4748834D01*
X3517341Y-4735423D01*
X3512972Y-4722469D01*
X3506927Y-4710176D01*
X3499307Y-4698796D01*
X3490264Y-4688535D01*
X3480003Y-4679492D01*
X3468624Y-4671872D01*
X3456330Y-4665827D01*
X3443376Y-4661458D01*
X3429965Y-4658766D01*
X3416300Y-4657852D01*
X3402634Y-4658766D01*
X3389223Y-4661458D01*
X3376269Y-4665827D01*
X3363976Y-4671872D01*
X3352596Y-4679492D01*
X3342335Y-4688535D01*
X3333292Y-4698796D01*
X3325672Y-4710176D01*
X3319627Y-4722469D01*
X3315258Y-4735423D01*
X3312566Y-4748834D01*
X3311651Y-4762500D01*
X3312566Y-4776165D01*
X3315258Y-4789576D01*
X3319627Y-4802530D01*
X3325672Y-4814824D01*
X3333292Y-4826203D01*
X3342335Y-4836464D01*
X3352596Y-4845507D01*
X3363976Y-4853127D01*
X3376269Y-4859172D01*
X3389223Y-4863541D01*
X3402634Y-4866233D01*
G37*
G36*
X4940300Y-4867148D02*
G01*
X4953965Y-4866233D01*
X4967376Y-4863541D01*
X4980330Y-4859172D01*
X4992624Y-4853127D01*
X5004003Y-4845507D01*
X5014264Y-4836464D01*
X5023307Y-4826203D01*
X5030927Y-4814824D01*
X5036972Y-4802530D01*
X5041341Y-4789576D01*
X5044033Y-4776165D01*
X5044948Y-4762500D01*
X5044033Y-4748834D01*
X5041341Y-4735423D01*
X5036972Y-4722469D01*
X5030927Y-4710176D01*
X5023307Y-4698796D01*
X5014264Y-4688535D01*
X5004003Y-4679492D01*
X4992624Y-4671872D01*
X4980330Y-4665827D01*
X4967376Y-4661458D01*
X4953965Y-4658766D01*
X4940300Y-4657852D01*
X4926634Y-4658766D01*
X4913223Y-4661458D01*
X4900269Y-4665827D01*
X4887976Y-4671872D01*
X4876596Y-4679492D01*
X4866335Y-4688535D01*
X4857292Y-4698796D01*
X4849672Y-4710176D01*
X4843627Y-4722469D01*
X4839258Y-4735423D01*
X4836566Y-4748834D01*
X4835652Y-4762500D01*
X4836566Y-4776165D01*
X4839258Y-4789576D01*
X4843627Y-4802530D01*
X4849672Y-4814824D01*
X4857292Y-4826203D01*
X4866335Y-4836464D01*
X4876596Y-4845507D01*
X4887976Y-4853127D01*
X4900269Y-4859172D01*
X4913223Y-4863541D01*
X4926634Y-4866233D01*
G37*
G36*
X4178300Y-4867148D02*
G01*
X4191965Y-4866233D01*
X4205376Y-4863541D01*
X4218330Y-4859172D01*
X4230624Y-4853127D01*
X4242003Y-4845507D01*
X4252264Y-4836464D01*
X4261307Y-4826203D01*
X4268927Y-4814824D01*
X4274972Y-4802530D01*
X4279341Y-4789576D01*
X4282033Y-4776165D01*
X4282948Y-4762500D01*
X4282033Y-4748834D01*
X4279341Y-4735423D01*
X4274972Y-4722469D01*
X4268927Y-4710176D01*
X4261307Y-4698796D01*
X4252264Y-4688535D01*
X4242003Y-4679492D01*
X4230624Y-4671872D01*
X4218330Y-4665827D01*
X4205376Y-4661458D01*
X4191965Y-4658766D01*
X4178300Y-4657852D01*
X4164634Y-4658766D01*
X4151223Y-4661458D01*
X4138269Y-4665827D01*
X4125976Y-4671872D01*
X4114596Y-4679492D01*
X4104335Y-4688535D01*
X4095292Y-4698796D01*
X4087672Y-4710176D01*
X4081627Y-4722469D01*
X4077258Y-4735423D01*
X4074566Y-4748834D01*
X4073651Y-4762500D01*
X4074566Y-4776165D01*
X4077258Y-4789576D01*
X4081627Y-4802530D01*
X4087672Y-4814824D01*
X4095292Y-4826203D01*
X4104335Y-4836464D01*
X4114596Y-4845507D01*
X4125976Y-4853127D01*
X4138269Y-4859172D01*
X4151223Y-4863541D01*
X4164634Y-4866233D01*
G37*
G36*
X6718300Y-4867148D02*
G01*
X6731965Y-4866233D01*
X6745376Y-4863541D01*
X6758330Y-4859172D01*
X6770624Y-4853127D01*
X6782003Y-4845507D01*
X6792264Y-4836464D01*
X6801307Y-4826203D01*
X6808927Y-4814824D01*
X6814972Y-4802530D01*
X6819341Y-4789576D01*
X6822033Y-4776165D01*
X6822948Y-4762500D01*
X6822033Y-4748834D01*
X6819341Y-4735423D01*
X6814972Y-4722469D01*
X6808927Y-4710176D01*
X6801307Y-4698796D01*
X6792264Y-4688535D01*
X6782003Y-4679492D01*
X6770624Y-4671872D01*
X6758330Y-4665827D01*
X6745376Y-4661458D01*
X6731965Y-4658766D01*
X6718300Y-4657852D01*
X6704634Y-4658766D01*
X6691223Y-4661458D01*
X6678269Y-4665827D01*
X6665975Y-4671872D01*
X6654596Y-4679492D01*
X6644335Y-4688535D01*
X6635292Y-4698796D01*
X6627672Y-4710176D01*
X6621627Y-4722469D01*
X6617258Y-4735423D01*
X6614566Y-4748834D01*
X6613652Y-4762500D01*
X6614566Y-4776165D01*
X6617258Y-4789576D01*
X6621627Y-4802530D01*
X6627672Y-4814824D01*
X6635292Y-4826203D01*
X6644335Y-4836464D01*
X6654596Y-4845507D01*
X6665975Y-4853127D01*
X6678269Y-4859172D01*
X6691223Y-4863541D01*
X6704634Y-4866233D01*
G37*
G36*
X3924300Y-4867148D02*
G01*
X3937965Y-4866233D01*
X3951376Y-4863541D01*
X3964330Y-4859172D01*
X3976624Y-4853127D01*
X3988003Y-4845507D01*
X3998264Y-4836464D01*
X4007307Y-4826203D01*
X4014927Y-4814824D01*
X4020972Y-4802530D01*
X4025341Y-4789576D01*
X4028033Y-4776165D01*
X4028948Y-4762500D01*
X4028033Y-4748834D01*
X4025341Y-4735423D01*
X4020972Y-4722469D01*
X4014927Y-4710176D01*
X4007307Y-4698796D01*
X3998264Y-4688535D01*
X3988003Y-4679492D01*
X3976624Y-4671872D01*
X3964330Y-4665827D01*
X3951376Y-4661458D01*
X3937965Y-4658766D01*
X3924300Y-4657852D01*
X3910634Y-4658766D01*
X3897223Y-4661458D01*
X3884269Y-4665827D01*
X3871976Y-4671872D01*
X3860596Y-4679492D01*
X3850335Y-4688535D01*
X3841292Y-4698796D01*
X3833672Y-4710176D01*
X3827627Y-4722469D01*
X3823258Y-4735423D01*
X3820566Y-4748834D01*
X3819651Y-4762500D01*
X3820566Y-4776165D01*
X3823258Y-4789576D01*
X3827627Y-4802530D01*
X3833672Y-4814824D01*
X3841292Y-4826203D01*
X3850335Y-4836464D01*
X3860596Y-4845507D01*
X3871976Y-4853127D01*
X3884269Y-4859172D01*
X3897223Y-4863541D01*
X3910634Y-4866233D01*
G37*
G36*
X5956300Y-4867148D02*
G01*
X5969965Y-4866233D01*
X5983376Y-4863541D01*
X5996330Y-4859172D01*
X6008624Y-4853127D01*
X6020003Y-4845507D01*
X6030264Y-4836464D01*
X6039307Y-4826203D01*
X6046927Y-4814824D01*
X6052972Y-4802530D01*
X6057341Y-4789576D01*
X6060033Y-4776165D01*
X6060948Y-4762500D01*
X6060033Y-4748834D01*
X6057341Y-4735423D01*
X6052972Y-4722469D01*
X6046927Y-4710176D01*
X6039307Y-4698796D01*
X6030264Y-4688535D01*
X6020003Y-4679492D01*
X6008624Y-4671872D01*
X5996330Y-4665827D01*
X5983376Y-4661458D01*
X5969965Y-4658766D01*
X5956300Y-4657852D01*
X5942634Y-4658766D01*
X5929223Y-4661458D01*
X5916269Y-4665827D01*
X5903976Y-4671872D01*
X5892596Y-4679492D01*
X5882335Y-4688535D01*
X5873292Y-4698796D01*
X5865672Y-4710176D01*
X5859627Y-4722469D01*
X5855258Y-4735423D01*
X5852566Y-4748834D01*
X5851652Y-4762500D01*
X5852566Y-4776165D01*
X5855258Y-4789576D01*
X5859627Y-4802530D01*
X5865672Y-4814824D01*
X5873292Y-4826203D01*
X5882335Y-4836464D01*
X5892596Y-4845507D01*
X5903976Y-4853127D01*
X5916269Y-4859172D01*
X5929223Y-4863541D01*
X5942634Y-4866233D01*
G37*
G36*
X3670300Y-4867148D02*
G01*
X3683965Y-4866233D01*
X3697376Y-4863541D01*
X3710330Y-4859172D01*
X3722624Y-4853127D01*
X3734003Y-4845507D01*
X3744264Y-4836464D01*
X3753307Y-4826203D01*
X3760927Y-4814824D01*
X3766972Y-4802530D01*
X3771341Y-4789576D01*
X3774033Y-4776165D01*
X3774948Y-4762500D01*
X3774033Y-4748834D01*
X3771341Y-4735423D01*
X3766972Y-4722469D01*
X3760927Y-4710176D01*
X3753307Y-4698796D01*
X3744264Y-4688535D01*
X3734003Y-4679492D01*
X3722624Y-4671872D01*
X3710330Y-4665827D01*
X3697376Y-4661458D01*
X3683965Y-4658766D01*
X3670300Y-4657852D01*
X3656634Y-4658766D01*
X3643223Y-4661458D01*
X3630269Y-4665827D01*
X3617976Y-4671872D01*
X3606596Y-4679492D01*
X3596335Y-4688535D01*
X3587292Y-4698796D01*
X3579672Y-4710176D01*
X3573627Y-4722469D01*
X3569258Y-4735423D01*
X3566566Y-4748834D01*
X3565651Y-4762500D01*
X3566566Y-4776165D01*
X3569258Y-4789576D01*
X3573627Y-4802530D01*
X3579672Y-4814824D01*
X3587292Y-4826203D01*
X3596335Y-4836464D01*
X3606596Y-4845507D01*
X3617976Y-4853127D01*
X3630269Y-4859172D01*
X3643223Y-4863541D01*
X3656634Y-4866233D01*
G37*
G36*
X6210300Y-4867148D02*
G01*
X6223965Y-4866233D01*
X6237376Y-4863541D01*
X6250330Y-4859172D01*
X6262624Y-4853127D01*
X6274003Y-4845507D01*
X6284264Y-4836464D01*
X6293307Y-4826203D01*
X6300927Y-4814824D01*
X6306972Y-4802530D01*
X6311341Y-4789576D01*
X6314033Y-4776165D01*
X6314948Y-4762500D01*
X6314033Y-4748834D01*
X6311341Y-4735423D01*
X6306972Y-4722469D01*
X6300927Y-4710176D01*
X6293307Y-4698796D01*
X6284264Y-4688535D01*
X6274003Y-4679492D01*
X6262624Y-4671872D01*
X6250330Y-4665827D01*
X6237376Y-4661458D01*
X6223965Y-4658766D01*
X6210300Y-4657852D01*
X6196634Y-4658766D01*
X6183223Y-4661458D01*
X6170269Y-4665827D01*
X6157976Y-4671872D01*
X6146596Y-4679492D01*
X6136335Y-4688535D01*
X6127292Y-4698796D01*
X6119672Y-4710176D01*
X6113627Y-4722469D01*
X6109258Y-4735423D01*
X6106566Y-4748834D01*
X6105652Y-4762500D01*
X6106566Y-4776165D01*
X6109258Y-4789576D01*
X6113627Y-4802530D01*
X6119672Y-4814824D01*
X6127292Y-4826203D01*
X6136335Y-4836464D01*
X6146596Y-4845507D01*
X6157976Y-4853127D01*
X6170269Y-4859172D01*
X6183223Y-4863541D01*
X6196634Y-4866233D01*
G37*
G36*
X4432300Y-4867148D02*
G01*
X4445965Y-4866233D01*
X4459376Y-4863541D01*
X4472330Y-4859172D01*
X4484624Y-4853127D01*
X4496003Y-4845507D01*
X4506264Y-4836464D01*
X4515307Y-4826203D01*
X4522927Y-4814824D01*
X4528972Y-4802530D01*
X4533341Y-4789576D01*
X4536033Y-4776165D01*
X4536948Y-4762500D01*
X4536033Y-4748834D01*
X4533341Y-4735423D01*
X4528972Y-4722469D01*
X4522927Y-4710176D01*
X4515307Y-4698796D01*
X4506264Y-4688535D01*
X4503013Y-4685639D01*
X4500575Y-4682439D01*
X4499559Y-4678476D01*
X4500219Y-4674463D01*
X4502404Y-4671009D01*
X4505756Y-4668672D01*
X4509719Y-4667859D01*
X4515459Y-4667859D01*
X4519371Y-4668621D01*
X4522622Y-4670856D01*
X4581753Y-4729937D01*
X4583633Y-4732629D01*
X4584598Y-4735779D01*
X4584496Y-4739081D01*
X4582566Y-4748834D01*
X4581652Y-4762500D01*
X4582566Y-4776165D01*
X4585258Y-4789576D01*
X4589627Y-4802530D01*
X4595672Y-4814824D01*
X4603292Y-4826203D01*
X4612335Y-4836464D01*
X4622596Y-4845507D01*
X4633976Y-4853127D01*
X4646269Y-4859172D01*
X4659223Y-4863541D01*
X4672634Y-4866233D01*
X4686300Y-4867148D01*
X4699965Y-4866233D01*
X4713376Y-4863541D01*
X4726330Y-4859172D01*
X4738624Y-4853127D01*
X4750003Y-4845507D01*
X4760264Y-4836464D01*
X4769307Y-4826203D01*
X4776927Y-4814824D01*
X4782972Y-4802530D01*
X4787341Y-4789576D01*
X4790033Y-4776165D01*
X4790948Y-4762500D01*
X4790033Y-4748834D01*
X4787341Y-4735423D01*
X4782972Y-4722469D01*
X4776927Y-4710176D01*
X4769307Y-4698796D01*
X4760264Y-4688535D01*
X4750003Y-4679492D01*
X4738624Y-4671872D01*
X4726330Y-4665827D01*
X4713376Y-4661458D01*
X4699965Y-4658766D01*
X4686300Y-4657852D01*
X4672634Y-4658766D01*
X4662881Y-4660696D01*
X4659579Y-4660798D01*
X4656429Y-4659833D01*
X4653737Y-4657953D01*
X4600498Y-4604715D01*
X4598263Y-4601413D01*
X4597501Y-4597501D01*
X4598263Y-4593640D01*
X4600498Y-4590338D01*
X4603800Y-4588103D01*
X4607661Y-4587341D01*
X4703368Y-4587341D01*
X4707991Y-4587138D01*
X4712411Y-4586579D01*
X4716729Y-4585614D01*
X4720996Y-4584242D01*
X4725060Y-4582566D01*
X4729022Y-4580534D01*
X4732731Y-4578146D01*
X4736287Y-4575403D01*
X4739690Y-4572304D01*
X5021072Y-4291177D01*
X5024272Y-4287723D01*
X5026914Y-4284218D01*
X5029352Y-4280458D01*
X5031384Y-4276547D01*
X5033111Y-4272432D01*
X5034432Y-4268216D01*
X5035397Y-4263847D01*
X5035956Y-4259478D01*
X5036159Y-4254804D01*
X5036159Y-4178604D01*
X5037124Y-4174286D01*
X5038242Y-4171950D01*
X5040782Y-4162450D01*
X5041950Y-4157218D01*
X5044287Y-4154170D01*
X5047538Y-4152239D01*
X5051298Y-4151629D01*
X5055057Y-4152442D01*
X5058206Y-4154576D01*
X5286095Y-4382465D01*
X5288330Y-4385919D01*
X5289042Y-4389932D01*
X5288127Y-4393946D01*
X5287365Y-4395470D01*
X5284825Y-4404969D01*
X5283962Y-4414774D01*
X5284825Y-4424578D01*
X5287365Y-4434078D01*
X5291531Y-4442968D01*
X5297170Y-4450994D01*
X5304129Y-4457954D01*
X5312156Y-4463592D01*
X5321046Y-4467758D01*
X5330545Y-4470298D01*
X5340350Y-4471162D01*
X5350154Y-4470298D01*
X5359654Y-4467758D01*
X5368544Y-4463592D01*
X5376570Y-4457954D01*
X5383530Y-4450994D01*
X5389168Y-4442968D01*
X5393334Y-4434078D01*
X5395874Y-4424578D01*
X5396738Y-4414774D01*
X5395874Y-4404969D01*
X5393334Y-4395470D01*
X5392216Y-4393133D01*
X5391251Y-4388815D01*
X5391251Y-4364939D01*
X5391048Y-4360316D01*
X5390489Y-4355896D01*
X5389524Y-4351578D01*
X5388203Y-4347311D01*
X5386476Y-4343247D01*
X5384444Y-4339285D01*
X5382056Y-4335526D01*
X5379364Y-4332020D01*
X5376214Y-4328566D01*
X5067655Y-4020007D01*
X5064201Y-4016857D01*
X5060696Y-4014165D01*
X5056936Y-4011777D01*
X5052974Y-4009745D01*
X5048910Y-4008018D01*
X5044643Y-4006697D01*
X5040325Y-4005732D01*
X5035905Y-4005173D01*
X5031282Y-4004970D01*
X4930343Y-4004970D01*
X4925974Y-4005122D01*
X4921300Y-4005732D01*
X4917236Y-4006646D01*
X4912715Y-4008069D01*
X4908905Y-4009644D01*
X4904689Y-4011828D01*
X4901184Y-4014012D01*
X4897424Y-4016908D01*
X4889855Y-4024122D01*
X4886452Y-4026357D01*
X4882438Y-4027068D01*
X4878476Y-4026154D01*
X4875174Y-4023766D01*
X4869891Y-4014927D01*
X4865776Y-4010812D01*
X4860899Y-4007713D01*
X4855413Y-4005834D01*
X4849114Y-4005122D01*
X4650232Y-4005122D01*
X4643932Y-4005834D01*
X4638446Y-4007713D01*
X4633569Y-4010812D01*
X4629454Y-4014927D01*
X4626406Y-4019804D01*
X4624476Y-4025290D01*
X4623765Y-4031589D01*
X4623765Y-4130446D01*
X4624476Y-4136745D01*
X4626406Y-4142232D01*
X4629454Y-4147108D01*
X4633569Y-4151223D01*
X4638446Y-4154322D01*
X4643932Y-4156201D01*
X4650232Y-4156913D01*
X4849114Y-4156913D01*
X4855413Y-4156201D01*
X4860899Y-4154322D01*
X4865776Y-4151223D01*
X4869891Y-4147108D01*
X4872939Y-4142232D01*
X4874158Y-4138726D01*
X4876342Y-4135170D01*
X4879695Y-4132783D01*
X4883759Y-4131919D01*
X4908905Y-4131767D01*
X4913579Y-4131157D01*
X4917795Y-4130243D01*
X4921910Y-4130192D01*
X4925720Y-4131767D01*
X4928565Y-4134764D01*
X4929987Y-4138676D01*
X4928870Y-4152646D01*
X4929733Y-4162450D01*
X4932273Y-4171950D01*
X4933391Y-4174286D01*
X4934356Y-4178604D01*
X4934356Y-4229709D01*
X4933594Y-4233570D01*
X4931359Y-4236872D01*
X4685487Y-4482541D01*
X4682185Y-4484776D01*
X4678273Y-4485538D01*
X4636211Y-4485538D01*
X4632350Y-4484776D01*
X4629048Y-4482541D01*
X4626813Y-4479239D01*
X4626051Y-4475378D01*
X4626051Y-4437583D01*
X4581499Y-4437583D01*
X4581499Y-4475378D01*
X4580737Y-4479239D01*
X4578553Y-4482541D01*
X4575251Y-4484776D01*
X4571339Y-4485538D01*
X4528972Y-4485538D01*
X4525060Y-4484776D01*
X4521758Y-4482541D01*
X4519574Y-4479239D01*
X4518812Y-4475378D01*
X4518812Y-4437583D01*
X4474260Y-4437583D01*
X4474260Y-4475378D01*
X4473498Y-4479239D01*
X4471263Y-4482541D01*
X4467961Y-4484776D01*
X4464100Y-4485538D01*
X4435805Y-4485538D01*
X4431944Y-4484776D01*
X4428642Y-4482541D01*
X4426407Y-4479239D01*
X4425645Y-4475378D01*
X4425645Y-4281932D01*
X4424934Y-4275632D01*
X4423054Y-4270146D01*
X4419955Y-4265269D01*
X4415840Y-4261154D01*
X4410964Y-4258106D01*
X4405477Y-4256176D01*
X4399178Y-4255465D01*
X4300321Y-4255465D01*
X4294022Y-4256176D01*
X4288536Y-4258106D01*
X4283659Y-4261154D01*
X4279544Y-4265269D01*
X4276445Y-4270146D01*
X4274566Y-4275632D01*
X4273854Y-4281932D01*
X4273854Y-4480814D01*
X4274566Y-4487113D01*
X4276445Y-4492599D01*
X4279544Y-4497476D01*
X4283659Y-4501591D01*
X4288536Y-4504639D01*
X4292041Y-4505858D01*
X4295597Y-4508042D01*
X4297984Y-4511395D01*
X4298848Y-4515459D01*
X4298848Y-4517898D01*
X4298035Y-4521860D01*
X4295749Y-4525213D01*
X4292346Y-4527397D01*
X4288332Y-4528058D01*
X4273956Y-4524095D01*
X4264152Y-4523232D01*
X4254347Y-4524095D01*
X4244848Y-4526635D01*
X4235958Y-4530801D01*
X4227931Y-4536440D01*
X4220972Y-4543399D01*
X4215333Y-4551426D01*
X4211167Y-4560316D01*
X4208627Y-4569815D01*
X4207764Y-4579620D01*
X4208627Y-4589424D01*
X4211167Y-4598924D01*
X4215333Y-4607814D01*
X4220972Y-4615840D01*
X4227931Y-4622800D01*
X4235958Y-4628438D01*
X4243730Y-4632045D01*
X4246626Y-4634077D01*
X4265320Y-4652822D01*
X4268774Y-4655972D01*
X4272280Y-4658664D01*
X4276039Y-4661052D01*
X4280001Y-4663084D01*
X4284065Y-4664811D01*
X4288332Y-4666132D01*
X4292650Y-4667097D01*
X4297070Y-4667656D01*
X4301693Y-4667859D01*
X4354880Y-4667859D01*
X4358843Y-4668672D01*
X4362196Y-4671009D01*
X4364380Y-4674463D01*
X4365040Y-4678476D01*
X4364024Y-4682439D01*
X4361586Y-4685639D01*
X4358335Y-4688535D01*
X4349292Y-4698796D01*
X4341672Y-4710176D01*
X4335627Y-4722469D01*
X4331258Y-4735423D01*
X4328566Y-4748834D01*
X4327652Y-4762500D01*
X4328566Y-4776165D01*
X4331258Y-4789576D01*
X4335627Y-4802530D01*
X4341672Y-4814824D01*
X4349292Y-4826203D01*
X4358335Y-4836464D01*
X4368596Y-4845507D01*
X4379976Y-4853127D01*
X4392269Y-4859172D01*
X4405223Y-4863541D01*
X4418634Y-4866233D01*
G37*
G36*
X2908300Y-4867148D02*
G01*
X2921965Y-4866233D01*
X2935376Y-4863541D01*
X2948330Y-4859172D01*
X2960624Y-4853127D01*
X2972003Y-4845507D01*
X2982264Y-4836464D01*
X2991307Y-4826203D01*
X2998927Y-4814824D01*
X3004972Y-4802530D01*
X3009341Y-4789576D01*
X3012033Y-4776165D01*
X3012948Y-4762500D01*
X3012033Y-4748834D01*
X3009341Y-4735423D01*
X3004972Y-4722469D01*
X2998927Y-4710176D01*
X2991307Y-4698796D01*
X2982264Y-4688535D01*
X2972003Y-4679492D01*
X2963722Y-4673955D01*
X2961284Y-4671720D01*
X2959760Y-4668774D01*
X2959201Y-4665522D01*
X2959201Y-4383176D01*
X2959963Y-4379264D01*
X2962198Y-4376013D01*
X2966110Y-4372051D01*
X2969361Y-4369866D01*
X2973120Y-4369054D01*
X2976981Y-4369714D01*
X2980232Y-4371797D01*
X2982518Y-4374946D01*
X2985465Y-4381246D01*
X2991104Y-4389272D01*
X2998063Y-4396232D01*
X3006090Y-4401870D01*
X3013862Y-4405477D01*
X3016758Y-4407509D01*
X3026562Y-4417364D01*
X3030016Y-4420514D01*
X3033522Y-4423206D01*
X3037281Y-4425594D01*
X3041243Y-4427626D01*
X3045307Y-4429353D01*
X3049574Y-4430674D01*
X3053892Y-4431639D01*
X3058261Y-4432198D01*
X3064154Y-4432401D01*
X3067913Y-4433316D01*
X3071114Y-4435500D01*
X3073196Y-4438751D01*
X3073958Y-4442561D01*
X3073958Y-4480915D01*
X3074670Y-4487265D01*
X3076549Y-4492701D01*
X3079648Y-4497628D01*
X3083763Y-4501692D01*
X3088640Y-4504791D01*
X3094126Y-4506671D01*
X3100425Y-4507433D01*
X3195421Y-4507433D01*
X3199536Y-4508296D01*
X3202940Y-4510735D01*
X3205073Y-4514342D01*
X3205530Y-4518507D01*
X3204464Y-4529632D01*
X3205327Y-4539386D01*
X3207867Y-4548886D01*
X3212033Y-4557776D01*
X3217672Y-4565802D01*
X3224631Y-4572762D01*
X3232658Y-4578400D01*
X3241548Y-4582566D01*
X3247186Y-4584039D01*
X3250946Y-4585970D01*
X3253638Y-4589272D01*
X3254705Y-4593336D01*
X3254044Y-4597501D01*
X3251758Y-4601057D01*
X3194862Y-4657953D01*
X3192170Y-4659833D01*
X3189020Y-4660798D01*
X3185718Y-4660696D01*
X3175965Y-4658766D01*
X3162300Y-4657852D01*
X3148634Y-4658766D01*
X3135223Y-4661458D01*
X3122269Y-4665827D01*
X3109976Y-4671872D01*
X3098596Y-4679492D01*
X3088335Y-4688535D01*
X3079292Y-4698796D01*
X3071672Y-4710176D01*
X3065627Y-4722469D01*
X3061258Y-4735423D01*
X3058566Y-4748834D01*
X3057652Y-4762500D01*
X3058566Y-4776165D01*
X3061258Y-4789576D01*
X3065627Y-4802530D01*
X3071672Y-4814824D01*
X3079292Y-4826203D01*
X3088335Y-4836464D01*
X3098596Y-4845507D01*
X3109976Y-4853127D01*
X3122269Y-4859172D01*
X3135223Y-4863541D01*
X3148634Y-4866233D01*
X3162300Y-4867148D01*
X3175965Y-4866233D01*
X3189376Y-4863541D01*
X3202330Y-4859172D01*
X3214624Y-4853127D01*
X3226003Y-4845507D01*
X3236264Y-4836464D01*
X3245307Y-4826203D01*
X3252927Y-4814824D01*
X3258972Y-4802530D01*
X3263341Y-4789576D01*
X3266033Y-4776165D01*
X3266948Y-4762500D01*
X3266033Y-4748834D01*
X3264103Y-4739081D01*
X3264001Y-4735779D01*
X3264966Y-4732629D01*
X3266846Y-4729937D01*
X3406241Y-4590592D01*
X3409492Y-4588357D01*
X3413404Y-4587595D01*
X3549446Y-4587595D01*
X3558743Y-4586782D01*
X3567277Y-4584496D01*
X3575354Y-4580737D01*
X3582619Y-4575657D01*
X3588867Y-4569409D01*
X3593947Y-4562144D01*
X3597706Y-4554067D01*
X3599992Y-4545533D01*
X3600805Y-4536236D01*
X3600805Y-4515612D01*
X3601669Y-4511548D01*
X3604056Y-4508144D01*
X3607612Y-4506010D01*
X3611118Y-4504791D01*
X3615994Y-4501692D01*
X3620109Y-4497628D01*
X3623208Y-4492701D01*
X3625087Y-4487265D01*
X3625799Y-4480915D01*
X3625799Y-4287367D01*
X3626561Y-4283506D01*
X3628796Y-4280204D01*
X3632098Y-4277969D01*
X3635959Y-4277207D01*
X3663848Y-4277207D01*
X3667760Y-4277969D01*
X3671062Y-4280204D01*
X3673246Y-4283506D01*
X3674008Y-4287367D01*
X3674008Y-4480814D01*
X3674719Y-4487113D01*
X3676650Y-4492599D01*
X3679748Y-4497476D01*
X3683812Y-4501591D01*
X3688740Y-4504639D01*
X3694176Y-4506569D01*
X3700475Y-4507280D01*
X3799382Y-4507280D01*
X3805682Y-4506569D01*
X3811117Y-4504639D01*
X3816045Y-4501591D01*
X3820109Y-4497476D01*
X3823208Y-4492599D01*
X3825138Y-4487113D01*
X3825849Y-4480814D01*
X3825849Y-4289399D01*
X3826510Y-4285742D01*
X3828440Y-4282592D01*
X3831386Y-4280357D01*
X3834942Y-4279290D01*
X3838651Y-4279595D01*
X3846931Y-4281830D01*
X3856736Y-4282694D01*
X3862984Y-4282135D01*
X3867150Y-4282643D01*
X3870756Y-4284776D01*
X3873195Y-4288180D01*
X3874058Y-4292244D01*
X3874058Y-4480915D01*
X3874770Y-4487265D01*
X3876649Y-4492701D01*
X3879748Y-4497628D01*
X3883863Y-4501692D01*
X3888740Y-4504791D01*
X3894226Y-4506671D01*
X3900525Y-4507433D01*
X3999382Y-4507433D01*
X4005681Y-4506671D01*
X4011168Y-4504791D01*
X4016044Y-4501692D01*
X4020159Y-4497628D01*
X4023258Y-4492701D01*
X4025137Y-4487265D01*
X4025849Y-4480915D01*
X4025849Y-4282084D01*
X4025137Y-4275734D01*
X4023258Y-4270298D01*
X4020159Y-4265371D01*
X4016044Y-4261307D01*
X4011168Y-4258208D01*
X4007662Y-4256989D01*
X4004106Y-4254855D01*
X4001719Y-4251452D01*
X4000855Y-4247388D01*
X4000855Y-4044594D01*
X4001617Y-4040682D01*
X4003852Y-4037431D01*
X4081830Y-3959402D01*
X4085132Y-3957167D01*
X4089044Y-3956405D01*
X4092905Y-3957167D01*
X4096207Y-3959402D01*
X4098442Y-3962704D01*
X4099204Y-3966565D01*
X4099204Y-4247489D01*
X4098340Y-4251553D01*
X4095953Y-4254906D01*
X4092397Y-4257090D01*
X4088790Y-4258360D01*
X4083862Y-4261408D01*
X4079798Y-4265523D01*
X4076700Y-4270400D01*
X4074769Y-4275886D01*
X4074058Y-4282186D01*
X4074058Y-4481068D01*
X4074769Y-4487367D01*
X4076700Y-4492853D01*
X4079798Y-4497730D01*
X4083862Y-4501845D01*
X4088790Y-4504893D01*
X4094226Y-4506823D01*
X4100525Y-4507534D01*
X4199432Y-4507534D01*
X4205732Y-4506823D01*
X4211167Y-4504893D01*
X4216095Y-4501845D01*
X4220159Y-4497730D01*
X4223258Y-4492853D01*
X4225188Y-4487367D01*
X4225899Y-4481068D01*
X4225899Y-4282186D01*
X4225188Y-4275886D01*
X4223258Y-4270400D01*
X4220159Y-4265523D01*
X4216095Y-4261408D01*
X4211167Y-4258360D01*
X4207814Y-4257141D01*
X4204258Y-4255008D01*
X4201871Y-4251655D01*
X4201007Y-4247591D01*
X4201007Y-3957980D01*
X4201769Y-3954068D01*
X4204004Y-3950817D01*
X4354169Y-3800601D01*
X4357370Y-3798468D01*
X4361180Y-3797655D01*
X4364990Y-3798315D01*
X4368292Y-3800398D01*
X4370578Y-3803497D01*
X4373575Y-3810000D01*
X4379214Y-3818026D01*
X4386173Y-3824986D01*
X4394200Y-3830624D01*
X4403090Y-3834790D01*
X4412589Y-3837330D01*
X4422394Y-3838194D01*
X4432198Y-3837330D01*
X4441698Y-3834790D01*
X4444034Y-3833672D01*
X4448352Y-3832707D01*
X4493818Y-3832707D01*
X4498441Y-3832504D01*
X4502861Y-3831945D01*
X4507179Y-3830980D01*
X4511446Y-3829659D01*
X4515510Y-3827932D01*
X4519472Y-3825900D01*
X4523232Y-3823512D01*
X4526737Y-3820820D01*
X4530191Y-3817670D01*
X4609490Y-3738321D01*
X4612894Y-3736086D01*
X4616907Y-3735324D01*
X4620920Y-3736238D01*
X4624171Y-3738626D01*
X4629454Y-3747312D01*
X4633569Y-3751427D01*
X4638446Y-3754526D01*
X4643932Y-3756406D01*
X4650232Y-3757117D01*
X4849114Y-3757117D01*
X4853635Y-3757523D01*
X4857292Y-3759606D01*
X4859782Y-3763060D01*
X4860696Y-3767175D01*
X4860696Y-3795166D01*
X4859782Y-3799281D01*
X4857292Y-3802735D01*
X4853635Y-3804818D01*
X4849114Y-3805224D01*
X4650232Y-3805224D01*
X4643932Y-3805936D01*
X4638446Y-3807815D01*
X4633569Y-3810914D01*
X4629454Y-3815029D01*
X4626406Y-3819906D01*
X4624476Y-3825392D01*
X4623765Y-3831691D01*
X4623765Y-3930548D01*
X4624476Y-3936847D01*
X4626406Y-3942334D01*
X4629454Y-3947210D01*
X4633569Y-3951325D01*
X4638446Y-3954424D01*
X4643932Y-3956304D01*
X4650232Y-3957015D01*
X4849114Y-3957015D01*
X4855413Y-3956304D01*
X4860899Y-3954424D01*
X4865776Y-3951325D01*
X4869891Y-3947210D01*
X4872939Y-3942334D01*
X4874158Y-3938828D01*
X4876342Y-3935272D01*
X4879695Y-3932885D01*
X4883759Y-3932021D01*
X4908143Y-3931920D01*
X4913680Y-3931208D01*
X4916881Y-3930548D01*
X4922215Y-3928922D01*
X4925314Y-3927703D01*
X4930292Y-3925163D01*
X4933086Y-3923385D01*
X4937506Y-3920032D01*
X4946700Y-3911396D01*
X4950663Y-3907180D01*
X4952695Y-3904589D01*
X4955743Y-3899865D01*
X4957267Y-3896969D01*
X4959451Y-3891838D01*
X4960467Y-3888689D01*
X4961737Y-3883253D01*
X4962194Y-3880002D01*
X4962499Y-3870401D01*
X4963363Y-3866337D01*
X4965801Y-3862933D01*
X4969357Y-3860800D01*
X4973472Y-3860292D01*
X4977485Y-3861460D01*
X4980686Y-3864152D01*
X4984597Y-3869131D01*
X4995468Y-3880002D01*
X5007559Y-3889501D01*
X5020767Y-3897477D01*
X5034788Y-3903827D01*
X5049469Y-3908399D01*
X5064607Y-3911142D01*
X5080000Y-3912108D01*
X5095392Y-3911142D01*
X5110530Y-3908399D01*
X5125212Y-3903827D01*
X5139232Y-3897477D01*
X5152440Y-3889501D01*
X5164531Y-3880002D01*
X5175402Y-3869131D01*
X5184902Y-3857040D01*
X5192877Y-3843832D01*
X5199227Y-3829812D01*
X5203799Y-3815130D01*
X5206542Y-3799992D01*
X5207508Y-3784600D01*
X5206542Y-3769207D01*
X5203799Y-3754069D01*
X5199227Y-3739387D01*
X5192877Y-3725367D01*
X5184902Y-3712159D01*
X5175402Y-3700068D01*
X5164531Y-3689197D01*
X5152440Y-3679698D01*
X5139232Y-3671722D01*
X5125212Y-3665372D01*
X5110530Y-3660800D01*
X5095392Y-3658057D01*
X5080000Y-3657092D01*
X5064607Y-3658057D01*
X5049469Y-3660800D01*
X5034788Y-3665372D01*
X5020767Y-3671722D01*
X5007559Y-3679698D01*
X4995468Y-3689197D01*
X4984597Y-3700068D01*
X4980686Y-3705047D01*
X4977485Y-3707739D01*
X4973472Y-3708908D01*
X4969357Y-3708400D01*
X4965801Y-3706266D01*
X4963363Y-3702862D01*
X4962499Y-3698798D01*
X4962499Y-3568852D01*
X4963312Y-3564839D01*
X4965649Y-3561486D01*
X4969154Y-3559301D01*
X4973167Y-3558692D01*
X4977130Y-3559708D01*
X4992166Y-3573170D01*
X5004206Y-3581704D01*
X5013960Y-3586937D01*
X5013960Y-3533140D01*
X4973624Y-3533140D01*
X4969662Y-3532327D01*
X4966309Y-3530041D01*
X4964125Y-3526637D01*
X4963464Y-3522624D01*
X4967122Y-3508908D01*
X4967986Y-3499104D01*
X4967122Y-3489299D01*
X4964582Y-3479800D01*
X4960416Y-3470910D01*
X4954778Y-3462883D01*
X4947818Y-3455924D01*
X4939792Y-3450285D01*
X4930902Y-3446119D01*
X4921402Y-3443579D01*
X4911598Y-3442715D01*
X4901793Y-3443579D01*
X4892294Y-3446119D01*
X4890058Y-3447186D01*
X4886096Y-3448151D01*
X4882083Y-3447491D01*
X4878679Y-3445306D01*
X4876393Y-3441954D01*
X4875580Y-3437991D01*
X4875580Y-3431641D01*
X4874869Y-3425342D01*
X4872939Y-3419856D01*
X4869891Y-3414979D01*
X4865776Y-3410864D01*
X4860899Y-3407765D01*
X4855413Y-3405886D01*
X4849114Y-3405174D01*
X4652111Y-3405174D01*
X4648250Y-3404412D01*
X4644948Y-3402177D01*
X4642713Y-3398875D01*
X4641951Y-3395014D01*
X4641951Y-3367227D01*
X4642713Y-3363366D01*
X4644948Y-3360064D01*
X4648250Y-3357829D01*
X4652111Y-3357067D01*
X4849114Y-3357067D01*
X4855413Y-3356356D01*
X4860899Y-3354476D01*
X4865776Y-3351377D01*
X4869891Y-3347262D01*
X4872939Y-3342386D01*
X4874158Y-3338880D01*
X4876342Y-3335324D01*
X4879695Y-3332937D01*
X4883759Y-3332073D01*
X4920081Y-3332073D01*
X4923993Y-3332835D01*
X4927244Y-3335070D01*
X4940452Y-3348228D01*
X4942484Y-3351123D01*
X4946091Y-3358896D01*
X4951730Y-3366922D01*
X4958689Y-3373882D01*
X4966716Y-3379520D01*
X4975250Y-3383483D01*
X4978349Y-3385769D01*
X4980432Y-3389020D01*
X4981092Y-3392779D01*
X4980330Y-3396538D01*
X4978247Y-3399790D01*
X4976266Y-3401822D01*
X4967376Y-3413607D01*
X4959959Y-3426460D01*
X5013960Y-3426460D01*
X5013960Y-3390239D01*
X5014671Y-3386480D01*
X5016754Y-3383279D01*
X5019802Y-3381044D01*
X5023104Y-3379520D01*
X5031130Y-3373882D01*
X5038090Y-3366922D01*
X5043728Y-3358896D01*
X5047894Y-3350006D01*
X5050434Y-3340506D01*
X5051298Y-3330701D01*
X5050739Y-3324453D01*
X5051196Y-3320389D01*
X5053279Y-3316833D01*
X5056581Y-3314395D01*
X5060543Y-3313429D01*
X5064607Y-3314141D01*
X5068062Y-3316427D01*
X5117642Y-3366008D01*
X5119878Y-3369310D01*
X5120640Y-3373170D01*
X5120640Y-3426460D01*
X5157876Y-3426460D01*
X5161737Y-3427222D01*
X5165039Y-3429457D01*
X5167274Y-3432708D01*
X5168036Y-3436620D01*
X5168036Y-3522979D01*
X5167274Y-3526891D01*
X5165039Y-3530142D01*
X5161737Y-3532378D01*
X5157876Y-3533140D01*
X5120640Y-3533140D01*
X5120640Y-3586937D01*
X5130393Y-3581704D01*
X5142433Y-3573170D01*
X5151018Y-3565347D01*
X5154371Y-3563365D01*
X5158181Y-3562705D01*
X5161991Y-3563569D01*
X5165140Y-3565804D01*
X5167274Y-3569055D01*
X5168036Y-3572865D01*
X5168036Y-3582466D01*
X5168239Y-3587089D01*
X5168798Y-3591509D01*
X5169763Y-3595827D01*
X5171084Y-3600094D01*
X5172811Y-3604158D01*
X5174843Y-3608120D01*
X5177231Y-3611879D01*
X5179923Y-3615385D01*
X5183073Y-3618839D01*
X5468772Y-3904487D01*
X5471007Y-3907790D01*
X5471769Y-3911701D01*
X5471769Y-3953256D01*
X5513324Y-3953256D01*
X5517184Y-3954018D01*
X5520486Y-3956202D01*
X5528767Y-3964533D01*
X5531002Y-3967784D01*
X5531764Y-3971696D01*
X5531764Y-4055770D01*
X5531002Y-4059682D01*
X5528767Y-4062984D01*
X5525465Y-4065168D01*
X5521604Y-4065930D01*
X5471769Y-4065930D01*
X5471769Y-4122013D01*
X5473903Y-4121048D01*
X5486908Y-4113174D01*
X5498896Y-4103827D01*
X5509615Y-4093057D01*
X5513578Y-4088028D01*
X5516778Y-4085336D01*
X5520791Y-4084167D01*
X5524906Y-4084675D01*
X5528462Y-4086809D01*
X5530900Y-4090212D01*
X5531764Y-4094276D01*
X5531764Y-4473295D01*
X5531002Y-4477207D01*
X5528767Y-4480458D01*
X5412435Y-4596790D01*
X5409285Y-4600244D01*
X5406593Y-4603750D01*
X5404205Y-4607509D01*
X5402173Y-4611471D01*
X5400446Y-4615535D01*
X5399125Y-4619802D01*
X5398160Y-4624120D01*
X5397601Y-4628540D01*
X5397398Y-4633163D01*
X5397398Y-4665522D01*
X5396839Y-4668774D01*
X5395315Y-4671720D01*
X5392877Y-4673955D01*
X5384596Y-4679492D01*
X5374335Y-4688535D01*
X5365292Y-4698796D01*
X5357672Y-4710176D01*
X5351627Y-4722469D01*
X5347258Y-4735423D01*
X5344566Y-4748834D01*
X5343652Y-4762500D01*
X5344566Y-4776165D01*
X5347258Y-4789576D01*
X5351627Y-4802530D01*
X5357672Y-4814824D01*
X5365292Y-4826203D01*
X5374335Y-4836464D01*
X5384596Y-4845507D01*
X5395976Y-4853127D01*
X5408269Y-4859172D01*
X5421223Y-4863541D01*
X5434634Y-4866233D01*
X5448300Y-4867148D01*
X5461965Y-4866233D01*
X5475376Y-4863541D01*
X5488330Y-4859172D01*
X5500624Y-4853127D01*
X5512003Y-4845507D01*
X5522264Y-4836464D01*
X5531307Y-4826203D01*
X5538927Y-4814824D01*
X5544972Y-4802530D01*
X5549341Y-4789576D01*
X5552033Y-4776165D01*
X5552948Y-4762500D01*
X5552033Y-4748834D01*
X5549341Y-4735423D01*
X5544972Y-4722469D01*
X5538927Y-4710176D01*
X5531307Y-4698796D01*
X5522264Y-4688535D01*
X5512003Y-4679492D01*
X5503722Y-4673955D01*
X5501284Y-4671720D01*
X5499760Y-4668774D01*
X5499201Y-4665522D01*
X5499201Y-4658258D01*
X5499963Y-4654346D01*
X5502198Y-4651095D01*
X5565698Y-4587544D01*
X5569153Y-4585309D01*
X5573166Y-4584598D01*
X5577179Y-4585512D01*
X5580481Y-4588002D01*
X5582513Y-4591558D01*
X5583783Y-4606188D01*
X5586323Y-4615688D01*
X5590489Y-4624578D01*
X5596128Y-4632604D01*
X5603087Y-4639564D01*
X5611114Y-4645202D01*
X5620004Y-4649368D01*
X5629503Y-4651908D01*
X5639308Y-4652772D01*
X5645505Y-4652213D01*
X5649468Y-4652670D01*
X5652973Y-4654600D01*
X5655462Y-4657750D01*
X5656529Y-4661560D01*
X5656021Y-4665522D01*
X5654040Y-4669028D01*
X5638596Y-4679492D01*
X5628335Y-4688535D01*
X5619292Y-4698796D01*
X5611672Y-4710176D01*
X5605627Y-4722469D01*
X5601258Y-4735423D01*
X5598566Y-4748834D01*
X5597652Y-4762500D01*
X5598566Y-4776165D01*
X5601258Y-4789576D01*
X5605627Y-4802530D01*
X5611672Y-4814824D01*
X5619292Y-4826203D01*
X5628335Y-4836464D01*
X5638596Y-4845507D01*
X5649976Y-4853127D01*
X5662269Y-4859172D01*
X5675223Y-4863541D01*
X5688634Y-4866233D01*
X5702300Y-4867148D01*
X5715965Y-4866233D01*
X5729376Y-4863541D01*
X5742330Y-4859172D01*
X5754624Y-4853127D01*
X5766003Y-4845507D01*
X5776264Y-4836464D01*
X5785307Y-4826203D01*
X5792927Y-4814824D01*
X5798972Y-4802530D01*
X5803341Y-4789576D01*
X5806033Y-4776165D01*
X5806948Y-4762500D01*
X5806033Y-4748834D01*
X5803341Y-4735423D01*
X5798972Y-4722469D01*
X5795416Y-4715256D01*
X5794349Y-4710734D01*
X5794349Y-4195114D01*
X5795162Y-4191101D01*
X5797448Y-4187799D01*
X5800852Y-4185615D01*
X5804865Y-4184954D01*
X5808827Y-4185869D01*
X5810250Y-4186580D01*
X5815990Y-4188104D01*
X5818428Y-4189120D01*
X5820511Y-4190746D01*
X6359753Y-4729937D01*
X6361633Y-4732629D01*
X6362598Y-4735779D01*
X6362496Y-4739081D01*
X6360566Y-4748834D01*
X6359652Y-4762500D01*
X6360566Y-4776165D01*
X6363258Y-4789576D01*
X6367627Y-4802530D01*
X6373672Y-4814824D01*
X6381292Y-4826203D01*
X6390335Y-4836464D01*
X6400596Y-4845507D01*
X6411976Y-4853127D01*
X6424269Y-4859172D01*
X6437223Y-4863541D01*
X6450634Y-4866233D01*
X6464300Y-4867148D01*
X6477965Y-4866233D01*
X6491376Y-4863541D01*
X6504330Y-4859172D01*
X6516624Y-4853127D01*
X6528003Y-4845507D01*
X6538264Y-4836464D01*
X6547307Y-4826203D01*
X6554927Y-4814824D01*
X6560972Y-4802530D01*
X6565341Y-4789576D01*
X6568033Y-4776165D01*
X6568948Y-4762500D01*
X6568033Y-4748834D01*
X6565341Y-4735423D01*
X6560972Y-4722469D01*
X6554927Y-4710176D01*
X6547307Y-4698796D01*
X6538264Y-4688535D01*
X6528003Y-4679492D01*
X6516624Y-4671872D01*
X6504330Y-4665827D01*
X6491376Y-4661458D01*
X6477965Y-4658766D01*
X6464300Y-4657852D01*
X6450634Y-4658766D01*
X6440881Y-4660696D01*
X6437579Y-4660798D01*
X6434429Y-4659833D01*
X6431737Y-4657953D01*
X5877052Y-4103268D01*
X5872734Y-4097375D01*
X5865774Y-4090415D01*
X5857748Y-4084777D01*
X5848858Y-4080611D01*
X5839358Y-4078071D01*
X5829554Y-4077208D01*
X5819749Y-4078071D01*
X5810250Y-4080611D01*
X5808827Y-4081322D01*
X5804865Y-4082237D01*
X5800852Y-4081576D01*
X5797448Y-4079392D01*
X5795162Y-4076090D01*
X5794349Y-4072077D01*
X5794349Y-3384905D01*
X5795111Y-3381044D01*
X5797346Y-3377742D01*
X5800648Y-3375507D01*
X5804509Y-3374745D01*
X5808421Y-3375507D01*
X5811723Y-3377742D01*
X5943650Y-3509670D01*
X5945733Y-3512667D01*
X5946597Y-3516223D01*
X5946140Y-3519881D01*
X5943142Y-3529482D01*
X5940399Y-3544417D01*
X5939485Y-3559606D01*
X5940399Y-3574796D01*
X5943142Y-3589731D01*
X5947664Y-3604260D01*
X5953912Y-3618128D01*
X5961786Y-3631133D01*
X5971184Y-3643071D01*
X5981903Y-3653840D01*
X5993892Y-3663187D01*
X6006896Y-3671062D01*
X6020765Y-3677310D01*
X6035243Y-3681831D01*
X6050229Y-3684574D01*
X6065418Y-3685489D01*
X6080556Y-3684574D01*
X6095542Y-3681831D01*
X6110020Y-3677310D01*
X6123889Y-3671062D01*
X6136894Y-3663187D01*
X6148882Y-3653840D01*
X6159601Y-3643071D01*
X6168999Y-3631133D01*
X6176873Y-3618128D01*
X6183122Y-3604260D01*
X6187643Y-3589731D01*
X6190386Y-3574796D01*
X6191300Y-3559606D01*
X6190386Y-3544417D01*
X6187643Y-3529482D01*
X6183122Y-3514953D01*
X6176873Y-3501085D01*
X6168999Y-3488080D01*
X6159601Y-3476142D01*
X6148882Y-3465372D01*
X6136894Y-3456025D01*
X6123889Y-3448151D01*
X6110020Y-3441903D01*
X6095542Y-3437382D01*
X6080556Y-3434638D01*
X6065418Y-3433724D01*
X6050229Y-3434638D01*
X6035243Y-3437382D01*
X6025946Y-3440277D01*
X6022289Y-3440734D01*
X6018733Y-3439871D01*
X6015736Y-3437788D01*
X5827318Y-3249320D01*
X5825083Y-3246069D01*
X5824321Y-3242157D01*
X5824321Y-2929788D01*
X5825185Y-2925724D01*
X5827623Y-2922320D01*
X5831230Y-2920187D01*
X5835396Y-2919679D01*
X5839409Y-2920898D01*
X5842558Y-2923641D01*
X5849975Y-2933395D01*
X5858357Y-2941421D01*
X5867857Y-2948127D01*
X5878271Y-2953258D01*
X5889345Y-2956763D01*
X5900826Y-2958541D01*
X5912459Y-2958541D01*
X5923940Y-2956763D01*
X5935014Y-2953258D01*
X5945428Y-2948127D01*
X5954928Y-2941421D01*
X5963310Y-2933395D01*
X5970320Y-2924149D01*
X5972759Y-2919679D01*
X5975604Y-2916377D01*
X5979515Y-2914599D01*
X5983884Y-2914599D01*
X5987796Y-2916377D01*
X5990640Y-2919679D01*
X5993079Y-2924149D01*
X6000089Y-2933395D01*
X6008471Y-2941421D01*
X6017971Y-2948127D01*
X6025388Y-2951784D01*
X6025388Y-2914243D01*
X5989929Y-2914243D01*
X5985611Y-2913278D01*
X5982106Y-2910535D01*
X5980125Y-2906572D01*
X5979972Y-2902153D01*
X5982004Y-2891586D01*
X5982360Y-2883154D01*
X5983173Y-2879445D01*
X5985306Y-2876346D01*
X6007150Y-2854502D01*
X6010452Y-2852318D01*
X6014313Y-2851556D01*
X6025388Y-2851556D01*
X6025388Y-2840482D01*
X6026200Y-2836570D01*
X6028385Y-2833268D01*
X6081064Y-2780639D01*
X6084214Y-2777185D01*
X6086906Y-2773680D01*
X6089294Y-2769920D01*
X6091326Y-2765958D01*
X6093053Y-2761894D01*
X6094374Y-2757627D01*
X6095339Y-2753309D01*
X6095898Y-2748889D01*
X6096101Y-2744266D01*
X6096101Y-2642463D01*
X6096863Y-2638602D01*
X6099098Y-2635300D01*
X6102400Y-2633065D01*
X6106261Y-2632303D01*
X6587794Y-2632303D01*
X6592417Y-2632100D01*
X6596837Y-2631541D01*
X6601155Y-2630576D01*
X6605422Y-2629255D01*
X6609486Y-2627528D01*
X6613448Y-2625496D01*
X6617208Y-2623108D01*
X6620713Y-2620416D01*
X6624167Y-2617266D01*
X6876389Y-2364994D01*
X6879234Y-2363012D01*
X6882587Y-2362098D01*
X6886041Y-2362352D01*
X6899452Y-2365705D01*
X6914134Y-2367534D01*
X6928866Y-2367534D01*
X6943547Y-2365705D01*
X6956958Y-2362352D01*
X6960412Y-2362098D01*
X6963765Y-2363012D01*
X6966610Y-2364994D01*
X7159701Y-2558135D01*
X7161936Y-2561386D01*
X7162698Y-2565298D01*
X7162698Y-2882392D01*
X7162088Y-2885795D01*
X7160412Y-2888792D01*
X7157872Y-2891078D01*
X7144308Y-2899359D01*
X7132828Y-2908604D01*
X7122566Y-2919222D01*
X7113676Y-2931007D01*
X7106310Y-2943758D01*
X7100570Y-2957372D01*
X7096506Y-2971546D01*
X7094220Y-2986125D01*
X7093813Y-3000908D01*
X7095134Y-3015589D01*
X7098284Y-3030016D01*
X7103211Y-3043936D01*
X7109815Y-3057144D01*
X7117943Y-3069437D01*
X7127544Y-3080664D01*
X7138466Y-3090570D01*
X7150506Y-3099104D01*
X7163511Y-3106115D01*
X7177278Y-3111449D01*
X7191552Y-3115005D01*
X7206234Y-3116834D01*
X7220966Y-3116834D01*
X7225436Y-3116275D01*
X7229703Y-3116681D01*
X7233412Y-3118764D01*
X7235952Y-3122218D01*
X7236866Y-3126384D01*
X7236866Y-3462020D01*
X7236104Y-3465931D01*
X7233869Y-3469233D01*
X7230567Y-3471418D01*
X7226706Y-3472179D01*
X7222794Y-3471418D01*
X7219492Y-3469233D01*
X7215682Y-3465372D01*
X7203694Y-3456025D01*
X7190689Y-3448151D01*
X7176820Y-3441903D01*
X7162342Y-3437382D01*
X7147356Y-3434638D01*
X7132218Y-3433724D01*
X7117029Y-3434638D01*
X7102043Y-3437382D01*
X7087565Y-3441903D01*
X7073696Y-3448151D01*
X7060692Y-3456025D01*
X7048703Y-3465372D01*
X7037984Y-3476142D01*
X7028586Y-3488080D01*
X7020712Y-3501085D01*
X7014464Y-3514953D01*
X7009942Y-3529482D01*
X7007199Y-3544417D01*
X7006285Y-3559606D01*
X7007199Y-3574796D01*
X7009942Y-3589731D01*
X7014464Y-3604260D01*
X7020712Y-3618128D01*
X7028586Y-3631133D01*
X7037984Y-3643071D01*
X7048703Y-3653840D01*
X7060692Y-3663187D01*
X7073696Y-3671062D01*
X7087565Y-3677310D01*
X7102043Y-3681831D01*
X7117029Y-3684574D01*
X7132218Y-3685489D01*
X7147356Y-3684574D01*
X7162342Y-3681831D01*
X7176820Y-3677310D01*
X7190689Y-3671062D01*
X7203694Y-3663187D01*
X7215682Y-3653840D01*
X7219492Y-3649979D01*
X7222794Y-3647795D01*
X7226706Y-3647033D01*
X7230567Y-3647795D01*
X7233869Y-3649979D01*
X7236104Y-3653282D01*
X7236866Y-3657193D01*
X7236866Y-3912006D01*
X7236104Y-3915918D01*
X7233869Y-3919220D01*
X7230567Y-3921404D01*
X7226706Y-3922166D01*
X7222794Y-3921404D01*
X7219492Y-3919220D01*
X7215682Y-3915359D01*
X7203694Y-3906012D01*
X7190689Y-3898137D01*
X7188555Y-3897172D01*
X7188555Y-3953256D01*
X7226706Y-3953256D01*
X7230567Y-3954018D01*
X7233869Y-3956202D01*
X7236104Y-3959504D01*
X7236866Y-3963415D01*
X7236866Y-4055770D01*
X7236104Y-4059682D01*
X7233869Y-4062984D01*
X7230567Y-4065168D01*
X7226706Y-4065930D01*
X7188555Y-4065930D01*
X7188555Y-4122013D01*
X7190689Y-4121048D01*
X7203694Y-4113174D01*
X7215682Y-4103827D01*
X7219492Y-4099966D01*
X7222794Y-4097782D01*
X7226706Y-4097020D01*
X7230567Y-4097782D01*
X7233869Y-4099966D01*
X7236104Y-4103268D01*
X7236866Y-4107179D01*
X7236866Y-4647742D01*
X7236155Y-4651451D01*
X7234123Y-4654651D01*
X7231024Y-4656937D01*
X7227316Y-4657852D01*
X7212634Y-4658766D01*
X7199223Y-4661458D01*
X7186269Y-4665827D01*
X7173975Y-4671872D01*
X7162596Y-4679492D01*
X7152335Y-4688535D01*
X7143292Y-4698796D01*
X7135672Y-4710176D01*
X7129627Y-4722469D01*
X7125258Y-4735423D01*
X7122566Y-4748834D01*
X7121652Y-4762500D01*
X7122566Y-4776165D01*
X7125258Y-4789576D01*
X7129627Y-4802530D01*
X7135672Y-4814824D01*
X7143292Y-4826203D01*
X7152335Y-4836464D01*
X7162596Y-4845507D01*
X7173975Y-4853127D01*
X7186269Y-4859172D01*
X7199223Y-4863541D01*
X7212634Y-4866233D01*
X7226300Y-4867148D01*
X7239965Y-4866233D01*
X7253376Y-4863541D01*
X7266330Y-4859172D01*
X7278624Y-4853127D01*
X7290003Y-4845507D01*
X7300264Y-4836464D01*
X7309307Y-4826203D01*
X7316927Y-4814824D01*
X7322972Y-4802530D01*
X7327341Y-4789576D01*
X7330033Y-4776165D01*
X7330948Y-4762500D01*
X7330033Y-4748834D01*
X7327849Y-4737963D01*
X7327849Y-4734102D01*
X7329271Y-4730546D01*
X7331862Y-4726482D01*
X7333894Y-4722520D01*
X7335621Y-4718456D01*
X7336942Y-4714189D01*
X7337907Y-4709871D01*
X7338466Y-4705451D01*
X7338669Y-4700828D01*
X7338669Y-3071571D01*
X7338466Y-3066948D01*
X7337907Y-3062528D01*
X7336942Y-3058210D01*
X7335621Y-3053943D01*
X7333894Y-3049879D01*
X7331862Y-3045917D01*
X7329220Y-3041802D01*
X7327747Y-3037941D01*
X7327950Y-3033877D01*
X7332065Y-3015589D01*
X7333437Y-3000908D01*
X7332980Y-2986125D01*
X7330694Y-2971546D01*
X7326630Y-2957372D01*
X7320889Y-2943758D01*
X7313523Y-2931007D01*
X7304633Y-2919222D01*
X7294372Y-2908604D01*
X7282891Y-2899359D01*
X7269327Y-2891078D01*
X7266787Y-2888792D01*
X7265111Y-2885795D01*
X7264501Y-2882392D01*
X7264501Y-2540203D01*
X7264298Y-2535580D01*
X7263739Y-2531160D01*
X7262774Y-2526842D01*
X7261453Y-2522575D01*
X7259726Y-2518511D01*
X7257694Y-2514549D01*
X7255306Y-2510790D01*
X7252614Y-2507284D01*
X7249464Y-2503830D01*
X7038594Y-2293010D01*
X7036460Y-2289860D01*
X7035596Y-2286152D01*
X7039965Y-2266289D01*
X7041337Y-2251608D01*
X7040880Y-2236825D01*
X7038594Y-2222246D01*
X7034530Y-2208072D01*
X7028789Y-2194458D01*
X7021423Y-2181707D01*
X7012533Y-2169922D01*
X7002272Y-2159304D01*
X6990740Y-2150059D01*
X6978192Y-2142286D01*
X6964781Y-2136140D01*
X6950760Y-2131669D01*
X6936231Y-2128926D01*
X6921500Y-2128012D01*
X6906768Y-2128926D01*
X6892239Y-2131669D01*
X6878218Y-2136140D01*
X6864807Y-2142286D01*
X6852259Y-2150059D01*
X6840728Y-2159304D01*
X6830466Y-2169922D01*
X6821576Y-2181707D01*
X6814210Y-2194458D01*
X6808470Y-2208072D01*
X6804406Y-2222246D01*
X6802120Y-2236825D01*
X6801713Y-2251608D01*
X6803034Y-2266289D01*
X6807403Y-2286152D01*
X6806539Y-2289860D01*
X6804406Y-2293010D01*
X6569862Y-2527503D01*
X6566611Y-2529738D01*
X6562699Y-2530500D01*
X6396228Y-2530500D01*
X6392367Y-2529738D01*
X6389065Y-2527503D01*
X6386880Y-2524201D01*
X6386068Y-2520340D01*
X6386880Y-2516428D01*
X6389065Y-2513126D01*
X6393434Y-2508758D01*
X6402781Y-2496820D01*
X6410655Y-2483815D01*
X6416903Y-2469946D01*
X6421424Y-2455418D01*
X6424168Y-2440482D01*
X6425133Y-2424988D01*
X6425133Y-2375611D01*
X6424168Y-2360117D01*
X6421424Y-2345182D01*
X6416903Y-2330653D01*
X6410655Y-2316784D01*
X6402781Y-2303780D01*
X6393434Y-2291842D01*
X6382664Y-2281072D01*
X6370726Y-2271674D01*
X6357721Y-2263851D01*
X6343853Y-2257602D01*
X6329324Y-2253081D01*
X6314389Y-2250338D01*
X6299200Y-2249424D01*
X6284010Y-2250338D01*
X6269075Y-2253081D01*
X6254546Y-2257602D01*
X6242964Y-2262784D01*
X6239002Y-2263698D01*
X6234988Y-2262987D01*
X6231636Y-2260701D01*
X6148425Y-2177491D01*
X6144971Y-2174341D01*
X6141466Y-2171649D01*
X6137706Y-2169261D01*
X6133744Y-2167229D01*
X6129680Y-2165502D01*
X6125413Y-2164181D01*
X6121095Y-2163216D01*
X6116675Y-2162657D01*
X6112052Y-2162454D01*
X5545531Y-2162454D01*
X5540908Y-2162657D01*
X5536488Y-2163216D01*
X5532170Y-2164181D01*
X5527903Y-2165502D01*
X5523839Y-2167229D01*
X5519877Y-2169261D01*
X5516118Y-2171649D01*
X5512612Y-2174341D01*
X5509158Y-2177491D01*
X5365038Y-2321661D01*
X5361736Y-2323846D01*
X5357825Y-2324658D01*
X5352440Y-2324658D01*
X5340959Y-2326436D01*
X5329885Y-2329942D01*
X5319471Y-2335072D01*
X5309971Y-2341778D01*
X5301589Y-2349804D01*
X5294579Y-2359050D01*
X5292140Y-2363520D01*
X5289296Y-2366822D01*
X5285384Y-2368600D01*
X5281015Y-2368600D01*
X5277104Y-2366822D01*
X5274259Y-2363520D01*
X5271820Y-2359050D01*
X5264810Y-2349804D01*
X5256428Y-2341778D01*
X5246928Y-2335072D01*
X5239512Y-2331415D01*
X5239512Y-2368956D01*
X5274970Y-2368956D01*
X5279288Y-2369921D01*
X5282793Y-2372664D01*
X5284774Y-2376627D01*
X5284927Y-2381046D01*
X5282895Y-2391613D01*
X5282438Y-2403195D01*
X5283758Y-2414727D01*
X5284876Y-2418791D01*
X5285181Y-2422499D01*
X5284165Y-2426055D01*
X5281879Y-2429002D01*
X5278729Y-2430983D01*
X5275072Y-2431643D01*
X5239512Y-2431643D01*
X5239512Y-2469235D01*
X5241798Y-2468321D01*
X5251805Y-2462377D01*
X5260746Y-2454960D01*
X5268468Y-2446274D01*
X5274665Y-2436774D01*
X5277459Y-2433878D01*
X5281168Y-2432304D01*
X5285232Y-2432304D01*
X5288940Y-2433878D01*
X5291734Y-2436774D01*
X5297932Y-2446274D01*
X5305653Y-2454960D01*
X5314594Y-2462377D01*
X5324602Y-2468321D01*
X5335371Y-2472639D01*
X5343855Y-2474620D01*
X5347665Y-2476398D01*
X5350408Y-2479548D01*
X5351627Y-2483561D01*
X5351170Y-2487726D01*
X5349036Y-2491384D01*
X5345633Y-2493822D01*
X5341518Y-2494686D01*
X5014620Y-2494686D01*
X5010708Y-2493924D01*
X5007457Y-2491689D01*
X4880203Y-2364435D01*
X4876749Y-2361285D01*
X4873244Y-2358593D01*
X4869484Y-2356205D01*
X4865522Y-2354173D01*
X4861458Y-2352446D01*
X4857191Y-2351125D01*
X4852873Y-2350160D01*
X4848453Y-2349601D01*
X4843881Y-2349398D01*
X4840122Y-2348484D01*
X4836922Y-2346198D01*
X4834839Y-2342946D01*
X4834178Y-2339086D01*
X4834991Y-2335276D01*
X4837125Y-2332075D01*
X4839868Y-2329332D01*
X4847183Y-2319578D01*
X4852670Y-2309520D01*
X4811420Y-2309520D01*
X4811420Y-2339238D01*
X4810607Y-2343099D01*
X4808423Y-2346401D01*
X4805121Y-2348636D01*
X4801209Y-2349398D01*
X4749190Y-2349398D01*
X4745278Y-2348636D01*
X4741976Y-2346401D01*
X4739792Y-2343099D01*
X4739030Y-2339238D01*
X4739030Y-2309520D01*
X4697730Y-2309520D01*
X4703216Y-2319578D01*
X4710531Y-2329332D01*
X4713224Y-2332024D01*
X4715459Y-2335326D01*
X4716221Y-2339238D01*
X4715459Y-2343099D01*
X4713224Y-2346401D01*
X4709922Y-2348636D01*
X4706061Y-2349398D01*
X4597298Y-2349398D01*
X4593386Y-2348636D01*
X4590135Y-2346401D01*
X4485894Y-2242210D01*
X4483912Y-2239365D01*
X4482998Y-2236012D01*
X4483252Y-2232558D01*
X4486605Y-2219147D01*
X4488434Y-2204466D01*
X4488434Y-2189734D01*
X4486605Y-2175052D01*
X4483049Y-2160778D01*
X4477715Y-2147011D01*
X4470704Y-2134006D01*
X4462170Y-2121966D01*
X4452264Y-2111044D01*
X4441037Y-2101443D01*
X4428744Y-2093315D01*
X4415536Y-2086711D01*
X4401616Y-2081784D01*
X4387189Y-2078634D01*
X4372508Y-2077313D01*
X4357725Y-2077720D01*
X4343146Y-2080006D01*
X4328972Y-2084070D01*
X4315358Y-2089810D01*
X4302607Y-2097176D01*
X4290822Y-2106066D01*
X4280204Y-2116328D01*
X4270959Y-2127859D01*
X4263186Y-2140407D01*
X4257040Y-2153818D01*
X4252569Y-2167839D01*
X4249826Y-2182368D01*
X4248912Y-2197100D01*
X4249826Y-2211832D01*
X4252569Y-2226360D01*
X4257040Y-2240381D01*
X4263186Y-2253792D01*
X4270959Y-2266340D01*
X4280204Y-2277872D01*
X4290822Y-2288133D01*
X4302607Y-2297023D01*
X4315358Y-2304389D01*
X4328972Y-2310130D01*
X4343146Y-2314194D01*
X4357725Y-2316480D01*
X4372508Y-2316937D01*
X4387189Y-2315565D01*
X4407052Y-2311196D01*
X4410760Y-2312060D01*
X4413910Y-2314194D01*
X4535830Y-2436164D01*
X4539284Y-2439314D01*
X4542790Y-2442006D01*
X4546549Y-2444394D01*
X4550511Y-2446426D01*
X4554575Y-2448153D01*
X4558842Y-2449474D01*
X4563160Y-2450439D01*
X4567580Y-2450998D01*
X4571085Y-2451150D01*
X4574895Y-2452065D01*
X4578045Y-2454351D01*
X4580128Y-2457653D01*
X4580839Y-2461463D01*
X4580026Y-2465273D01*
X4577842Y-2468524D01*
X4528007Y-2518156D01*
X4524705Y-2520340D01*
X4520844Y-2521102D01*
X4516932Y-2520340D01*
X4513681Y-2518105D01*
X4491634Y-2496108D01*
X4489551Y-2493111D01*
X4488688Y-2489555D01*
X4487773Y-2474468D01*
X4485030Y-2459939D01*
X4480560Y-2445918D01*
X4474413Y-2432507D01*
X4466640Y-2419959D01*
X4457395Y-2408428D01*
X4446778Y-2398166D01*
X4434992Y-2389276D01*
X4422241Y-2381910D01*
X4408627Y-2376170D01*
X4394454Y-2372106D01*
X4379874Y-2369820D01*
X4365091Y-2369413D01*
X4350410Y-2370734D01*
X4330547Y-2375103D01*
X4326839Y-2374239D01*
X4323689Y-2372106D01*
X4112869Y-2161235D01*
X4109415Y-2158085D01*
X4105910Y-2155393D01*
X4102150Y-2153005D01*
X4098188Y-2150973D01*
X4094124Y-2149246D01*
X4089857Y-2147925D01*
X4085539Y-2146960D01*
X4081119Y-2146401D01*
X4076496Y-2146198D01*
X3721354Y-2146198D01*
X3717747Y-2145538D01*
X3714648Y-2143658D01*
X3712413Y-2140813D01*
X3708704Y-2134006D01*
X3700170Y-2121966D01*
X3690264Y-2111044D01*
X3679037Y-2101443D01*
X3666744Y-2093315D01*
X3653536Y-2086711D01*
X3639616Y-2081784D01*
X3625189Y-2078634D01*
X3610508Y-2077313D01*
X3595725Y-2077720D01*
X3581146Y-2080006D01*
X3566972Y-2084070D01*
X3553358Y-2089810D01*
X3540607Y-2097176D01*
X3528822Y-2106066D01*
X3518204Y-2116328D01*
X3508959Y-2127859D01*
X3501186Y-2140407D01*
X3495040Y-2153818D01*
X3490569Y-2167839D01*
X3487826Y-2182368D01*
X3486912Y-2197100D01*
X3487826Y-2211832D01*
X3490569Y-2226360D01*
X3495040Y-2240381D01*
X3501186Y-2253792D01*
X3508959Y-2266340D01*
X3518204Y-2277872D01*
X3528822Y-2288133D01*
X3540607Y-2297023D01*
X3553358Y-2304389D01*
X3566972Y-2310130D01*
X3581146Y-2314194D01*
X3595725Y-2316480D01*
X3610508Y-2316937D01*
X3625189Y-2315565D01*
X3639616Y-2312416D01*
X3653536Y-2307488D01*
X3666744Y-2300884D01*
X3679037Y-2292756D01*
X3690264Y-2283155D01*
X3700170Y-2272233D01*
X3708704Y-2260193D01*
X3712413Y-2253386D01*
X3714648Y-2250541D01*
X3717747Y-2248662D01*
X3721354Y-2248001D01*
X4051401Y-2248001D01*
X4055313Y-2248763D01*
X4058564Y-2250998D01*
X4251706Y-2444089D01*
X4253687Y-2446934D01*
X4254601Y-2450287D01*
X4254347Y-2453741D01*
X4250994Y-2467152D01*
X4249166Y-2481834D01*
X4249166Y-2496566D01*
X4250994Y-2511247D01*
X4254550Y-2525522D01*
X4259884Y-2539288D01*
X4266895Y-2552293D01*
X4275429Y-2564333D01*
X4285335Y-2575255D01*
X4296562Y-2584856D01*
X4308856Y-2592984D01*
X4322064Y-2599588D01*
X4335983Y-2604516D01*
X4350410Y-2607665D01*
X4365091Y-2609037D01*
X4379874Y-2608580D01*
X4394454Y-2606294D01*
X4408627Y-2602230D01*
X4422241Y-2596489D01*
X4431842Y-2590952D01*
X4436059Y-2589631D01*
X4440377Y-2590190D01*
X4444136Y-2592578D01*
X4492650Y-2641092D01*
X4494885Y-2644495D01*
X4495647Y-2648508D01*
X4494733Y-2652471D01*
X4492345Y-2655773D01*
X4483557Y-2661107D01*
X4479442Y-2665171D01*
X4476343Y-2670098D01*
X4474464Y-2675534D01*
X4473752Y-2681884D01*
X4473752Y-2880715D01*
X4474464Y-2887065D01*
X4476343Y-2892501D01*
X4479442Y-2897428D01*
X4483557Y-2901492D01*
X4492345Y-2906826D01*
X4494733Y-2910128D01*
X4495647Y-2914091D01*
X4494885Y-2918104D01*
X4492650Y-2921508D01*
X4447235Y-2966872D01*
X4444085Y-2970326D01*
X4441393Y-2973832D01*
X4439005Y-2977591D01*
X4436973Y-2981553D01*
X4435246Y-2985617D01*
X4433925Y-2989884D01*
X4432960Y-2994202D01*
X4432401Y-2998622D01*
X4432198Y-3003245D01*
X4432198Y-3052114D01*
X4431436Y-3056026D01*
X4429201Y-3059328D01*
X4425950Y-3061512D01*
X4422038Y-3062274D01*
X4418177Y-3061512D01*
X4414875Y-3059328D01*
X4403394Y-3047898D01*
X4401159Y-3044596D01*
X4400397Y-3040684D01*
X4400397Y-2915412D01*
X4401261Y-2911348D01*
X4403648Y-2907944D01*
X4407204Y-2905810D01*
X4410710Y-2904591D01*
X4415586Y-2901492D01*
X4419701Y-2897428D01*
X4422800Y-2892501D01*
X4424680Y-2887065D01*
X4425391Y-2880715D01*
X4425391Y-2681884D01*
X4424680Y-2675534D01*
X4422800Y-2670098D01*
X4419701Y-2665171D01*
X4415586Y-2661107D01*
X4410710Y-2658008D01*
X4405223Y-2656128D01*
X4398924Y-2655417D01*
X4300067Y-2655417D01*
X4293768Y-2656128D01*
X4288282Y-2658008D01*
X4283405Y-2661107D01*
X4279290Y-2665171D01*
X4276191Y-2670098D01*
X4274312Y-2675534D01*
X4273600Y-2681884D01*
X4273600Y-2880715D01*
X4274312Y-2887065D01*
X4276191Y-2892501D01*
X4279290Y-2897428D01*
X4283405Y-2901492D01*
X4288282Y-2904591D01*
X4291787Y-2905810D01*
X4295343Y-2907944D01*
X4297730Y-2911348D01*
X4298594Y-2915412D01*
X4298594Y-3065830D01*
X4298797Y-3070555D01*
X4299356Y-3074873D01*
X4300372Y-3079292D01*
X4301642Y-3083458D01*
X4303420Y-3087624D01*
X4305401Y-3091484D01*
X4307840Y-3095294D01*
X4310481Y-3098749D01*
X4313732Y-3102254D01*
X4335373Y-3123844D01*
X4337558Y-3127044D01*
X4338370Y-3130854D01*
X4337659Y-3134664D01*
X4335627Y-3137966D01*
X4332478Y-3140252D01*
X4326128Y-3143199D01*
X4318101Y-3148838D01*
X4311142Y-3155797D01*
X4305503Y-3163824D01*
X4301337Y-3172714D01*
X4298797Y-3182213D01*
X4297934Y-3192018D01*
X4298797Y-3201822D01*
X4301337Y-3211322D01*
X4302455Y-3213658D01*
X4303420Y-3217976D01*
X4303420Y-3290417D01*
X4302658Y-3294329D01*
X4300423Y-3297580D01*
X4099560Y-3498494D01*
X4096004Y-3500780D01*
X4091838Y-3501440D01*
X4087774Y-3500374D01*
X4084472Y-3497681D01*
X4081068Y-3490163D01*
X4080103Y-3485845D01*
X4080103Y-3082188D01*
X4080865Y-3078276D01*
X4083100Y-3075025D01*
X4185462Y-2972663D01*
X4188612Y-2969209D01*
X4191304Y-2965704D01*
X4193692Y-2961944D01*
X4195724Y-2957982D01*
X4197451Y-2953918D01*
X4198772Y-2949651D01*
X4199737Y-2945333D01*
X4200296Y-2940913D01*
X4200499Y-2936290D01*
X4200499Y-2915412D01*
X4201363Y-2911348D01*
X4203750Y-2907944D01*
X4207306Y-2905810D01*
X4210812Y-2904591D01*
X4215688Y-2901492D01*
X4219803Y-2897428D01*
X4222902Y-2892501D01*
X4224782Y-2887065D01*
X4225493Y-2880715D01*
X4225493Y-2681884D01*
X4224782Y-2675534D01*
X4222902Y-2670098D01*
X4219803Y-2665171D01*
X4215688Y-2661107D01*
X4210812Y-2658008D01*
X4205325Y-2656128D01*
X4199026Y-2655417D01*
X4100169Y-2655417D01*
X4093870Y-2656128D01*
X4088384Y-2658008D01*
X4083507Y-2661107D01*
X4079392Y-2665171D01*
X4076293Y-2670098D01*
X4074414Y-2675534D01*
X4073702Y-2681884D01*
X4073702Y-2880715D01*
X4074414Y-2887065D01*
X4076293Y-2892501D01*
X4079392Y-2897428D01*
X4083507Y-2901492D01*
X4092295Y-2906826D01*
X4094683Y-2910128D01*
X4095597Y-2914091D01*
X4094835Y-2918104D01*
X4092600Y-2921508D01*
X4011879Y-3002229D01*
X4008577Y-3004464D01*
X4004665Y-3005226D01*
X4000804Y-3004464D01*
X3997502Y-3002229D01*
X3995267Y-2998927D01*
X3994505Y-2995066D01*
X3994505Y-2962808D01*
X3995420Y-2958642D01*
X3997553Y-2953816D01*
X3999128Y-2948584D01*
X3999788Y-2945434D01*
X4000500Y-2939796D01*
X4000601Y-2915412D01*
X4001465Y-2911348D01*
X4003852Y-2907944D01*
X4007408Y-2905810D01*
X4010914Y-2904591D01*
X4015790Y-2901492D01*
X4019905Y-2897428D01*
X4023004Y-2892501D01*
X4024884Y-2887065D01*
X4025595Y-2880715D01*
X4025595Y-2681884D01*
X4024884Y-2675534D01*
X4023004Y-2670098D01*
X4019905Y-2665171D01*
X4015790Y-2661107D01*
X4010914Y-2658008D01*
X4005427Y-2656128D01*
X3999128Y-2655417D01*
X3900271Y-2655417D01*
X3893972Y-2656128D01*
X3888486Y-2658008D01*
X3883609Y-2661107D01*
X3879494Y-2665171D01*
X3876395Y-2670098D01*
X3874515Y-2675534D01*
X3873804Y-2681884D01*
X3873804Y-2880715D01*
X3874515Y-2887065D01*
X3876395Y-2892501D01*
X3879494Y-2897428D01*
X3883609Y-2901492D01*
X3888486Y-2904591D01*
X3891991Y-2905810D01*
X3895547Y-2907944D01*
X3897934Y-2911348D01*
X3898798Y-2916529D01*
X3897884Y-2920695D01*
X3895750Y-2925521D01*
X3894175Y-2930753D01*
X3893515Y-2933903D01*
X3892804Y-2939542D01*
X3892702Y-3530447D01*
X3891889Y-3534410D01*
X3889603Y-3537762D01*
X3886200Y-3539947D01*
X3882186Y-3540607D01*
X3878173Y-3539642D01*
X3875278Y-3537610D01*
X3803446Y-3465728D01*
X3801211Y-3462477D01*
X3800449Y-3458565D01*
X3800449Y-2915412D01*
X3801313Y-2911348D01*
X3803700Y-2907944D01*
X3807256Y-2905810D01*
X3810762Y-2904591D01*
X3815638Y-2901492D01*
X3819753Y-2897428D01*
X3822852Y-2892501D01*
X3824732Y-2887065D01*
X3825443Y-2880715D01*
X3825443Y-2681884D01*
X3824732Y-2675534D01*
X3822852Y-2670098D01*
X3819753Y-2665171D01*
X3815638Y-2661107D01*
X3810762Y-2658008D01*
X3805275Y-2656128D01*
X3798976Y-2655417D01*
X3700119Y-2655417D01*
X3693820Y-2656128D01*
X3688334Y-2658008D01*
X3683457Y-2661107D01*
X3679342Y-2665171D01*
X3676243Y-2670098D01*
X3674364Y-2675534D01*
X3673652Y-2681884D01*
X3673652Y-2880715D01*
X3674364Y-2887065D01*
X3676243Y-2892501D01*
X3679342Y-2897428D01*
X3683457Y-2901492D01*
X3688334Y-2904591D01*
X3691839Y-2905810D01*
X3695395Y-2907944D01*
X3697782Y-2911348D01*
X3698646Y-2915412D01*
X3698646Y-3483660D01*
X3698849Y-3488283D01*
X3699408Y-3492703D01*
X3700373Y-3497021D01*
X3701694Y-3501288D01*
X3703421Y-3505352D01*
X3705453Y-3509314D01*
X3707841Y-3513074D01*
X3710533Y-3516579D01*
X3713683Y-3520033D01*
X3803294Y-3609594D01*
X3805326Y-3612489D01*
X3808933Y-3620262D01*
X3814572Y-3628288D01*
X3821531Y-3635248D01*
X3828237Y-3639972D01*
X3830980Y-3642817D01*
X3832402Y-3646525D01*
X3832351Y-3650487D01*
X3830726Y-3654094D01*
X3828999Y-3656584D01*
X3824630Y-3666032D01*
X3822344Y-3669131D01*
X3819042Y-3671214D01*
X3815232Y-3671874D01*
X3811422Y-3671062D01*
X3808222Y-3668928D01*
X3403650Y-3264306D01*
X3401415Y-3261055D01*
X3400653Y-3257143D01*
X3400653Y-2915361D01*
X3401517Y-2911297D01*
X3403904Y-2907893D01*
X3407460Y-2905760D01*
X3410813Y-2904591D01*
X3415741Y-2901492D01*
X3419805Y-2897428D01*
X3422904Y-2892501D01*
X3424834Y-2887065D01*
X3425545Y-2880715D01*
X3425545Y-2681884D01*
X3424834Y-2675534D01*
X3422904Y-2670098D01*
X3419805Y-2665171D01*
X3415741Y-2661107D01*
X3410813Y-2658008D01*
X3405378Y-2656128D01*
X3399078Y-2655417D01*
X3300171Y-2655417D01*
X3293872Y-2656128D01*
X3288436Y-2658008D01*
X3283508Y-2661107D01*
X3279444Y-2665171D01*
X3276346Y-2670098D01*
X3274415Y-2675534D01*
X3273704Y-2681884D01*
X3273704Y-2880715D01*
X3274415Y-2887065D01*
X3276346Y-2892501D01*
X3279444Y-2897428D01*
X3283508Y-2901492D01*
X3288436Y-2904591D01*
X3292043Y-2905861D01*
X3295599Y-2907995D01*
X3297986Y-2911398D01*
X3298850Y-2915462D01*
X3298850Y-3282238D01*
X3299053Y-3286861D01*
X3299612Y-3291281D01*
X3300577Y-3295599D01*
X3301898Y-3299866D01*
X3303625Y-3303930D01*
X3305657Y-3307892D01*
X3308045Y-3311651D01*
X3310737Y-3315157D01*
X3313887Y-3318611D01*
X3801516Y-3806240D01*
X3804970Y-3809390D01*
X3808476Y-3812082D01*
X3812235Y-3814470D01*
X3816197Y-3816502D01*
X3820261Y-3818229D01*
X3824528Y-3819550D01*
X3828846Y-3820515D01*
X3833266Y-3821074D01*
X3837889Y-3821277D01*
X3929684Y-3821277D01*
X3937254Y-3820718D01*
X3941419Y-3821023D01*
X3945128Y-3823004D01*
X3947718Y-3826256D01*
X3948734Y-3830320D01*
X3948074Y-3834434D01*
X3945788Y-3837940D01*
X3820871Y-3962806D01*
X3817721Y-3966260D01*
X3815029Y-3969765D01*
X3812641Y-3973525D01*
X3810609Y-3977487D01*
X3808882Y-3981551D01*
X3807561Y-3985818D01*
X3806596Y-3990136D01*
X3806037Y-3994556D01*
X3805834Y-3999179D01*
X3805834Y-4185869D01*
X3805072Y-4189780D01*
X3802837Y-4193082D01*
X3799535Y-4195267D01*
X3795674Y-4196029D01*
X3791762Y-4195267D01*
X3788460Y-4193082D01*
X3782771Y-4187342D01*
X3775506Y-4182262D01*
X3767429Y-4178503D01*
X3758895Y-4176217D01*
X3749598Y-4175404D01*
X3040075Y-4175404D01*
X3035452Y-4175607D01*
X3031032Y-4176166D01*
X3026714Y-4177131D01*
X3022447Y-4178452D01*
X3018383Y-4180179D01*
X3014421Y-4182211D01*
X3010662Y-4184599D01*
X3007156Y-4187291D01*
X3003702Y-4190441D01*
X2872435Y-4321708D01*
X2869285Y-4325162D01*
X2866593Y-4328668D01*
X2864205Y-4332427D01*
X2862173Y-4336389D01*
X2860446Y-4340453D01*
X2859125Y-4344720D01*
X2858160Y-4349038D01*
X2857601Y-4353458D01*
X2857398Y-4358081D01*
X2857398Y-4665522D01*
X2856839Y-4668774D01*
X2855315Y-4671720D01*
X2852877Y-4673955D01*
X2844596Y-4679492D01*
X2834335Y-4688535D01*
X2825292Y-4698796D01*
X2817672Y-4710176D01*
X2811627Y-4722469D01*
X2807258Y-4735423D01*
X2804566Y-4748834D01*
X2803652Y-4762500D01*
X2804566Y-4776165D01*
X2807258Y-4789576D01*
X2811627Y-4802530D01*
X2817672Y-4814824D01*
X2825292Y-4826203D01*
X2834335Y-4836464D01*
X2844596Y-4845507D01*
X2855976Y-4853127D01*
X2868269Y-4859172D01*
X2881223Y-4863541D01*
X2894634Y-4866233D01*
G37*
G36*
X2608580Y-4856378D02*
G01*
X2608580Y-4808220D01*
X2560421Y-4808220D01*
X2563672Y-4814824D01*
X2571292Y-4826203D01*
X2580335Y-4836464D01*
X2590596Y-4845507D01*
X2601976Y-4853127D01*
G37*
G36*
X5240020Y-4856378D02*
G01*
X5246624Y-4853127D01*
X5258003Y-4845507D01*
X5268264Y-4836464D01*
X5277307Y-4826203D01*
X5284927Y-4814824D01*
X5288178Y-4808220D01*
X5240020Y-4808220D01*
G37*
G36*
X6926580Y-4856378D02*
G01*
X6926580Y-4808220D01*
X6878421Y-4808220D01*
X6881672Y-4814824D01*
X6889292Y-4826203D01*
X6898335Y-4836464D01*
X6908596Y-4845507D01*
X6919975Y-4853127D01*
G37*
G36*
X2700020Y-4856378D02*
G01*
X2706624Y-4853127D01*
X2718003Y-4845507D01*
X2728264Y-4836464D01*
X2737307Y-4826203D01*
X2744927Y-4814824D01*
X2748178Y-4808220D01*
X2700020Y-4808220D01*
G37*
G36*
X5148580Y-4856378D02*
G01*
X5148580Y-4808220D01*
X5100421Y-4808220D01*
X5103672Y-4814824D01*
X5111292Y-4826203D01*
X5120335Y-4836464D01*
X5130596Y-4845507D01*
X5141976Y-4853127D01*
G37*
G36*
X7018020Y-4856378D02*
G01*
X7024624Y-4853127D01*
X7036003Y-4845507D01*
X7046264Y-4836464D01*
X7055307Y-4826203D01*
X7062927Y-4814824D01*
X7066178Y-4808220D01*
X7018020Y-4808220D01*
G37*
G36*
X2560421Y-4716780D02*
G01*
X2608580Y-4716780D01*
X2608580Y-4668621D01*
X2601976Y-4671872D01*
X2590596Y-4679492D01*
X2580335Y-4688535D01*
X2571292Y-4698796D01*
X2563672Y-4710176D01*
G37*
G36*
X6878421Y-4716780D02*
G01*
X6926580Y-4716780D01*
X6926580Y-4668621D01*
X6919975Y-4671872D01*
X6908596Y-4679492D01*
X6898335Y-4688535D01*
X6889292Y-4698796D01*
X6881672Y-4710176D01*
G37*
G36*
X5100421Y-4716780D02*
G01*
X5148580Y-4716780D01*
X5148580Y-4668621D01*
X5141976Y-4671872D01*
X5130596Y-4679492D01*
X5120335Y-4688535D01*
X5111292Y-4698796D01*
X5103672Y-4710176D01*
G37*
G36*
X2700020Y-4716780D02*
G01*
X2748178Y-4716780D01*
X2744927Y-4710176D01*
X2737307Y-4698796D01*
X2728264Y-4688535D01*
X2718003Y-4679492D01*
X2706624Y-4671872D01*
X2700020Y-4668621D01*
G37*
G36*
X5240020Y-4716780D02*
G01*
X5288178Y-4716780D01*
X5284927Y-4710176D01*
X5277307Y-4698796D01*
X5268264Y-4688535D01*
X5258003Y-4679492D01*
X5246624Y-4671872D01*
X5240020Y-4668621D01*
G37*
G36*
X7018020Y-4716780D02*
G01*
X7066178Y-4716780D01*
X7062927Y-4710176D01*
X7055307Y-4698796D01*
X7046264Y-4688535D01*
X7036003Y-4679492D01*
X7024624Y-4671872D01*
X7018020Y-4668621D01*
G37*
G36*
X4474260Y-4324908D02*
G01*
X4518812Y-4324908D01*
X4518812Y-4255363D01*
X4500727Y-4255363D01*
X4494428Y-4256074D01*
X4488942Y-4257954D01*
X4484065Y-4261053D01*
X4479950Y-4265117D01*
X4476851Y-4270044D01*
X4474972Y-4275480D01*
X4474260Y-4281830D01*
G37*
G36*
X4581499Y-4324908D02*
G01*
X4626051Y-4324908D01*
X4626051Y-4281830D01*
X4625340Y-4275480D01*
X4623460Y-4270044D01*
X4620361Y-4265117D01*
X4616246Y-4261053D01*
X4611370Y-4257954D01*
X4605883Y-4256074D01*
X4599584Y-4255363D01*
X4581499Y-4255363D01*
G37*
G36*
X6538569Y-4122013D02*
G01*
X6540703Y-4121048D01*
X6553708Y-4113174D01*
X6565696Y-4103827D01*
X6576415Y-4093057D01*
X6585813Y-4081119D01*
X6593687Y-4068114D01*
X6594652Y-4065930D01*
X6538569Y-4065930D01*
G37*
G36*
X6121755Y-4122013D02*
G01*
X6123889Y-4121048D01*
X6136894Y-4113174D01*
X6148882Y-4103827D01*
X6159601Y-4093057D01*
X6168999Y-4081119D01*
X6176873Y-4068114D01*
X6177838Y-4065930D01*
X6121755Y-4065930D01*
G37*
G36*
X7075830Y-4122013D02*
G01*
X7075830Y-4065930D01*
X7019747Y-4065930D01*
X7020712Y-4068114D01*
X7028586Y-4081119D01*
X7037984Y-4093057D01*
X7048703Y-4103827D01*
X7060692Y-4113174D01*
X7073696Y-4121048D01*
G37*
G36*
X6009030Y-4122013D02*
G01*
X6009030Y-4065930D01*
X5952947Y-4065930D01*
X5953912Y-4068114D01*
X5961786Y-4081119D01*
X5971184Y-4093057D01*
X5981903Y-4103827D01*
X5993892Y-4113174D01*
X6006896Y-4121048D01*
G37*
G36*
X6425844Y-4122013D02*
G01*
X6425844Y-4065930D01*
X6369761Y-4065930D01*
X6370726Y-4068114D01*
X6378600Y-4081119D01*
X6387998Y-4093057D01*
X6398717Y-4103827D01*
X6410706Y-4113174D01*
X6423710Y-4121048D01*
G37*
G36*
X5359044Y-4122013D02*
G01*
X5359044Y-4065930D01*
X5302961Y-4065930D01*
X5303926Y-4068114D01*
X5311800Y-4081119D01*
X5321198Y-4093057D01*
X5331917Y-4103827D01*
X5343906Y-4113174D01*
X5356910Y-4121048D01*
G37*
G36*
X6538569Y-3953256D02*
G01*
X6594652Y-3953256D01*
X6593687Y-3951071D01*
X6585813Y-3938066D01*
X6576415Y-3926128D01*
X6565696Y-3915359D01*
X6553708Y-3906012D01*
X6540703Y-3898137D01*
X6538569Y-3897172D01*
G37*
G36*
X7019747Y-3953256D02*
G01*
X7075830Y-3953256D01*
X7075830Y-3897172D01*
X7073696Y-3898137D01*
X7060692Y-3906012D01*
X7048703Y-3915359D01*
X7037984Y-3926128D01*
X7028586Y-3938066D01*
X7020712Y-3951071D01*
G37*
G36*
X6121755Y-3953256D02*
G01*
X6177838Y-3953256D01*
X6176873Y-3951071D01*
X6168999Y-3938066D01*
X6159601Y-3926128D01*
X6148882Y-3915359D01*
X6136894Y-3906012D01*
X6123889Y-3898137D01*
X6121755Y-3897172D01*
G37*
G36*
X5952947Y-3953256D02*
G01*
X6009030Y-3953256D01*
X6009030Y-3897172D01*
X6006896Y-3898137D01*
X5993892Y-3906012D01*
X5981903Y-3915359D01*
X5971184Y-3926128D01*
X5961786Y-3938066D01*
X5953912Y-3951071D01*
G37*
G36*
X6369761Y-3953256D02*
G01*
X6425844Y-3953256D01*
X6425844Y-3897172D01*
X6423710Y-3898137D01*
X6410706Y-3906012D01*
X6398717Y-3915359D01*
X6387998Y-3926128D01*
X6378600Y-3938066D01*
X6370726Y-3951071D01*
G37*
G36*
X5302961Y-3953256D02*
G01*
X5359044Y-3953256D01*
X5359044Y-3897172D01*
X5356910Y-3898137D01*
X5343906Y-3906012D01*
X5331917Y-3915359D01*
X5321198Y-3926128D01*
X5311800Y-3938066D01*
X5303926Y-3951071D01*
G37*
G36*
X6261100Y-3912108D02*
G01*
X6276492Y-3911142D01*
X6291630Y-3908399D01*
X6306312Y-3903827D01*
X6320332Y-3897477D01*
X6333540Y-3889501D01*
X6345631Y-3880002D01*
X6356502Y-3869131D01*
X6366002Y-3857040D01*
X6373977Y-3843832D01*
X6380327Y-3829812D01*
X6384899Y-3815130D01*
X6387642Y-3799992D01*
X6388608Y-3784600D01*
X6387642Y-3769207D01*
X6384899Y-3754069D01*
X6380327Y-3739387D01*
X6373977Y-3725367D01*
X6366002Y-3712159D01*
X6356502Y-3700068D01*
X6345631Y-3689197D01*
X6333540Y-3679698D01*
X6320332Y-3671722D01*
X6306312Y-3665372D01*
X6291630Y-3660800D01*
X6276492Y-3658057D01*
X6261100Y-3657092D01*
X6245707Y-3658057D01*
X6230569Y-3660800D01*
X6215888Y-3665372D01*
X6201867Y-3671722D01*
X6188659Y-3679698D01*
X6176568Y-3689197D01*
X6165697Y-3700068D01*
X6156198Y-3712159D01*
X6148222Y-3725367D01*
X6141872Y-3739387D01*
X6137300Y-3754069D01*
X6134557Y-3769207D01*
X6133592Y-3784600D01*
X6134557Y-3799992D01*
X6137300Y-3815130D01*
X6141872Y-3829812D01*
X6148222Y-3843832D01*
X6156198Y-3857040D01*
X6165697Y-3869131D01*
X6176568Y-3880002D01*
X6188659Y-3889501D01*
X6201867Y-3897477D01*
X6215888Y-3903827D01*
X6230569Y-3908399D01*
X6245707Y-3911142D01*
G37*
G36*
X6482232Y-3685489D02*
G01*
X6497370Y-3684574D01*
X6512356Y-3681831D01*
X6526834Y-3677310D01*
X6540703Y-3671062D01*
X6553708Y-3663187D01*
X6565696Y-3653840D01*
X6576415Y-3643071D01*
X6585813Y-3631133D01*
X6593687Y-3618128D01*
X6599936Y-3604260D01*
X6604457Y-3589731D01*
X6607200Y-3574796D01*
X6608114Y-3559606D01*
X6607200Y-3544417D01*
X6604457Y-3529482D01*
X6599936Y-3514953D01*
X6593687Y-3501085D01*
X6585813Y-3488080D01*
X6576415Y-3476142D01*
X6565696Y-3465372D01*
X6553708Y-3456025D01*
X6540703Y-3448151D01*
X6526834Y-3441903D01*
X6512356Y-3437382D01*
X6497370Y-3434638D01*
X6482232Y-3433724D01*
X6467043Y-3434638D01*
X6452057Y-3437382D01*
X6437579Y-3441903D01*
X6423710Y-3448151D01*
X6410706Y-3456025D01*
X6398717Y-3465372D01*
X6387998Y-3476142D01*
X6378600Y-3488080D01*
X6370726Y-3501085D01*
X6364478Y-3514953D01*
X6359956Y-3529482D01*
X6357213Y-3544417D01*
X6356299Y-3559606D01*
X6357213Y-3574796D01*
X6359956Y-3589731D01*
X6364478Y-3604260D01*
X6370726Y-3618128D01*
X6378600Y-3631133D01*
X6387998Y-3643071D01*
X6398717Y-3653840D01*
X6410706Y-3663187D01*
X6423710Y-3671062D01*
X6437579Y-3677310D01*
X6452057Y-3681831D01*
X6467043Y-3684574D01*
G37*
G36*
X6337300Y-3410458D02*
G01*
X6351473Y-3409492D01*
X6365341Y-3406749D01*
X6378803Y-3402177D01*
X6391503Y-3395929D01*
X6403289Y-3388004D01*
X6413957Y-3378657D01*
X6423304Y-3367989D01*
X6431229Y-3356203D01*
X6437477Y-3343503D01*
X6442049Y-3330041D01*
X6444792Y-3316173D01*
X6445758Y-3302000D01*
X6444792Y-3287826D01*
X6442049Y-3273958D01*
X6437477Y-3260496D01*
X6431229Y-3247796D01*
X6423304Y-3236010D01*
X6413957Y-3225342D01*
X6403289Y-3215995D01*
X6391503Y-3208070D01*
X6378803Y-3201822D01*
X6365341Y-3197250D01*
X6351473Y-3194507D01*
X6337300Y-3193542D01*
X6323126Y-3194507D01*
X6309258Y-3197250D01*
X6295796Y-3201822D01*
X6283096Y-3208070D01*
X6271310Y-3215995D01*
X6260642Y-3225342D01*
X6251295Y-3236010D01*
X6243370Y-3247796D01*
X6237122Y-3260496D01*
X6232550Y-3273958D01*
X6229807Y-3287826D01*
X6228842Y-3302000D01*
X6229807Y-3316173D01*
X6232550Y-3330041D01*
X6237122Y-3343503D01*
X6243370Y-3356203D01*
X6251295Y-3367989D01*
X6260642Y-3378657D01*
X6271310Y-3388004D01*
X6283096Y-3395929D01*
X6295796Y-3402177D01*
X6309258Y-3406749D01*
X6323126Y-3409492D01*
G37*
G36*
X6384950Y-3145180D02*
G01*
X6391503Y-3141929D01*
X6403289Y-3134004D01*
X6413957Y-3124657D01*
X6423304Y-3113989D01*
X6431229Y-3102203D01*
X6434480Y-3095650D01*
X6384950Y-3095650D01*
G37*
G36*
X6289700Y-3145180D02*
G01*
X6289700Y-3095650D01*
X6240119Y-3095650D01*
X6243370Y-3102203D01*
X6251295Y-3113989D01*
X6260642Y-3124657D01*
X6271310Y-3134004D01*
X6283096Y-3141929D01*
G37*
G36*
X6914134Y-3129534D02*
G01*
X6928866Y-3129534D01*
X6943547Y-3127705D01*
X6957822Y-3124149D01*
X6971588Y-3118815D01*
X6984593Y-3111804D01*
X6996633Y-3103270D01*
X7007555Y-3093364D01*
X7017156Y-3082137D01*
X7025284Y-3069844D01*
X7031888Y-3056636D01*
X7036816Y-3042716D01*
X7039965Y-3028289D01*
X7041337Y-3013608D01*
X7040880Y-2998825D01*
X7038594Y-2984246D01*
X7034530Y-2970072D01*
X7028789Y-2956458D01*
X7021423Y-2943707D01*
X7012533Y-2931922D01*
X7002272Y-2921304D01*
X6990740Y-2912059D01*
X6978192Y-2904286D01*
X6964781Y-2898140D01*
X6950760Y-2893669D01*
X6936231Y-2890926D01*
X6921500Y-2890012D01*
X6906768Y-2890926D01*
X6892239Y-2893669D01*
X6878218Y-2898140D01*
X6864807Y-2904286D01*
X6852259Y-2912059D01*
X6840728Y-2921304D01*
X6830466Y-2931922D01*
X6821576Y-2943707D01*
X6814210Y-2956458D01*
X6808470Y-2970072D01*
X6804406Y-2984246D01*
X6802120Y-2998825D01*
X6801713Y-3013608D01*
X6803034Y-3028289D01*
X6806184Y-3042716D01*
X6811111Y-3056636D01*
X6817715Y-3069844D01*
X6825843Y-3082137D01*
X6835444Y-3093364D01*
X6846366Y-3103270D01*
X6858406Y-3111804D01*
X6871411Y-3118815D01*
X6885178Y-3124149D01*
X6899452Y-3127705D01*
G37*
G36*
X6384950Y-3000400D02*
G01*
X6434480Y-3000400D01*
X6431229Y-2993796D01*
X6423304Y-2982010D01*
X6413957Y-2971342D01*
X6403289Y-2961995D01*
X6391503Y-2954070D01*
X6384950Y-2950819D01*
G37*
G36*
X6240119Y-3000400D02*
G01*
X6289700Y-3000400D01*
X6289700Y-2950819D01*
X6283096Y-2954070D01*
X6271310Y-2961995D01*
X6260642Y-2971342D01*
X6251295Y-2982010D01*
X6243370Y-2993796D01*
G37*
G36*
X6088126Y-2951784D02*
G01*
X6095542Y-2948127D01*
X6105042Y-2941421D01*
X6113424Y-2933395D01*
X6120434Y-2924149D01*
X6125819Y-2914243D01*
X6088126Y-2914243D01*
G37*
G36*
X6527800Y-2934208D02*
G01*
X6543192Y-2933242D01*
X6558330Y-2930499D01*
X6573012Y-2925927D01*
X6587032Y-2919577D01*
X6600240Y-2911602D01*
X6612331Y-2902102D01*
X6623202Y-2891231D01*
X6632702Y-2879140D01*
X6640677Y-2865932D01*
X6647027Y-2851912D01*
X6651599Y-2837230D01*
X6654342Y-2822092D01*
X6655308Y-2806700D01*
X6654342Y-2791307D01*
X6651599Y-2776169D01*
X6647027Y-2761488D01*
X6640677Y-2747467D01*
X6632702Y-2734259D01*
X6623202Y-2722168D01*
X6612331Y-2711297D01*
X6600240Y-2701798D01*
X6587032Y-2693822D01*
X6573012Y-2687472D01*
X6558330Y-2682900D01*
X6543192Y-2680157D01*
X6527800Y-2679192D01*
X6512407Y-2680157D01*
X6497269Y-2682900D01*
X6482588Y-2687472D01*
X6468567Y-2693822D01*
X6455359Y-2701798D01*
X6443268Y-2711297D01*
X6432397Y-2722168D01*
X6422898Y-2734259D01*
X6414922Y-2747467D01*
X6408572Y-2761488D01*
X6404000Y-2776169D01*
X6401257Y-2791307D01*
X6400292Y-2806700D01*
X6401257Y-2822092D01*
X6404000Y-2837230D01*
X6408572Y-2851912D01*
X6414922Y-2865932D01*
X6422898Y-2879140D01*
X6432397Y-2891231D01*
X6443268Y-2902102D01*
X6455359Y-2911602D01*
X6468567Y-2919577D01*
X6482588Y-2925927D01*
X6497269Y-2930499D01*
X6512407Y-2933242D01*
G37*
G36*
X3500221Y-2907233D02*
G01*
X3599078Y-2907233D01*
X3605377Y-2906471D01*
X3610864Y-2904591D01*
X3615740Y-2901492D01*
X3619855Y-2897428D01*
X3622954Y-2892501D01*
X3624834Y-2887065D01*
X3625545Y-2880715D01*
X3625545Y-2681884D01*
X3624834Y-2675534D01*
X3622954Y-2670098D01*
X3619855Y-2665171D01*
X3615740Y-2661107D01*
X3610864Y-2658008D01*
X3607358Y-2656789D01*
X3603802Y-2654655D01*
X3601415Y-2651252D01*
X3600551Y-2647188D01*
X3600551Y-2618943D01*
X3601313Y-2615133D01*
X3603447Y-2611882D01*
X3606596Y-2609646D01*
X3610406Y-2608783D01*
X3617874Y-2608580D01*
X3632454Y-2606294D01*
X3646627Y-2602230D01*
X3660241Y-2596489D01*
X3672992Y-2589123D01*
X3684778Y-2580233D01*
X3695395Y-2569972D01*
X3704640Y-2558440D01*
X3712413Y-2545892D01*
X3718560Y-2532481D01*
X3723030Y-2518460D01*
X3725773Y-2503932D01*
X3726687Y-2489200D01*
X3725773Y-2474468D01*
X3723030Y-2459939D01*
X3718560Y-2445918D01*
X3712413Y-2432507D01*
X3704640Y-2419959D01*
X3695395Y-2408428D01*
X3684778Y-2398166D01*
X3672992Y-2389276D01*
X3660241Y-2381910D01*
X3646627Y-2376170D01*
X3632454Y-2372106D01*
X3617874Y-2369820D01*
X3603091Y-2369413D01*
X3588410Y-2370734D01*
X3573983Y-2373884D01*
X3560064Y-2378811D01*
X3546856Y-2385415D01*
X3534562Y-2393543D01*
X3523335Y-2403144D01*
X3513429Y-2414066D01*
X3504895Y-2426106D01*
X3497884Y-2439111D01*
X3492550Y-2452878D01*
X3488994Y-2467152D01*
X3487165Y-2481834D01*
X3487165Y-2496566D01*
X3488994Y-2511247D01*
X3492550Y-2525522D01*
X3498138Y-2539898D01*
X3498799Y-2543810D01*
X3498748Y-2647188D01*
X3497884Y-2651252D01*
X3495497Y-2654655D01*
X3491941Y-2656789D01*
X3488436Y-2658008D01*
X3483559Y-2661107D01*
X3479444Y-2665171D01*
X3476345Y-2670098D01*
X3474465Y-2675534D01*
X3473754Y-2681884D01*
X3473754Y-2880715D01*
X3474465Y-2887065D01*
X3476345Y-2892501D01*
X3479444Y-2897428D01*
X3483559Y-2901492D01*
X3488436Y-2904591D01*
X3493922Y-2906471D01*
G37*
G36*
X3100171Y-2907233D02*
G01*
X3199028Y-2907233D01*
X3205327Y-2906471D01*
X3210814Y-2904591D01*
X3215690Y-2901492D01*
X3219805Y-2897428D01*
X3222904Y-2892501D01*
X3224784Y-2887065D01*
X3225495Y-2880715D01*
X3225495Y-2681884D01*
X3224784Y-2675534D01*
X3222904Y-2670098D01*
X3219805Y-2665171D01*
X3215690Y-2661107D01*
X3210814Y-2658008D01*
X3207308Y-2656789D01*
X3203752Y-2654655D01*
X3201365Y-2651252D01*
X3200501Y-2647188D01*
X3200501Y-2628900D01*
X3201162Y-2625242D01*
X3203143Y-2622092D01*
X3206089Y-2619806D01*
X3209645Y-2618790D01*
X3213354Y-2619095D01*
X3217265Y-2620162D01*
X3232962Y-2622499D01*
X3248812Y-2622956D01*
X3264611Y-2621584D01*
X3280105Y-2618282D01*
X3295142Y-2613253D01*
X3309467Y-2606395D01*
X3322878Y-2597962D01*
X3335172Y-2587955D01*
X3346246Y-2576576D01*
X3355848Y-2563977D01*
X3363925Y-2550312D01*
X3370326Y-2535783D01*
X3374948Y-2520645D01*
X3377742Y-2505049D01*
X3378708Y-2489200D01*
X3377742Y-2473350D01*
X3374948Y-2457754D01*
X3370326Y-2442616D01*
X3363925Y-2428087D01*
X3355848Y-2414422D01*
X3346246Y-2401824D01*
X3335172Y-2390444D01*
X3322878Y-2380437D01*
X3309467Y-2372004D01*
X3295142Y-2365197D01*
X3280105Y-2360117D01*
X3264611Y-2356815D01*
X3248812Y-2355443D01*
X3232962Y-2355900D01*
X3217265Y-2358237D01*
X3201974Y-2362403D01*
X3187293Y-2368346D01*
X3173425Y-2376017D01*
X3160522Y-2385263D01*
X3148838Y-2395982D01*
X3147517Y-2397506D01*
X3144266Y-2399995D01*
X3140303Y-2401011D01*
X3136239Y-2400401D01*
X3132785Y-2398217D01*
X3130448Y-2394864D01*
X3129635Y-2390851D01*
X3129635Y-2327046D01*
X3130448Y-2323084D01*
X3132734Y-2319782D01*
X3136138Y-2317597D01*
X3140608Y-2316937D01*
X3155289Y-2315565D01*
X3169716Y-2312416D01*
X3183636Y-2307488D01*
X3196844Y-2300884D01*
X3209137Y-2292756D01*
X3220364Y-2283155D01*
X3230270Y-2272233D01*
X3238804Y-2260193D01*
X3245815Y-2247188D01*
X3251149Y-2233422D01*
X3254705Y-2219147D01*
X3256534Y-2204466D01*
X3256534Y-2189734D01*
X3254705Y-2175052D01*
X3251149Y-2160778D01*
X3245815Y-2147011D01*
X3238804Y-2134006D01*
X3230270Y-2121966D01*
X3220364Y-2111044D01*
X3209137Y-2101443D01*
X3196844Y-2093315D01*
X3183636Y-2086711D01*
X3169716Y-2081784D01*
X3155289Y-2078634D01*
X3140608Y-2077313D01*
X3125825Y-2077720D01*
X3111246Y-2080006D01*
X3097072Y-2084070D01*
X3083458Y-2089810D01*
X3070707Y-2097176D01*
X3058922Y-2106066D01*
X3048304Y-2116328D01*
X3039059Y-2127859D01*
X3031286Y-2140407D01*
X3025140Y-2153818D01*
X3020669Y-2167839D01*
X3017926Y-2182368D01*
X3017012Y-2197100D01*
X3017926Y-2211832D01*
X3020669Y-2226360D01*
X3025140Y-2240381D01*
X3027273Y-2245004D01*
X3027984Y-2247392D01*
X3028137Y-2249881D01*
X3027832Y-2255570D01*
X3027832Y-2555036D01*
X3028035Y-2559659D01*
X3028594Y-2564079D01*
X3029559Y-2568397D01*
X3030880Y-2572664D01*
X3032607Y-2576728D01*
X3034639Y-2580690D01*
X3037027Y-2584450D01*
X3039719Y-2587955D01*
X3042869Y-2591409D01*
X3092602Y-2641092D01*
X3094837Y-2644495D01*
X3095599Y-2648508D01*
X3094685Y-2652471D01*
X3092297Y-2655773D01*
X3083509Y-2661107D01*
X3079394Y-2665171D01*
X3076295Y-2670098D01*
X3074416Y-2675534D01*
X3073704Y-2681884D01*
X3073704Y-2880715D01*
X3074416Y-2887065D01*
X3076295Y-2892501D01*
X3079394Y-2897428D01*
X3083509Y-2901492D01*
X3088386Y-2904591D01*
X3093872Y-2906471D01*
G37*
G36*
X6088126Y-2851556D02*
G01*
X6125616Y-2851556D01*
X6123432Y-2846628D01*
X6117082Y-2836926D01*
X6109360Y-2828239D01*
X6100419Y-2820822D01*
X6090412Y-2814878D01*
X6088126Y-2813964D01*
G37*
G36*
X5176774Y-2469235D02*
G01*
X5176774Y-2431643D01*
X5139283Y-2431643D01*
X5141468Y-2436571D01*
X5147818Y-2446274D01*
X5155539Y-2454960D01*
X5164480Y-2462377D01*
X5174488Y-2468321D01*
G37*
G36*
X5139080Y-2368956D02*
G01*
X5176774Y-2368956D01*
X5176774Y-2331415D01*
X5169357Y-2335072D01*
X5159857Y-2341778D01*
X5151475Y-2349804D01*
X5144465Y-2359050D01*
G37*
G36*
X7206234Y-2354834D02*
G01*
X7220966Y-2354834D01*
X7235647Y-2353005D01*
X7249922Y-2349449D01*
X7263688Y-2344115D01*
X7276693Y-2337104D01*
X7288733Y-2328570D01*
X7299655Y-2318664D01*
X7309256Y-2307437D01*
X7317384Y-2295144D01*
X7323988Y-2281936D01*
X7328916Y-2268016D01*
X7332065Y-2253589D01*
X7333437Y-2238908D01*
X7332980Y-2224125D01*
X7330694Y-2209546D01*
X7326630Y-2195372D01*
X7320889Y-2181758D01*
X7313523Y-2169007D01*
X7304633Y-2157222D01*
X7294372Y-2146604D01*
X7282840Y-2137359D01*
X7270292Y-2129586D01*
X7256881Y-2123440D01*
X7242860Y-2118969D01*
X7228331Y-2116226D01*
X7213600Y-2115312D01*
X7198868Y-2116226D01*
X7184339Y-2118969D01*
X7170318Y-2123440D01*
X7156907Y-2129586D01*
X7144359Y-2137359D01*
X7132828Y-2146604D01*
X7122566Y-2157222D01*
X7113676Y-2169007D01*
X7106310Y-2181758D01*
X7100570Y-2195372D01*
X7096506Y-2209546D01*
X7094220Y-2224125D01*
X7093813Y-2238908D01*
X7095134Y-2253589D01*
X7098284Y-2268016D01*
X7103211Y-2281936D01*
X7109815Y-2295144D01*
X7117943Y-2307437D01*
X7127544Y-2318664D01*
X7138466Y-2328570D01*
X7150506Y-2337104D01*
X7163511Y-2344115D01*
X7177278Y-2349449D01*
X7191552Y-2353005D01*
G37*
G36*
X4697730Y-2237130D02*
G01*
X4739030Y-2237130D01*
X4739030Y-2195830D01*
X4728921Y-2201316D01*
X4719167Y-2208631D01*
X4710531Y-2217267D01*
X4703216Y-2227021D01*
G37*
G36*
X4811420Y-2237130D02*
G01*
X4852670Y-2237130D01*
X4847183Y-2227021D01*
X4839868Y-2217267D01*
X4831232Y-2208631D01*
X4821478Y-2201316D01*
X4811420Y-2195830D01*
G37*

%LPD*%
G36*
X5835904Y-2846527D02*
G01*
X5831586Y-2846171D01*
X5827826Y-2844139D01*
X5825236Y-2840685D01*
X5824321Y-2836468D01*
X5824321Y-2828239D01*
X5824118Y-2823616D01*
X5823559Y-2819196D01*
X5822594Y-2814878D01*
X5821273Y-2810611D01*
X5819546Y-2806547D01*
X5817514Y-2802585D01*
X5815126Y-2798826D01*
X5812434Y-2795320D01*
X5809284Y-2791866D01*
X5527141Y-2509723D01*
X5523687Y-2506573D01*
X5520182Y-2503881D01*
X5516422Y-2501493D01*
X5512460Y-2499461D01*
X5508396Y-2497734D01*
X5504129Y-2496413D01*
X5499811Y-2495448D01*
X5495391Y-2494889D01*
X5490768Y-2494686D01*
X5374995Y-2494686D01*
X5370880Y-2493822D01*
X5367477Y-2491384D01*
X5365343Y-2487726D01*
X5364886Y-2483561D01*
X5366105Y-2479548D01*
X5368848Y-2476398D01*
X5372658Y-2474620D01*
X5381142Y-2472639D01*
X5391912Y-2468321D01*
X5401919Y-2462377D01*
X5410860Y-2454960D01*
X5418582Y-2446274D01*
X5424932Y-2436571D01*
X5429656Y-2425954D01*
X5432755Y-2414727D01*
X5434076Y-2403195D01*
X5434025Y-2401265D01*
X5434685Y-2397201D01*
X5436971Y-2393696D01*
X5563463Y-2267254D01*
X5566714Y-2265019D01*
X5570626Y-2264257D01*
X5655208Y-2264257D01*
X5659374Y-2265172D01*
X5662828Y-2267661D01*
X5664911Y-2271318D01*
X5665317Y-2275890D01*
X5665317Y-2331466D01*
X5734862Y-2331466D01*
X5734862Y-2274417D01*
X5735624Y-2270556D01*
X5737809Y-2267254D01*
X5741111Y-2265019D01*
X5745022Y-2264257D01*
X5837377Y-2264257D01*
X5841288Y-2265019D01*
X5844590Y-2267254D01*
X5846775Y-2270556D01*
X5847537Y-2274417D01*
X5847537Y-2331466D01*
X5913424Y-2331466D01*
X5917133Y-2332177D01*
X5920333Y-2334158D01*
X5922619Y-2337206D01*
X5923584Y-2340864D01*
X5922975Y-2345182D01*
X5920232Y-2360117D01*
X5919317Y-2375611D01*
X5919317Y-2424988D01*
X5920232Y-2440482D01*
X5923127Y-2455976D01*
X5923584Y-2459736D01*
X5922619Y-2463393D01*
X5920333Y-2466441D01*
X5917133Y-2468422D01*
X5913424Y-2469134D01*
X5847537Y-2469134D01*
X5847537Y-2551226D01*
X5890615Y-2551226D01*
X5896965Y-2550515D01*
X5902401Y-2548585D01*
X5907328Y-2545486D01*
X5911392Y-2541422D01*
X5914491Y-2536494D01*
X5916371Y-2531059D01*
X5917133Y-2524709D01*
X5917133Y-2492756D01*
X5918047Y-2488488D01*
X5920689Y-2485034D01*
X5924550Y-2482951D01*
X5928918Y-2482748D01*
X5932932Y-2484323D01*
X5935980Y-2487472D01*
X5941618Y-2496820D01*
X5950966Y-2508758D01*
X5961735Y-2519527D01*
X5973673Y-2528925D01*
X5986678Y-2536748D01*
X5988304Y-2537510D01*
X5991453Y-2539695D01*
X5993536Y-2542946D01*
X5994298Y-2546756D01*
X5994298Y-2719171D01*
X5993536Y-2723083D01*
X5991301Y-2726334D01*
X5913628Y-2804007D01*
X5910681Y-2806090D01*
X5907227Y-2806954D01*
X5895035Y-2807919D01*
X5883757Y-2810560D01*
X5872988Y-2814878D01*
X5862980Y-2820822D01*
X5854039Y-2828239D01*
X5846318Y-2836926D01*
X5843016Y-2841955D01*
X5839968Y-2845003D01*
G37*

%LPC*%
G36*
X5691784Y-2551226D02*
G01*
X5734862Y-2551226D01*
X5734862Y-2469134D01*
X5665317Y-2469134D01*
X5665317Y-2524709D01*
X5666028Y-2531059D01*
X5667908Y-2536494D01*
X5671007Y-2541422D01*
X5675071Y-2545486D01*
X5679998Y-2548585D01*
X5685434Y-2550515D01*
G37*

%LPD*%
G36*
X5635345Y-3329533D02*
G01*
X5631180Y-3328822D01*
X5627624Y-3326536D01*
X5540298Y-3239160D01*
X5538063Y-3235909D01*
X5537301Y-3231997D01*
X5537301Y-3180638D01*
X5538063Y-3176778D01*
X5540298Y-3173476D01*
X5543600Y-3171240D01*
X5547461Y-3170478D01*
X5551373Y-3171240D01*
X5554675Y-3173476D01*
X5557367Y-3176168D01*
X5567121Y-3183483D01*
X5577230Y-3188970D01*
X5577230Y-3147720D01*
X5547461Y-3147720D01*
X5543600Y-3146907D01*
X5540298Y-3144723D01*
X5538063Y-3141421D01*
X5537301Y-3137560D01*
X5537301Y-3085490D01*
X5538063Y-3081578D01*
X5540298Y-3078276D01*
X5543600Y-3076092D01*
X5547461Y-3075330D01*
X5577230Y-3075330D01*
X5577230Y-3034030D01*
X5567121Y-3039516D01*
X5557367Y-3046831D01*
X5554675Y-3049524D01*
X5551373Y-3051759D01*
X5547461Y-3052521D01*
X5543600Y-3051759D01*
X5540298Y-3049524D01*
X5538063Y-3046222D01*
X5537301Y-3042361D01*
X5537301Y-2959303D01*
X5537098Y-2954680D01*
X5536539Y-2950260D01*
X5535574Y-2945942D01*
X5534253Y-2941675D01*
X5532526Y-2937611D01*
X5530494Y-2933649D01*
X5528106Y-2929890D01*
X5525414Y-2926384D01*
X5522264Y-2922930D01*
X5447334Y-2848051D01*
X5444998Y-2844393D01*
X5444388Y-2840126D01*
X5444947Y-2832100D01*
X5444083Y-2819908D01*
X5441492Y-2807970D01*
X5437225Y-2796540D01*
X5431383Y-2785821D01*
X5424068Y-2776067D01*
X5415432Y-2767431D01*
X5405678Y-2760116D01*
X5394960Y-2754274D01*
X5383530Y-2750007D01*
X5371592Y-2747416D01*
X5359400Y-2746552D01*
X5347208Y-2747416D01*
X5335270Y-2750007D01*
X5323840Y-2754274D01*
X5313121Y-2760116D01*
X5303367Y-2767431D01*
X5294731Y-2776067D01*
X5287416Y-2785821D01*
X5281574Y-2796540D01*
X5277307Y-2807970D01*
X5274716Y-2819908D01*
X5273852Y-2832100D01*
X5274716Y-2844292D01*
X5277307Y-2856230D01*
X5281574Y-2867660D01*
X5287416Y-2878378D01*
X5294731Y-2888132D01*
X5303367Y-2896768D01*
X5313121Y-2904083D01*
X5323840Y-2909925D01*
X5335270Y-2914192D01*
X5347208Y-2916783D01*
X5359400Y-2917647D01*
X5367426Y-2917088D01*
X5371693Y-2917698D01*
X5375351Y-2920034D01*
X5432501Y-2977235D01*
X5434736Y-2980486D01*
X5435498Y-2984398D01*
X5435498Y-3042361D01*
X5434736Y-3046222D01*
X5432501Y-3049524D01*
X5429199Y-3051759D01*
X5425338Y-3052521D01*
X5421426Y-3051759D01*
X5418124Y-3049524D01*
X5415432Y-3046831D01*
X5405678Y-3039516D01*
X5394960Y-3033674D01*
X5383530Y-3029407D01*
X5371592Y-3026816D01*
X5359400Y-3025952D01*
X5347208Y-3026816D01*
X5335270Y-3029407D01*
X5323840Y-3033674D01*
X5313121Y-3039516D01*
X5303367Y-3046831D01*
X5291683Y-3058718D01*
X5288889Y-3060090D01*
X5285790Y-3060598D01*
X5272684Y-3060598D01*
X5268772Y-3059836D01*
X5265521Y-3057601D01*
X5062677Y-2854807D01*
X5060442Y-2851505D01*
X5059680Y-2847594D01*
X5060442Y-2843733D01*
X5062677Y-2840431D01*
X5065979Y-2838196D01*
X5069840Y-2837434D01*
X5074666Y-2837434D01*
X5089347Y-2835605D01*
X5103622Y-2832049D01*
X5117388Y-2826715D01*
X5130393Y-2819704D01*
X5142433Y-2811170D01*
X5153355Y-2801264D01*
X5162956Y-2790037D01*
X5171084Y-2777744D01*
X5177688Y-2764536D01*
X5182616Y-2750616D01*
X5185765Y-2736189D01*
X5187137Y-2721508D01*
X5186680Y-2706725D01*
X5184394Y-2692146D01*
X5180330Y-2677972D01*
X5174589Y-2664358D01*
X5167223Y-2651607D01*
X5158333Y-2639822D01*
X5148072Y-2629204D01*
X5136540Y-2619959D01*
X5129022Y-2615285D01*
X5125872Y-2612288D01*
X5124348Y-2608224D01*
X5124602Y-2603855D01*
X5126634Y-2600045D01*
X5130139Y-2597404D01*
X5134356Y-2596489D01*
X5465673Y-2596489D01*
X5469585Y-2597251D01*
X5472836Y-2599486D01*
X5646623Y-2773222D01*
X5648807Y-2776524D01*
X5649620Y-2780436D01*
X5649620Y-2795930D01*
X5665063Y-2795930D01*
X5668975Y-2796692D01*
X5672277Y-2798876D01*
X5719521Y-2846171D01*
X5721756Y-2849422D01*
X5722518Y-2853334D01*
X5722518Y-3267252D01*
X5722721Y-3271672D01*
X5722162Y-3275380D01*
X5720283Y-3278682D01*
X5717336Y-3281070D01*
X5713730Y-3282187D01*
X5708548Y-3281527D01*
X5698744Y-3280664D01*
X5688939Y-3281527D01*
X5679440Y-3284067D01*
X5670550Y-3288233D01*
X5662523Y-3293872D01*
X5655564Y-3300831D01*
X5649925Y-3308858D01*
X5645759Y-3317748D01*
X5644642Y-3322015D01*
X5642711Y-3325774D01*
X5639460Y-3328415D01*
G37*

%LPC*%
G36*
X5649620Y-3188970D02*
G01*
X5659678Y-3183483D01*
X5669432Y-3176168D01*
X5678068Y-3167532D01*
X5685383Y-3157778D01*
X5690870Y-3147720D01*
X5649620Y-3147720D01*
G37*
G36*
X5649620Y-3075330D02*
G01*
X5690870Y-3075330D01*
X5685383Y-3065221D01*
X5678068Y-3055467D01*
X5669432Y-3046831D01*
X5659678Y-3039516D01*
X5649620Y-3034030D01*
G37*
G36*
X5649620Y-2909570D02*
G01*
X5659678Y-2904083D01*
X5669432Y-2896768D01*
X5678068Y-2888132D01*
X5685383Y-2878378D01*
X5690870Y-2868320D01*
X5649620Y-2868320D01*
G37*
G36*
X5577230Y-2909570D02*
G01*
X5577230Y-2868320D01*
X5535930Y-2868320D01*
X5541416Y-2878378D01*
X5548731Y-2888132D01*
X5557367Y-2896768D01*
X5567121Y-2904083D01*
G37*
G36*
X5535930Y-2795930D02*
G01*
X5577230Y-2795930D01*
X5577230Y-2754630D01*
X5567121Y-2760116D01*
X5557367Y-2767431D01*
X5548731Y-2776067D01*
X5541416Y-2785821D01*
G37*

%LPD*%
D10*
X3349752Y-2781300D02*
G01*
X3349752Y-3282442D01*
X3837686Y-3770376D01*
X3929888Y-3770376D01*
X3979163Y-3721100D01*
X4264152Y-4579620D02*
G01*
X4301490Y-4616957D01*
X4540758Y-4616957D01*
X4686300Y-4762500D01*
X3749547Y-2781300D02*
G01*
X3749547Y-3483863D01*
X3857752Y-3592068D01*
X3856736Y-4226305D02*
G01*
X3856736Y-3998976D01*
X4440174Y-3415537D01*
X4440174Y-3156457D01*
X4349495Y-3066034D01*
X4349495Y-2936494D01*
X4349495Y-2781300D02*
G01*
X4349495Y-2936494D01*
X4549647Y-2936494D02*
G01*
X4483100Y-3003042D01*
X4483100Y-3078226D01*
X4483100Y-3078226D01*
X4775200Y-2527300D02*
G01*
X4848352Y-2600452D01*
X4848352Y-2712465D01*
X5247386Y-3111500D01*
X5359400Y-3111500D01*
X4549647Y-2626105D02*
G01*
X4549647Y-2568447D01*
X4619752Y-2498597D01*
X4746497Y-2498597D01*
X4775200Y-2527300D01*
X3606800Y-2197100D02*
G01*
X4076700Y-2197100D01*
X4368800Y-2489200D01*
X4549647Y-2781300D02*
G01*
X4549647Y-2936494D01*
X2645663Y-3333495D02*
G01*
X2645663Y-2418334D01*
X2424176Y-2197100D01*
X2374900Y-2197100D01*
X2400300Y-4628642D02*
G01*
X2645663Y-4383278D01*
X2645663Y-3333495D01*
X6045200Y-2581402D02*
G01*
X6045200Y-2400300D01*
X5906770Y-2882900D02*
G01*
X6045200Y-2744470D01*
X6045200Y-2581402D01*
X6045200Y-2581402D02*
G01*
X6587997Y-2581402D01*
X6921500Y-2247900D01*
X4368800Y-2489200D02*
G01*
X4412741Y-2489200D01*
X4549647Y-2626105D01*
X7213600Y-2997200D02*
G01*
X7213600Y-2540000D01*
X6921500Y-2247900D01*
X7226300Y-4762500D02*
G01*
X7287768Y-4701031D01*
X7287768Y-3071368D01*
X7213600Y-2997200D01*
X4549647Y-2781300D02*
G01*
X4549647Y-2626105D01*
X2400300Y-4762500D02*
G01*
X2400300Y-4628642D01*
X4150106Y-4381754D02*
G01*
X4150106Y-3932681D01*
X4417568Y-3665220D01*
X4456175Y-3665220D01*
X4591050Y-3530345D01*
X4591050Y-3009645D01*
X4655311Y-2945637D01*
X4655311Y-2584195D01*
X2470150Y-2489200D02*
G01*
X2470150Y-3418078D01*
X2165350Y-3722878D01*
X3949954Y-4226305D02*
G01*
X3949954Y-4019295D01*
X4446777Y-3522471D01*
X4471670Y-3522471D01*
X3949954Y-4381500D02*
G01*
X3949954Y-4226305D01*
X4368800Y-2197100D02*
G01*
X4572000Y-2400300D01*
X4844034Y-2400300D01*
X4989322Y-2545587D01*
X5490972Y-2545587D01*
X5773420Y-2828036D01*
X5773420Y-3267455D01*
X6065520Y-3559555D01*
X4149597Y-2936494D02*
G01*
X4029202Y-3056889D01*
X4029202Y-3511804D01*
X4149597Y-2781300D02*
G01*
X4149597Y-2936494D01*
X3034284Y-4353052D02*
G01*
X3062731Y-4381500D01*
X3149854Y-4381500D01*
X6464300Y-4762500D02*
G01*
X5835395Y-4133595D01*
X5829554Y-4133595D01*
X5415534Y-4009644D02*
G01*
X5425947Y-4020312D01*
X5425947Y-4476242D01*
X5293613Y-4608576D01*
X5239258Y-4608576D01*
X5239258Y-4608576D02*
G01*
X5140197Y-4509515D01*
X5239258Y-4608576D02*
G01*
X5239258Y-4717542D01*
X5194300Y-4762500D01*
X4726686Y-4392168D02*
G01*
X4715509Y-4381245D01*
X4550156Y-4381245D01*
X5415534Y-4009644D02*
G01*
X5415534Y-3892804D01*
X5067300Y-3544570D01*
X5067300Y-3479800D01*
X2654300Y-4762500D02*
G01*
X2776727Y-4640071D01*
X2776727Y-3085337D01*
X6807200Y-3684523D02*
G01*
X6482334Y-4009644D01*
X6337300Y-3048000D02*
G01*
X6807200Y-3517900D01*
X6807200Y-3684523D01*
X6807200Y-3684523D02*
G01*
X7132320Y-4009644D01*
X6056884Y-2882900D02*
G01*
X6172200Y-2882900D01*
X6337300Y-3048000D01*
X5613400Y-2832100D02*
G01*
X5613400Y-3111500D01*
X6972300Y-4762500D02*
G01*
X7132320Y-4602734D01*
X7132320Y-4009644D01*
X4904740Y-4081018D02*
G01*
X4930140Y-4055871D01*
X5031486Y-4055871D01*
X5340350Y-4364736D01*
X5340350Y-4414773D01*
X4749800Y-4081018D02*
G01*
X4904740Y-4081018D01*
X3949700Y-2936494D02*
G01*
X3943604Y-2942844D01*
X3943604Y-3627628D01*
X3886454Y-3684778D01*
X3877818Y-3684778D01*
X3877818Y-3684778D01*
X3949700Y-2781300D02*
G01*
X3949700Y-2936494D01*
X3350006Y-4381500D02*
G01*
X3260852Y-4470654D01*
X3260852Y-4529581D01*
X5702300Y-4762500D02*
G01*
X5743447Y-4721352D01*
X5743447Y-3381755D01*
X5698743Y-3337052D01*
X4904740Y-3281171D02*
G01*
X4945379Y-3281171D01*
X4994909Y-3330702D01*
X4749800Y-3281171D02*
G01*
X4904740Y-3281171D01*
X4594606Y-3681221D02*
G01*
X4494022Y-3781805D01*
X4422393Y-3781805D01*
X4749800Y-3681221D02*
G01*
X4594606Y-3681221D01*
X4354322Y-3192018D02*
G01*
X4354322Y-3315715D01*
X4108704Y-3561334D01*
X4749800Y-3881120D02*
G01*
X4904740Y-3881120D01*
X4911597Y-3499104D02*
G01*
X4911597Y-3874515D01*
X4904740Y-3881120D01*
X4985258Y-4152645D02*
G01*
X4985258Y-4255007D01*
X4703572Y-4536439D01*
X4349750Y-4536439D01*
X4349750Y-4381500D02*
G01*
X4349750Y-4536439D01*
X4762754Y-2738373D02*
G01*
X4762754Y-2740405D01*
X5417311Y-3394963D01*
X5487161Y-3394963D01*
X5570727Y-3478529D01*
X5570727Y-3653789D01*
X5531104Y-3693668D01*
X5639308Y-4596384D02*
G01*
X5663184Y-4572507D01*
X5663184Y-3434079D01*
X5486400Y-3257295D01*
X5486400Y-2959100D01*
X5359400Y-2832100D01*
X5358384Y-2400300D02*
G01*
X5545327Y-2213355D01*
X6112256Y-2213355D01*
X6299200Y-2400300D01*
X3149600Y-2781300D02*
G01*
X3149600Y-2626105D01*
X3136900Y-2197100D02*
G01*
X3078734Y-2255265D01*
X3078734Y-2555239D01*
X3149600Y-2626105D01*
X5448300Y-4762500D02*
G01*
X5448300Y-4632960D01*
X5582665Y-4498594D01*
X5582665Y-3946397D01*
X5218938Y-3582670D01*
X5218938Y-3395218D01*
X4904993Y-3081528D01*
X4749800Y-3081528D02*
G01*
X4904993Y-3081528D01*
X3549904Y-4536694D02*
G01*
X3388106Y-4536694D01*
X3162300Y-4762500D01*
X3549904Y-4381500D02*
G01*
X3549904Y-4536694D01*
X2908300Y-4762500D02*
G01*
X2908300Y-4357878D01*
X3039872Y-4226305D01*
X3750056Y-4226305D01*
X3750056Y-4381500D02*
G01*
X3750056Y-4226305D01*
X3606800Y-2489200D02*
G01*
X3549650Y-2546350D01*
X3549650Y-2781300D01*
D11*
G01*
X3149600Y-2781300D03*
D12*
G01*
X3349625Y-2781300D03*
D11*
G01*
X3549650Y-2781300D03*
G01*
X3749547Y-2781300D03*
G01*
X3949700Y-2781300D03*
G01*
X4149597Y-2781300D03*
G01*
X4349496Y-2781300D03*
G01*
X4549647Y-2781300D03*
D13*
G01*
X4749800Y-3081401D03*
D14*
G01*
X4749673Y-3281172D03*
G01*
X4749673Y-3481069D03*
G01*
X4749673Y-3681222D03*
G01*
X4749673Y-3881119D03*
G01*
X4749673Y-4081017D03*
D15*
G01*
X4550155Y-4381246D03*
D16*
G01*
X4349750Y-4381372D03*
D17*
G01*
X4149979Y-4381627D03*
D15*
G01*
X3949953Y-4381500D03*
D17*
G01*
X3749929Y-4381372D03*
D15*
G01*
X3549903Y-4381500D03*
D18*
G01*
X3349879Y-4381500D03*
D15*
G01*
X3149853Y-4381500D03*
D19*
G01*
X6065393Y-3559606D03*
G01*
X5415406Y-3559606D03*
G01*
X5415406Y-4009593D03*
G01*
X6065393Y-4009593D03*
G01*
X6482206Y-4009593D03*
G01*
X7132193Y-4009593D03*
G01*
X7132193Y-3559606D03*
G01*
X6482206Y-3559606D03*
D20*
G01*
X6921500Y-3009900D03*
G01*
X6921500Y-2247900D03*
D21*
G01*
X6337300Y-3302000D03*
G01*
X6337300Y-3048000D03*
D22*
G01*
X5613400Y-3111500D03*
G01*
X5359400Y-3111500D03*
D20*
G01*
X3136900Y-2197100D03*
G01*
X2374900Y-2197100D03*
G01*
X3606800Y-2489200D03*
G01*
X4368800Y-2489200D03*
G01*
X5067300Y-3479800D03*
G01*
X5067300Y-2717800D03*
G01*
X7213600Y-2997200D03*
G01*
X7213600Y-2235200D03*
G01*
X4368800Y-2197100D03*
G01*
X3606800Y-2197100D03*
D22*
G01*
X4775200Y-2527300D03*
G01*
X4775200Y-2273300D03*
D23*
G01*
X2470150Y-2489200D03*
G01*
X3244850Y-2489200D03*
D24*
G01*
X5791200Y-2400300D03*
D25*
G01*
X6299200Y-2400300D03*
G01*
X6045200Y-2400300D03*
D26*
G01*
X5208143Y-2400300D03*
G01*
X5358256Y-2400300D03*
D22*
G01*
X5613400Y-2832100D03*
G01*
X5359400Y-2832100D03*
D26*
G01*
X6056756Y-2882900D03*
G01*
X5906643Y-2882900D03*
D27*
G01*
X7226300Y-4762500D03*
G01*
X6972300Y-4762500D03*
G01*
X6718300Y-4762500D03*
G01*
X6464300Y-4762500D03*
G01*
X6210300Y-4762500D03*
G01*
X5956300Y-4762500D03*
G01*
X5702300Y-4762500D03*
G01*
X5448300Y-4762500D03*
G01*
X5194300Y-4762500D03*
G01*
X4940300Y-4762500D03*
G01*
X4686300Y-4762500D03*
G01*
X4432300Y-4762500D03*
G01*
X4178300Y-4762500D03*
G01*
X3924300Y-4762500D03*
G01*
X3670300Y-4762500D03*
G01*
X3416300Y-4762500D03*
G01*
X3162300Y-4762500D03*
G01*
X2908300Y-4762500D03*
G01*
X2654300Y-4762500D03*
D28*
G01*
X2400300Y-4762500D03*
D29*
G01*
X4264152Y-4579620D03*
G01*
X3979163Y-3721100D03*
G01*
X3857752Y-3592068D03*
G01*
X3856736Y-4226305D03*
G01*
X4483100Y-3078226D03*
G01*
X2645663Y-3333495D03*
G01*
X4655311Y-2584195D03*
G01*
X2165350Y-3722878D03*
G01*
X4471670Y-3522471D03*
G01*
X4029202Y-3511804D03*
G01*
X3034284Y-4353052D03*
G01*
X5829554Y-4133595D03*
G01*
X4726686Y-4392168D03*
G01*
X5140197Y-4509515D03*
G01*
X2776727Y-3085337D03*
G01*
X5340350Y-4414773D03*
G01*
X3877818Y-3684778D03*
G01*
X3260852Y-4529581D03*
G01*
X4994909Y-3330702D03*
G01*
X5698743Y-3337052D03*
G01*
X4422393Y-3781805D03*
G01*
X4911597Y-3499104D03*
G01*
X4354322Y-3192018D03*
G01*
X4108704Y-3561334D03*
G01*
X4985258Y-4152645D03*
G01*
X5531104Y-3693668D03*
G01*
X4762754Y-2738373D03*
G01*
X5639308Y-4596384D03*
M02*
