G04 Layer: TopSolderMaskLayer*
G04 EasyEDA v6.5.48, 2025-03-08 11:52:12*
G04 30e90ac5d70944fe866dc529022a22e9,369c048249c94b259d5cf78f180de413,10*
G04 Gerber Generator version 0.2*
G04 Scale: 100 percent, Rotated: No, Reflected: No *
G04 Dimensions in millimeters *
G04 leading zeros omitted , absolute positions ,4 integer and 5 decimal *
%FSLAX45Y45*%
%MOMM*%

%AMMACRO1*4,1,8,-1.0428,-1.3513,-1.1024,-1.2917,-1.1024,1.2918,-1.0428,1.3513,1.0428,1.3513,1.1024,1.2918,1.1024,-1.2917,1.0428,-1.3513,-1.0428,-1.3513,0*%
%AMMACRO2*4,1,8,-0.8295,-0.889,-0.889,-0.8295,-0.889,0.8295,-0.8295,0.889,0.8295,0.889,0.889,0.8295,0.889,-0.8295,0.8295,-0.889,-0.8295,-0.889,0*%
%AMMACRO3*4,1,8,-6.3921,-0.7366,-6.4516,-0.6771,-6.4516,0.6771,-6.3921,0.7366,6.3921,0.7366,6.4516,0.6771,6.4516,-0.6771,6.3921,-0.7366,-6.3921,-0.7366,0*%
%AMMACRO4*4,1,8,-6.0746,-0.7366,-6.1341,-0.6771,-6.1341,0.6771,-6.0746,0.7366,6.0746,0.7366,6.1341,0.6771,6.1341,-0.6771,6.0746,-0.7366,-6.0746,-0.7366,0*%
%ADD10C,2.2032*%
%ADD11C,2.0828*%
%ADD12C,1.8542*%
%ADD13C,1.3970*%
%ADD14C,2.3622*%
%ADD15MACRO1*%
%ADD16O,2.2031959999999997X2.7031949999999996*%
%ADD17C,1.2032*%
%ADD18C,1.7780*%
%ADD19MACRO2*%
%ADD20MACRO3*%
%ADD21MACRO4*%

%LPD*%
D10*
G01*
X6065393Y-3559606D03*
G01*
X5415406Y-3559606D03*
G01*
X5415406Y-4009593D03*
G01*
X6065393Y-4009593D03*
G01*
X6482206Y-4009593D03*
G01*
X7132193Y-4009593D03*
G01*
X7132193Y-3559606D03*
G01*
X6482206Y-3559606D03*
D11*
G01*
X6921500Y-3009900D03*
G01*
X6921500Y-2247900D03*
D12*
G01*
X6337300Y-3302000D03*
G01*
X6337300Y-3048000D03*
D13*
G01*
X5613400Y-3111500D03*
G01*
X5359400Y-3111500D03*
D11*
G01*
X3136900Y-2197100D03*
G01*
X2374900Y-2197100D03*
G01*
X3606800Y-2489200D03*
G01*
X4368800Y-2489200D03*
G01*
X5067300Y-3479800D03*
G01*
X5067300Y-2717800D03*
G01*
X7213600Y-2997200D03*
G01*
X7213600Y-2235200D03*
G01*
X4368800Y-2197100D03*
G01*
X3606800Y-2197100D03*
D13*
G01*
X4775200Y-2527300D03*
G01*
X4775200Y-2273300D03*
D14*
G01*
X2470150Y-2489200D03*
G01*
X3244850Y-2489200D03*
D15*
G01*
X5791200Y-2400300D03*
D16*
G01*
X6299200Y-2400300D03*
G01*
X6045200Y-2400300D03*
D17*
G01*
X5208143Y-2400300D03*
G01*
X5358256Y-2400300D03*
D13*
G01*
X5613400Y-2832100D03*
G01*
X5359400Y-2832100D03*
D17*
G01*
X6056756Y-2882900D03*
G01*
X5906643Y-2882900D03*
D18*
G01*
X7226300Y-4762500D03*
G01*
X6972300Y-4762500D03*
G01*
X6718300Y-4762500D03*
G01*
X6464300Y-4762500D03*
G01*
X6210300Y-4762500D03*
G01*
X5956300Y-4762500D03*
G01*
X5702300Y-4762500D03*
G01*
X5448300Y-4762500D03*
G01*
X5194300Y-4762500D03*
G01*
X4940300Y-4762500D03*
G01*
X4686300Y-4762500D03*
G01*
X4432300Y-4762500D03*
G01*
X4178300Y-4762500D03*
G01*
X3924300Y-4762500D03*
G01*
X3670300Y-4762500D03*
G01*
X3416300Y-4762500D03*
G01*
X3162300Y-4762500D03*
G01*
X2908300Y-4762500D03*
G01*
X2654300Y-4762500D03*
D19*
G01*
X2400300Y-4762500D03*
D20*
G01*
X1511300Y-3848100D03*
D21*
G01*
X1543050Y-3575050D03*
G01*
X1543050Y-3358388D03*
D20*
G01*
X1511300Y-3085338D03*
M02*
