G04 Layer: BottomSilkscreenLayer*
G04 EasyEDA v6.5.48, 2025-03-08 11:52:12*
G04 30e90ac5d70944fe866dc529022a22e9,369c048249c94b259d5cf78f180de413,10*
G04 Gerber Generator version 0.2*
G04 Scale: 100 percent, Rotated: No, Reflected: No *
G04 Dimensions in millimeters *
G04 leading zeros omitted , absolute positions ,4 integer and 5 decimal *
%FSLAX45Y45*%
%MOMM*%

%ADD10C,0.1524*%
%ADD11C,0.2032*%
%ADD12C,0.2540*%

%LPD*%
G36*
X6826453Y-3986072D02*
G01*
X6809587Y-3986428D01*
X6791655Y-3987241D01*
X6777736Y-3988308D01*
X6764578Y-3989933D01*
X6752132Y-3992168D01*
X6740194Y-3994962D01*
X6728714Y-3998417D01*
X6717436Y-4002582D01*
X6706260Y-4007510D01*
X6695135Y-4013149D01*
X6683806Y-4019651D01*
X6674103Y-4025849D01*
X6666026Y-4031996D01*
X6657695Y-4039108D01*
X6649415Y-4047134D01*
X6641236Y-4055821D01*
X6633362Y-4065015D01*
X6625844Y-4074515D01*
X6618935Y-4084218D01*
X6612737Y-4093921D01*
X6607403Y-4103471D01*
X6600596Y-4117746D01*
X6596989Y-4125874D01*
X6594297Y-4132579D01*
X6592671Y-4138066D01*
X6592062Y-4142384D01*
X6592519Y-4145737D01*
X6594144Y-4148175D01*
X6596938Y-4149902D01*
X6601002Y-4151020D01*
X6606336Y-4151629D01*
X6612991Y-4151934D01*
X6636715Y-4152290D01*
X6645554Y-4153458D01*
X6649466Y-4156201D01*
X6650329Y-4160977D01*
X6649466Y-4165803D01*
X6645808Y-4168495D01*
X6637680Y-4169714D01*
X6623303Y-4170019D01*
X6596278Y-4170019D01*
X6596278Y-4260189D01*
X6668922Y-4260189D01*
X6668922Y-4253128D01*
X6669278Y-4246321D01*
X6670090Y-4239869D01*
X6671208Y-4233672D01*
X6672783Y-4227880D01*
X6674662Y-4222445D01*
X6676948Y-4217416D01*
X6679590Y-4212793D01*
X6682536Y-4208627D01*
X6685889Y-4204868D01*
X6689547Y-4201617D01*
X6693408Y-4199026D01*
X6697878Y-4196892D01*
X6702755Y-4195165D01*
X6707987Y-4193895D01*
X6713423Y-4193082D01*
X6719011Y-4192676D01*
X6724599Y-4192727D01*
X6730136Y-4193235D01*
X6735419Y-4194200D01*
X6740347Y-4195622D01*
X6744919Y-4197553D01*
X6748881Y-4199890D01*
X6752336Y-4202633D01*
X6755485Y-4205833D01*
X6758431Y-4209592D01*
X6761124Y-4213758D01*
X6763562Y-4218279D01*
X6765696Y-4223258D01*
X6767575Y-4228541D01*
X6769100Y-4234129D01*
X6770319Y-4239971D01*
X6771233Y-4246067D01*
X6771741Y-4252366D01*
X6771944Y-4258818D01*
X6771690Y-4265523D01*
X6770979Y-4271975D01*
X6769862Y-4278172D01*
X6768287Y-4284065D01*
X6766356Y-4289704D01*
X6764020Y-4294987D01*
X6761327Y-4299915D01*
X6758330Y-4304538D01*
X6755028Y-4308703D01*
X6751472Y-4312462D01*
X6749567Y-4314139D01*
X6798970Y-4314139D01*
X6799580Y-4309973D01*
X6801510Y-4307179D01*
X6805015Y-4305604D01*
X6810248Y-4305147D01*
X6821525Y-4305147D01*
X6821525Y-4165498D01*
X6810248Y-4165498D01*
X6805523Y-4165041D01*
X6801967Y-4163720D01*
X6799732Y-4161586D01*
X6798970Y-4158742D01*
X6800291Y-4155440D01*
X6804964Y-4153357D01*
X6813956Y-4152290D01*
X6828231Y-4151985D01*
X6842556Y-4152290D01*
X6851548Y-4153357D01*
X6856222Y-4155440D01*
X6857542Y-4158742D01*
X6856831Y-4161383D01*
X6854901Y-4163517D01*
X6852056Y-4164990D01*
X6846519Y-4165600D01*
X6844842Y-4166057D01*
X6843471Y-4167022D01*
X6842353Y-4168749D01*
X6841490Y-4171492D01*
X6840778Y-4175353D01*
X6840270Y-4180636D01*
X6839712Y-4196232D01*
X6839508Y-4219905D01*
X6839610Y-4263694D01*
X6839915Y-4283151D01*
X6840270Y-4290009D01*
X6840778Y-4295292D01*
X6841490Y-4299204D01*
X6842353Y-4301896D01*
X6843471Y-4303623D01*
X6844842Y-4304639D01*
X6846519Y-4305046D01*
X6852462Y-4305706D01*
X6855307Y-4307382D01*
X6856984Y-4310227D01*
X6857542Y-4314139D01*
X6856679Y-4318965D01*
X6852767Y-4321708D01*
X6843928Y-4322876D01*
X6828231Y-4323181D01*
X6812584Y-4322876D01*
X6803745Y-4321708D01*
X6799834Y-4318965D01*
X6798970Y-4314139D01*
X6749567Y-4314139D01*
X6747662Y-4315815D01*
X6743598Y-4318711D01*
X6739331Y-4321098D01*
X6734911Y-4322978D01*
X6730288Y-4324350D01*
X6725564Y-4325213D01*
X6720687Y-4325467D01*
X6715759Y-4325112D01*
X6710781Y-4324146D01*
X6705701Y-4322521D01*
X6700316Y-4320235D01*
X6695338Y-4317492D01*
X6690868Y-4314444D01*
X6686803Y-4310938D01*
X6683146Y-4307078D01*
X6679946Y-4302760D01*
X6677202Y-4298035D01*
X6674815Y-4292904D01*
X6672884Y-4287266D01*
X6671309Y-4281170D01*
X6670141Y-4274616D01*
X6669328Y-4267555D01*
X6668922Y-4260189D01*
X6596278Y-4260189D01*
X6596227Y-4277817D01*
X6595872Y-4299153D01*
X6595516Y-4306671D01*
X6595008Y-4312462D01*
X6594348Y-4316730D01*
X6593433Y-4319676D01*
X6592316Y-4321556D01*
X6590944Y-4322622D01*
X6589268Y-4323080D01*
X6585254Y-4323080D01*
X6583578Y-4322622D01*
X6582206Y-4321556D01*
X6581089Y-4319676D01*
X6580174Y-4316730D01*
X6579514Y-4312462D01*
X6579006Y-4306671D01*
X6578447Y-4289602D01*
X6578244Y-4263542D01*
X6578244Y-4170019D01*
X6551218Y-4170019D01*
X6536994Y-4169714D01*
X6528816Y-4168495D01*
X6525107Y-4165854D01*
X6524193Y-4161282D01*
X6525006Y-4156862D01*
X6528003Y-4153966D01*
X6533845Y-4152137D01*
X6543344Y-4151071D01*
X6562496Y-4149598D01*
X6542278Y-4143552D01*
X6537096Y-4142232D01*
X6531711Y-4141165D01*
X6526072Y-4140454D01*
X6520281Y-4139996D01*
X6514388Y-4139793D01*
X6502247Y-4140250D01*
X6496100Y-4140860D01*
X6483858Y-4142892D01*
X6477812Y-4144213D01*
X6466027Y-4147616D01*
X6454952Y-4151934D01*
X6449720Y-4154373D01*
X6444792Y-4157014D01*
X6440119Y-4159859D01*
X6435852Y-4162907D01*
X6431889Y-4166057D01*
X6428486Y-4169410D01*
X6424726Y-4173626D01*
X6420764Y-4178604D01*
X6416751Y-4184091D01*
X6408928Y-4196080D01*
X6402273Y-4208221D01*
X6398158Y-4216857D01*
X6394907Y-4224274D01*
X6392570Y-4230878D01*
X6390894Y-4237177D01*
X6389928Y-4243578D01*
X6389471Y-4250537D01*
X6389471Y-4258614D01*
X6391300Y-4299610D01*
X6356654Y-4302506D01*
X6350254Y-4303369D01*
X6344056Y-4304487D01*
X6332067Y-4307433D01*
X6326276Y-4309262D01*
X6320688Y-4311294D01*
X6315202Y-4313580D01*
X6309868Y-4316120D01*
X6304635Y-4318914D01*
X6299606Y-4321911D01*
X6294678Y-4325162D01*
X6285230Y-4332376D01*
X6280759Y-4336338D01*
X6276390Y-4340555D01*
X6268110Y-4349699D01*
X6260338Y-4359859D01*
X6256629Y-4365244D01*
X6249720Y-4376877D01*
X6246418Y-4383024D01*
X6243066Y-4389882D01*
X6240373Y-4396181D01*
X6238290Y-4402328D01*
X6236716Y-4408525D01*
X6235598Y-4415129D01*
X6234887Y-4422495D01*
X6234480Y-4430826D01*
X6234430Y-4447946D01*
X6234785Y-4454956D01*
X6235395Y-4461713D01*
X6236258Y-4468114D01*
X6237427Y-4474311D01*
X6238849Y-4480255D01*
X6240627Y-4485995D01*
X6242710Y-4491532D01*
X6245098Y-4496968D01*
X6247841Y-4502302D01*
X6250940Y-4507534D01*
X6254445Y-4512716D01*
X6258306Y-4517898D01*
X6262522Y-4523079D01*
X6267196Y-4528312D01*
X6286093Y-4547870D01*
X6290462Y-4551629D01*
X6295810Y-4555134D01*
X6316980Y-4555134D01*
X6317335Y-4552543D01*
X6318300Y-4550359D01*
X6319774Y-4548936D01*
X6321501Y-4548378D01*
X6322161Y-4547870D01*
X6322822Y-4546396D01*
X6323888Y-4540504D01*
X6324803Y-4531004D01*
X6325463Y-4518152D01*
X6325870Y-4502150D01*
X6326022Y-4483354D01*
X6325870Y-4465066D01*
X6325412Y-4449013D01*
X6324752Y-4435602D01*
X6323838Y-4425289D01*
X6322771Y-4418431D01*
X6322161Y-4416450D01*
X6321501Y-4415485D01*
X6319774Y-4414113D01*
X6318300Y-4412284D01*
X6317335Y-4410354D01*
X6316980Y-4408474D01*
X6319672Y-4406849D01*
X6326936Y-4405477D01*
X6337655Y-4404563D01*
X6350762Y-4404258D01*
X6361633Y-4404461D01*
X6370472Y-4405071D01*
X6377330Y-4405985D01*
X6382054Y-4407255D01*
X6383660Y-4408271D01*
X6429603Y-4408271D01*
X6430365Y-4407458D01*
X6432448Y-4406696D01*
X6440170Y-4405426D01*
X6451650Y-4404563D01*
X6465620Y-4404258D01*
X6480505Y-4404614D01*
X6486550Y-4405020D01*
X6495796Y-4406341D01*
X6498894Y-4407204D01*
X6500972Y-4408271D01*
X6546748Y-4408271D01*
X6547459Y-4407458D01*
X6549593Y-4406696D01*
X6557314Y-4405426D01*
X6568744Y-4404563D01*
X6582765Y-4404258D01*
X6717893Y-4404258D01*
X6726478Y-4404461D01*
X6733489Y-4405020D01*
X6738874Y-4405985D01*
X6742684Y-4407306D01*
X6744766Y-4408932D01*
X6745071Y-4410862D01*
X6743649Y-4413046D01*
X6740398Y-4415485D01*
X6739788Y-4416450D01*
X6739178Y-4418330D01*
X6738061Y-4424934D01*
X6736756Y-4441748D01*
X6763207Y-4441748D01*
X6763512Y-4437075D01*
X6764375Y-4433112D01*
X6765899Y-4429506D01*
X6768185Y-4426000D01*
X6771386Y-4422292D01*
X6775551Y-4417974D01*
X6782816Y-4411522D01*
X6789826Y-4407306D01*
X6797141Y-4404969D01*
X6805371Y-4404258D01*
X6815632Y-4405071D01*
X6820611Y-4407611D01*
X6820306Y-4411827D01*
X6814718Y-4417771D01*
X6811721Y-4421936D01*
X6809587Y-4428794D01*
X6808368Y-4438548D01*
X6807962Y-4451553D01*
X6808368Y-4464507D01*
X6809587Y-4474311D01*
X6811721Y-4481169D01*
X6814718Y-4485335D01*
X6818528Y-4488840D01*
X6820763Y-4491837D01*
X6821474Y-4494326D01*
X6820662Y-4496206D01*
X6818375Y-4497476D01*
X6814616Y-4498136D01*
X6809435Y-4498187D01*
X6802831Y-4497527D01*
X6796786Y-4496511D01*
X6791299Y-4495088D01*
X6786422Y-4493260D01*
X6782053Y-4491024D01*
X6778244Y-4488281D01*
X6774891Y-4485132D01*
X6772046Y-4481423D01*
X6769608Y-4477156D01*
X6767626Y-4472381D01*
X6766052Y-4466996D01*
X6764832Y-4461002D01*
X6763410Y-4447387D01*
X6763207Y-4441748D01*
X6736756Y-4441748D01*
X6736232Y-4455160D01*
X6735927Y-4471568D01*
X6736029Y-4502505D01*
X6736486Y-4519168D01*
X6737248Y-4531410D01*
X6737807Y-4536033D01*
X6738518Y-4539843D01*
X6739331Y-4542840D01*
X6740245Y-4545228D01*
X6741363Y-4547006D01*
X6745884Y-4551578D01*
X6747337Y-4554524D01*
X6818985Y-4554524D01*
X6820408Y-4551680D01*
X6825081Y-4547006D01*
X6826199Y-4545126D01*
X6827113Y-4542637D01*
X6827926Y-4539386D01*
X6828637Y-4535271D01*
X6829653Y-4524044D01*
X6830212Y-4508144D01*
X6830466Y-4486656D01*
X6830517Y-4404258D01*
X6857542Y-4404258D01*
X6866128Y-4404461D01*
X6873138Y-4405020D01*
X6878523Y-4405985D01*
X6882282Y-4407306D01*
X6884365Y-4408932D01*
X6884720Y-4410862D01*
X6883298Y-4413046D01*
X6880047Y-4415485D01*
X6879437Y-4416450D01*
X6878218Y-4421225D01*
X6877253Y-4429556D01*
X6876440Y-4440986D01*
X6875881Y-4455160D01*
X6875576Y-4471568D01*
X6875576Y-4485538D01*
X6902602Y-4485538D01*
X6902602Y-4479848D01*
X6902907Y-4474159D01*
X6903516Y-4468469D01*
X6904481Y-4462881D01*
X6905752Y-4457344D01*
X6907377Y-4451908D01*
X6909358Y-4446625D01*
X6911644Y-4441444D01*
X6914235Y-4436516D01*
X6917232Y-4431741D01*
X6920534Y-4427169D01*
X6924192Y-4422902D01*
X6931050Y-4415993D01*
X6937705Y-4410252D01*
X6943953Y-4405782D01*
X6949541Y-4402683D01*
X6954266Y-4401058D01*
X6957923Y-4400956D01*
X6960311Y-4402582D01*
X6961124Y-4405934D01*
X6960768Y-4408779D01*
X6959803Y-4411522D01*
X6958380Y-4413910D01*
X6956653Y-4415485D01*
X6955891Y-4416602D01*
X6955180Y-4418888D01*
X6954012Y-4426508D01*
X6953097Y-4437532D01*
X6952488Y-4451096D01*
X6952132Y-4466437D01*
X6952284Y-4498848D01*
X6952742Y-4514342D01*
X6953453Y-4528159D01*
X6954418Y-4539538D01*
X6955637Y-4547666D01*
X6956348Y-4550206D01*
X6957161Y-4551578D01*
X6960209Y-4555236D01*
X6961463Y-4557877D01*
X6974636Y-4557877D01*
X6975043Y-4554524D01*
X6976059Y-4551070D01*
X6977583Y-4547870D01*
X6979412Y-4545431D01*
X6980174Y-4543806D01*
X6980834Y-4540758D01*
X6981850Y-4530801D01*
X6982459Y-4516831D01*
X6982663Y-4500067D01*
X6982561Y-4481728D01*
X6982053Y-4463084D01*
X6981291Y-4445304D01*
X6980174Y-4429709D01*
X6978853Y-4417466D01*
X6978040Y-4413046D01*
X6975957Y-4405782D01*
X6975602Y-4402836D01*
X6976211Y-4401007D01*
X6977837Y-4400296D01*
X6980529Y-4400702D01*
X6984390Y-4402226D01*
X6989470Y-4404817D01*
X6995820Y-4408576D01*
X7000341Y-4411522D01*
X7004507Y-4414672D01*
X7008317Y-4418025D01*
X7011771Y-4421682D01*
X7014972Y-4425543D01*
X7018650Y-4431131D01*
X7046722Y-4431131D01*
X7046925Y-4413656D01*
X7047331Y-4408271D01*
X7047992Y-4404715D01*
X7049058Y-4402836D01*
X7050582Y-4402226D01*
X7052716Y-4402734D01*
X7055459Y-4404106D01*
X7059980Y-4405833D01*
X7064857Y-4406493D01*
X7070140Y-4405985D01*
X7081367Y-4402531D01*
X7084872Y-4402175D01*
X7086752Y-4403496D01*
X7087260Y-4406442D01*
X7086600Y-4409338D01*
X7084720Y-4412386D01*
X7081977Y-4415231D01*
X7078624Y-4417568D01*
X7074712Y-4420920D01*
X7070293Y-4426762D01*
X7065975Y-4434230D01*
X7058964Y-4450384D01*
X7055662Y-4456836D01*
X7052767Y-4461205D01*
X7050633Y-4462830D01*
X7049109Y-4460290D01*
X7047890Y-4453483D01*
X7047026Y-4443425D01*
X7046722Y-4431131D01*
X7018650Y-4431131D01*
X7020407Y-4434128D01*
X7022693Y-4438954D01*
X7024725Y-4444085D01*
X7026503Y-4449572D01*
X7028078Y-4455515D01*
X7029399Y-4461814D01*
X7030364Y-4467809D01*
X7030974Y-4473803D01*
X7031278Y-4479798D01*
X7031228Y-4485741D01*
X7030923Y-4491634D01*
X7030262Y-4497476D01*
X7029348Y-4503166D01*
X7028129Y-4508754D01*
X7026605Y-4514189D01*
X7024827Y-4519472D01*
X7022247Y-4525518D01*
X7046722Y-4525518D01*
X7047839Y-4518964D01*
X7050786Y-4517237D01*
X7054799Y-4520234D01*
X7062165Y-4532731D01*
X7066229Y-4537862D01*
X7070953Y-4542637D01*
X7080402Y-4549902D01*
X7083856Y-4553356D01*
X7086092Y-4556607D01*
X7087108Y-4559503D01*
X7086853Y-4561789D01*
X7085279Y-4563313D01*
X7082434Y-4563821D01*
X7078218Y-4563211D01*
X7073442Y-4561128D01*
X7068312Y-4557572D01*
X7063028Y-4552848D01*
X7058050Y-4547362D01*
X7053580Y-4541469D01*
X7049973Y-4535627D01*
X7047585Y-4530191D01*
X7046722Y-4525518D01*
X7022247Y-4525518D01*
X7017867Y-4533849D01*
X7015022Y-4538116D01*
X7011924Y-4542078D01*
X7008571Y-4545685D01*
X7002018Y-4551832D01*
X6995769Y-4556709D01*
X6990029Y-4560417D01*
X6984949Y-4562754D01*
X6980681Y-4563770D01*
X6977430Y-4563313D01*
X6975398Y-4561382D01*
X6974636Y-4557877D01*
X6961463Y-4557877D01*
X6961631Y-4558233D01*
X6961530Y-4560519D01*
X6960057Y-4561992D01*
X6957314Y-4562602D01*
X6953503Y-4562246D01*
X6948779Y-4560925D01*
X6943191Y-4558538D01*
X6938568Y-4555947D01*
X6934200Y-4552950D01*
X6930085Y-4549648D01*
X6926275Y-4545990D01*
X6922719Y-4542078D01*
X6919417Y-4537862D01*
X6916420Y-4533392D01*
X6913727Y-4528667D01*
X6911289Y-4523740D01*
X6909155Y-4518660D01*
X6907326Y-4513376D01*
X6905752Y-4507992D01*
X6904532Y-4502505D01*
X6903567Y-4496917D01*
X6902602Y-4485538D01*
X6875576Y-4485538D01*
X6875678Y-4502505D01*
X6876084Y-4519168D01*
X6876897Y-4531410D01*
X6877456Y-4536033D01*
X6878167Y-4539843D01*
X6878980Y-4542840D01*
X6879894Y-4545228D01*
X6881012Y-4547006D01*
X6885635Y-4551680D01*
X6887057Y-4554524D01*
X6886549Y-4556861D01*
X6884009Y-4558690D01*
X6879437Y-4560112D01*
X6872782Y-4561128D01*
X6863994Y-4561738D01*
X6853021Y-4561890D01*
X6842099Y-4561738D01*
X6833311Y-4561128D01*
X6826605Y-4560112D01*
X6822033Y-4558690D01*
X6819493Y-4556861D01*
X6818985Y-4554524D01*
X6747337Y-4554524D01*
X6747052Y-4556709D01*
X6744868Y-4558588D01*
X6740855Y-4560062D01*
X6735013Y-4561078D01*
X6727240Y-4561687D01*
X6717639Y-4561890D01*
X6690868Y-4561890D01*
X6690868Y-4404258D01*
X6657086Y-4404258D01*
X6666280Y-4404614D01*
X6672580Y-4405731D01*
X6676186Y-4407662D01*
X6677355Y-4410456D01*
X6676644Y-4413097D01*
X6674713Y-4415586D01*
X6671868Y-4417669D01*
X6668363Y-4419041D01*
X6664299Y-4421073D01*
X6659727Y-4424781D01*
X6655257Y-4429709D01*
X6651498Y-4435297D01*
X6648145Y-4440732D01*
X6644894Y-4445152D01*
X6642150Y-4448149D01*
X6640220Y-4449267D01*
X6638899Y-4447489D01*
X6637832Y-4442663D01*
X6637070Y-4435500D01*
X6636816Y-4426762D01*
X6636816Y-4404258D01*
X6582765Y-4404258D01*
X6594551Y-4404360D01*
X6603796Y-4404766D01*
X6610603Y-4405477D01*
X6615175Y-4406544D01*
X6617665Y-4408119D01*
X6618224Y-4410151D01*
X6617055Y-4412792D01*
X6614210Y-4416044D01*
X6613194Y-4417872D01*
X6612280Y-4421225D01*
X6611467Y-4425899D01*
X6610146Y-4438599D01*
X6609181Y-4454652D01*
X6608572Y-4472736D01*
X6608484Y-4480814D01*
X6654850Y-4480814D01*
X6655104Y-4471568D01*
X6655917Y-4463745D01*
X6657187Y-4457547D01*
X6658762Y-4453128D01*
X6660591Y-4450689D01*
X6662623Y-4450384D01*
X6664706Y-4452416D01*
X6668465Y-4460697D01*
X6670852Y-4464964D01*
X6673646Y-4469231D01*
X6679895Y-4477359D01*
X6681012Y-4480814D01*
X6679895Y-4484268D01*
X6673646Y-4492396D01*
X6670852Y-4496663D01*
X6668465Y-4500981D01*
X6664706Y-4509262D01*
X6662623Y-4511243D01*
X6660591Y-4510938D01*
X6658762Y-4508500D01*
X6657187Y-4504080D01*
X6655917Y-4497882D01*
X6655104Y-4490059D01*
X6654850Y-4480814D01*
X6608484Y-4480814D01*
X6608419Y-4491482D01*
X6608724Y-4509668D01*
X6609384Y-4525873D01*
X6610553Y-4538776D01*
X6611315Y-4543602D01*
X6612178Y-4547158D01*
X6613144Y-4549190D01*
X6615531Y-4552594D01*
X6616547Y-4555388D01*
X6616039Y-4557623D01*
X6613855Y-4559300D01*
X6609943Y-4560519D01*
X6604152Y-4561332D01*
X6596380Y-4561789D01*
X6636816Y-4561890D01*
X6636969Y-4527499D01*
X6637375Y-4519625D01*
X6637985Y-4514291D01*
X6638696Y-4512360D01*
X6640169Y-4513580D01*
X6642862Y-4516932D01*
X6646316Y-4521860D01*
X6650177Y-4527905D01*
X6654596Y-4534154D01*
X6659524Y-4539691D01*
X6664401Y-4543907D01*
X6671970Y-4547819D01*
X6674764Y-4550054D01*
X6676644Y-4552746D01*
X6677355Y-4555439D01*
X6676237Y-4558436D01*
X6672681Y-4560417D01*
X6666433Y-4561535D01*
X6657086Y-4561890D01*
X6560261Y-4561890D01*
X6560210Y-4475632D01*
X6559956Y-4452975D01*
X6559397Y-4436668D01*
X6558991Y-4430572D01*
X6558432Y-4425696D01*
X6557721Y-4421886D01*
X6556908Y-4419041D01*
X6555943Y-4417009D01*
X6554774Y-4415688D01*
X6550863Y-4413554D01*
X6548729Y-4411878D01*
X6547256Y-4410049D01*
X6546748Y-4408271D01*
X6500972Y-4408271D01*
X6501942Y-4409338D01*
X6501892Y-4410608D01*
X6500723Y-4411929D01*
X6498386Y-4413351D01*
X6494932Y-4414875D01*
X6493764Y-4415891D01*
X6492697Y-4418025D01*
X6491732Y-4421073D01*
X6490106Y-4429709D01*
X6488836Y-4441139D01*
X6488023Y-4454601D01*
X6487617Y-4469384D01*
X6487566Y-4484725D01*
X6487972Y-4499965D01*
X6488785Y-4514240D01*
X6489954Y-4526940D01*
X6491579Y-4537303D01*
X6492544Y-4541367D01*
X6493611Y-4544568D01*
X6494780Y-4546803D01*
X6497523Y-4551121D01*
X6498894Y-4554575D01*
X6498742Y-4557217D01*
X6496913Y-4559147D01*
X6493205Y-4560519D01*
X6487515Y-4561332D01*
X6479641Y-4561789D01*
X6469380Y-4561890D01*
X6510680Y-4561890D01*
X6510680Y-4534865D01*
X6510934Y-4524908D01*
X6511594Y-4517288D01*
X6512661Y-4512056D01*
X6514185Y-4509160D01*
X6516116Y-4508652D01*
X6518452Y-4510532D01*
X6521196Y-4514799D01*
X6524244Y-4521504D01*
X6527292Y-4527499D01*
X6531406Y-4533646D01*
X6535978Y-4539234D01*
X6540601Y-4543552D01*
X6545732Y-4547971D01*
X6549085Y-4551781D01*
X6550609Y-4554931D01*
X6550355Y-4557471D01*
X6548272Y-4559452D01*
X6544309Y-4560824D01*
X6538569Y-4561636D01*
X6530949Y-4561890D01*
X6443116Y-4561890D01*
X6443014Y-4463440D01*
X6442608Y-4444085D01*
X6441846Y-4430572D01*
X6440627Y-4421886D01*
X6439814Y-4419041D01*
X6438798Y-4417009D01*
X6437680Y-4415688D01*
X6433718Y-4413554D01*
X6431584Y-4411878D01*
X6430162Y-4410049D01*
X6429603Y-4408271D01*
X6383660Y-4408271D01*
X6384544Y-4408830D01*
X6384696Y-4410659D01*
X6382512Y-4412691D01*
X6377787Y-4414875D01*
X6376619Y-4415891D01*
X6375552Y-4418025D01*
X6374587Y-4421073D01*
X6372961Y-4429709D01*
X6371742Y-4441139D01*
X6370929Y-4454601D01*
X6370472Y-4469384D01*
X6370472Y-4484725D01*
X6370878Y-4499965D01*
X6371640Y-4514240D01*
X6372860Y-4526940D01*
X6374485Y-4537303D01*
X6375400Y-4541367D01*
X6376466Y-4544568D01*
X6379972Y-4550664D01*
X6381496Y-4554270D01*
X6382004Y-4557217D01*
X6381394Y-4559046D01*
X6377889Y-4560163D01*
X6370370Y-4561078D01*
X6359956Y-4561687D01*
X6347764Y-4561890D01*
X6393586Y-4561890D01*
X6393586Y-4534865D01*
X6393789Y-4524908D01*
X6394450Y-4517288D01*
X6395567Y-4512056D01*
X6397091Y-4509160D01*
X6399022Y-4508652D01*
X6401358Y-4510532D01*
X6404051Y-4514799D01*
X6407150Y-4521504D01*
X6410198Y-4527499D01*
X6414262Y-4533646D01*
X6418884Y-4539234D01*
X6423456Y-4543552D01*
X6428587Y-4547971D01*
X6431940Y-4551781D01*
X6433515Y-4554931D01*
X6433210Y-4557471D01*
X6431127Y-4559452D01*
X6427216Y-4560824D01*
X6421475Y-4561636D01*
X6413855Y-4561890D01*
X6347764Y-4561890D01*
X6332677Y-4561586D01*
X6323228Y-4560519D01*
X6318402Y-4558436D01*
X6316980Y-4555134D01*
X6295810Y-4555134D01*
X6301130Y-4557674D01*
X6308191Y-4560163D01*
X6316929Y-4562246D01*
X6327698Y-4563973D01*
X6340906Y-4565497D01*
X6356959Y-4566716D01*
X6376212Y-4567732D01*
X6399072Y-4568596D01*
X6457086Y-4569917D01*
X6534048Y-4570933D01*
X6751574Y-4573168D01*
X6896557Y-4574235D01*
X6957618Y-4574489D01*
X7051040Y-4574286D01*
X7073798Y-4573879D01*
X7079183Y-4573574D01*
X7089698Y-4571695D01*
X7095490Y-4569510D01*
X7097928Y-4566615D01*
X7097471Y-4558944D01*
X7098334Y-4555134D01*
X7100163Y-4551578D01*
X7103922Y-4547057D01*
X7105040Y-4544466D01*
X7106056Y-4540961D01*
X7107783Y-4531512D01*
X7109053Y-4519523D01*
X7109968Y-4505706D01*
X7110425Y-4490720D01*
X7110425Y-4475327D01*
X7110069Y-4460290D01*
X7109256Y-4446320D01*
X7107986Y-4434078D01*
X7106361Y-4424375D01*
X7105345Y-4420717D01*
X7104227Y-4417923D01*
X7103008Y-4416145D01*
X7099706Y-4412538D01*
X7097522Y-4409389D01*
X7096302Y-4406747D01*
X7095998Y-4404614D01*
X7096556Y-4402988D01*
X7097877Y-4401820D01*
X7099858Y-4401210D01*
X7102398Y-4401007D01*
X7105497Y-4401312D01*
X7108952Y-4402124D01*
X7112812Y-4403394D01*
X7116876Y-4405172D01*
X7121093Y-4407408D01*
X7125411Y-4410100D01*
X7129729Y-4413300D01*
X7133996Y-4416958D01*
X7138263Y-4421174D01*
X7142073Y-4425594D01*
X7145528Y-4430166D01*
X7148525Y-4434992D01*
X7151166Y-4440021D01*
X7153402Y-4445355D01*
X7155230Y-4450943D01*
X7156754Y-4456887D01*
X7157872Y-4463135D01*
X7158685Y-4469841D01*
X7159193Y-4476902D01*
X7159345Y-4484420D01*
X7159193Y-4491228D01*
X7158736Y-4497679D01*
X7157974Y-4503775D01*
X7156856Y-4509566D01*
X7155383Y-4515205D01*
X7153554Y-4520793D01*
X7151319Y-4526280D01*
X7144816Y-4540046D01*
X7142225Y-4546701D01*
X7141108Y-4551222D01*
X7141667Y-4552899D01*
X7142988Y-4552391D01*
X7148372Y-4548581D01*
X7156754Y-4541723D01*
X7167016Y-4532731D01*
X7177379Y-4523130D01*
X7186218Y-4514037D01*
X7194194Y-4504893D01*
X7201255Y-4495596D01*
X7207503Y-4486198D01*
X7212888Y-4476546D01*
X7217460Y-4466691D01*
X7219492Y-4461662D01*
X7222845Y-4451350D01*
X7225487Y-4440732D01*
X7227366Y-4429709D01*
X7228484Y-4418228D01*
X7228941Y-4406341D01*
X7228840Y-4391761D01*
X7228128Y-4380230D01*
X7227417Y-4375150D01*
X7226401Y-4370273D01*
X7225080Y-4365396D01*
X7223353Y-4360367D01*
X7221220Y-4354982D01*
X7215479Y-4342434D01*
X7208621Y-4328617D01*
X7202170Y-4316933D01*
X7195667Y-4306366D01*
X7188860Y-4296765D01*
X7181646Y-4288129D01*
X7177938Y-4284065D01*
X7170013Y-4276496D01*
X7161428Y-4269536D01*
X7156907Y-4266234D01*
X7147204Y-4259986D01*
X7136587Y-4254042D01*
X7125157Y-4248404D01*
X7114641Y-4243882D01*
X7109663Y-4242003D01*
X7099757Y-4239056D01*
X7089343Y-4236872D01*
X7077659Y-4235348D01*
X7063892Y-4234281D01*
X7026452Y-4231944D01*
X7028180Y-4191965D01*
X7027976Y-4180890D01*
X7027164Y-4170019D01*
X7025589Y-4159250D01*
X7023353Y-4148582D01*
X7020407Y-4138117D01*
X7016750Y-4127703D01*
X7012381Y-4117390D01*
X7007301Y-4107129D01*
X7001459Y-4096918D01*
X6994906Y-4086809D01*
X6987641Y-4076700D01*
X6979615Y-4066590D01*
X6970826Y-4056532D01*
X6962292Y-4047540D01*
X6954774Y-4040327D01*
X6947103Y-4033926D01*
X6943090Y-4030878D01*
X6934352Y-4025087D01*
X6924446Y-4019397D01*
X6912914Y-4013606D01*
X6899351Y-4007358D01*
X6883400Y-4000500D01*
X6867855Y-3994099D01*
X6861454Y-3991711D01*
X6855714Y-3989832D01*
X6850278Y-3988358D01*
X6844893Y-3987292D01*
X6839305Y-3986580D01*
G37*
G36*
X6720890Y-4206494D02*
G01*
X6713575Y-4207052D01*
X6706819Y-4208830D01*
X6703415Y-4210710D01*
X6700266Y-4213453D01*
X6697370Y-4216958D01*
X6694779Y-4221226D01*
X6692544Y-4226052D01*
X6690614Y-4231386D01*
X6689039Y-4237177D01*
X6687820Y-4243273D01*
X6687007Y-4249572D01*
X6686600Y-4255973D01*
X6686550Y-4262475D01*
X6686956Y-4268825D01*
X6687820Y-4275074D01*
X6689140Y-4281017D01*
X6690918Y-4286656D01*
X6693204Y-4291787D01*
X6696557Y-4297121D01*
X6700570Y-4301490D01*
X6705041Y-4304893D01*
X6709867Y-4307332D01*
X6714998Y-4308754D01*
X6720179Y-4309211D01*
X6725412Y-4308703D01*
X6730492Y-4307230D01*
X6735368Y-4304741D01*
X6739839Y-4301337D01*
X6743852Y-4296918D01*
X6747205Y-4291533D01*
X6749389Y-4286605D01*
X6751066Y-4281170D01*
X6752336Y-4275328D01*
X6753148Y-4269232D01*
X6753555Y-4262882D01*
X6753555Y-4256430D01*
X6753199Y-4249978D01*
X6752437Y-4243679D01*
X6751320Y-4237532D01*
X6749897Y-4231741D01*
X6748119Y-4226356D01*
X6746036Y-4221429D01*
X6743649Y-4217162D01*
X6740956Y-4213606D01*
X6738061Y-4210862D01*
X6734860Y-4209084D01*
X6728155Y-4207154D01*
G37*
G36*
X6249466Y-2907690D02*
G01*
X6190488Y-2908147D01*
X6113018Y-2909112D01*
X6045352Y-2910230D01*
X5989218Y-2911500D01*
X5954674Y-2912719D01*
X5903112Y-2916682D01*
X5842914Y-2922168D01*
X5795111Y-2927248D01*
X5765088Y-2930702D01*
X5726684Y-2935478D01*
X5701893Y-2938830D01*
X5677204Y-2942894D01*
X5584393Y-2959608D01*
X5547258Y-2967024D01*
X5511901Y-2974848D01*
X5498236Y-2978099D01*
X5471718Y-2984804D01*
X5440172Y-2993593D01*
X5410403Y-3002686D01*
X5387797Y-3010255D01*
X5361127Y-3020009D01*
X5341061Y-3028035D01*
X5322112Y-3036265D01*
X5304282Y-3044698D01*
X5287568Y-3053283D01*
X5271973Y-3062020D01*
X5257546Y-3070910D01*
X5244185Y-3079953D01*
X5231993Y-3089148D01*
X5220868Y-3098444D01*
X5213299Y-3105454D01*
X5204206Y-3114954D01*
X5196230Y-3124504D01*
X5189372Y-3134156D01*
X5183632Y-3143859D01*
X5180076Y-3151174D01*
X5176367Y-3160979D01*
X5174894Y-3165906D01*
X5172862Y-3175762D01*
X5171948Y-3185668D01*
X5172202Y-3195574D01*
X5173573Y-3205480D01*
X5176062Y-3215386D01*
X5177739Y-3220313D01*
X5179720Y-3225241D01*
X5184495Y-3235096D01*
X5190439Y-3244900D01*
X5197500Y-3254654D01*
X5203596Y-3261918D01*
X5212638Y-3271570D01*
X5222849Y-3281121D01*
X5234228Y-3290620D01*
X5240324Y-3295294D01*
X5250027Y-3302304D01*
X5263997Y-3311550D01*
X5279085Y-3320643D01*
X5295341Y-3329584D01*
X5312714Y-3338423D01*
X5331256Y-3347110D01*
X5350967Y-3355594D01*
X5371795Y-3363874D01*
X5393842Y-3372002D01*
X5417007Y-3379927D01*
X5441289Y-3387648D01*
X5466791Y-3395167D01*
X5493410Y-3402431D01*
X5528360Y-3411169D01*
X5557621Y-3417874D01*
X5583326Y-3423412D01*
X5622899Y-3431235D01*
X5670854Y-3439261D01*
X5707075Y-3444849D01*
X5742533Y-3449675D01*
X5773166Y-3453434D01*
X5804662Y-3456940D01*
X5843422Y-3460800D01*
X5876391Y-3463747D01*
X5930087Y-3467862D01*
X5964123Y-3470046D01*
X6005118Y-3472332D01*
X6073495Y-3475177D01*
X6120942Y-3476447D01*
X6161024Y-3477056D01*
X6219748Y-3477158D01*
X6251448Y-3476751D01*
X6306261Y-3475177D01*
X6335318Y-3473856D01*
X6363157Y-3472179D01*
X6389776Y-3470148D01*
X6466484Y-3463493D01*
X6524193Y-3458006D01*
X6547357Y-3455619D01*
X6585051Y-3451047D01*
X6615175Y-3446526D01*
X6634683Y-3443376D01*
X6665061Y-3438855D01*
X6705295Y-3431590D01*
X6736892Y-3425240D01*
X6804355Y-3411016D01*
X6819849Y-3407562D01*
X6841439Y-3401872D01*
X6867855Y-3394201D01*
X6896455Y-3385515D01*
X6924598Y-3376472D01*
X6949592Y-3368090D01*
X6968845Y-3361029D01*
X7005015Y-3345281D01*
X7027468Y-3335274D01*
X7038543Y-3329990D01*
X7049058Y-3324656D01*
X7059117Y-3319221D01*
X7068718Y-3313734D01*
X7077811Y-3308197D01*
X7086447Y-3302558D01*
X7094575Y-3296869D01*
X7102246Y-3291179D01*
X7109409Y-3285388D01*
X7116114Y-3279546D01*
X7122363Y-3273653D01*
X7128103Y-3267760D01*
X7133386Y-3261817D01*
X7138212Y-3255822D01*
X7142581Y-3249777D01*
X7146493Y-3243732D01*
X7149896Y-3237636D01*
X7152894Y-3231489D01*
X7155383Y-3225342D01*
X7157415Y-3219196D01*
X7158990Y-3213049D01*
X7160158Y-3206851D01*
X7160818Y-3200654D01*
X7161022Y-3194456D01*
X7160818Y-3188258D01*
X7160158Y-3182061D01*
X7158990Y-3175863D01*
X7157466Y-3169666D01*
X7155434Y-3163468D01*
X7152944Y-3157270D01*
X7150049Y-3151124D01*
X7146696Y-3144977D01*
X7142937Y-3138881D01*
X7138720Y-3132785D01*
X7134047Y-3126689D01*
X7128967Y-3120644D01*
X7123430Y-3114649D01*
X7117486Y-3108655D01*
X7111085Y-3102711D01*
X7104278Y-3096818D01*
X7097014Y-3090976D01*
X7089394Y-3085185D01*
X7072782Y-3073755D01*
X7063841Y-3068116D01*
X7054494Y-3062528D01*
X7044740Y-3057042D01*
X7023912Y-3046222D01*
X7001509Y-3035706D01*
X6989673Y-3030524D01*
X6964781Y-3020517D01*
X6951725Y-3015589D01*
X6924395Y-3006090D01*
X6895490Y-2996946D01*
X6865010Y-2988259D01*
X6832904Y-2979978D01*
X6810806Y-2974644D01*
X6790994Y-2970174D01*
X6732727Y-2958084D01*
X6689039Y-2949346D01*
X6657746Y-2943453D01*
X6636816Y-2939999D01*
X6629603Y-2939084D01*
X6624320Y-2938729D01*
X6620611Y-2938780D01*
X6618325Y-2939237D01*
X6617004Y-2940050D01*
X6617258Y-2940761D01*
X6618884Y-2941320D01*
X6626859Y-2942336D01*
X6634378Y-2944114D01*
X6643268Y-2946755D01*
X6652615Y-2949854D01*
X6665417Y-2954731D01*
X6677761Y-2959912D01*
X6689547Y-2965399D01*
X6700875Y-2971139D01*
X6711645Y-2977184D01*
X6721906Y-2983484D01*
X6731609Y-2989986D01*
X6740855Y-2996692D01*
X6749491Y-3003550D01*
X6757619Y-3010611D01*
X6765239Y-3017774D01*
X6772249Y-3025038D01*
X6778752Y-3032404D01*
X6784644Y-3039821D01*
X6790029Y-3047288D01*
X6794804Y-3054807D01*
X6799021Y-3062274D01*
X6802628Y-3069742D01*
X6805675Y-3077159D01*
X6808165Y-3084525D01*
X6810044Y-3091789D01*
X6811314Y-3098952D01*
X6811975Y-3105962D01*
X6812025Y-3112871D01*
X6811467Y-3119526D01*
X6810349Y-3126028D01*
X6808520Y-3132328D01*
X6806133Y-3138322D01*
X6803085Y-3144113D01*
X6799376Y-3149549D01*
X6795058Y-3154730D01*
X6790080Y-3159556D01*
X6784492Y-3164027D01*
X6778193Y-3168091D01*
X6771233Y-3171799D01*
X6763664Y-3175101D01*
X6755384Y-3177895D01*
X6746443Y-3180283D01*
X6736791Y-3182162D01*
X6726478Y-3183534D01*
X6715506Y-3184398D01*
X6703771Y-3184652D01*
X6691680Y-3184194D01*
X6678980Y-3182874D01*
X6665925Y-3180740D01*
X6652717Y-3177895D01*
X6639559Y-3174441D01*
X6626656Y-3170428D01*
X6614261Y-3165957D01*
X6602577Y-3161131D01*
X6591757Y-3155950D01*
X6582054Y-3150616D01*
X6577685Y-3147872D01*
X6570065Y-3142335D01*
X6566865Y-3139541D01*
X6564122Y-3136798D01*
X6561836Y-3134004D01*
X6560007Y-3131312D01*
X6558737Y-3128619D01*
X6557568Y-3124708D01*
X6557568Y-3122117D01*
X6558788Y-3120898D01*
X6561175Y-3121050D01*
X6564833Y-3122523D01*
X6569760Y-3125368D01*
X6575907Y-3129584D01*
X6588404Y-3138932D01*
X6598615Y-3145993D01*
X6608978Y-3152241D01*
X6619494Y-3157778D01*
X6630060Y-3162655D01*
X6640677Y-3166770D01*
X6651294Y-3170224D01*
X6661861Y-3173018D01*
X6672275Y-3175101D01*
X6682638Y-3176574D01*
X6692747Y-3177438D01*
X6702704Y-3177641D01*
X6712356Y-3177286D01*
X6721703Y-3176320D01*
X6730695Y-3174796D01*
X6739331Y-3172663D01*
X6747509Y-3170021D01*
X6755231Y-3166821D01*
X6762445Y-3163112D01*
X6769049Y-3158896D01*
X6775094Y-3154172D01*
X6780530Y-3148939D01*
X6785203Y-3143300D01*
X6787337Y-3140303D01*
X6790944Y-3133953D01*
X6793738Y-3127197D01*
X6794855Y-3123641D01*
X6796379Y-3116224D01*
X6796836Y-3112363D01*
X6797040Y-3104388D01*
X6796278Y-3096056D01*
X6794500Y-3087319D01*
X6791706Y-3078226D01*
X6787794Y-3068777D01*
X6783273Y-3060141D01*
X6777837Y-3051556D01*
X6771589Y-3043174D01*
X6764528Y-3034944D01*
X6756755Y-3026968D01*
X6748272Y-3019145D01*
X6739229Y-3011576D01*
X6729628Y-3004261D01*
X6719519Y-2997250D01*
X6708952Y-2990545D01*
X6697980Y-2984144D01*
X6686753Y-2978048D01*
X6675170Y-2972358D01*
X6663436Y-2967024D01*
X6651548Y-2962097D01*
X6639509Y-2957576D01*
X6627469Y-2953562D01*
X6615430Y-2949956D01*
X6603492Y-2946806D01*
X6591655Y-2944215D01*
X6580022Y-2942082D01*
X6568592Y-2940558D01*
X6557467Y-2939542D01*
X6546748Y-2939135D01*
X6536385Y-2939338D01*
X6526530Y-2940151D01*
X6517233Y-2941624D01*
X6508445Y-2943758D01*
X6500368Y-2946603D01*
X6496558Y-2948228D01*
X6489496Y-2952140D01*
X6486296Y-2954324D01*
X6483248Y-2956763D01*
X6470954Y-2968752D01*
X6488988Y-3003346D01*
X6503873Y-3031337D01*
X6507734Y-3040227D01*
X6509156Y-3044494D01*
X6511035Y-3052470D01*
X6511544Y-3056229D01*
X6511747Y-3059836D01*
X6511340Y-3066592D01*
X6510731Y-3069742D01*
X6508750Y-3075533D01*
X6507378Y-3078226D01*
X6505803Y-3080715D01*
X6501993Y-3085236D01*
X6497320Y-3089148D01*
X6491935Y-3092399D01*
X6485890Y-3094990D01*
X6479235Y-3096920D01*
X6471970Y-3098139D01*
X6464300Y-3098749D01*
X6456222Y-3098647D01*
X6447790Y-3097885D01*
X6439103Y-3096412D01*
X6430162Y-3094278D01*
X6421170Y-3091434D01*
X6412077Y-3087878D01*
X6402984Y-3083610D01*
X6393992Y-3078632D01*
X6385153Y-3072942D01*
X6376466Y-3066542D01*
X6368135Y-3059379D01*
X6360109Y-3051505D01*
X6352540Y-3042869D01*
X6343700Y-3031540D01*
X6334455Y-3020212D01*
X6330188Y-3015437D01*
X6321856Y-3007258D01*
X6317640Y-3003651D01*
X6308445Y-2997047D01*
X6297726Y-2990545D01*
X6284315Y-2983484D01*
X6277152Y-2980283D01*
X6270040Y-2977489D01*
X6263030Y-2975102D01*
X6256223Y-2973222D01*
X6249619Y-2971800D01*
X6243370Y-2970834D01*
X6237427Y-2970377D01*
X6231940Y-2970428D01*
X6226911Y-2970936D01*
X6222441Y-2972003D01*
X6218580Y-2973628D01*
X6214364Y-2976067D01*
X6211316Y-2978454D01*
X6209538Y-2980842D01*
X6209030Y-2983179D01*
X6209842Y-2985617D01*
X6212078Y-2988157D01*
X6215684Y-2990799D01*
X6220815Y-2993644D01*
X6227419Y-2996692D01*
X6245352Y-3003651D01*
X6266992Y-3011220D01*
X6276187Y-3014878D01*
X6283401Y-3018180D01*
X6287617Y-3020568D01*
X6291326Y-3023057D01*
X6297066Y-3026460D01*
X6319164Y-3038094D01*
X6326378Y-3042310D01*
X6332524Y-3046222D01*
X6336639Y-3049320D01*
X6347206Y-3058210D01*
X6370320Y-3077108D01*
X6379057Y-3084779D01*
X6398971Y-3103321D01*
X6409588Y-3113633D01*
X6435648Y-3139948D01*
X6453479Y-3159201D01*
X6473850Y-3182721D01*
X6549796Y-3184906D01*
X6578650Y-3186328D01*
X6589979Y-3187141D01*
X6599224Y-3188055D01*
X6606336Y-3189020D01*
X6611366Y-3189986D01*
X6614210Y-3190951D01*
X6614871Y-3191459D01*
X6614972Y-3191916D01*
X6614515Y-3192373D01*
X6611975Y-3193237D01*
X6607200Y-3194050D01*
X6600240Y-3194761D01*
X6591096Y-3195370D01*
X6565950Y-3196132D01*
X6518808Y-3196590D01*
X6506260Y-3197047D01*
X6496558Y-3197656D01*
X6490309Y-3198317D01*
X6488684Y-3198723D01*
X6488125Y-3199130D01*
X6488480Y-3200654D01*
X6490766Y-3204921D01*
X6495084Y-3210610D01*
X6501180Y-3217519D01*
X6508800Y-3225444D01*
X6517741Y-3234182D01*
X6527800Y-3243630D01*
X6550456Y-3263747D01*
X6574942Y-3284321D01*
X6599580Y-3303828D01*
X6611416Y-3312718D01*
X6622592Y-3320796D01*
X6632956Y-3327857D01*
X6642252Y-3333750D01*
X6650278Y-3338271D01*
X6659880Y-3342640D01*
X6672580Y-3347567D01*
X6685635Y-3351936D01*
X6698945Y-3355695D01*
X6712458Y-3358896D01*
X6726123Y-3361537D01*
X6739788Y-3363620D01*
X6753453Y-3365144D01*
X6766915Y-3366160D01*
X6780225Y-3366617D01*
X6793179Y-3366515D01*
X6805777Y-3365957D01*
X6817918Y-3364839D01*
X6829501Y-3363214D01*
X6840423Y-3361131D01*
X6850634Y-3358540D01*
X6860031Y-3355492D01*
X6868566Y-3351936D01*
X6876084Y-3347923D01*
X6882587Y-3343452D01*
X6885381Y-3341065D01*
X6887921Y-3338525D01*
X6890105Y-3335934D01*
X6892036Y-3333191D01*
X6893610Y-3330346D01*
X6894830Y-3327400D01*
X6895693Y-3324351D01*
X6896252Y-3321151D01*
X6896404Y-3317900D01*
X6896150Y-3312109D01*
X6895541Y-3309518D01*
X6894322Y-3309823D01*
X6892340Y-3312769D01*
X6889242Y-3316325D01*
X6885025Y-3318662D01*
X6879894Y-3319881D01*
X6874154Y-3320135D01*
X6868058Y-3319424D01*
X6861911Y-3317900D01*
X6855917Y-3315563D01*
X6850430Y-3312617D01*
X6845706Y-3309061D01*
X6841998Y-3304997D01*
X6839559Y-3300526D01*
X6838696Y-3295751D01*
X6839051Y-3291078D01*
X6840067Y-3287014D01*
X6841693Y-3283458D01*
X6843877Y-3280410D01*
X6846570Y-3277870D01*
X6849668Y-3275838D01*
X6853174Y-3274263D01*
X6856933Y-3273196D01*
X6860997Y-3272586D01*
X6865213Y-3272383D01*
X6869582Y-3272637D01*
X6874052Y-3273348D01*
X6878472Y-3274415D01*
X6882892Y-3275939D01*
X6887159Y-3277819D01*
X6891324Y-3280054D01*
X6895185Y-3282696D01*
X6898843Y-3285693D01*
X6902094Y-3288995D01*
X6904939Y-3292652D01*
X6907326Y-3296615D01*
X6909206Y-3300882D01*
X6910476Y-3305403D01*
X6911136Y-3310229D01*
X6911187Y-3317443D01*
X6910476Y-3324199D01*
X6909104Y-3330549D01*
X6907022Y-3336493D01*
X6904228Y-3342030D01*
X6900824Y-3347161D01*
X6896811Y-3351936D01*
X6892188Y-3356254D01*
X6886956Y-3360216D01*
X6881215Y-3363823D01*
X6874916Y-3367024D01*
X6868159Y-3369868D01*
X6860895Y-3372358D01*
X6853174Y-3374491D01*
X6845046Y-3376269D01*
X6836511Y-3377641D01*
X6827570Y-3378758D01*
X6818274Y-3379470D01*
X6808622Y-3379876D01*
X6798716Y-3379927D01*
X6788505Y-3379673D01*
X6777990Y-3379114D01*
X6767271Y-3378250D01*
X6756298Y-3377082D01*
X6733895Y-3373780D01*
X6710883Y-3369360D01*
X6687464Y-3363772D01*
X6663893Y-3357118D01*
X6652056Y-3353409D01*
X6628536Y-3345179D01*
X6616903Y-3340709D01*
X6593840Y-3331057D01*
X6576974Y-3323183D01*
X6565900Y-3317646D01*
X6555028Y-3311906D01*
X6544411Y-3305962D01*
X6534048Y-3299815D01*
X6523939Y-3293465D01*
X6514134Y-3286912D01*
X6504685Y-3280156D01*
X6495542Y-3273247D01*
X6486804Y-3266135D01*
X6478422Y-3258870D01*
X6470446Y-3251403D01*
X6462928Y-3243783D01*
X6455918Y-3235960D01*
X6449364Y-3228035D01*
X6443319Y-3219958D01*
X6437782Y-3211728D01*
X6428536Y-3196234D01*
X6271463Y-3196234D01*
X6282944Y-3214420D01*
X6290716Y-3226003D01*
X6298946Y-3237687D01*
X6307632Y-3249371D01*
X6316573Y-3260953D01*
X6325666Y-3272180D01*
X6334861Y-3283051D01*
X6343954Y-3293364D01*
X6352895Y-3303015D01*
X6361531Y-3311855D01*
X6369761Y-3319779D01*
X6377432Y-3326587D01*
X6384493Y-3332226D01*
X6390792Y-3336544D01*
X6401206Y-3342132D01*
X6414719Y-3348786D01*
X6426301Y-3353968D01*
X6436410Y-3357676D01*
X6441084Y-3359048D01*
X6445605Y-3360115D01*
X6454394Y-3361385D01*
X6458762Y-3361639D01*
X6467805Y-3361385D01*
X6484975Y-3359505D01*
X6492036Y-3358997D01*
X6505041Y-3358946D01*
X6510883Y-3359353D01*
X6516166Y-3360064D01*
X6520789Y-3361029D01*
X6524752Y-3362299D01*
X6527952Y-3363772D01*
X6530340Y-3365500D01*
X6531813Y-3367481D01*
X6532321Y-3369614D01*
X6532168Y-3370529D01*
X6531559Y-3371291D01*
X6530441Y-3372002D01*
X6526326Y-3373170D01*
X6519062Y-3374034D01*
X6507988Y-3374644D01*
X6471310Y-3375202D01*
X6407759Y-3375151D01*
X6372098Y-3374542D01*
X6356654Y-3373882D01*
X6342634Y-3373018D01*
X6329832Y-3371850D01*
X6318097Y-3370326D01*
X6307328Y-3368446D01*
X6297320Y-3366109D01*
X6287973Y-3363366D01*
X6279134Y-3360115D01*
X6270650Y-3356305D01*
X6262319Y-3351936D01*
X6254038Y-3346958D01*
X6245656Y-3341370D01*
X6237020Y-3335020D01*
X6227978Y-3328009D01*
X6202883Y-3307334D01*
X6202730Y-3322320D01*
X6202273Y-3326739D01*
X6201511Y-3331006D01*
X6200495Y-3335020D01*
X6199225Y-3338880D01*
X6197650Y-3342487D01*
X6195872Y-3345891D01*
X6193790Y-3349091D01*
X6191504Y-3352088D01*
X6188964Y-3354832D01*
X6183223Y-3359810D01*
X6176568Y-3363874D01*
X6169202Y-3367125D01*
X6161024Y-3369564D01*
X6152235Y-3371138D01*
X6142786Y-3371850D01*
X6132830Y-3371697D01*
X6122314Y-3370732D01*
X6111443Y-3368903D01*
X6100114Y-3366211D01*
X6088532Y-3362655D01*
X6076696Y-3358286D01*
X6064605Y-3353003D01*
X6052413Y-3346907D01*
X6040170Y-3339896D01*
X6027877Y-3332073D01*
X6015634Y-3323386D01*
X5996025Y-3308654D01*
X5999937Y-3323234D01*
X6001054Y-3328517D01*
X6001613Y-3333546D01*
X6001613Y-3338271D01*
X6001054Y-3342690D01*
X6000038Y-3346856D01*
X5998514Y-3350717D01*
X5996533Y-3354273D01*
X5994146Y-3357473D01*
X5991402Y-3360420D01*
X5988253Y-3363010D01*
X5984748Y-3365296D01*
X5980938Y-3367227D01*
X5976874Y-3368801D01*
X5972505Y-3370072D01*
X5967933Y-3370986D01*
X5963158Y-3371494D01*
X5958179Y-3371646D01*
X5953099Y-3371443D01*
X5947867Y-3370834D01*
X5942533Y-3369868D01*
X5937148Y-3368497D01*
X5931712Y-3366719D01*
X5926277Y-3364484D01*
X5920892Y-3361893D01*
X5915507Y-3358896D01*
X5910173Y-3355441D01*
X5904992Y-3351529D01*
X5891326Y-3339642D01*
X5883605Y-3333191D01*
X5876747Y-3327958D01*
X5870956Y-3323894D01*
X5866282Y-3321202D01*
X5862777Y-3319830D01*
X5860643Y-3319932D01*
X5859881Y-3321507D01*
X5859678Y-3326739D01*
X5859068Y-3331718D01*
X5858052Y-3336391D01*
X5856681Y-3340811D01*
X5854954Y-3344926D01*
X5852922Y-3348736D01*
X5850534Y-3352241D01*
X5847842Y-3355441D01*
X5844844Y-3358387D01*
X5841593Y-3361029D01*
X5838088Y-3363315D01*
X5834380Y-3365347D01*
X5830417Y-3367074D01*
X5826201Y-3368446D01*
X5821832Y-3369564D01*
X5817311Y-3370326D01*
X5812637Y-3370783D01*
X5807811Y-3370935D01*
X5802833Y-3370783D01*
X5797753Y-3370275D01*
X5787390Y-3368294D01*
X5782106Y-3366820D01*
X5776772Y-3364992D01*
X5771438Y-3362858D01*
X5766054Y-3360369D01*
X5760720Y-3357524D01*
X5755386Y-3354374D01*
X5750102Y-3350869D01*
X5744870Y-3347059D01*
X5739688Y-3342843D01*
X5721654Y-3326434D01*
X5717438Y-3323082D01*
X5714492Y-3321253D01*
X5712663Y-3320999D01*
X5711850Y-3322116D01*
X5711799Y-3324656D01*
X5713120Y-3333038D01*
X5713476Y-3337306D01*
X5713476Y-3341319D01*
X5713171Y-3345027D01*
X5712561Y-3348532D01*
X5711596Y-3351784D01*
X5710377Y-3354781D01*
X5708853Y-3357524D01*
X5707075Y-3360013D01*
X5704992Y-3362248D01*
X5702706Y-3364229D01*
X5700115Y-3366008D01*
X5697321Y-3367481D01*
X5694324Y-3368751D01*
X5691124Y-3369767D01*
X5687669Y-3370529D01*
X5680252Y-3371342D01*
X5676290Y-3371392D01*
X5667908Y-3370732D01*
X5658916Y-3369106D01*
X5649518Y-3366566D01*
X5639714Y-3363061D01*
X5629605Y-3358642D01*
X5619292Y-3353257D01*
X5608828Y-3346958D01*
X5598363Y-3339744D01*
X5587898Y-3331616D01*
X5582716Y-3327247D01*
X5563006Y-3308807D01*
X5544413Y-3292094D01*
X5538622Y-3286506D01*
X5533948Y-3281527D01*
X5530342Y-3277158D01*
X5527852Y-3273399D01*
X5526430Y-3270199D01*
X5526024Y-3267557D01*
X5526684Y-3265424D01*
X5528767Y-3264357D01*
X5532323Y-3265728D01*
X5537301Y-3269538D01*
X5558434Y-3290417D01*
X5568238Y-3299612D01*
X5577992Y-3308197D01*
X5587695Y-3316274D01*
X5597194Y-3323793D01*
X5606491Y-3330701D01*
X5615482Y-3337001D01*
X5624118Y-3342640D01*
X5632399Y-3347669D01*
X5640171Y-3351987D01*
X5647486Y-3355594D01*
X5654141Y-3358540D01*
X5660237Y-3360674D01*
X5665571Y-3362096D01*
X5670143Y-3362706D01*
X5673953Y-3362502D01*
X5675528Y-3362096D01*
X5676849Y-3361486D01*
X5677966Y-3360674D01*
X5678830Y-3359658D01*
X5679440Y-3358387D01*
X5679795Y-3356914D01*
X5679694Y-3353257D01*
X5678474Y-3348736D01*
X5676087Y-3343249D01*
X5672480Y-3336848D01*
X5667552Y-3329432D01*
X5661304Y-3321050D01*
X5612333Y-3261207D01*
X5595975Y-3241548D01*
X5581700Y-3225139D01*
X5573826Y-3215386D01*
X5562650Y-3200095D01*
X5591759Y-3200095D01*
X5606643Y-3200349D01*
X5616194Y-3201416D01*
X5621883Y-3203549D01*
X5625287Y-3207105D01*
X5627928Y-3210763D01*
X5630418Y-3211728D01*
X5633770Y-3209747D01*
X5641492Y-3202635D01*
X5644134Y-3200958D01*
X5647182Y-3199536D01*
X5650585Y-3198418D01*
X5654344Y-3197606D01*
X5658459Y-3197098D01*
X5662930Y-3196844D01*
X5667756Y-3196945D01*
X5678576Y-3198012D01*
X5690870Y-3200298D01*
X5697626Y-3201873D01*
X5712256Y-3205988D01*
X5728512Y-3211322D01*
X5746343Y-3217875D01*
X5760923Y-3223666D01*
X5771032Y-3228340D01*
X5781141Y-3233674D01*
X5791301Y-3239668D01*
X5801461Y-3246374D01*
X5811824Y-3253841D01*
X5822289Y-3262071D01*
X5833008Y-3271113D01*
X5843981Y-3281019D01*
X5855258Y-3291738D01*
X5866790Y-3303117D01*
X5878423Y-3314090D01*
X5890107Y-3324351D01*
X5901639Y-3333902D01*
X5912713Y-3342436D01*
X5923178Y-3349904D01*
X5932728Y-3356000D01*
X5941161Y-3360674D01*
X5944920Y-3362451D01*
X5948273Y-3363722D01*
X5951220Y-3364585D01*
X5953760Y-3364992D01*
X5955792Y-3364890D01*
X5958636Y-3363976D01*
X5960872Y-3362401D01*
X5962548Y-3360267D01*
X5963615Y-3357626D01*
X5964123Y-3354476D01*
X5964123Y-3350920D01*
X5963564Y-3346907D01*
X5962497Y-3342589D01*
X5960922Y-3337966D01*
X5958840Y-3333089D01*
X5956300Y-3328009D01*
X5953302Y-3322726D01*
X5949848Y-3317392D01*
X5945936Y-3311906D01*
X5941618Y-3306419D01*
X5933440Y-3296920D01*
X5900318Y-3256279D01*
X5896864Y-3252470D01*
X5879642Y-3231337D01*
X5857189Y-3203092D01*
X5844489Y-3188766D01*
X5832195Y-3174136D01*
X5808116Y-3144672D01*
X5804001Y-3139998D01*
X5773318Y-3102152D01*
X5757875Y-3084525D01*
X5744768Y-3068878D01*
X5740501Y-3063443D01*
X5737555Y-3059226D01*
X5736031Y-3056229D01*
X5735777Y-3054248D01*
X5736742Y-3053232D01*
X5738926Y-3053029D01*
X5745530Y-3053791D01*
X5759145Y-3054146D01*
X5777890Y-3054197D01*
X5781852Y-3054553D01*
X5785307Y-3055264D01*
X5788558Y-3056534D01*
X5791758Y-3058464D01*
X5795060Y-3061208D01*
X5798718Y-3064865D01*
X5807862Y-3075635D01*
X5827115Y-3100019D01*
X5868771Y-3151428D01*
X5903366Y-3193389D01*
X5911951Y-3203244D01*
X5933135Y-3229305D01*
X5942533Y-3240481D01*
X5951778Y-3250946D01*
X5960872Y-3260801D01*
X5969914Y-3270097D01*
X5979058Y-3278936D01*
X5988354Y-3287420D01*
X5997854Y-3295650D01*
X6007658Y-3303574D01*
X6017920Y-3311448D01*
X6028588Y-3319221D01*
X6039815Y-3326993D01*
X6052108Y-3334918D01*
X6064148Y-3341776D01*
X6075883Y-3347669D01*
X6087160Y-3352546D01*
X6097981Y-3356457D01*
X6108293Y-3359454D01*
X6117894Y-3361486D01*
X6126835Y-3362553D01*
X6135014Y-3362756D01*
X6138773Y-3362502D01*
X6145631Y-3361334D01*
X6151524Y-3359251D01*
X6154064Y-3357879D01*
X6156350Y-3356305D01*
X6158331Y-3354527D01*
X6160058Y-3352495D01*
X6161481Y-3350310D01*
X6162598Y-3347872D01*
X6163411Y-3345230D01*
X6163868Y-3342386D01*
X6164021Y-3339337D01*
X6163767Y-3336086D01*
X6163208Y-3332632D01*
X6162294Y-3328974D01*
X6160973Y-3325114D01*
X6159296Y-3321050D01*
X6154775Y-3312363D01*
X6151880Y-3307740D01*
X6145377Y-3298545D01*
X6139891Y-3292703D01*
X6134760Y-3289604D01*
X6129324Y-3288690D01*
X6122568Y-3288080D01*
X6111544Y-3286404D01*
X6097879Y-3283915D01*
X6042558Y-3272282D01*
X6029756Y-3269386D01*
X6023762Y-3267506D01*
X6010706Y-3262477D01*
X6004052Y-3259582D01*
X5991402Y-3253282D01*
X5985764Y-3250082D01*
X5980836Y-3246983D01*
X5976772Y-3244088D01*
X5973775Y-3241497D01*
X5971997Y-3239262D01*
X5970219Y-3235756D01*
X5967780Y-3229203D01*
X5967018Y-3226206D01*
X5966612Y-3223361D01*
X5966510Y-3220669D01*
X5966663Y-3218129D01*
X5967171Y-3215792D01*
X5967933Y-3213557D01*
X5969000Y-3211525D01*
X5970320Y-3209645D01*
X5971895Y-3207867D01*
X5975807Y-3204870D01*
X5980684Y-3202482D01*
X5983427Y-3201466D01*
X5989574Y-3199942D01*
X5996482Y-3198977D01*
X6004102Y-3198571D01*
X6012383Y-3198723D01*
X6021171Y-3199434D01*
X6030518Y-3200603D01*
X6040272Y-3202330D01*
X6050381Y-3204565D01*
X6060744Y-3207258D01*
X6071412Y-3210407D01*
X6082182Y-3214065D01*
X6093053Y-3218180D01*
X6103975Y-3222701D01*
X6114796Y-3227628D01*
X6125565Y-3233013D01*
X6136132Y-3238804D01*
X6146393Y-3244951D01*
X6156401Y-3251504D01*
X6166002Y-3258413D01*
X6175146Y-3265678D01*
X6183782Y-3273298D01*
X6203594Y-3292348D01*
X6213754Y-3301492D01*
X6223660Y-3309924D01*
X6233414Y-3317697D01*
X6243066Y-3324758D01*
X6252616Y-3331210D01*
X6262166Y-3337001D01*
X6271768Y-3342233D01*
X6281420Y-3346856D01*
X6291224Y-3350971D01*
X6301232Y-3354476D01*
X6311493Y-3357524D01*
X6322009Y-3360064D01*
X6332880Y-3362096D01*
X6344208Y-3363722D01*
X6355943Y-3364890D01*
X6368186Y-3365652D01*
X6380988Y-3366058D01*
X6394348Y-3366058D01*
X6420612Y-3365500D01*
X6395974Y-3356559D01*
X6385255Y-3352139D01*
X6374485Y-3347313D01*
X6363766Y-3341979D01*
X6353200Y-3336290D01*
X6342888Y-3330295D01*
X6332880Y-3323996D01*
X6323279Y-3317443D01*
X6314186Y-3310737D01*
X6305651Y-3303879D01*
X6287820Y-3287826D01*
X6274663Y-3274872D01*
X6261608Y-3260902D01*
X6248044Y-3245256D01*
X6233464Y-3227222D01*
X6217259Y-3206140D01*
X6198870Y-3181350D01*
X6157061Y-3123590D01*
X6145072Y-3107690D01*
X6124498Y-3083102D01*
X6117336Y-3074974D01*
X6109462Y-3066999D01*
X6100978Y-3059176D01*
X6091986Y-3051556D01*
X6082436Y-3044190D01*
X6072479Y-3037078D01*
X6062167Y-3030270D01*
X6051448Y-3023819D01*
X6040526Y-3017774D01*
X6029350Y-3012084D01*
X6018022Y-3006852D01*
X6006541Y-3002076D01*
X5995060Y-2997809D01*
X5983579Y-2994101D01*
X5972149Y-2990951D01*
X5960872Y-2988360D01*
X5948730Y-2986481D01*
X5935472Y-2985262D01*
X5921552Y-2984754D01*
X5907633Y-2984855D01*
X5894273Y-2985566D01*
X5882030Y-2986786D01*
X5871514Y-2988564D01*
X5867095Y-2989580D01*
X5863336Y-2990748D01*
X5860237Y-2991967D01*
X5857951Y-2993339D01*
X5856528Y-2994761D01*
X5855563Y-2997606D01*
X5854293Y-2998673D01*
X5852464Y-2999435D01*
X5850178Y-2999689D01*
X5847181Y-3000552D01*
X5844489Y-3003042D01*
X5842101Y-3006801D01*
X5840171Y-3011576D01*
X5838596Y-3017164D01*
X5837478Y-3023209D01*
X5836920Y-3029508D01*
X5836818Y-3035757D01*
X5837326Y-3041700D01*
X5838393Y-3047085D01*
X5840120Y-3051606D01*
X5842558Y-3055010D01*
X5846622Y-3059734D01*
X5847892Y-3061665D01*
X5848858Y-3064408D01*
X5852464Y-3069336D01*
X5858306Y-3075686D01*
X5869533Y-3088690D01*
X5871870Y-3091078D01*
X5875223Y-3093770D01*
X5879439Y-3096666D01*
X5889853Y-3102864D01*
X5902198Y-3109163D01*
X5915456Y-3115106D01*
X5928563Y-3120085D01*
X5934811Y-3122066D01*
X5943041Y-3125673D01*
X5947308Y-3129788D01*
X5946952Y-3133140D01*
X5941364Y-3134563D01*
X5937250Y-3134309D01*
X5932728Y-3133648D01*
X5927801Y-3132531D01*
X5922568Y-3131058D01*
X5911392Y-3127044D01*
X5899861Y-3121914D01*
X5888431Y-3115919D01*
X5877661Y-3109315D01*
X5868162Y-3102406D01*
X5864047Y-3098901D01*
X5856325Y-3090926D01*
X5848807Y-3082137D01*
X5842304Y-3073603D01*
X5836818Y-3065322D01*
X5832348Y-3057296D01*
X5828842Y-3049524D01*
X5826252Y-3042056D01*
X5824626Y-3034893D01*
X5823915Y-3028035D01*
X5824118Y-3021482D01*
X5825134Y-3015284D01*
X5827014Y-3009493D01*
X5829757Y-3004007D01*
X5833262Y-2998978D01*
X5837529Y-2994304D01*
X5842558Y-2990037D01*
X5848350Y-2986227D01*
X5854852Y-2982874D01*
X5862015Y-2979978D01*
X5869889Y-2977540D01*
X5878372Y-2975559D01*
X5887516Y-2974136D01*
X5897270Y-2973171D01*
X5907582Y-2972816D01*
X5918504Y-2972917D01*
X5929934Y-2973628D01*
X5941872Y-2974898D01*
X5954318Y-2976778D01*
X5967272Y-2979216D01*
X5980633Y-2982315D01*
X5994450Y-2986024D01*
X6008674Y-2990342D01*
X6020917Y-2994609D01*
X6032500Y-2999333D01*
X6045606Y-3005226D01*
X6059728Y-3012033D01*
X6074105Y-3019348D01*
X6088176Y-3026816D01*
X6101181Y-3034080D01*
X6112611Y-3040837D01*
X6125210Y-3049270D01*
X6127851Y-3051454D01*
X6131915Y-3055315D01*
X6154623Y-3073806D01*
X6163360Y-3081274D01*
X6173266Y-3090214D01*
X6195009Y-3110941D01*
X6211620Y-3127603D01*
X6222187Y-3138525D01*
X6231788Y-3148838D01*
X6240221Y-3158286D01*
X6246977Y-3166364D01*
X6261608Y-3184652D01*
X6358483Y-3184601D01*
X6392316Y-3183991D01*
X6404305Y-3183585D01*
X6414109Y-3182772D01*
X6414820Y-3182467D01*
X6413652Y-3180029D01*
X6410452Y-3175152D01*
X6399022Y-3159658D01*
X6382715Y-3138779D01*
X6363970Y-3115564D01*
X6345021Y-3092805D01*
X6328156Y-3073501D01*
X6324549Y-3069640D01*
X6315862Y-3061563D01*
X6305702Y-3053181D01*
X6294475Y-3044748D01*
X6282639Y-3036671D01*
X6270701Y-3029254D01*
X6259118Y-3022752D01*
X6248298Y-3017469D01*
X6213348Y-3003499D01*
X6206693Y-3000502D01*
X6201460Y-2997809D01*
X6197549Y-2995371D01*
X6194755Y-2993085D01*
X6193028Y-2990799D01*
X6192164Y-2988462D01*
X6192012Y-2985973D01*
X6192469Y-2983179D01*
X6193332Y-2980029D01*
X6194806Y-2976219D01*
X6196584Y-2972765D01*
X6198666Y-2969666D01*
X6201105Y-2966872D01*
X6203848Y-2964434D01*
X6206845Y-2962249D01*
X6210096Y-2960420D01*
X6213652Y-2958896D01*
X6217412Y-2957728D01*
X6221425Y-2956814D01*
X6225641Y-2956204D01*
X6230061Y-2955848D01*
X6239408Y-2956102D01*
X6249314Y-2957474D01*
X6254496Y-2958541D01*
X6265062Y-2961538D01*
X6275984Y-2965602D01*
X6287058Y-2970631D01*
X6298184Y-2976626D01*
X6309258Y-2983585D01*
X6320180Y-2991459D01*
X6330746Y-3000197D01*
X6335877Y-3004870D01*
X6345783Y-3014878D01*
X6350558Y-3020161D01*
X6359956Y-3031540D01*
X6369405Y-3042361D01*
X6378600Y-3051911D01*
X6387642Y-3060192D01*
X6396634Y-3067253D01*
X6405626Y-3073196D01*
X6410096Y-3075736D01*
X6419240Y-3080105D01*
X6423863Y-3081883D01*
X6433362Y-3084728D01*
X6443116Y-3086658D01*
X6455562Y-3087878D01*
X6462115Y-3088081D01*
X6467805Y-3087878D01*
X6472682Y-3087217D01*
X6476796Y-3086100D01*
X6480048Y-3084525D01*
X6482537Y-3082442D01*
X6484264Y-3079800D01*
X6485178Y-3076702D01*
X6485331Y-3072993D01*
X6484721Y-3068726D01*
X6483400Y-3063900D01*
X6481318Y-3058414D01*
X6478473Y-3052318D01*
X6474968Y-3045612D01*
X6467398Y-3032506D01*
X6461912Y-3021380D01*
X6457848Y-3010662D01*
X6456324Y-3005531D01*
X6455105Y-3000502D01*
X6454241Y-2995574D01*
X6453733Y-2990799D01*
X6453530Y-2986176D01*
X6453682Y-2981706D01*
X6454140Y-2977388D01*
X6454952Y-2973222D01*
X6456070Y-2969209D01*
X6457492Y-2965348D01*
X6459220Y-2961690D01*
X6461302Y-2958185D01*
X6463690Y-2954832D01*
X6466332Y-2951734D01*
X6469329Y-2948787D01*
X6472631Y-2945993D01*
X6476238Y-2943453D01*
X6480149Y-2941116D01*
X6484315Y-2938983D01*
X6488785Y-2937052D01*
X6493560Y-2935325D01*
X6498640Y-2933852D01*
X6503974Y-2932582D01*
X6515557Y-2930753D01*
X6521754Y-2930194D01*
X6543903Y-2929483D01*
X6524599Y-2925826D01*
X6513322Y-2924352D01*
X6498793Y-2922828D01*
X6453073Y-2919272D01*
X6442100Y-2918206D01*
X6435547Y-2917342D01*
X6433464Y-2916783D01*
X6419291Y-2915615D01*
X6392265Y-2914091D01*
X6357772Y-2912567D01*
X6326276Y-2910890D01*
X6305092Y-2909265D01*
X6300063Y-2908604D01*
X6298793Y-2908198D01*
X6291732Y-2907842D01*
G37*
G36*
X5664200Y-3204819D02*
G01*
X5659018Y-3205226D01*
X5654243Y-3206445D01*
X5650179Y-3208375D01*
X5646928Y-3210966D01*
X5644845Y-3214065D01*
X5644083Y-3217621D01*
X5644388Y-3220212D01*
X5645251Y-3223158D01*
X5646623Y-3226460D01*
X5648502Y-3230168D01*
X5653735Y-3238398D01*
X5660593Y-3247745D01*
X5668873Y-3257854D01*
X5678373Y-3268573D01*
X5688888Y-3279749D01*
X5700115Y-3291027D01*
X5711850Y-3302304D01*
X5723890Y-3313277D01*
X5735929Y-3323844D01*
X5747816Y-3333648D01*
X5759297Y-3342538D01*
X5770118Y-3350310D01*
X5780024Y-3356762D01*
X5788863Y-3361639D01*
X5792774Y-3363417D01*
X5796330Y-3364687D01*
X5799480Y-3365500D01*
X5802223Y-3365754D01*
X5806694Y-3365347D01*
X5810504Y-3364179D01*
X5813704Y-3362248D01*
X5816244Y-3359708D01*
X5818174Y-3356508D01*
X5819495Y-3352800D01*
X5820156Y-3348634D01*
X5820206Y-3344011D01*
X5819698Y-3339033D01*
X5818530Y-3333800D01*
X5816752Y-3328263D01*
X5814415Y-3322624D01*
X5811418Y-3316833D01*
X5807862Y-3310940D01*
X5803696Y-3305149D01*
X5798921Y-3299358D01*
X5787898Y-3287064D01*
X5778906Y-3277666D01*
X5768898Y-3268217D01*
X5755030Y-3255772D01*
X5745835Y-3247999D01*
X5736082Y-3240532D01*
X5726023Y-3233420D01*
X5715711Y-3226765D01*
X5705297Y-3220720D01*
X5694934Y-3215284D01*
X5684774Y-3210560D01*
X5674918Y-3206597D01*
X5669584Y-3205226D01*
G37*
G36*
X6017514Y-3209036D02*
G01*
X6007709Y-3209290D01*
X5999784Y-3210966D01*
X5995924Y-3213862D01*
X5995720Y-3215995D01*
X5996279Y-3218383D01*
X5997651Y-3220974D01*
X5999734Y-3223717D01*
X6002528Y-3226663D01*
X6005982Y-3229711D01*
X6009995Y-3232861D01*
X6019698Y-3239363D01*
X6031280Y-3245967D01*
X6044285Y-3252470D01*
X6058509Y-3258667D01*
X6065875Y-3261614D01*
X6081115Y-3266948D01*
X6112662Y-3275939D01*
X6123838Y-3279597D01*
X6126480Y-3280206D01*
X6127038Y-3279241D01*
X6125667Y-3277006D01*
X6122619Y-3273552D01*
X6117996Y-3269132D01*
X6112052Y-3263950D01*
X6085433Y-3243275D01*
X6076696Y-3236112D01*
X6071108Y-3232658D01*
X6055004Y-3223768D01*
X6038037Y-3215132D01*
X6031331Y-3212084D01*
X6026962Y-3210407D01*
G37*
G36*
X-1107440Y-1846834D02*
G01*
X-1107440Y-5503113D01*
X4724704Y-5503113D01*
X4735525Y-5121706D01*
X4738268Y-5040731D01*
X4741418Y-4972100D01*
X4743145Y-4941874D01*
X4745075Y-4913985D01*
X4747209Y-4888331D01*
X4749546Y-4864608D01*
X4752136Y-4842611D01*
X4755032Y-4822088D01*
X4758232Y-4802835D01*
X4761788Y-4784598D01*
X4766716Y-4762906D01*
X4771136Y-4746193D01*
X4777232Y-4725670D01*
X4784090Y-4705146D01*
X4791710Y-4684166D01*
X4803495Y-4653686D01*
X4816957Y-4620260D01*
X4829759Y-4589932D01*
X4841189Y-4564126D01*
X4850638Y-4544364D01*
X4854448Y-4537151D01*
X4857496Y-4531969D01*
X4861204Y-4526584D01*
X4866233Y-4518152D01*
X4881575Y-4490466D01*
X4902911Y-4450283D01*
X4929022Y-4400143D01*
X4990541Y-4279747D01*
X5023510Y-4214469D01*
X5068214Y-4125061D01*
X5098643Y-4063593D01*
X5125872Y-4007916D01*
X5148732Y-3960520D01*
X5165953Y-3923893D01*
X5172049Y-3910380D01*
X5177637Y-3896969D01*
X5178653Y-3893667D01*
X5178856Y-3891889D01*
X5179822Y-3887927D01*
X5181701Y-3882034D01*
X5187950Y-3865219D01*
X5197094Y-3842664D01*
X5208524Y-3815638D01*
X5221782Y-3785463D01*
X5235397Y-3755339D01*
X5246522Y-3729888D01*
X5254650Y-3710178D01*
X5262524Y-3690315D01*
X5270042Y-3670604D01*
X5279186Y-3645103D01*
X5287213Y-3621278D01*
X5293766Y-3599789D01*
X5298592Y-3581501D01*
X5302504Y-3563569D01*
X5305399Y-3552291D01*
X5308904Y-3540201D01*
X5317439Y-3514039D01*
X5322366Y-3500374D01*
X5330291Y-3479698D01*
X5341620Y-3452723D01*
X5347462Y-3439922D01*
X5363260Y-3408121D01*
X5371236Y-3390442D01*
X5374690Y-3381806D01*
X5377738Y-3373272D01*
X5380482Y-3364636D01*
X5382818Y-3355848D01*
X5384901Y-3346907D01*
X5386628Y-3337610D01*
X5388051Y-3327908D01*
X5389981Y-3307029D01*
X5390489Y-3295700D01*
X5390743Y-3283610D01*
X5390489Y-3256838D01*
X5389168Y-3226155D01*
X5386984Y-3190849D01*
X5384342Y-3154730D01*
X5381447Y-3122371D01*
X5378704Y-3095345D01*
X5375554Y-3067659D01*
X5371236Y-3032658D01*
X5367528Y-3004820D01*
X5359501Y-2951226D01*
X5355386Y-2926130D01*
X5351221Y-2902712D01*
X5347055Y-2881274D01*
X5342991Y-2862275D01*
X5338064Y-2842260D01*
X5332018Y-2820619D01*
X5325059Y-2798114D01*
X5317185Y-2774848D01*
X5308549Y-2750921D01*
X5299100Y-2726486D01*
X5288940Y-2701594D01*
X5280914Y-2682697D01*
X5266740Y-2650896D01*
X5251704Y-2618841D01*
X5232704Y-2580386D01*
X5216144Y-2548534D01*
X5202529Y-2523337D01*
X5185156Y-2492400D01*
X5163921Y-2456230D01*
X5142382Y-2421534D01*
X5127955Y-2399385D01*
X5109921Y-2372918D01*
X5095646Y-2352903D01*
X5081473Y-2334006D01*
X5067452Y-2316276D01*
X5053736Y-2299919D01*
X5040325Y-2284933D01*
X5027218Y-2271471D01*
X4986375Y-2233269D01*
X4964379Y-2211628D01*
X4946040Y-2192578D01*
X4938522Y-2184400D01*
X4932273Y-2177186D01*
X4927447Y-2171090D01*
X4924094Y-2166315D01*
X4922367Y-2162911D01*
X4921961Y-2160371D01*
X4921351Y-2158644D01*
X4919014Y-2154377D01*
X4915204Y-2148941D01*
X4910074Y-2142439D01*
X4903774Y-2135073D01*
X4887823Y-2117852D01*
X4868265Y-2098090D01*
X4845913Y-2076500D01*
X4821631Y-2053843D01*
X4789881Y-2025192D01*
X4764328Y-2002993D01*
X4739589Y-1982216D01*
X4716526Y-1963623D01*
X4695952Y-1948027D01*
X4686909Y-1941575D01*
X4678730Y-1936140D01*
X4671669Y-1931873D01*
X4665726Y-1928774D01*
X4657801Y-1925320D01*
X4652518Y-1922475D01*
X4647539Y-1919173D01*
X4642866Y-1915464D01*
X4638548Y-1911502D01*
X4634687Y-1907235D01*
X4631232Y-1902815D01*
X4628337Y-1898192D01*
X4626000Y-1893519D01*
X4624273Y-1888845D01*
X4623155Y-1884172D01*
X4622749Y-1878838D01*
X4622139Y-1877364D01*
X4620869Y-1875891D01*
X4618888Y-1874520D01*
X4616145Y-1873148D01*
X4610354Y-1871167D01*
X4603242Y-1869490D01*
X4592269Y-1867560D01*
X4573371Y-1865223D01*
X4550359Y-1863191D01*
X4515815Y-1861007D01*
X4462221Y-1858568D01*
X4397654Y-1856536D01*
X4337964Y-1855165D01*
X4269130Y-1853895D01*
X4170527Y-1852472D01*
X4038142Y-1851152D01*
X3882999Y-1850034D01*
X3595471Y-1848662D01*
X3285032Y-1847850D01*
X2561793Y-1847037D01*
G37*
D10*
X3416302Y-3492500D02*
G01*
X3494280Y-3492500D01*
X3509774Y-3497579D01*
X3520188Y-3507994D01*
X3525268Y-3523742D01*
X3525268Y-3534155D01*
X3520188Y-3549650D01*
X3509774Y-3560063D01*
X3494280Y-3565144D01*
X3416302Y-3565144D01*
X3442210Y-3604768D02*
G01*
X3437130Y-3604768D01*
X3426716Y-3609847D01*
X3421382Y-3615181D01*
X3416302Y-3625595D01*
X3416302Y-3646170D01*
X3421382Y-3656584D01*
X3426716Y-3661918D01*
X3437130Y-3666997D01*
X3447544Y-3666997D01*
X3457958Y-3661918D01*
X3473452Y-3651504D01*
X3525268Y-3599434D01*
X3525268Y-3672331D01*
D11*
X3758971Y-3141421D02*
G01*
X3952773Y-3141421D01*
X3758971Y-3141421D02*
G01*
X3758971Y-3261309D01*
X3851173Y-3141421D02*
G01*
X3851173Y-3215081D01*
X3952773Y-3141421D02*
G01*
X3952773Y-3261309D01*
X3786657Y-3451555D02*
G01*
X3768115Y-3433267D01*
X3758971Y-3405581D01*
X3758971Y-3368497D01*
X3768115Y-3340811D01*
X3786657Y-3322269D01*
X3804945Y-3322269D01*
X3823487Y-3331667D01*
X3832631Y-3340811D01*
X3842029Y-3359353D01*
X3860571Y-3414725D01*
X3869715Y-3433267D01*
X3878859Y-3442411D01*
X3897401Y-3451555D01*
X3925087Y-3451555D01*
X3943629Y-3433267D01*
X3952773Y-3405581D01*
X3952773Y-3368497D01*
X3943629Y-3340811D01*
X3925087Y-3322269D01*
X3758971Y-3512515D02*
G01*
X3952773Y-3512515D01*
X3758971Y-3512515D02*
G01*
X3758971Y-3595827D01*
X3768115Y-3623513D01*
X3777259Y-3632657D01*
X3795801Y-3641801D01*
X3823487Y-3641801D01*
X3842029Y-3632657D01*
X3851173Y-3623513D01*
X3860571Y-3595827D01*
X3860571Y-3512515D01*
X3795801Y-3702761D02*
G01*
X3786657Y-3721303D01*
X3758971Y-3748989D01*
X3952773Y-3748989D01*
X3804945Y-3819347D02*
G01*
X3795801Y-3819347D01*
X3777259Y-3828491D01*
X3768115Y-3837635D01*
X3758971Y-3856177D01*
X3758971Y-3893261D01*
X3768115Y-3911549D01*
X3777259Y-3920947D01*
X3795801Y-3930091D01*
X3814343Y-3930091D01*
X3832631Y-3920947D01*
X3860571Y-3902405D01*
X3952773Y-3809949D01*
X3952773Y-3939235D01*
X3758971Y-4000195D02*
G01*
X3952773Y-4000195D01*
X3758971Y-4000195D02*
G01*
X3758971Y-4120337D01*
X3851173Y-4000195D02*
G01*
X3851173Y-4074109D01*
D12*
X4749622Y-2781249D02*
G01*
X4749622Y-4381245D01*
X4749622Y-4381245D02*
G01*
X2349627Y-4381245D01*
X2349627Y-4381245D02*
G01*
X2349627Y-2781249D01*
X4749622Y-2781249D01*
X3049625Y-2881248D02*
G01*
X3049625Y-4281246D01*
X2949625Y-4081246D02*
G01*
X2949625Y-3081248D01*
X2449626Y-3081248D01*
X2449626Y-3181248D01*
X2749626Y-3181248D01*
X2749626Y-3281248D01*
X2449626Y-3281248D01*
X2449626Y-3381247D01*
X2749626Y-3381247D01*
X2749626Y-3481247D01*
X2449626Y-3481247D01*
X2449626Y-3581247D01*
X2749626Y-3581247D01*
X2749626Y-3681247D01*
X2449626Y-3681247D01*
X2449626Y-4281246D01*
X3249625Y-2981248D02*
G01*
X4549622Y-2981248D01*
X4549622Y-4181246D01*
X3249625Y-4181246D01*
X3249625Y-2981248D01*
M02*
