G04 Layer: TopSilkscreenLayer*
G04 EasyEDA v6.5.48, 2025-03-08 11:52:12*
G04 30e90ac5d70944fe866dc529022a22e9,369c048249c94b259d5cf78f180de413,10*
G04 Gerber Generator version 0.2*
G04 Scale: 100 percent, Rotated: No, Reflected: No *
G04 Dimensions in millimeters *
G04 leading zeros omitted , absolute positions ,4 integer and 5 decimal *
%FSLAX45Y45*%
%MOMM*%

%ADD10C,0.2032*%
%ADD11C,0.1016*%
%ADD12C,0.1524*%
%ADD13C,0.2540*%
%ADD14C,0.2007*%
%ADD15C,0.2286*%
%ADD16C,0.4000*%
%ADD17C,0.0146*%

%LPD*%
G36*
X4121048Y-3279952D02*
G01*
X4109923Y-3280257D01*
X4099763Y-3280867D01*
X4090212Y-3281832D01*
X4080967Y-3283204D01*
X4071721Y-3284982D01*
X4062120Y-3287268D01*
X4051757Y-3290062D01*
X4027678Y-3297377D01*
X3994302Y-3308146D01*
X3961485Y-3319373D01*
X3947210Y-3324606D01*
X3934206Y-3329686D01*
X3922268Y-3334664D01*
X3911295Y-3339592D01*
X3901084Y-3344621D01*
X3891534Y-3349802D01*
X3882440Y-3355136D01*
X3873652Y-3360775D01*
X3865067Y-3366719D01*
X3856482Y-3373120D01*
X3847795Y-3379978D01*
X3835958Y-3389782D01*
X3824732Y-3399637D01*
X3814114Y-3409442D01*
X3804107Y-3419246D01*
X3794658Y-3429101D01*
X3785870Y-3438906D01*
X3777640Y-3448812D01*
X3770020Y-3458718D01*
X3763010Y-3468624D01*
X3756558Y-3478631D01*
X3750716Y-3488639D01*
X3745433Y-3498697D01*
X3740759Y-3508806D01*
X3736644Y-3519017D01*
X3733088Y-3529279D01*
X3730142Y-3539591D01*
X3727704Y-3550005D01*
X3725875Y-3560470D01*
X3724605Y-3571087D01*
X3723843Y-3581755D01*
X3723690Y-3592525D01*
X3724046Y-3603447D01*
X3727196Y-3655974D01*
X3643528Y-3660038D01*
X3627323Y-3661054D01*
X3612642Y-3662324D01*
X3599179Y-3663848D01*
X3586632Y-3665728D01*
X3574592Y-3668064D01*
X3562756Y-3670858D01*
X3550818Y-3674211D01*
X3538423Y-3678174D01*
X3525265Y-3682796D01*
X3511143Y-3688130D01*
X3497427Y-3693718D01*
X3484473Y-3699459D01*
X3472179Y-3705402D01*
X3460597Y-3711600D01*
X3449574Y-3718051D01*
X3439109Y-3724859D01*
X3429101Y-3731971D01*
X3419551Y-3739540D01*
X3410407Y-3747566D01*
X3401568Y-3756050D01*
X3393033Y-3765092D01*
X3384702Y-3774694D01*
X3379013Y-3781755D01*
X4064914Y-3781755D01*
X4066032Y-3775710D01*
X4069435Y-3771392D01*
X4075074Y-3768801D01*
X4082948Y-3767937D01*
X4087622Y-3767734D01*
X4089654Y-3767328D01*
X4091432Y-3766667D01*
X4093006Y-3765651D01*
X4094429Y-3764229D01*
X4095648Y-3762298D01*
X4096715Y-3759809D01*
X4097629Y-3756710D01*
X4099051Y-3748328D01*
X4100017Y-3736594D01*
X4100576Y-3720947D01*
X4100829Y-3700881D01*
X4100931Y-3633368D01*
X4100728Y-3610813D01*
X4100322Y-3593033D01*
X4099560Y-3579418D01*
X4098391Y-3569462D01*
X4097629Y-3565651D01*
X4096715Y-3562553D01*
X4095648Y-3560064D01*
X4094429Y-3558133D01*
X4093006Y-3556711D01*
X4091432Y-3555695D01*
X4089654Y-3554984D01*
X4085386Y-3554425D01*
X4082948Y-3554374D01*
X4075887Y-3553561D01*
X4070197Y-3551377D01*
X4066336Y-3548075D01*
X4064914Y-3544062D01*
X4065168Y-3542131D01*
X4066082Y-3540455D01*
X4067606Y-3538982D01*
X4069892Y-3537762D01*
X4072940Y-3536696D01*
X4076954Y-3535832D01*
X4081881Y-3535121D01*
X4087825Y-3534562D01*
X4103166Y-3533901D01*
X4123486Y-3533698D01*
X4143806Y-3533901D01*
X4159097Y-3534562D01*
X4165092Y-3535121D01*
X4170019Y-3535832D01*
X4173982Y-3536696D01*
X4177080Y-3537762D01*
X4179315Y-3538982D01*
X4180890Y-3540455D01*
X4181754Y-3542131D01*
X4182008Y-3544062D01*
X4180484Y-3548379D01*
X4176014Y-3551631D01*
X4168901Y-3553663D01*
X4159504Y-3554374D01*
X4136999Y-3554374D01*
X4136999Y-3697122D01*
X4236059Y-3697122D01*
X4236262Y-3689654D01*
X4236872Y-3682390D01*
X4237888Y-3675227D01*
X4239310Y-3668268D01*
X4241088Y-3661511D01*
X4243222Y-3654958D01*
X4245711Y-3648710D01*
X4248505Y-3642664D01*
X4251706Y-3636975D01*
X4255160Y-3631539D01*
X4258970Y-3626510D01*
X4263034Y-3621786D01*
X4267403Y-3617468D01*
X4272076Y-3613505D01*
X4277004Y-3610000D01*
X4282135Y-3606952D01*
X4286808Y-3604717D01*
X4291888Y-3602736D01*
X4297324Y-3601008D01*
X4303064Y-3599535D01*
X4309160Y-3598265D01*
X4315409Y-3597300D01*
X4321860Y-3596589D01*
X4328464Y-3596132D01*
X4341876Y-3595928D01*
X4348581Y-3596182D01*
X4361840Y-3597503D01*
X4374438Y-3599738D01*
X4380382Y-3601262D01*
X4386072Y-3602990D01*
X4391406Y-3604920D01*
X4396333Y-3607155D01*
X4400804Y-3609594D01*
X4405325Y-3612489D01*
X4409541Y-3615690D01*
X4413554Y-3619093D01*
X4417263Y-3622801D01*
X4420768Y-3626713D01*
X4424019Y-3630879D01*
X4427016Y-3635298D01*
X4429709Y-3639921D01*
X4432198Y-3644747D01*
X4434382Y-3649776D01*
X4436313Y-3655060D01*
X4437989Y-3660495D01*
X4439361Y-3666134D01*
X4440478Y-3671976D01*
X4441342Y-3677970D01*
X4442155Y-3690518D01*
X4441799Y-3703675D01*
X4441240Y-3710432D01*
X4440377Y-3717036D01*
X4439208Y-3723335D01*
X4437837Y-3729329D01*
X4436160Y-3735120D01*
X4434179Y-3740607D01*
X4431893Y-3745839D01*
X4429353Y-3750818D01*
X4426559Y-3755593D01*
X4423410Y-3760063D01*
X4420006Y-3764330D01*
X4416247Y-3768344D01*
X4412234Y-3772154D01*
X4407865Y-3775710D01*
X4403191Y-3779062D01*
X4398213Y-3782161D01*
X4392930Y-3785057D01*
X4387342Y-3787749D01*
X4381398Y-3790238D01*
X4368495Y-3794556D01*
X4362907Y-3796029D01*
X4351731Y-3798112D01*
X4340707Y-3798976D01*
X4335272Y-3798976D01*
X4329887Y-3798722D01*
X4324604Y-3798163D01*
X4319371Y-3797350D01*
X4314190Y-3796284D01*
X4304182Y-3793439D01*
X4294632Y-3789578D01*
X4285538Y-3784803D01*
X4281220Y-3782110D01*
X4272991Y-3776065D01*
X4265422Y-3769207D01*
X4258564Y-3761587D01*
X4255414Y-3757523D01*
X4249775Y-3748887D01*
X4245000Y-3739591D01*
X4242968Y-3734765D01*
X4241190Y-3729736D01*
X4239666Y-3724605D01*
X4238396Y-3719372D01*
X4237380Y-3713937D01*
X4236669Y-3708450D01*
X4236212Y-3702862D01*
X4236059Y-3697122D01*
X4136999Y-3697122D01*
X4136999Y-3767937D01*
X4159504Y-3767937D01*
X4169968Y-3768699D01*
X4176928Y-3771036D01*
X4180840Y-3775303D01*
X4182008Y-3781755D01*
X4181856Y-3784600D01*
X4181348Y-3787038D01*
X4180230Y-3789121D01*
X4178503Y-3790797D01*
X4175963Y-3792169D01*
X4172458Y-3793286D01*
X4167835Y-3794099D01*
X4161993Y-3794709D01*
X4146042Y-3795369D01*
X4123486Y-3795522D01*
X4100880Y-3795369D01*
X4084929Y-3794709D01*
X4079087Y-3794099D01*
X4074515Y-3793286D01*
X4070959Y-3792169D01*
X4068419Y-3790797D01*
X4066692Y-3789121D01*
X4065625Y-3787038D01*
X4065066Y-3784600D01*
X4064914Y-3781755D01*
X3379013Y-3781755D01*
X3372510Y-3790289D01*
X3364534Y-3801516D01*
X3356559Y-3813454D01*
X3347872Y-3827119D01*
X3340760Y-3838905D01*
X3335070Y-3849217D01*
X3332683Y-3853992D01*
X3328873Y-3863086D01*
X3326079Y-3872026D01*
X3324148Y-3881221D01*
X3322980Y-3891178D01*
X3322421Y-3902405D01*
X3322269Y-3915410D01*
X3322421Y-3928872D01*
X3323132Y-3940962D01*
X3324504Y-3952697D01*
X3326536Y-3964127D01*
X3329178Y-3975303D01*
X3332479Y-3986225D01*
X3336493Y-3996893D01*
X3341166Y-4007358D01*
X3346602Y-4017568D01*
X3352698Y-4027627D01*
X3359505Y-4037533D01*
X3367074Y-4047286D01*
X3375355Y-4056887D01*
X3384448Y-4066387D01*
X3394303Y-4075785D01*
X3404920Y-4085132D01*
X3416300Y-4094378D01*
X3428492Y-4103624D01*
X3442360Y-4113479D01*
X3456686Y-4123232D01*
X3469741Y-4131818D01*
X3480917Y-4138828D01*
X3489604Y-4143857D01*
X3495294Y-4146550D01*
X3496767Y-4146905D01*
X3497783Y-4146245D01*
X3497884Y-4144365D01*
X3497173Y-4141368D01*
X3495649Y-4137456D01*
X3493363Y-4132681D01*
X3490417Y-4127195D01*
X3479139Y-4109008D01*
X3475888Y-4103370D01*
X3472992Y-4097731D01*
X3470452Y-4092092D01*
X3468268Y-4086402D01*
X3466388Y-4080611D01*
X3464814Y-4074718D01*
X3463594Y-4068673D01*
X3462629Y-4062425D01*
X3461969Y-4055922D01*
X3461562Y-4049166D01*
X3461562Y-4035145D01*
X3461867Y-4028440D01*
X3463290Y-4015689D01*
X3464306Y-4009644D01*
X3467150Y-3998163D01*
X3471011Y-3987444D01*
X3473348Y-3982364D01*
X3475939Y-3977436D01*
X3478784Y-3972661D01*
X3481933Y-3968038D01*
X3485387Y-3963568D01*
X3489096Y-3959199D01*
X3497376Y-3950817D01*
X3506927Y-3942842D01*
X3516934Y-3935679D01*
X3521811Y-3932631D01*
X3531717Y-3927246D01*
X3541572Y-3922826D01*
X3551072Y-3919321D01*
X3560064Y-3916781D01*
X3568192Y-3915206D01*
X3571900Y-3914749D01*
X3578351Y-3914648D01*
X3581044Y-3914952D01*
X3583330Y-3915511D01*
X3585260Y-3916273D01*
X3586683Y-3917289D01*
X3587648Y-3918610D01*
X3588054Y-3920134D01*
X3587953Y-3921861D01*
X3587597Y-3922877D01*
X3605580Y-3922877D01*
X3606596Y-3918356D01*
X3610305Y-3916375D01*
X3617366Y-3916883D01*
X3634333Y-3921150D01*
X3639820Y-3922166D01*
X3645204Y-3922776D01*
X3650335Y-3922928D01*
X3655314Y-3922674D01*
X3660140Y-3921963D01*
X3664762Y-3920845D01*
X3672992Y-3917797D01*
X3676192Y-3916832D01*
X3678885Y-3916476D01*
X3681018Y-3916832D01*
X3682746Y-3918051D01*
X3684066Y-3920236D01*
X3685082Y-3923537D01*
X3685743Y-3928059D01*
X3686200Y-3933901D01*
X3686606Y-3950055D01*
X3686454Y-3970375D01*
X3685997Y-3979418D01*
X3685286Y-3987698D01*
X3684320Y-3994861D01*
X3683203Y-4000804D01*
X3681882Y-4005275D01*
X3680409Y-4008120D01*
X3678834Y-4009085D01*
X3676954Y-4008475D01*
X3674567Y-4006646D01*
X3671824Y-4003751D01*
X3668776Y-3999941D01*
X3665524Y-3995369D01*
X3662172Y-3990086D01*
X3652062Y-3971645D01*
X3648151Y-3965397D01*
X3643934Y-3959453D01*
X3639515Y-3953967D01*
X3635044Y-3949141D01*
X3630676Y-3945077D01*
X3626561Y-3941927D01*
X3616096Y-3936339D01*
X3610610Y-3931970D01*
X3606901Y-3927297D01*
X3605580Y-3922877D01*
X3587597Y-3922877D01*
X3587242Y-3923893D01*
X3585972Y-3926179D01*
X3584041Y-3928668D01*
X3581400Y-3931462D01*
X3578098Y-3934460D01*
X3574034Y-3937711D01*
X3572408Y-3939387D01*
X3570833Y-3941724D01*
X3569411Y-3944721D01*
X3568039Y-3948328D01*
X3565651Y-3957218D01*
X3563620Y-3968038D01*
X3561994Y-3980535D01*
X3560673Y-3994302D01*
X3559810Y-4008983D01*
X3559301Y-4024376D01*
X3559149Y-4038092D01*
X3717493Y-4038092D01*
X3718153Y-4025900D01*
X3719931Y-4013657D01*
X3721252Y-4007561D01*
X3723233Y-4000246D01*
X3725418Y-3993337D01*
X3727856Y-3986733D01*
X3730599Y-3980434D01*
X3733596Y-3974490D01*
X3736898Y-3968851D01*
X3740505Y-3963517D01*
X3744417Y-3958437D01*
X3748633Y-3953611D01*
X3753205Y-3949090D01*
X3758133Y-3944721D01*
X3763416Y-3940657D01*
X3769106Y-3936746D01*
X3775151Y-3933037D01*
X3781602Y-3929481D01*
X3797198Y-3922115D01*
X3804767Y-3918864D01*
X3816654Y-3914648D01*
X3821023Y-3913682D01*
X3824376Y-3913479D01*
X3826764Y-3913987D01*
X3828237Y-3915308D01*
X3828796Y-3917340D01*
X3828542Y-3920185D01*
X3827475Y-3923792D01*
X3824528Y-3930904D01*
X3822547Y-3938828D01*
X3820769Y-3949547D01*
X3819194Y-3962603D01*
X3817823Y-3977538D01*
X3816705Y-3993946D01*
X3815181Y-4029049D01*
X3814724Y-4064355D01*
X3814876Y-4080916D01*
X3815334Y-4096105D01*
X3816096Y-4109516D01*
X3817162Y-4120642D01*
X3818534Y-4129024D01*
X3819347Y-4132021D01*
X3820261Y-4134205D01*
X3821226Y-4135475D01*
X3824935Y-4139234D01*
X3827932Y-4144060D01*
X3829964Y-4149344D01*
X3830726Y-4154525D01*
X3830370Y-4157472D01*
X3856634Y-4157472D01*
X3856786Y-4155033D01*
X3858310Y-4152137D01*
X3861257Y-4148734D01*
X3865727Y-4144924D01*
X3866794Y-4143654D01*
X3867759Y-4141622D01*
X3868724Y-4138828D01*
X3870401Y-4131208D01*
X3871874Y-4121150D01*
X3873144Y-4109059D01*
X3874160Y-4095292D01*
X3874973Y-4080205D01*
X3875836Y-4047744D01*
X3875735Y-4014622D01*
X3874719Y-3983939D01*
X3873804Y-3970426D01*
X3872687Y-3958691D01*
X3871315Y-3949039D01*
X3869690Y-3941927D01*
X3868775Y-3939438D01*
X3867810Y-3937660D01*
X3863289Y-3934256D01*
X3860393Y-3930700D01*
X3858463Y-3926484D01*
X3857751Y-3922115D01*
X3858209Y-3919169D01*
X3859428Y-3916984D01*
X3861460Y-3915410D01*
X3864152Y-3914546D01*
X3867505Y-3914292D01*
X3871468Y-3914648D01*
X3875989Y-3915613D01*
X3880967Y-3917137D01*
X3886352Y-3919270D01*
X3892143Y-3921912D01*
X3898239Y-3925062D01*
X3904640Y-3928770D01*
X3911193Y-3932885D01*
X3917950Y-3937508D01*
X3931615Y-3948023D01*
X3940098Y-3955745D01*
X3944010Y-3959809D01*
X3951071Y-3968242D01*
X3957167Y-3977081D01*
X3959910Y-3981653D01*
X3964635Y-3991051D01*
X3968445Y-4000703D01*
X3971391Y-4010609D01*
X3973423Y-4020667D01*
X3974592Y-4030776D01*
X3974846Y-4035856D01*
X3974693Y-4046067D01*
X3973677Y-4056227D01*
X3971848Y-4066235D01*
X3970629Y-4071213D01*
X3967530Y-4080967D01*
X3965701Y-4085793D01*
X3961384Y-4095140D01*
X3956304Y-4104182D01*
X3950411Y-4112869D01*
X3943705Y-4121048D01*
X3936288Y-4128770D01*
X3928110Y-4135882D01*
X3919169Y-4142384D01*
X3909466Y-4148175D01*
X3903497Y-4151223D01*
X4005884Y-4151223D01*
X4005884Y-4149344D01*
X4006799Y-4147261D01*
X4008729Y-4145026D01*
X4011625Y-4142587D01*
X4017365Y-4138472D01*
X4019143Y-4136644D01*
X4020667Y-4134358D01*
X4022090Y-4131513D01*
X4023309Y-4128160D01*
X4024426Y-4124147D01*
X4025392Y-4119422D01*
X4026865Y-4107738D01*
X4027932Y-4092549D01*
X4028592Y-4073398D01*
X4028846Y-4049826D01*
X4028846Y-4025900D01*
X4028490Y-4006443D01*
X4027881Y-3988815D01*
X4026915Y-3973322D01*
X4025747Y-3960164D01*
X4024325Y-3949649D01*
X4022699Y-3942079D01*
X4021785Y-3939438D01*
X4020870Y-3937660D01*
X4019905Y-3936746D01*
X4016197Y-3934815D01*
X4013403Y-3932986D01*
X4011523Y-3931259D01*
X4010507Y-3929634D01*
X4010456Y-3928110D01*
X4011218Y-3926687D01*
X4012895Y-3925366D01*
X4015384Y-3924198D01*
X4018737Y-3923131D01*
X4027932Y-3921404D01*
X4040378Y-3920236D01*
X4055973Y-3919626D01*
X4118965Y-3919524D01*
X4119133Y-4056126D01*
X4137202Y-4056126D01*
X4138472Y-4053535D01*
X4141114Y-4050537D01*
X4145127Y-4047236D01*
X4150461Y-4043527D01*
X4153763Y-4040835D01*
X4156557Y-4037177D01*
X4158894Y-4032453D01*
X4160774Y-4026662D01*
X4162196Y-4019804D01*
X4163212Y-4011726D01*
X4163822Y-4002430D01*
X4163974Y-3991864D01*
X4163822Y-3981297D01*
X4163212Y-3972001D01*
X4162196Y-3963924D01*
X4160774Y-3957065D01*
X4158894Y-3951274D01*
X4156557Y-3946601D01*
X4153763Y-3942892D01*
X4150461Y-3940200D01*
X4145584Y-3936898D01*
X4141876Y-3933850D01*
X4139336Y-3931107D01*
X4137964Y-3928668D01*
X4137761Y-3926535D01*
X4138726Y-3924655D01*
X4140860Y-3923080D01*
X4144213Y-3921810D01*
X4148683Y-3920794D01*
X4154322Y-3920083D01*
X4161180Y-3919677D01*
X4174998Y-3919626D01*
X4180484Y-3919982D01*
X4190746Y-3921506D01*
X4195622Y-3922674D01*
X4200347Y-3924198D01*
X4205020Y-3925976D01*
X4214317Y-3930650D01*
X4219041Y-3933545D01*
X4228846Y-3940505D01*
X4239514Y-3949090D01*
X4243578Y-3952849D01*
X4246829Y-3956405D01*
X4249369Y-3960012D01*
X4251248Y-3963670D01*
X4252518Y-3967632D01*
X4253280Y-3971950D01*
X4253534Y-3976827D01*
X4253331Y-3982415D01*
X4251909Y-3996182D01*
X4250994Y-4002430D01*
X4249826Y-4008272D01*
X4248404Y-4013758D01*
X4246676Y-4018940D01*
X4244695Y-4023766D01*
X4242409Y-4028236D01*
X4239818Y-4032453D01*
X4236923Y-4036314D01*
X4233722Y-4039920D01*
X4230166Y-4043222D01*
X4226306Y-4046220D01*
X4222089Y-4048963D01*
X4217466Y-4051452D01*
X4212488Y-4053687D01*
X4207154Y-4055668D01*
X4201414Y-4057396D01*
X4195267Y-4058920D01*
X4188714Y-4060240D01*
X4181754Y-4061307D01*
X4165193Y-4062984D01*
X4157370Y-4063288D01*
X4150766Y-4063136D01*
X4145432Y-4062577D01*
X4141419Y-4061561D01*
X4138676Y-4060139D01*
X4137253Y-4058361D01*
X4137202Y-4056126D01*
X4119133Y-4056126D01*
X4119829Y-4086555D01*
X4120591Y-4100677D01*
X4121607Y-4112158D01*
X4122978Y-4121302D01*
X4124706Y-4128312D01*
X4126839Y-4133596D01*
X4128058Y-4135628D01*
X4129379Y-4137355D01*
X4130801Y-4138777D01*
X4136237Y-4142587D01*
X4139133Y-4145026D01*
X4141012Y-4147261D01*
X4141978Y-4149344D01*
X4141978Y-4151020D01*
X4285081Y-4151020D01*
X4285183Y-4149140D01*
X4286199Y-4147108D01*
X4288129Y-4144873D01*
X4290974Y-4142486D01*
X4296613Y-4138472D01*
X4298340Y-4136644D01*
X4299915Y-4134358D01*
X4301286Y-4131513D01*
X4302556Y-4128160D01*
X4303623Y-4124147D01*
X4304588Y-4119422D01*
X4306112Y-4107738D01*
X4307128Y-4092549D01*
X4307789Y-4073398D01*
X4308094Y-4049826D01*
X4308043Y-4025900D01*
X4307738Y-4006443D01*
X4307078Y-3988815D01*
X4306163Y-3973322D01*
X4304944Y-3960164D01*
X4303522Y-3949649D01*
X4302760Y-3945483D01*
X4301032Y-3939438D01*
X4300067Y-3937660D01*
X4299102Y-3936746D01*
X4295394Y-3934815D01*
X4292600Y-3932986D01*
X4290720Y-3931259D01*
X4289755Y-3929634D01*
X4289653Y-3928110D01*
X4290466Y-3926687D01*
X4292092Y-3925366D01*
X4294632Y-3924198D01*
X4297984Y-3923131D01*
X4302150Y-3922217D01*
X4312970Y-3920744D01*
X4326991Y-3919829D01*
X4344162Y-3919524D01*
X4398162Y-3919524D01*
X4398162Y-3929075D01*
X4425188Y-3929075D01*
X4425797Y-3926738D01*
X4427524Y-3924757D01*
X4430522Y-3923080D01*
X4434789Y-3921760D01*
X4440377Y-3920794D01*
X4447387Y-3920083D01*
X4455820Y-3919677D01*
X4506264Y-3919524D01*
X4506264Y-3928567D01*
X4543399Y-3928567D01*
X4543501Y-3926890D01*
X4544517Y-3925417D01*
X4546549Y-3924147D01*
X4549546Y-3923080D01*
X4553559Y-3922166D01*
X4558690Y-3921404D01*
X4572355Y-3920286D01*
X4590796Y-3919728D01*
X4614367Y-3919524D01*
X4633468Y-3919728D01*
X4650638Y-3920388D01*
X4665268Y-3921353D01*
X4676546Y-3922572D01*
X4680712Y-3923284D01*
X4683810Y-3924046D01*
X4685741Y-3924858D01*
X4686401Y-3925671D01*
X4685455Y-3928059D01*
X4775708Y-3928059D01*
X4776165Y-3926992D01*
X4777384Y-3925976D01*
X4779365Y-3925011D01*
X4782108Y-3924096D01*
X4789779Y-3922522D01*
X4800346Y-3921251D01*
X4813706Y-3920286D01*
X4829810Y-3919728D01*
X4848555Y-3919524D01*
X4867656Y-3919728D01*
X4884826Y-3920388D01*
X4899456Y-3921353D01*
X4910734Y-3922572D01*
X4914900Y-3923284D01*
X4917998Y-3924046D01*
X4919929Y-3924858D01*
X4920589Y-3925671D01*
X4919603Y-3928160D01*
X5009946Y-3928160D01*
X5010302Y-3927094D01*
X5011369Y-3926027D01*
X5013198Y-3925062D01*
X5015738Y-3924147D01*
X5022900Y-3922572D01*
X5032857Y-3921302D01*
X5045405Y-3920337D01*
X5060594Y-3919728D01*
X5078222Y-3919524D01*
X5096154Y-3919778D01*
X5112258Y-3920439D01*
X5125923Y-3921455D01*
X5136540Y-3922725D01*
X5140452Y-3923487D01*
X5143347Y-3924300D01*
X5145176Y-3925112D01*
X5145786Y-3926027D01*
X5145074Y-3928872D01*
X5143144Y-3931818D01*
X5140248Y-3934612D01*
X5136794Y-3936746D01*
X5135778Y-3937711D01*
X5134864Y-3939540D01*
X5133949Y-3942232D01*
X5132324Y-3950055D01*
X5130901Y-3960977D01*
X5129682Y-3974642D01*
X5128768Y-3990848D01*
X5128158Y-4009288D01*
X5127802Y-4029659D01*
X5127802Y-4051808D01*
X5128107Y-4072585D01*
X5128717Y-4090924D01*
X5129631Y-4106621D01*
X5130800Y-4119473D01*
X5132222Y-4129328D01*
X5132984Y-4133138D01*
X5133848Y-4136085D01*
X5134762Y-4138269D01*
X5135727Y-4139539D01*
X5136794Y-4139996D01*
X5140248Y-4140809D01*
X5143144Y-4143044D01*
X5145074Y-4146296D01*
X5145786Y-4150309D01*
X5145481Y-4152239D01*
X5144617Y-4153915D01*
X5142992Y-4155389D01*
X5140655Y-4156659D01*
X5137404Y-4157675D01*
X5133289Y-4158538D01*
X5128107Y-4159250D01*
X5114391Y-4160215D01*
X5095697Y-4160621D01*
X5075834Y-4160621D01*
X5059883Y-4160316D01*
X5045506Y-4159758D01*
X5033314Y-4158945D01*
X5024069Y-4157979D01*
X5018328Y-4156913D01*
X5017008Y-4156303D01*
X5015839Y-4153509D01*
X5016855Y-4148988D01*
X5019852Y-4143501D01*
X5026050Y-4135424D01*
X5027574Y-4132630D01*
X5028946Y-4129227D01*
X5030266Y-4125214D01*
X5032552Y-4115663D01*
X5034534Y-4104182D01*
X5036159Y-4091228D01*
X5037378Y-4077106D01*
X5038242Y-4062069D01*
X5038750Y-4046575D01*
X5038953Y-4030878D01*
X5038750Y-4015282D01*
X5038140Y-4000195D01*
X5037226Y-3985920D01*
X5035956Y-3972814D01*
X5034330Y-3961129D01*
X5032298Y-3951274D01*
X5031181Y-3947109D01*
X5029962Y-3943502D01*
X5028641Y-3940556D01*
X5027269Y-3938270D01*
X5025745Y-3936644D01*
X5024170Y-3935780D01*
X5016246Y-3933088D01*
X5013502Y-3931767D01*
X5011572Y-3930497D01*
X5010353Y-3929329D01*
X5009946Y-3928160D01*
X4919603Y-3928160D01*
X4916627Y-3931208D01*
X4912309Y-3933748D01*
X4905451Y-3936441D01*
X4903978Y-3937304D01*
X4902606Y-3938574D01*
X4901387Y-3940149D01*
X4900218Y-3942130D01*
X4898288Y-3947566D01*
X4896764Y-3955135D01*
X4895596Y-3965143D01*
X4894681Y-3978046D01*
X4894122Y-3994048D01*
X4893614Y-4036974D01*
X4893564Y-4152087D01*
X4912614Y-4152087D01*
X4912817Y-4150004D01*
X4913934Y-4147718D01*
X4915916Y-4145178D01*
X4918811Y-4142384D01*
X4922621Y-4139387D01*
X4937404Y-4129582D01*
X4942078Y-4125976D01*
X4946700Y-4121861D01*
X4951272Y-4117441D01*
X4955540Y-4112768D01*
X4959451Y-4107992D01*
X4962804Y-4103370D01*
X4968697Y-4093311D01*
X4971694Y-4088637D01*
X4974488Y-4084929D01*
X4977130Y-4082084D01*
X4979517Y-4080205D01*
X4981752Y-4079240D01*
X4983784Y-4079138D01*
X4985613Y-4080001D01*
X4987239Y-4081729D01*
X4988661Y-4084421D01*
X4989880Y-4087977D01*
X4990896Y-4092448D01*
X4991658Y-4097832D01*
X4992217Y-4104081D01*
X4992674Y-4119321D01*
X4992674Y-4160672D01*
X4944059Y-4160570D01*
X4936896Y-4160265D01*
X4930698Y-4159758D01*
X4925364Y-4158996D01*
X4920996Y-4158081D01*
X4917541Y-4156913D01*
X4915001Y-4155490D01*
X4913376Y-4153915D01*
X4912614Y-4152087D01*
X4893564Y-4152087D01*
X4893564Y-4160672D01*
X4830216Y-4160621D01*
X4812131Y-4160215D01*
X4798568Y-4159250D01*
X4793386Y-4158538D01*
X4789220Y-4157624D01*
X4786020Y-4156456D01*
X4783734Y-4155135D01*
X4782362Y-4153509D01*
X4781804Y-4151629D01*
X4782058Y-4149445D01*
X4783074Y-4147007D01*
X4784801Y-4144213D01*
X4787239Y-4141063D01*
X4790338Y-4137558D01*
X4791862Y-4135424D01*
X4793386Y-4132630D01*
X4794758Y-4129227D01*
X4796078Y-4125214D01*
X4798364Y-4115663D01*
X4800346Y-4104182D01*
X4801971Y-4091228D01*
X4803190Y-4077106D01*
X4804054Y-4062069D01*
X4804562Y-4046575D01*
X4804765Y-4030878D01*
X4804562Y-4015282D01*
X4803952Y-4000195D01*
X4803038Y-3985920D01*
X4801768Y-3972814D01*
X4800142Y-3961129D01*
X4798110Y-3951274D01*
X4796993Y-3947109D01*
X4795774Y-3943502D01*
X4794453Y-3940556D01*
X4793081Y-3938270D01*
X4791557Y-3936644D01*
X4789982Y-3935780D01*
X4785563Y-3934409D01*
X4781956Y-3933037D01*
X4779162Y-3931716D01*
X4777232Y-3930446D01*
X4776063Y-3929227D01*
X4775708Y-3928059D01*
X4685455Y-3928059D01*
X4682439Y-3931208D01*
X4678172Y-3933748D01*
X4671263Y-3936441D01*
X4669790Y-3937304D01*
X4668418Y-3938574D01*
X4667199Y-3940149D01*
X4666030Y-3942130D01*
X4664100Y-3947566D01*
X4662576Y-3955135D01*
X4661408Y-3965143D01*
X4660493Y-3978046D01*
X4659934Y-3994048D01*
X4659426Y-4036974D01*
X4659376Y-4152087D01*
X4678426Y-4152087D01*
X4678629Y-4150004D01*
X4679746Y-4147718D01*
X4681728Y-4145178D01*
X4684623Y-4142384D01*
X4688433Y-4139387D01*
X4703216Y-4129582D01*
X4707890Y-4125976D01*
X4712512Y-4121861D01*
X4717084Y-4117441D01*
X4721352Y-4112768D01*
X4725263Y-4107992D01*
X4728616Y-4103370D01*
X4734509Y-4093311D01*
X4737506Y-4088637D01*
X4740300Y-4084929D01*
X4742942Y-4082084D01*
X4745380Y-4080205D01*
X4747564Y-4079240D01*
X4749596Y-4079138D01*
X4751425Y-4080001D01*
X4753051Y-4081729D01*
X4754473Y-4084421D01*
X4755692Y-4087977D01*
X4756658Y-4092448D01*
X4757470Y-4097832D01*
X4758029Y-4104081D01*
X4758486Y-4119321D01*
X4758486Y-4160672D01*
X4709871Y-4160570D01*
X4702708Y-4160265D01*
X4696510Y-4159758D01*
X4691227Y-4158996D01*
X4686808Y-4158081D01*
X4683353Y-4156913D01*
X4680813Y-4155490D01*
X4679188Y-4153915D01*
X4678426Y-4152087D01*
X4659376Y-4152087D01*
X4659376Y-4160672D01*
X4596434Y-4160621D01*
X4578807Y-4160164D01*
X4565294Y-4159250D01*
X4555591Y-4157726D01*
X4552137Y-4156710D01*
X4549546Y-4155490D01*
X4547819Y-4154119D01*
X4546904Y-4152544D01*
X4546752Y-4150715D01*
X4547412Y-4148683D01*
X4548784Y-4146448D01*
X4550867Y-4143959D01*
X4553661Y-4141215D01*
X4554728Y-4139793D01*
X4555794Y-4137609D01*
X4556760Y-4134713D01*
X4558487Y-4127093D01*
X4559909Y-4117238D01*
X4561078Y-4105503D01*
X4561941Y-4092244D01*
X4562551Y-4077766D01*
X4562906Y-4062425D01*
X4562856Y-4030624D01*
X4561738Y-3999585D01*
X4560824Y-3985209D01*
X4559655Y-3972102D01*
X4558233Y-3960571D01*
X4556607Y-3950919D01*
X4554677Y-3943553D01*
X4553661Y-3940860D01*
X4552594Y-3938828D01*
X4551426Y-3937558D01*
X4548225Y-3934968D01*
X4545838Y-3932580D01*
X4544161Y-3930497D01*
X4543399Y-3928567D01*
X4506264Y-3928567D01*
X4506112Y-3960876D01*
X4505756Y-3967327D01*
X4504283Y-3978300D01*
X4503267Y-3982516D01*
X4502150Y-3985666D01*
X4500880Y-3987698D01*
X4499508Y-3988358D01*
X4495647Y-3986682D01*
X4490110Y-3982110D01*
X4483608Y-3975303D01*
X4473346Y-3962704D01*
X4469333Y-3958488D01*
X4465015Y-3954576D01*
X4460443Y-3950970D01*
X4455871Y-3947820D01*
X4451350Y-3945229D01*
X4447082Y-3943350D01*
X4436160Y-3940048D01*
X4430471Y-3936847D01*
X4426610Y-3933037D01*
X4425188Y-3929075D01*
X4398162Y-3929075D01*
X4398162Y-4036669D01*
X4417923Y-4036669D01*
X4420158Y-4031386D01*
X4432655Y-4018940D01*
X4438192Y-4012387D01*
X4442968Y-4005834D01*
X4448352Y-3996131D01*
X4450486Y-3993184D01*
X4452569Y-3991152D01*
X4454652Y-3990086D01*
X4456734Y-3989933D01*
X4458716Y-3990594D01*
X4460595Y-3992067D01*
X4462373Y-3994302D01*
X4464050Y-3997299D01*
X4465574Y-4001058D01*
X4466894Y-4005478D01*
X4468063Y-4010558D01*
X4468977Y-4016248D01*
X4470095Y-4029303D01*
X4470247Y-4036669D01*
X4470095Y-4043984D01*
X4468977Y-4057091D01*
X4468063Y-4062780D01*
X4466894Y-4067810D01*
X4465574Y-4072229D01*
X4464050Y-4075988D01*
X4462373Y-4078986D01*
X4460595Y-4081272D01*
X4458716Y-4082745D01*
X4456734Y-4083405D01*
X4454652Y-4083202D01*
X4452569Y-4082135D01*
X4450486Y-4080154D01*
X4448352Y-4077208D01*
X4442968Y-4067454D01*
X4438192Y-4060901D01*
X4432655Y-4054398D01*
X4420158Y-4041901D01*
X4417923Y-4036669D01*
X4398162Y-4036669D01*
X4398162Y-4150817D01*
X4425188Y-4150817D01*
X4426610Y-4146600D01*
X4430369Y-4142587D01*
X4435957Y-4139082D01*
X4446676Y-4135323D01*
X4451096Y-4133138D01*
X4455871Y-4130192D01*
X4460798Y-4126687D01*
X4465828Y-4122623D01*
X4470704Y-4118203D01*
X4475327Y-4113479D01*
X4487265Y-4099407D01*
X4494174Y-4091838D01*
X4499508Y-4086758D01*
X4502505Y-4084878D01*
X4503267Y-4085640D01*
X4503978Y-4087876D01*
X4505147Y-4096004D01*
X4505960Y-4108043D01*
X4506264Y-4122775D01*
X4506264Y-4160672D01*
X4455617Y-4160520D01*
X4447082Y-4160113D01*
X4440072Y-4159402D01*
X4434535Y-4158386D01*
X4430318Y-4157014D01*
X4427423Y-4155338D01*
X4425746Y-4153255D01*
X4425188Y-4150817D01*
X4398162Y-4150817D01*
X4398162Y-4160672D01*
X4334560Y-4160570D01*
X4317238Y-4159961D01*
X4303623Y-4158691D01*
X4298238Y-4157827D01*
X4293768Y-4156811D01*
X4290212Y-4155592D01*
X4287570Y-4154220D01*
X4285843Y-4152696D01*
X4285081Y-4151020D01*
X4141978Y-4151020D01*
X4140962Y-4152900D01*
X4138929Y-4154424D01*
X4135882Y-4155795D01*
X4131818Y-4156964D01*
X4126737Y-4157979D01*
X4113377Y-4159504D01*
X4095851Y-4160367D01*
X4073906Y-4160672D01*
X4052011Y-4160367D01*
X4034434Y-4159504D01*
X4021124Y-4157979D01*
X4016044Y-4156964D01*
X4011980Y-4155795D01*
X4008932Y-4154424D01*
X4006900Y-4152900D01*
X4005884Y-4151223D01*
X3903497Y-4151223D01*
X3893616Y-4155490D01*
X3886047Y-4158132D01*
X3879138Y-4160012D01*
X3872992Y-4161180D01*
X3867708Y-4161688D01*
X3863340Y-4161536D01*
X3859936Y-4160774D01*
X3857701Y-4159402D01*
X3856634Y-4157472D01*
X3830370Y-4157472D01*
X3829304Y-4159859D01*
X3827526Y-4161637D01*
X3825138Y-4162806D01*
X3822192Y-4163415D01*
X3818686Y-4163466D01*
X3814673Y-4163009D01*
X3810203Y-4161993D01*
X3805275Y-4160418D01*
X3800043Y-4158386D01*
X3794455Y-4155795D01*
X3788562Y-4152747D01*
X3782415Y-4149242D01*
X3776065Y-4145229D01*
X3769512Y-4140758D01*
X3762908Y-4135882D01*
X3758387Y-4132224D01*
X3754120Y-4128363D01*
X3746195Y-4119981D01*
X3739184Y-4110786D01*
X3733088Y-4100880D01*
X3730396Y-4095750D01*
X3727958Y-4090415D01*
X3725773Y-4084980D01*
X3722115Y-4073753D01*
X3720693Y-4067962D01*
X3719525Y-4062120D01*
X3717950Y-4050233D01*
X3717594Y-4044187D01*
X3717493Y-4038092D01*
X3559149Y-4038092D01*
X3559200Y-4047896D01*
X3559657Y-4063390D01*
X3560419Y-4078376D01*
X3561587Y-4092498D01*
X3563162Y-4105452D01*
X3565042Y-4116933D01*
X3567328Y-4126534D01*
X3568598Y-4130548D01*
X3569970Y-4134002D01*
X3571443Y-4136796D01*
X3573018Y-4138929D01*
X3579825Y-4144822D01*
X3583432Y-4150309D01*
X3585108Y-4156151D01*
X3585032Y-4156964D01*
X3605885Y-4156964D01*
X3606952Y-4154119D01*
X3609136Y-4150969D01*
X3612387Y-4147565D01*
X3616706Y-4144060D01*
X3622090Y-4140504D01*
X3633317Y-4134307D01*
X3638194Y-4131208D01*
X3643020Y-4127652D01*
X3647643Y-4123893D01*
X3651910Y-4119981D01*
X3655720Y-4116070D01*
X3658971Y-4112260D01*
X3665982Y-4101947D01*
X3670452Y-4096969D01*
X3674668Y-4093768D01*
X3678529Y-4092346D01*
X3681831Y-4092752D01*
X3684371Y-4094987D01*
X3686048Y-4099051D01*
X3686606Y-4104995D01*
X3686149Y-4108399D01*
X3684879Y-4112158D01*
X3682847Y-4116222D01*
X3680104Y-4120489D01*
X3676802Y-4124909D01*
X3672941Y-4129430D01*
X3668674Y-4133951D01*
X3664000Y-4138422D01*
X3653993Y-4146804D01*
X3648760Y-4150563D01*
X3643477Y-4154017D01*
X3638245Y-4157014D01*
X3633165Y-4159504D01*
X3628288Y-4161383D01*
X3623665Y-4162653D01*
X3617772Y-4163517D01*
X3613048Y-4163517D01*
X3609543Y-4162806D01*
X3607155Y-4161383D01*
X3605987Y-4159402D01*
X3605885Y-4156964D01*
X3585032Y-4156964D01*
X3584600Y-4161586D01*
X3583838Y-4164990D01*
X3584194Y-4167886D01*
X3585921Y-4170273D01*
X3589070Y-4172305D01*
X3593947Y-4174083D01*
X3600653Y-4175607D01*
X3609390Y-4177029D01*
X3622548Y-4178554D01*
X3633774Y-4179011D01*
X3678478Y-4179620D01*
X3715613Y-4179824D01*
X3878529Y-4179824D01*
X4014673Y-4179417D01*
X4178554Y-4178554D01*
X4750968Y-4174134D01*
X4898796Y-4172407D01*
X4957927Y-4171391D01*
X5008372Y-4170172D01*
X5050840Y-4168698D01*
X5086299Y-4166920D01*
X5115509Y-4164736D01*
X5128006Y-4163466D01*
X5144465Y-4161383D01*
X5154015Y-4159808D01*
X5164632Y-4157675D01*
X5173878Y-4155338D01*
X5183479Y-4152188D01*
X5191760Y-4148683D01*
X5196738Y-4146143D01*
X5201412Y-4143400D01*
X5210200Y-4137304D01*
X5241137Y-4112717D01*
X5252110Y-4103573D01*
X5262016Y-4094479D01*
X5270906Y-4085437D01*
X5278780Y-4076395D01*
X5285689Y-4067200D01*
X5291683Y-4057853D01*
X5296814Y-4048251D01*
X5301081Y-4038295D01*
X5304536Y-4027982D01*
X5307228Y-4017264D01*
X5309158Y-4005935D01*
X5310428Y-3994099D01*
X5310987Y-3981551D01*
X5310987Y-3967327D01*
X5310479Y-3953611D01*
X5309362Y-3941673D01*
X5308549Y-3936187D01*
X5306314Y-3926078D01*
X5303164Y-3916578D01*
X5298948Y-3907231D01*
X5293563Y-3897528D01*
X5286908Y-3887063D01*
X5279745Y-3876801D01*
X5272278Y-3866997D01*
X5264454Y-3857599D01*
X5256326Y-3848709D01*
X5247894Y-3840226D01*
X5239156Y-3832148D01*
X5230063Y-3824579D01*
X5220665Y-3817416D01*
X5210911Y-3810711D01*
X5200853Y-3804412D01*
X5190439Y-3798570D01*
X5179669Y-3793185D01*
X5168595Y-3788206D01*
X5157216Y-3783685D01*
X5145430Y-3779570D01*
X5133340Y-3775913D01*
X5120894Y-3772662D01*
X5108143Y-3769868D01*
X5094986Y-3767480D01*
X5081524Y-3765550D01*
X5067706Y-3764026D01*
X5053533Y-3762908D01*
X4997145Y-3759504D01*
X5000599Y-3703726D01*
X5001006Y-3690365D01*
X5000904Y-3684473D01*
X4999990Y-3673754D01*
X4999126Y-3668826D01*
X4998008Y-3663950D01*
X4996535Y-3659174D01*
X4994706Y-3654348D01*
X4992522Y-3649421D01*
X4986934Y-3638804D01*
X4979619Y-3626612D01*
X4971186Y-3613658D01*
X4966716Y-3607409D01*
X4956860Y-3594912D01*
X4946294Y-3582822D01*
X4935575Y-3571798D01*
X4930343Y-3566820D01*
X4925314Y-3562400D01*
X4920488Y-3558489D01*
X4916017Y-3555237D01*
X4907229Y-3549853D01*
X4897526Y-3544773D01*
X4887010Y-3539998D01*
X4875784Y-3535629D01*
X4863947Y-3531666D01*
X4851552Y-3528060D01*
X4838700Y-3524859D01*
X4825542Y-3522116D01*
X4812131Y-3519779D01*
X4798517Y-3517900D01*
X4784902Y-3516477D01*
X4771237Y-3515512D01*
X4757775Y-3515106D01*
X4744466Y-3515156D01*
X4731512Y-3515766D01*
X4718913Y-3516884D01*
X4706823Y-3518560D01*
X4695342Y-3520795D01*
X4654905Y-3530041D01*
X4703673Y-3532987D01*
X4712157Y-3533952D01*
X4718862Y-3535172D01*
X4723892Y-3536696D01*
X4727498Y-3538677D01*
X4729835Y-3541166D01*
X4731054Y-3544214D01*
X4731461Y-3547872D01*
X4731308Y-3550615D01*
X4730750Y-3552951D01*
X4729683Y-3554933D01*
X4728006Y-3556609D01*
X4725568Y-3557930D01*
X4722266Y-3558997D01*
X4717948Y-3559810D01*
X4712512Y-3560419D01*
X4697882Y-3561079D01*
X4677410Y-3561283D01*
X4623358Y-3561283D01*
X4623155Y-3733800D01*
X4622749Y-3753307D01*
X4621987Y-3768242D01*
X4620869Y-3779164D01*
X4620056Y-3783329D01*
X4619142Y-3786682D01*
X4618126Y-3789375D01*
X4616856Y-3791508D01*
X4615484Y-3793032D01*
X4613859Y-3794150D01*
X4612081Y-3794861D01*
X4607814Y-3795471D01*
X4602886Y-3795471D01*
X4598619Y-3794861D01*
X4596841Y-3794150D01*
X4595215Y-3793032D01*
X4593844Y-3791508D01*
X4592574Y-3789375D01*
X4591507Y-3786682D01*
X4589830Y-3779164D01*
X4588713Y-3768242D01*
X4587951Y-3753307D01*
X4587544Y-3733800D01*
X4587341Y-3561283D01*
X4522114Y-3561232D01*
X4504588Y-3560826D01*
X4497933Y-3560419D01*
X4492548Y-3559810D01*
X4488230Y-3558997D01*
X4484979Y-3557879D01*
X4482592Y-3556508D01*
X4480915Y-3554831D01*
X4479899Y-3552748D01*
X4479391Y-3550310D01*
X4479239Y-3547465D01*
X4479391Y-3544620D01*
X4479950Y-3542182D01*
X4481017Y-3540099D01*
X4482744Y-3538423D01*
X4485284Y-3537051D01*
X4488840Y-3535984D01*
X4493412Y-3535121D01*
X4499254Y-3534511D01*
X4515205Y-3533851D01*
X4553864Y-3533597D01*
X4567224Y-3533190D01*
X4577842Y-3532225D01*
X4582210Y-3531463D01*
X4585970Y-3530498D01*
X4589068Y-3529329D01*
X4591608Y-3527907D01*
X4593488Y-3526180D01*
X4594809Y-3524148D01*
X4595571Y-3521760D01*
X4595774Y-3519017D01*
X4595469Y-3515918D01*
X4594555Y-3512413D01*
X4593183Y-3508451D01*
X4588865Y-3499154D01*
X4582566Y-3487826D01*
X4566920Y-3462172D01*
X4560671Y-3453129D01*
X4553712Y-3443986D01*
X4546041Y-3434689D01*
X4537811Y-3425444D01*
X4529074Y-3416147D01*
X4519879Y-3407003D01*
X4510328Y-3397961D01*
X4500422Y-3389172D01*
X4490313Y-3380689D01*
X4480052Y-3372510D01*
X4469688Y-3364788D01*
X4459274Y-3357524D01*
X4448911Y-3350768D01*
X4438700Y-3344672D01*
X4428693Y-3339185D01*
X4418025Y-3333953D01*
X4406595Y-3328670D01*
X4384090Y-3319068D01*
X4372914Y-3314750D01*
X4350664Y-3306978D01*
X4339488Y-3303524D01*
X4328210Y-3300323D01*
X4316831Y-3297428D01*
X4305350Y-3294786D01*
X4281728Y-3290214D01*
X4257090Y-3286658D01*
X4231182Y-3283915D01*
X4203750Y-3282035D01*
X4172508Y-3280867D01*
X4140301Y-3280054D01*
G37*
G36*
X4338167Y-3617061D02*
G01*
X4330801Y-3617366D01*
X4323588Y-3618077D01*
X4316679Y-3619296D01*
X4310176Y-3620973D01*
X4305909Y-3622700D01*
X4301845Y-3625037D01*
X4297984Y-3627983D01*
X4294378Y-3631437D01*
X4291025Y-3635451D01*
X4287926Y-3639921D01*
X4285081Y-3644849D01*
X4282490Y-3650081D01*
X4280204Y-3655669D01*
X4278172Y-3661562D01*
X4276496Y-3667658D01*
X4275074Y-3673906D01*
X4274007Y-3680358D01*
X4273245Y-3686860D01*
X4272788Y-3693464D01*
X4272737Y-3700018D01*
X4272991Y-3706571D01*
X4273651Y-3712972D01*
X4274616Y-3719271D01*
X4275988Y-3725418D01*
X4277766Y-3731310D01*
X4279950Y-3736898D01*
X4282490Y-3742232D01*
X4285488Y-3747160D01*
X4288688Y-3751427D01*
X4292244Y-3755339D01*
X4296105Y-3758895D01*
X4300220Y-3762095D01*
X4304639Y-3764889D01*
X4309211Y-3767328D01*
X4313986Y-3769410D01*
X4318914Y-3771137D01*
X4323943Y-3772458D01*
X4329125Y-3773373D01*
X4334306Y-3773982D01*
X4339539Y-3774186D01*
X4344771Y-3773982D01*
X4350004Y-3773474D01*
X4355134Y-3772560D01*
X4360164Y-3771239D01*
X4365091Y-3769614D01*
X4369866Y-3767582D01*
X4374438Y-3765143D01*
X4378807Y-3762400D01*
X4382922Y-3759250D01*
X4386783Y-3755694D01*
X4390339Y-3751783D01*
X4393488Y-3747515D01*
X4396232Y-3743096D01*
X4398670Y-3738473D01*
X4400753Y-3733596D01*
X4402480Y-3728516D01*
X4403953Y-3723284D01*
X4405122Y-3717899D01*
X4405985Y-3712413D01*
X4406544Y-3706876D01*
X4406849Y-3701237D01*
X4406595Y-3689959D01*
X4406087Y-3684320D01*
X4404258Y-3673297D01*
X4401413Y-3662679D01*
X4397654Y-3652774D01*
X4395419Y-3648100D01*
X4392980Y-3643680D01*
X4390339Y-3639565D01*
X4387443Y-3635756D01*
X4384395Y-3632250D01*
X4381144Y-3629101D01*
X4377690Y-3626358D01*
X4374032Y-3624021D01*
X4370222Y-3622090D01*
X4366260Y-3620668D01*
X4359706Y-3619042D01*
X4352747Y-3617925D01*
X4345533Y-3617264D01*
G37*
G36*
X2764637Y-2623870D02*
G01*
X2759049Y-2624023D01*
X2754172Y-2624582D01*
X2749905Y-2625598D01*
X2746044Y-2627223D01*
X2742336Y-2629560D01*
X2738678Y-2632659D01*
X2734767Y-2636621D01*
X2727452Y-2645410D01*
X2721914Y-2653334D01*
X2717088Y-2661716D01*
X2712872Y-2670708D01*
X2709265Y-2680309D01*
X2706319Y-2690723D01*
X2703931Y-2702001D01*
X2702102Y-2714244D01*
X2700782Y-2727604D01*
X2700020Y-2742133D01*
X2699766Y-2757932D01*
X2699969Y-2775153D01*
X2701442Y-2810611D01*
X2703525Y-2840888D01*
X2704592Y-2852318D01*
X2705709Y-2860141D01*
X2706878Y-2865424D01*
X2707182Y-2868066D01*
X2706928Y-2870555D01*
X2706065Y-2872994D01*
X2704388Y-2875534D01*
X2701848Y-2878328D01*
X2698242Y-2881426D01*
X2687320Y-2889148D01*
X2670708Y-2899714D01*
X2638399Y-2919272D01*
X2611323Y-2934665D01*
X2592730Y-2944672D01*
X2579878Y-2950870D01*
X2573477Y-2953156D01*
X2554732Y-2958795D01*
X2529586Y-2965348D01*
X2500020Y-2972511D01*
X2459786Y-2981655D01*
X2419451Y-2990138D01*
X2389530Y-2995980D01*
X2363927Y-3000502D01*
X2344420Y-3003245D01*
X2337612Y-3003854D01*
X2332583Y-3004007D01*
X2325370Y-3004769D01*
X2303830Y-3008172D01*
X2290775Y-3010560D01*
X2263902Y-3016097D01*
X2250440Y-3018383D01*
X2235860Y-3020364D01*
X2220569Y-3022041D01*
X2204821Y-3023362D01*
X2189073Y-3024276D01*
X2173579Y-3024886D01*
X2158746Y-3025089D01*
X2144877Y-3024886D01*
X2132380Y-3024276D01*
X2121509Y-3023260D01*
X2112670Y-3021787D01*
X2109165Y-3020872D01*
X2103323Y-3020060D01*
X2094484Y-3019907D01*
X2083765Y-3020415D01*
X2072386Y-3021482D01*
X2045106Y-3024936D01*
X2045106Y-3151987D01*
X2165096Y-3148888D01*
X2195931Y-3147466D01*
X2208174Y-3146501D01*
X2218791Y-3145383D01*
X2228088Y-3144012D01*
X2236419Y-3142386D01*
X2244140Y-3140456D01*
X2251659Y-3138220D01*
X2269337Y-3132429D01*
X2279497Y-3129584D01*
X2301443Y-3124301D01*
X2325420Y-3119577D01*
X2351024Y-3115462D01*
X2377846Y-3112058D01*
X2412644Y-3108909D01*
X2437638Y-3107334D01*
X2455621Y-3105962D01*
X2469337Y-3104235D01*
X2474976Y-3103219D01*
X2480005Y-3102051D01*
X2484526Y-3100628D01*
X2488692Y-3099054D01*
X2492603Y-3097225D01*
X2504440Y-3090113D01*
X2514346Y-3085033D01*
X2525268Y-3080410D01*
X2535783Y-3076854D01*
X2545689Y-3074416D01*
X2554630Y-3071876D01*
X2558796Y-3070301D01*
X2562910Y-3068421D01*
X2567279Y-3066034D01*
X2577236Y-3059633D01*
X2590190Y-3050184D01*
X2617825Y-3029000D01*
X2639415Y-3012795D01*
X2703830Y-2966516D01*
X2712364Y-2961030D01*
X2719374Y-2957068D01*
X2724912Y-2954680D01*
X2729128Y-2953816D01*
X2732024Y-2954426D01*
X2733700Y-2956509D01*
X2734513Y-2961792D01*
X2736545Y-2967837D01*
X2740253Y-2976676D01*
X2751582Y-3000603D01*
X2766009Y-3028594D01*
X2780893Y-3055874D01*
X2787751Y-3067710D01*
X2793796Y-3077565D01*
X2798673Y-3084779D01*
X2805023Y-3092246D01*
X2814624Y-3102762D01*
X2824988Y-3113481D01*
X2835656Y-3124098D01*
X2846324Y-3134258D01*
X2856534Y-3143554D01*
X2865983Y-3151733D01*
X2874213Y-3158388D01*
X2880868Y-3163163D01*
X2885592Y-3165754D01*
X2887065Y-3166059D01*
X2887522Y-3166567D01*
X2888335Y-3170326D01*
X2889097Y-3177489D01*
X2890367Y-3200400D01*
X2891129Y-3232251D01*
X2891332Y-3354222D01*
X2846171Y-3322218D01*
X2827528Y-3307842D01*
X2809240Y-3292449D01*
X2788361Y-3273501D01*
X2776880Y-3262680D01*
X2766618Y-3252317D01*
X2757424Y-3242208D01*
X2749194Y-3232099D01*
X2741980Y-3222040D01*
X2735580Y-3211830D01*
X2730093Y-3201365D01*
X2725420Y-3190595D01*
X2721508Y-3179419D01*
X2718358Y-3167735D01*
X2715869Y-3155391D01*
X2714040Y-3142335D01*
X2712770Y-3128467D01*
X2712110Y-3113684D01*
X2711754Y-3094431D01*
X2710789Y-3076092D01*
X2710078Y-3069183D01*
X2709164Y-3063748D01*
X2708046Y-3059734D01*
X2706776Y-3057144D01*
X2705252Y-3055924D01*
X2704592Y-3055924D01*
X2703931Y-3056331D01*
X2702814Y-3058566D01*
X2701848Y-3062884D01*
X2701036Y-3069437D01*
X2700375Y-3078429D01*
X2699512Y-3104591D01*
X2699054Y-3142894D01*
X2699004Y-3202076D01*
X2699359Y-3237636D01*
X2700324Y-3263392D01*
X2701086Y-3273602D01*
X2702102Y-3282543D01*
X2703423Y-3290671D01*
X2704998Y-3298342D01*
X2708046Y-3309924D01*
X2710535Y-3318205D01*
X2714650Y-3330143D01*
X2719679Y-3342538D01*
X2725521Y-3355035D01*
X2731922Y-3367328D01*
X2738831Y-3379114D01*
X2745994Y-3390036D01*
X2762758Y-3414776D01*
X2767838Y-3422954D01*
X2769717Y-3426764D01*
X2768752Y-3427831D01*
X2766110Y-3428746D01*
X2762199Y-3429355D01*
X2757424Y-3429558D01*
X2751429Y-3430574D01*
X2744216Y-3433368D01*
X2736646Y-3437534D01*
X2729687Y-3442563D01*
X2723540Y-3448507D01*
X2718257Y-3455162D01*
X2713786Y-3462528D01*
X2711907Y-3466439D01*
X2708757Y-3474770D01*
X2706420Y-3483660D01*
X2704947Y-3493160D01*
X2704287Y-3503117D01*
X2704490Y-3513531D01*
X2705557Y-3524402D01*
X2707386Y-3535629D01*
X2710078Y-3547211D01*
X2713532Y-3559048D01*
X2717850Y-3571138D01*
X2722981Y-3583482D01*
X2728874Y-3595979D01*
X2735630Y-3608578D01*
X2743149Y-3621278D01*
X2759760Y-3647287D01*
X2765856Y-3657244D01*
X2769260Y-3663289D01*
X2769717Y-3664508D01*
X2768549Y-3664965D01*
X2765348Y-3664508D01*
X2760573Y-3663238D01*
X2754782Y-3661206D01*
X2749854Y-3659733D01*
X2744978Y-3658920D01*
X2740202Y-3658870D01*
X2735630Y-3659428D01*
X2731211Y-3660648D01*
X2726994Y-3662476D01*
X2723032Y-3664864D01*
X2719324Y-3667810D01*
X2715971Y-3671265D01*
X2712923Y-3675227D01*
X2710281Y-3679596D01*
X2708046Y-3684422D01*
X2706268Y-3689604D01*
X2704947Y-3695141D01*
X2704185Y-3701034D01*
X2703931Y-3707231D01*
X2704287Y-3711143D01*
X2705150Y-3715867D01*
X2706471Y-3721201D01*
X2710332Y-3733139D01*
X2715260Y-3745636D01*
X2720797Y-3757269D01*
X2723591Y-3762349D01*
X2726334Y-3766769D01*
X2743403Y-3788511D01*
X2765348Y-3816959D01*
X2753309Y-3820210D01*
X2745232Y-3822649D01*
X2738069Y-3825494D01*
X2731770Y-3828745D01*
X2726283Y-3832453D01*
X2721508Y-3836670D01*
X2717393Y-3841445D01*
X2713939Y-3846880D01*
X2710992Y-3852926D01*
X2707589Y-3862374D01*
X2706319Y-3866997D01*
X2704642Y-3876243D01*
X2704232Y-3883304D01*
X2711094Y-3883304D01*
X2711754Y-3876548D01*
X2713583Y-3871163D01*
X2716225Y-3867200D01*
X2719374Y-3864152D01*
X2723083Y-3862019D01*
X2727452Y-3860850D01*
X2732481Y-3860647D01*
X2738221Y-3861308D01*
X2744724Y-3862882D01*
X2752039Y-3865372D01*
X2755188Y-3866743D01*
X2762148Y-3870756D01*
X2769870Y-3876344D01*
X2778252Y-3883253D01*
X2787142Y-3891432D01*
X2796336Y-3900576D01*
X2805785Y-3910533D01*
X2815234Y-3921150D01*
X2824530Y-3932224D01*
X2833573Y-3943604D01*
X2842209Y-3955084D01*
X2850286Y-3966464D01*
X2857601Y-3977589D01*
X2864002Y-3988257D01*
X2869387Y-3998315D01*
X2873603Y-4007561D01*
X2875229Y-4011777D01*
X2877515Y-4019143D01*
X2879293Y-4026052D01*
X2880461Y-4032504D01*
X2881122Y-4038498D01*
X2881223Y-4043984D01*
X2880817Y-4048861D01*
X2879953Y-4053179D01*
X2878582Y-4056837D01*
X2876753Y-4059885D01*
X2874467Y-4062222D01*
X2871774Y-4063796D01*
X2868625Y-4064660D01*
X2865120Y-4064711D01*
X2861259Y-4063898D01*
X2856992Y-4062222D01*
X2852369Y-4059682D01*
X2846070Y-4055262D01*
X2838500Y-4049268D01*
X2829864Y-4041901D01*
X2820517Y-4033520D01*
X2800604Y-4014571D01*
X2780893Y-3994454D01*
X2771749Y-3984599D01*
X2763418Y-3975252D01*
X2756204Y-3966667D01*
X2742692Y-3948734D01*
X2729534Y-3931767D01*
X2725623Y-3927195D01*
X2721508Y-3921810D01*
X2717901Y-3915054D01*
X2715006Y-3907332D01*
X2712821Y-3899154D01*
X2711500Y-3890975D01*
X2711094Y-3883304D01*
X2704232Y-3883304D01*
X2704439Y-3890060D01*
X2704947Y-3894683D01*
X2705811Y-3899357D01*
X2706979Y-3904081D01*
X2708503Y-3908907D01*
X2710332Y-3913733D01*
X2712516Y-3918712D01*
X2715006Y-3923741D01*
X2717850Y-3928872D01*
X2724556Y-3939489D01*
X2732684Y-3950665D01*
X2742234Y-3962450D01*
X2761284Y-3984142D01*
X2764637Y-3988612D01*
X2763062Y-3989070D01*
X2758744Y-3989425D01*
X2744520Y-3989730D01*
X2736596Y-3990187D01*
X2729687Y-3991660D01*
X2723794Y-3994200D01*
X2718765Y-3997909D01*
X2714548Y-4002786D01*
X2711094Y-4008932D01*
X2708300Y-4016451D01*
X2706116Y-4025341D01*
X2703017Y-4040886D01*
X2668371Y-4036161D01*
X2655773Y-4033926D01*
X2650083Y-4032656D01*
X2644851Y-4031234D01*
X2639974Y-4029608D01*
X2635453Y-4027779D01*
X2631287Y-4025696D01*
X2627376Y-4023360D01*
X2623769Y-4020718D01*
X2620365Y-4017721D01*
X2617216Y-4014368D01*
X2614218Y-4010558D01*
X2611424Y-4006392D01*
X2608783Y-4001719D01*
X2606192Y-3996588D01*
X2601315Y-3984650D01*
X2596540Y-3970426D01*
X2591714Y-3953560D01*
X2581097Y-3913174D01*
X2576423Y-3897884D01*
X2574188Y-3891737D01*
X2571800Y-3886403D01*
X2569260Y-3881628D01*
X2566466Y-3877259D01*
X2563266Y-3873144D01*
X2559659Y-3868978D01*
X2550718Y-3859987D01*
X2543708Y-3854043D01*
X2539898Y-3851351D01*
X2531567Y-3846423D01*
X2522270Y-3842207D01*
X2511958Y-3838600D01*
X2500528Y-3835654D01*
X2487980Y-3833368D01*
X2474214Y-3831640D01*
X2459126Y-3830523D01*
X2442718Y-3829964D01*
X2416200Y-3829558D01*
X2404110Y-3828999D01*
X2379319Y-3827018D01*
X2366772Y-3825646D01*
X2341422Y-3822090D01*
X2316073Y-3817518D01*
X2303526Y-3814876D01*
X2278634Y-3808882D01*
X2245055Y-3799230D01*
X2204720Y-3787292D01*
X2198979Y-3785971D01*
X2191461Y-3784904D01*
X2182266Y-3784041D01*
X2171496Y-3783431D01*
X2159254Y-3783025D01*
X2145690Y-3782872D01*
X2114753Y-3783329D01*
X2045106Y-3785260D01*
X2045106Y-3915562D01*
X2062327Y-3918813D01*
X2066340Y-3919321D01*
X2071217Y-3919575D01*
X2076704Y-3919575D01*
X2088845Y-3918762D01*
X2101291Y-3917035D01*
X2112416Y-3914800D01*
X2123846Y-3913124D01*
X2136343Y-3912006D01*
X2149703Y-3911396D01*
X2163622Y-3911346D01*
X2177948Y-3911803D01*
X2192375Y-3912768D01*
X2206650Y-3914190D01*
X2220569Y-3916121D01*
X2233879Y-3918458D01*
X2246376Y-3921251D01*
X2257755Y-3924452D01*
X2267813Y-3927906D01*
X2277465Y-3930802D01*
X2287524Y-3933291D01*
X2298395Y-3935425D01*
X2310536Y-3937152D01*
X2324404Y-3938625D01*
X2340406Y-3939946D01*
X2376982Y-3941978D01*
X2406904Y-3944162D01*
X2420924Y-3945483D01*
X2445105Y-3948429D01*
X2454503Y-3950004D01*
X2464155Y-3952240D01*
X2476398Y-3956964D01*
X2489200Y-3963060D01*
X2502052Y-3970223D01*
X2514600Y-3978148D01*
X2526284Y-3986580D01*
X2531719Y-3990848D01*
X2536748Y-3995115D01*
X2545435Y-4003548D01*
X2549042Y-4007612D01*
X2556103Y-4017162D01*
X2564739Y-4028084D01*
X2573934Y-4038244D01*
X2583484Y-4047540D01*
X2588310Y-4051858D01*
X2598115Y-4059631D01*
X2607868Y-4066235D01*
X2617419Y-4071518D01*
X2622143Y-4073601D01*
X2626715Y-4075328D01*
X2633370Y-4077360D01*
X2640482Y-4079087D01*
X2647899Y-4080510D01*
X2655468Y-4081627D01*
X2663037Y-4082440D01*
X2670454Y-4082897D01*
X2677566Y-4082999D01*
X2684272Y-4082796D01*
X2690368Y-4082237D01*
X2695702Y-4081322D01*
X2700172Y-4080052D01*
X2705709Y-4077512D01*
X2707995Y-4077512D01*
X2710434Y-4078427D01*
X2713126Y-4080357D01*
X2716225Y-4083405D01*
X2719781Y-4087622D01*
X2736596Y-4111396D01*
X2745536Y-4123486D01*
X2754274Y-4134713D01*
X2761691Y-4143654D01*
X2778556Y-4162551D01*
X2792069Y-4177284D01*
X2802331Y-4188002D01*
X2809544Y-4194810D01*
X2811983Y-4196791D01*
X2813761Y-4197858D01*
X2814828Y-4198010D01*
X2815183Y-4197248D01*
X2814624Y-4195622D01*
X2812999Y-4192879D01*
X2807055Y-4184751D01*
X2798165Y-4174032D01*
X2779369Y-4153103D01*
X2763469Y-4134459D01*
X2750159Y-4117695D01*
X2739898Y-4103065D01*
X2730601Y-4090822D01*
X2725013Y-4084624D01*
X2721813Y-4078986D01*
X2718663Y-4071874D01*
X2715818Y-4063949D01*
X2713431Y-4055872D01*
X2711805Y-4048302D01*
X2711094Y-4041851D01*
X2711551Y-4037279D01*
X2712770Y-4034180D01*
X2714294Y-4031589D01*
X2716174Y-4029608D01*
X2718358Y-4028135D01*
X2720898Y-4027271D01*
X2723743Y-4026966D01*
X2726994Y-4027220D01*
X2730652Y-4028033D01*
X2734665Y-4029506D01*
X2739085Y-4031538D01*
X2743911Y-4034129D01*
X2749194Y-4037380D01*
X2761030Y-4045712D01*
X2774696Y-4056481D01*
X2790291Y-4069842D01*
X2815996Y-4093108D01*
X2836265Y-4110634D01*
X2859582Y-4130294D01*
X2874518Y-4143959D01*
X2879902Y-4149344D01*
X2882188Y-4151274D01*
X2883865Y-4151680D01*
X2884982Y-4150461D01*
X2885694Y-4147261D01*
X2886100Y-4141825D01*
X2886252Y-4123436D01*
X2885846Y-4106164D01*
X2885236Y-4100068D01*
X2884271Y-4095242D01*
X2882849Y-4091533D01*
X2880868Y-4088536D01*
X2878277Y-4085996D01*
X2875026Y-4083710D01*
X2863748Y-4076700D01*
X2874873Y-4072585D01*
X2878683Y-4070756D01*
X2881934Y-4068318D01*
X2884627Y-4065219D01*
X2886760Y-4061460D01*
X2888335Y-4056989D01*
X2889351Y-4051858D01*
X2889808Y-4045965D01*
X2889707Y-4039362D01*
X2889046Y-4031996D01*
X2887827Y-4023868D01*
X2886100Y-4014927D01*
X2882138Y-3998620D01*
X2878531Y-3985768D01*
X2874670Y-3973220D01*
X2870504Y-3960977D01*
X2866085Y-3949039D01*
X2861411Y-3937406D01*
X2856433Y-3926128D01*
X2851251Y-3915156D01*
X2845765Y-3904538D01*
X2840075Y-3894328D01*
X2834182Y-3884472D01*
X2827985Y-3875024D01*
X2821635Y-3865930D01*
X2815031Y-3857294D01*
X2808224Y-3849065D01*
X2801162Y-3841292D01*
X2779318Y-3818636D01*
X2768650Y-3807206D01*
X2759151Y-3796639D01*
X2750667Y-3786784D01*
X2743250Y-3777589D01*
X2736697Y-3768953D01*
X2731058Y-3760774D01*
X2726182Y-3753002D01*
X2722067Y-3745484D01*
X2718562Y-3738219D01*
X2715666Y-3731056D01*
X2714447Y-3727450D01*
X2712466Y-3720337D01*
X2711399Y-3713784D01*
X2711196Y-3707942D01*
X2711805Y-3702913D01*
X2713278Y-3698748D01*
X2715514Y-3695700D01*
X2718511Y-3693718D01*
X2722270Y-3693058D01*
X2725470Y-3693668D01*
X2729839Y-3695192D01*
X2735072Y-3697579D01*
X2740761Y-3700475D01*
X2746451Y-3703726D01*
X2751785Y-3707079D01*
X2756255Y-3710279D01*
X2766212Y-3719017D01*
X2810916Y-3756355D01*
X2829001Y-3772204D01*
X2840126Y-3782466D01*
X2858871Y-3798417D01*
X2879801Y-3815740D01*
X2898444Y-3831996D01*
X2923895Y-3855110D01*
X2964383Y-3890568D01*
X3009188Y-3929227D01*
X3036671Y-3952341D01*
X3038703Y-3953408D01*
X3040176Y-3953256D01*
X3041142Y-3951782D01*
X3041751Y-3948684D01*
X3042056Y-3943858D01*
X3041904Y-3928059D01*
X3041345Y-3914444D01*
X3040786Y-3909009D01*
X3039770Y-3904234D01*
X3038195Y-3899915D01*
X3035960Y-3895750D01*
X3032861Y-3891635D01*
X3028797Y-3887215D01*
X3023666Y-3882390D01*
X3009392Y-3870502D01*
X2990088Y-3854958D01*
X2975356Y-3842664D01*
X2965196Y-3833368D01*
X2917698Y-3792931D01*
X2875178Y-3756151D01*
X2856331Y-3739337D01*
X2838399Y-3722878D01*
X2813253Y-3699052D01*
X2806649Y-3692042D01*
X2799435Y-3683812D01*
X2791764Y-3674618D01*
X2775712Y-3654094D01*
X2763774Y-3637889D01*
X2749042Y-3616553D01*
X2742641Y-3606596D01*
X2737053Y-3597351D01*
X2732481Y-3589121D01*
X2729280Y-3582670D01*
X2723642Y-3569512D01*
X2719019Y-3556101D01*
X2717088Y-3549396D01*
X2715463Y-3542741D01*
X2713075Y-3529634D01*
X2712262Y-3523284D01*
X2711805Y-3517087D01*
X2711653Y-3511092D01*
X2711805Y-3505352D01*
X2712262Y-3499815D01*
X2713024Y-3494582D01*
X2714142Y-3489655D01*
X2717444Y-3479393D01*
X2721102Y-3473450D01*
X2726436Y-3470757D01*
X2734513Y-3470097D01*
X2741930Y-3471062D01*
X2750870Y-3473653D01*
X2760218Y-3477514D01*
X2768854Y-3482238D01*
X2774594Y-3485946D01*
X2779268Y-3489553D01*
X2783179Y-3493719D01*
X2784906Y-3496259D01*
X2786532Y-3499154D01*
X2789580Y-3506419D01*
X2791825Y-3513734D01*
X2800299Y-3513734D01*
X2800654Y-3512718D01*
X2801924Y-3512972D01*
X2803855Y-3514242D01*
X2809697Y-3519678D01*
X2817368Y-3528212D01*
X2826105Y-3538982D01*
X2835249Y-3551174D01*
X2843784Y-3563569D01*
X2851302Y-3575405D01*
X2858008Y-3586886D01*
X2863799Y-3597910D01*
X2868777Y-3608527D01*
X2872841Y-3618687D01*
X2876042Y-3628339D01*
X2878328Y-3637483D01*
X2879140Y-3641851D01*
X2880461Y-3652367D01*
X2880106Y-3659225D01*
X2877820Y-3663391D01*
X2873451Y-3665982D01*
X2868828Y-3666794D01*
X2864307Y-3665626D01*
X2859786Y-3662476D01*
X2855061Y-3657193D01*
X2841701Y-3639870D01*
X2839923Y-3637229D01*
X2835656Y-3628948D01*
X2830677Y-3617417D01*
X2825343Y-3603498D01*
X2819857Y-3588004D01*
X2814574Y-3571849D01*
X2809697Y-3555847D01*
X2805582Y-3540912D01*
X2802483Y-3527856D01*
X2801366Y-3522319D01*
X2800299Y-3513734D01*
X2791825Y-3513734D01*
X2794000Y-3522319D01*
X2797251Y-3537204D01*
X2809697Y-3603040D01*
X2813761Y-3620363D01*
X2818485Y-3636568D01*
X2823616Y-3651351D01*
X2829102Y-3664254D01*
X2831896Y-3669944D01*
X2834741Y-3675024D01*
X2837535Y-3679494D01*
X2840329Y-3683203D01*
X2843123Y-3686251D01*
X2845816Y-3688486D01*
X2848406Y-3689908D01*
X2853639Y-3691636D01*
X2858414Y-3692702D01*
X2862834Y-3693058D01*
X2866847Y-3692702D01*
X2870403Y-3691686D01*
X2873654Y-3690010D01*
X2876448Y-3687572D01*
X2878886Y-3684473D01*
X2880918Y-3680663D01*
X2882595Y-3676142D01*
X2883814Y-3670909D01*
X2884728Y-3664965D01*
X2885236Y-3658362D01*
X2885338Y-3650996D01*
X2885084Y-3642918D01*
X2883865Y-3628237D01*
X2882036Y-3615994D01*
X2879496Y-3603294D01*
X2876296Y-3590239D01*
X2872536Y-3576929D01*
X2868168Y-3563467D01*
X2863342Y-3550056D01*
X2858109Y-3536797D01*
X2852470Y-3523843D01*
X2846476Y-3511245D01*
X2840278Y-3499256D01*
X2833878Y-3487928D01*
X2827274Y-3477361D01*
X2820619Y-3467760D01*
X2813913Y-3459276D01*
X2807258Y-3451961D01*
X2803956Y-3448812D01*
X2795524Y-3441750D01*
X2787853Y-3436416D01*
X2781808Y-3433368D01*
X2778252Y-3433114D01*
X2776524Y-3433876D01*
X2775712Y-3433622D01*
X2775762Y-3432454D01*
X2776778Y-3430473D01*
X2776626Y-3426104D01*
X2773629Y-3418535D01*
X2768244Y-3408832D01*
X2761081Y-3397961D01*
X2749956Y-3382111D01*
X2740660Y-3367887D01*
X2732989Y-3355035D01*
X2726842Y-3343198D01*
X2722016Y-3332226D01*
X2718409Y-3321659D01*
X2716072Y-3312414D01*
X2713888Y-3300882D01*
X2711958Y-3287674D01*
X2710230Y-3273399D01*
X2708859Y-3258616D01*
X2707843Y-3244037D01*
X2707182Y-3230168D01*
X2707030Y-3217621D01*
X2707386Y-3207054D01*
X2708249Y-3199028D01*
X2711907Y-3178759D01*
X2716733Y-3197656D01*
X2720136Y-3207004D01*
X2724861Y-3218332D01*
X2730703Y-3231134D01*
X2737256Y-3244697D01*
X2744317Y-3258565D01*
X2751531Y-3271977D01*
X2758643Y-3284423D01*
X2765247Y-3295345D01*
X2771089Y-3304032D01*
X2776524Y-3310940D01*
X2789021Y-3325368D01*
X2795778Y-3332734D01*
X2810510Y-3347720D01*
X2826918Y-3363417D01*
X2845358Y-3379927D01*
X2866034Y-3397504D01*
X2889097Y-3416401D01*
X2914904Y-3436772D01*
X2945028Y-3460191D01*
X2970987Y-3480815D01*
X2992018Y-3498189D01*
X3001010Y-3505911D01*
X3016402Y-3520033D01*
X3023108Y-3526586D01*
X3035046Y-3539337D01*
X3043174Y-3548887D01*
X3058972Y-3568852D01*
X3068370Y-3580384D01*
X3073044Y-3588156D01*
X3078784Y-3599230D01*
X3085236Y-3612591D01*
X3091942Y-3627424D01*
X3098495Y-3642817D01*
X3104438Y-3657803D01*
X3109468Y-3671468D01*
X3112820Y-3682136D01*
X3115208Y-3692499D01*
X3117138Y-3704234D01*
X3118662Y-3717188D01*
X3119729Y-3731209D01*
X3120339Y-3746093D01*
X3120491Y-3764127D01*
X3120237Y-3780688D01*
X3119882Y-3787343D01*
X3119323Y-3793083D01*
X3118561Y-3798163D01*
X3117494Y-3802735D01*
X3116173Y-3806901D01*
X3114548Y-3810965D01*
X3110128Y-3819245D01*
X3103016Y-3830472D01*
X3099358Y-3835552D01*
X3095904Y-3839311D01*
X3092450Y-3841953D01*
X3088487Y-3843629D01*
X3083814Y-3844544D01*
X3077972Y-3845001D01*
X3070707Y-3845102D01*
X3063697Y-3844899D01*
X3057652Y-3844290D01*
X3052114Y-3843070D01*
X3046831Y-3841089D01*
X3041396Y-3838194D01*
X3035452Y-3834129D01*
X3028645Y-3828846D01*
X3015945Y-3818026D01*
X3007664Y-3810101D01*
X3003956Y-3806139D01*
X2997352Y-3797858D01*
X2994304Y-3793388D01*
X2988564Y-3783431D01*
X2983077Y-3771747D01*
X2977438Y-3757676D01*
X2971393Y-3740759D01*
X2963062Y-3715867D01*
X2962656Y-3729634D01*
X2962706Y-3734765D01*
X2963164Y-3740048D01*
X2963976Y-3745433D01*
X2965145Y-3750970D01*
X2966669Y-3756507D01*
X2968498Y-3762095D01*
X2970631Y-3767734D01*
X2973070Y-3773373D01*
X2978759Y-3784600D01*
X2981960Y-3790137D01*
X2989021Y-3800906D01*
X2996844Y-3811168D01*
X3005328Y-3820718D01*
X3014268Y-3829405D01*
X3018891Y-3833418D01*
X3028289Y-3840479D01*
X3033064Y-3843528D01*
X3037890Y-3846271D01*
X3042666Y-3848608D01*
X3047441Y-3850538D01*
X3052216Y-3852113D01*
X3056940Y-3853179D01*
X3062935Y-3854145D01*
X3068675Y-3854704D01*
X3074162Y-3854805D01*
X3079343Y-3854500D01*
X3084271Y-3853789D01*
X3088944Y-3852672D01*
X3093364Y-3851148D01*
X3097479Y-3849166D01*
X3101340Y-3846779D01*
X3104997Y-3843985D01*
X3108350Y-3840734D01*
X3111449Y-3837025D01*
X3114294Y-3832910D01*
X3116884Y-3828389D01*
X3119272Y-3823411D01*
X3121355Y-3817975D01*
X3123234Y-3812133D01*
X3124809Y-3805834D01*
X3126181Y-3799078D01*
X3127298Y-3791864D01*
X3128822Y-3776167D01*
X3129381Y-3758590D01*
X3129178Y-3748024D01*
X3128568Y-3737203D01*
X3127502Y-3726179D01*
X3126079Y-3714953D01*
X3124200Y-3703624D01*
X3121914Y-3692093D01*
X3119221Y-3680460D01*
X3116173Y-3668725D01*
X3112770Y-3656939D01*
X3109010Y-3645103D01*
X3104845Y-3633215D01*
X3100374Y-3621328D01*
X3095548Y-3609492D01*
X3090418Y-3597656D01*
X3079191Y-3574237D01*
X3073095Y-3562654D01*
X3063494Y-3545535D01*
X3056737Y-3534359D01*
X3049676Y-3523335D01*
X3042412Y-3512515D01*
X3034893Y-3501898D01*
X3027121Y-3491585D01*
X3019145Y-3481527D01*
X3010916Y-3471773D01*
X2992729Y-3451707D01*
X2971850Y-3429863D01*
X2950565Y-3408426D01*
X2931109Y-3389680D01*
X2922828Y-3381959D01*
X2915869Y-3375812D01*
X2910484Y-3371392D01*
X2907030Y-3369056D01*
X2906115Y-3368751D01*
X2905658Y-3368294D01*
X2905150Y-3366922D01*
X2904286Y-3361690D01*
X2903474Y-3353257D01*
X2902762Y-3341979D01*
X2901797Y-3312210D01*
X2901442Y-3274669D01*
X2901442Y-3180588D01*
X2921863Y-3195675D01*
X2936494Y-3207308D01*
X2982671Y-3245967D01*
X2992628Y-3254552D01*
X3002127Y-3263138D01*
X3011170Y-3271774D01*
X3019755Y-3280511D01*
X3027883Y-3289350D01*
X3035655Y-3298291D01*
X3042970Y-3307384D01*
X3049930Y-3316681D01*
X3056534Y-3326129D01*
X3062833Y-3335782D01*
X3068777Y-3345738D01*
X3074416Y-3355898D01*
X3079750Y-3366414D01*
X3084830Y-3377184D01*
X3095853Y-3403295D01*
X3103372Y-3419652D01*
X3106928Y-3426409D01*
X3110128Y-3431946D01*
X3112922Y-3436162D01*
X3115259Y-3438804D01*
X3116986Y-3439718D01*
X3120440Y-3439109D01*
X3123844Y-3437382D01*
X3127197Y-3434689D01*
X3130448Y-3431082D01*
X3133496Y-3426663D01*
X3136392Y-3421532D01*
X3138932Y-3415893D01*
X3141218Y-3409746D01*
X3143097Y-3403244D01*
X3144520Y-3396487D01*
X3145434Y-3389579D01*
X3145840Y-3382619D01*
X3145485Y-3372561D01*
X3144113Y-3362502D01*
X3141726Y-3352342D01*
X3138322Y-3342182D01*
X3133953Y-3331921D01*
X3128518Y-3321608D01*
X3122066Y-3311194D01*
X3114548Y-3300679D01*
X3106013Y-3290112D01*
X3096463Y-3279394D01*
X3085846Y-3268624D01*
X3062274Y-3246628D01*
X3051759Y-3236163D01*
X3042462Y-3226155D01*
X3034436Y-3216503D01*
X3027578Y-3207156D01*
X3021888Y-3198012D01*
X3017266Y-3188970D01*
X3015335Y-3184448D01*
X3012287Y-3175457D01*
X3011119Y-3170936D01*
X3009493Y-3161741D01*
X3008782Y-3152343D01*
X3008884Y-3142640D01*
X3009849Y-3130753D01*
X3010662Y-3125724D01*
X3011627Y-3121355D01*
X3012846Y-3117596D01*
X3014370Y-3114497D01*
X3016199Y-3111957D01*
X3018332Y-3110026D01*
X3020872Y-3108756D01*
X3023768Y-3108045D01*
X3027121Y-3107944D01*
X3030931Y-3108452D01*
X3035198Y-3109518D01*
X3040024Y-3111195D01*
X3045358Y-3113430D01*
X3057804Y-3119678D01*
X3072841Y-3128213D01*
X3085846Y-3135934D01*
X3090265Y-3138220D01*
X3098850Y-3141776D01*
X3107080Y-3144062D01*
X3114954Y-3145129D01*
X3118713Y-3145180D01*
X3122371Y-3144926D01*
X3125927Y-3144418D01*
X3129432Y-3143605D01*
X3132785Y-3142488D01*
X3135985Y-3141116D01*
X3139135Y-3139440D01*
X3142132Y-3137458D01*
X3145028Y-3135223D01*
X3147822Y-3132734D01*
X3150463Y-3129991D01*
X3155391Y-3123692D01*
X3159810Y-3116376D01*
X3163671Y-3108045D01*
X3167024Y-3098749D01*
X3169767Y-3088538D01*
X3171952Y-3077413D01*
X3173526Y-3065424D01*
X3174441Y-3052622D01*
X3174796Y-3038957D01*
X3174441Y-3024530D01*
X3173374Y-3009341D01*
X3171698Y-2993440D01*
X3169666Y-2979724D01*
X3167430Y-2968091D01*
X3164586Y-2955798D01*
X3161233Y-2943047D01*
X3157423Y-2930042D01*
X3153206Y-2916885D01*
X3148685Y-2903880D01*
X3143910Y-2891180D01*
X3138932Y-2878886D01*
X3133902Y-2867304D01*
X3128822Y-2856534D01*
X3123742Y-2846832D01*
X3118815Y-2838348D01*
X3114040Y-2831287D01*
X3088132Y-2796895D01*
X3083712Y-2791917D01*
X3073095Y-2781300D01*
X3067202Y-2775966D01*
X3061208Y-2770886D01*
X3055213Y-2766161D01*
X3043631Y-2758033D01*
X3033877Y-2751937D01*
X3029559Y-2749600D01*
X3025394Y-2747721D01*
X3021330Y-2746248D01*
X3017113Y-2745079D01*
X3012744Y-2744266D01*
X3007969Y-2743657D01*
X2996742Y-2743098D01*
X2983179Y-2743149D01*
X2976829Y-2743454D01*
X2970987Y-2744012D01*
X2965500Y-2744876D01*
X2960471Y-2745994D01*
X2955747Y-2747518D01*
X2951276Y-2749346D01*
X2947111Y-2751531D01*
X2943148Y-2754172D01*
X2939338Y-2757220D01*
X2935630Y-2760726D01*
X2932023Y-2764739D01*
X2928467Y-2769209D01*
X2924911Y-2774238D01*
X2917596Y-2786024D01*
X2912516Y-2795320D01*
X2910586Y-2799638D01*
X2908960Y-2803906D01*
X2907588Y-2808325D01*
X2906572Y-2813100D01*
X2905760Y-2818282D01*
X2905150Y-2824124D01*
X2904490Y-2838297D01*
X2904286Y-2856992D01*
X2904540Y-2874213D01*
X2905302Y-2888843D01*
X2906674Y-2901645D01*
X2908808Y-2913380D01*
X2911856Y-2924810D01*
X2915818Y-2936646D01*
X2921101Y-2950260D01*
X2926791Y-2963621D01*
X2932734Y-2976372D01*
X2938780Y-2988208D01*
X2944723Y-2998774D01*
X2950362Y-3007715D01*
X2955493Y-3014675D01*
X2957830Y-3017316D01*
X2960014Y-3019348D01*
X2964281Y-3022498D01*
X2967380Y-3023920D01*
X2969260Y-3023819D01*
X2969971Y-3022346D01*
X2969463Y-3019653D01*
X2967736Y-3015894D01*
X2964789Y-3011220D01*
X2957372Y-3001873D01*
X2951175Y-2993339D01*
X2945333Y-2984195D01*
X2939796Y-2974441D01*
X2934665Y-2964078D01*
X2929940Y-2953207D01*
X2925622Y-2941878D01*
X2921762Y-2930144D01*
X2918358Y-2918053D01*
X2915462Y-2905658D01*
X2912618Y-2890926D01*
X2910332Y-2876804D01*
X2909570Y-2870809D01*
X2909112Y-2865272D01*
X2909011Y-2855163D01*
X2909976Y-2845206D01*
X2912008Y-2834284D01*
X2915564Y-2819044D01*
X2917647Y-2811068D01*
X2921914Y-2797810D01*
X2924200Y-2792272D01*
X2926689Y-2787345D01*
X2929382Y-2782874D01*
X2932430Y-2778709D01*
X2935782Y-2774848D01*
X2939643Y-2771089D01*
X2943961Y-2767330D01*
X2948889Y-2763418D01*
X2952800Y-2760624D01*
X2956915Y-2758186D01*
X2961081Y-2756103D01*
X2965348Y-2754325D01*
X2969717Y-2752852D01*
X2974187Y-2751785D01*
X2978759Y-2750972D01*
X2983382Y-2750566D01*
X2988056Y-2750413D01*
X2992831Y-2750616D01*
X2997657Y-2751124D01*
X3007461Y-2753106D01*
X3017367Y-2756306D01*
X3027426Y-2760726D01*
X3037484Y-2766364D01*
X3047542Y-2773121D01*
X3052572Y-2776931D01*
X3062528Y-2785465D01*
X3072384Y-2795016D01*
X3081985Y-2805734D01*
X3091383Y-2817469D01*
X3100476Y-2830271D01*
X3107588Y-2841193D01*
X3114294Y-2852166D01*
X3120593Y-2863189D01*
X3126486Y-2874264D01*
X3131972Y-2885389D01*
X3137052Y-2896616D01*
X3141726Y-2907893D01*
X3145993Y-2919222D01*
X3149854Y-2930652D01*
X3153308Y-2942132D01*
X3156356Y-2953664D01*
X3159048Y-2965348D01*
X3161284Y-2977083D01*
X3163163Y-2988868D01*
X3164636Y-3000806D01*
X3165703Y-3012795D01*
X3166414Y-3024936D01*
X3166719Y-3037128D01*
X3166719Y-3056940D01*
X3166262Y-3071622D01*
X3165094Y-3082442D01*
X3164179Y-3086811D01*
X3162960Y-3090722D01*
X3161538Y-3094329D01*
X3159760Y-3097733D01*
X3155137Y-3104794D01*
X3148330Y-3113481D01*
X3142386Y-3118205D01*
X3135680Y-3119678D01*
X3126486Y-3118866D01*
X3120390Y-3117291D01*
X3113227Y-3114649D01*
X3105454Y-3111093D01*
X3097530Y-3106928D01*
X3089960Y-3102406D01*
X3083153Y-3097784D01*
X3077565Y-3093262D01*
X3073704Y-3089198D01*
X3071063Y-3087014D01*
X3066846Y-3085033D01*
X3061512Y-3083407D01*
X3055366Y-3082086D01*
X3048914Y-3081223D01*
X3042462Y-3080867D01*
X3036417Y-3081070D01*
X3031185Y-3081883D01*
X3026816Y-3083509D01*
X3022600Y-3086100D01*
X3018536Y-3089554D01*
X3014675Y-3093821D01*
X3011119Y-3098800D01*
X3007868Y-3104337D01*
X3004972Y-3110382D01*
X3002483Y-3116884D01*
X3000502Y-3123692D01*
X2998978Y-3130702D01*
X2998063Y-3137916D01*
X2997708Y-3145129D01*
X2998114Y-3154324D01*
X2999384Y-3163468D01*
X3001467Y-3172510D01*
X3004464Y-3181654D01*
X3008376Y-3190849D01*
X3013202Y-3200146D01*
X3019044Y-3209645D01*
X3025902Y-3219399D01*
X3033776Y-3229406D01*
X3042716Y-3239820D01*
X3052775Y-3250590D01*
X3077057Y-3274974D01*
X3088589Y-3287420D01*
X3098647Y-3299256D01*
X3107232Y-3310636D01*
X3114446Y-3321659D01*
X3120440Y-3332479D01*
X3125165Y-3343198D01*
X3127146Y-3348532D01*
X3130245Y-3359404D01*
X3132378Y-3370427D01*
X3133090Y-3376117D01*
X3133648Y-3385413D01*
X3133445Y-3394303D01*
X3132531Y-3402533D01*
X3131007Y-3409797D01*
X3128924Y-3415842D01*
X3126333Y-3420516D01*
X3123336Y-3423462D01*
X3119932Y-3424529D01*
X3118866Y-3424174D01*
X3117646Y-3423107D01*
X3116224Y-3421329D01*
X3112719Y-3415487D01*
X3108401Y-3406495D01*
X3103067Y-3394100D01*
X3091180Y-3363874D01*
X3082950Y-3344367D01*
X3078530Y-3334867D01*
X3071418Y-3320745D01*
X3066338Y-3311448D01*
X3060954Y-3302203D01*
X3055264Y-3292957D01*
X3049270Y-3283712D01*
X3036214Y-3265119D01*
X3029153Y-3255670D01*
X3013710Y-3236417D01*
X2996539Y-3216503D01*
X2977438Y-3195675D01*
X2956306Y-3173780D01*
X2901442Y-3118104D01*
X2901442Y-3032048D01*
X2901086Y-3011982D01*
X2900527Y-2995371D01*
X2899613Y-2982468D01*
X2898495Y-2973628D01*
X2897835Y-2970784D01*
X2897174Y-2969056D01*
X2896412Y-2968447D01*
X2895650Y-2969006D01*
X2894939Y-2970682D01*
X2893669Y-2977235D01*
X2892602Y-2987802D01*
X2891840Y-3002127D01*
X2891332Y-3019806D01*
X2890875Y-3112871D01*
X2833979Y-3053588D01*
X2812338Y-3030067D01*
X2802382Y-3018739D01*
X2793085Y-3007715D01*
X2784348Y-2996895D01*
X2776169Y-2986278D01*
X2768498Y-2975813D01*
X2761437Y-2965450D01*
X2754833Y-2955239D01*
X2748788Y-2945028D01*
X2743200Y-2934919D01*
X2738069Y-2924759D01*
X2733446Y-2914548D01*
X2729230Y-2904337D01*
X2725470Y-2893974D01*
X2722067Y-2883509D01*
X2719120Y-2872841D01*
X2716580Y-2862021D01*
X2714345Y-2850946D01*
X2712516Y-2839618D01*
X2710992Y-2827985D01*
X2709824Y-2816047D01*
X2708960Y-2803753D01*
X2708402Y-2791053D01*
X2708097Y-2777896D01*
X2708148Y-2761792D01*
X2708656Y-2744063D01*
X2709722Y-2727756D01*
X2711348Y-2712821D01*
X2713532Y-2699308D01*
X2716326Y-2687218D01*
X2719628Y-2676448D01*
X2721508Y-2671622D01*
X2725674Y-2662936D01*
X2728010Y-2659075D01*
X2730449Y-2655620D01*
X2733040Y-2652471D01*
X2735783Y-2649626D01*
X2738678Y-2647137D01*
X2741676Y-2645003D01*
X2744876Y-2643174D01*
X2748178Y-2641701D01*
X2751683Y-2640533D01*
X2755290Y-2639720D01*
X2759049Y-2639263D01*
X2763012Y-2639060D01*
X2769514Y-2639466D01*
X2774899Y-2640584D01*
X2778506Y-2642158D01*
X2779826Y-2644140D01*
X2779064Y-2646121D01*
X2776880Y-2647746D01*
X2773629Y-2648813D01*
X2764586Y-2649982D01*
X2761488Y-2652979D01*
X2759964Y-2659126D01*
X2759557Y-2669387D01*
X2760167Y-2679547D01*
X2762097Y-2687015D01*
X2765907Y-2692755D01*
X2771902Y-2697581D01*
X2776677Y-2700324D01*
X2781198Y-2702153D01*
X2785364Y-2703017D01*
X2789275Y-2702966D01*
X2792780Y-2702052D01*
X2795879Y-2700274D01*
X2798622Y-2697632D01*
X2800908Y-2694178D01*
X2802737Y-2689910D01*
X2804058Y-2684881D01*
X2804922Y-2679090D01*
X2805176Y-2672537D01*
X2804871Y-2665069D01*
X2803956Y-2658160D01*
X2802483Y-2651861D01*
X2800400Y-2646121D01*
X2797759Y-2641041D01*
X2794609Y-2636570D01*
X2790850Y-2632760D01*
X2786634Y-2629611D01*
X2781858Y-2627122D01*
X2776626Y-2625344D01*
X2770886Y-2624226D01*
G37*
G36*
X1071981Y-875690D02*
G01*
X1059027Y-875944D01*
X1054100Y-876300D01*
X1051255Y-876909D01*
X1044143Y-877671D01*
X1019911Y-879297D01*
X953363Y-882497D01*
X921867Y-884529D01*
X917752Y-885342D01*
X911199Y-886206D01*
X854506Y-890828D01*
X839978Y-892352D01*
X828700Y-893775D01*
X809396Y-897483D01*
X831545Y-898194D01*
X843686Y-899515D01*
X849325Y-900531D01*
X854659Y-901801D01*
X859739Y-903274D01*
X864514Y-905002D01*
X868984Y-906932D01*
X873150Y-909066D01*
X877062Y-911402D01*
X880668Y-913993D01*
X883970Y-916736D01*
X886968Y-919683D01*
X889609Y-922832D01*
X891997Y-926134D01*
X894080Y-929640D01*
X895807Y-933297D01*
X897229Y-937158D01*
X898347Y-941171D01*
X899160Y-945337D01*
X899617Y-949655D01*
X899769Y-954125D01*
X899566Y-958748D01*
X899058Y-963472D01*
X898194Y-968400D01*
X896975Y-973429D01*
X895451Y-978560D01*
X891387Y-989228D01*
X885901Y-1000353D01*
X878332Y-1013460D01*
X874826Y-1020216D01*
X871982Y-1026261D01*
X869899Y-1031748D01*
X868578Y-1036574D01*
X867968Y-1040841D01*
X868121Y-1044498D01*
X869035Y-1047648D01*
X870762Y-1050239D01*
X873252Y-1052322D01*
X876503Y-1053947D01*
X880618Y-1055014D01*
X885494Y-1055674D01*
X891184Y-1055928D01*
X897737Y-1055725D01*
X905103Y-1055116D01*
X915111Y-1053592D01*
X924712Y-1051255D01*
X934059Y-1047902D01*
X943203Y-1043584D01*
X952195Y-1038199D01*
X961136Y-1031697D01*
X965657Y-1028039D01*
X974699Y-1019759D01*
X983894Y-1010259D01*
X993343Y-999439D01*
X1002741Y-988060D01*
X1012393Y-977696D01*
X1017422Y-972769D01*
X1027785Y-963625D01*
X1038555Y-955344D01*
X1049528Y-947928D01*
X1060653Y-941476D01*
X1071778Y-935939D01*
X1082802Y-931367D01*
X1093571Y-927862D01*
X1103985Y-925423D01*
X1113891Y-924052D01*
X1118666Y-923798D01*
X1123238Y-923848D01*
X1127658Y-924153D01*
X1131874Y-924763D01*
X1135888Y-925677D01*
X1139647Y-926846D01*
X1143203Y-928369D01*
X1146454Y-930198D01*
X1149451Y-932383D01*
X1152194Y-934821D01*
X1154633Y-937615D01*
X1156716Y-940714D01*
X1158494Y-944168D01*
X1159967Y-947978D01*
X1160830Y-951128D01*
X1161288Y-953871D01*
X1161135Y-956411D01*
X1160272Y-958748D01*
X1158544Y-961034D01*
X1155750Y-963320D01*
X1151839Y-965758D01*
X1146606Y-968400D01*
X1131722Y-974801D01*
X1109980Y-983335D01*
X1099718Y-987806D01*
X1088440Y-993749D01*
X1076604Y-1000760D01*
X1064717Y-1008532D01*
X1053134Y-1016812D01*
X1042365Y-1025245D01*
X1032865Y-1033526D01*
X1025144Y-1041298D01*
X1008278Y-1060602D01*
X989330Y-1083360D01*
X970584Y-1106576D01*
X954278Y-1127404D01*
X942848Y-1142898D01*
X939647Y-1147775D01*
X938479Y-1150213D01*
X939190Y-1150518D01*
X944524Y-1151077D01*
X968349Y-1151940D01*
X1004722Y-1152347D01*
X1091692Y-1152398D01*
X1109472Y-1130249D01*
X1117092Y-1121460D01*
X1136294Y-1100886D01*
X1147114Y-1089812D01*
X1163878Y-1073302D01*
X1185113Y-1053388D01*
X1194460Y-1045159D01*
X1216660Y-1027176D01*
X1223670Y-1021080D01*
X1225448Y-1019302D01*
X1228090Y-1017117D01*
X1235811Y-1011783D01*
X1246124Y-1005433D01*
X1258468Y-998372D01*
X1272082Y-990955D01*
X1286408Y-983538D01*
X1300734Y-976477D01*
X1314399Y-970076D01*
X1326845Y-964692D01*
X1337360Y-960678D01*
X1351788Y-956005D01*
X1365808Y-951992D01*
X1379423Y-948639D01*
X1392580Y-945845D01*
X1405229Y-943711D01*
X1417472Y-942136D01*
X1429156Y-941171D01*
X1440332Y-940714D01*
X1450949Y-940866D01*
X1460957Y-941527D01*
X1470406Y-942746D01*
X1479245Y-944422D01*
X1487424Y-946607D01*
X1494942Y-949299D01*
X1501800Y-952449D01*
X1507947Y-956005D01*
X1513332Y-960069D01*
X1518005Y-964488D01*
X1521917Y-969365D01*
X1525016Y-974598D01*
X1526286Y-977392D01*
X1528165Y-983183D01*
X1529181Y-989380D01*
X1529384Y-995883D01*
X1528673Y-1002741D01*
X1527048Y-1009903D01*
X1524457Y-1017371D01*
X1520952Y-1025144D01*
X1516481Y-1033170D01*
X1510995Y-1041450D01*
X1504492Y-1049985D01*
X1496974Y-1058773D01*
X1489252Y-1066698D01*
X1485138Y-1070203D01*
X1480566Y-1073708D01*
X1470355Y-1080465D01*
X1459230Y-1086815D01*
X1447647Y-1092403D01*
X1441907Y-1094841D01*
X1430731Y-1098804D01*
X1425498Y-1100328D01*
X1420571Y-1101394D01*
X1416050Y-1102106D01*
X1411935Y-1102360D01*
X1406347Y-1100937D01*
X1405991Y-1097584D01*
X1410258Y-1093470D01*
X1418488Y-1089863D01*
X1424736Y-1087882D01*
X1437843Y-1082903D01*
X1451102Y-1076960D01*
X1463446Y-1070660D01*
X1473860Y-1064463D01*
X1478076Y-1061567D01*
X1481429Y-1058875D01*
X1483766Y-1056487D01*
X1491183Y-1047800D01*
X1498244Y-1040079D01*
X1502968Y-1034440D01*
X1504442Y-1032256D01*
X1505407Y-1029512D01*
X1508506Y-1025296D01*
X1510741Y-1022858D01*
X1513179Y-1019454D01*
X1514906Y-1014933D01*
X1515973Y-1009599D01*
X1516481Y-1003655D01*
X1516380Y-997407D01*
X1515821Y-991108D01*
X1514703Y-985012D01*
X1513128Y-979474D01*
X1511198Y-974699D01*
X1508810Y-970940D01*
X1506118Y-968451D01*
X1503121Y-967587D01*
X1500835Y-967333D01*
X1499006Y-966622D01*
X1497736Y-965504D01*
X1496771Y-962660D01*
X1495348Y-961237D01*
X1493062Y-959916D01*
X1489964Y-958646D01*
X1481785Y-956462D01*
X1471269Y-954735D01*
X1459026Y-953516D01*
X1445666Y-952804D01*
X1431747Y-952703D01*
X1417828Y-953211D01*
X1404569Y-954379D01*
X1398320Y-955243D01*
X1386789Y-957478D01*
X1375410Y-960374D01*
X1363980Y-963828D01*
X1352499Y-967790D01*
X1341018Y-972312D01*
X1329588Y-977341D01*
X1318361Y-982776D01*
X1307287Y-988669D01*
X1296466Y-994918D01*
X1285951Y-1001521D01*
X1275791Y-1008481D01*
X1266037Y-1015695D01*
X1256741Y-1023162D01*
X1248003Y-1030884D01*
X1239824Y-1038809D01*
X1232306Y-1046886D01*
X1206550Y-1077671D01*
X1191514Y-1097788D01*
X1149604Y-1155649D01*
X1131824Y-1179423D01*
X1116076Y-1199692D01*
X1101801Y-1217015D01*
X1088390Y-1232204D01*
X1081887Y-1239164D01*
X1072083Y-1249070D01*
X1055217Y-1264869D01*
X1047648Y-1271473D01*
X1039114Y-1278331D01*
X1030020Y-1285036D01*
X1020419Y-1291590D01*
X1010412Y-1297889D01*
X1000099Y-1303883D01*
X989533Y-1309573D01*
X978814Y-1314856D01*
X968044Y-1319733D01*
X957326Y-1324102D01*
X932738Y-1333042D01*
X958951Y-1333601D01*
X972312Y-1333601D01*
X985113Y-1333195D01*
X997356Y-1332433D01*
X1009091Y-1331264D01*
X1020419Y-1329639D01*
X1031290Y-1327607D01*
X1041806Y-1325067D01*
X1052068Y-1322070D01*
X1062075Y-1318514D01*
X1071880Y-1314450D01*
X1081532Y-1309827D01*
X1091133Y-1304594D01*
X1100683Y-1298803D01*
X1110234Y-1292352D01*
X1119886Y-1285290D01*
X1129639Y-1277518D01*
X1139545Y-1269136D01*
X1149705Y-1259992D01*
X1169517Y-1240942D01*
X1178153Y-1233373D01*
X1187297Y-1226108D01*
X1196898Y-1219200D01*
X1206906Y-1212646D01*
X1217168Y-1206500D01*
X1227734Y-1200708D01*
X1238504Y-1195324D01*
X1249324Y-1190396D01*
X1260246Y-1185875D01*
X1271117Y-1181760D01*
X1281887Y-1178153D01*
X1292555Y-1174953D01*
X1302918Y-1172260D01*
X1313027Y-1170025D01*
X1322781Y-1168349D01*
X1332128Y-1167130D01*
X1340916Y-1166469D01*
X1349197Y-1166317D01*
X1356817Y-1166723D01*
X1363726Y-1167688D01*
X1369872Y-1169212D01*
X1375156Y-1171295D01*
X1377492Y-1172565D01*
X1381404Y-1175613D01*
X1382979Y-1177340D01*
X1384300Y-1179220D01*
X1385366Y-1181252D01*
X1386128Y-1183487D01*
X1386636Y-1185824D01*
X1386789Y-1188364D01*
X1386687Y-1191056D01*
X1386281Y-1193901D01*
X1384452Y-1200048D01*
X1383080Y-1203401D01*
X1381302Y-1206957D01*
X1379524Y-1209192D01*
X1376527Y-1211783D01*
X1372463Y-1214678D01*
X1361897Y-1220927D01*
X1349248Y-1227226D01*
X1342593Y-1230172D01*
X1329537Y-1235151D01*
X1323543Y-1237030D01*
X1277772Y-1246936D01*
X1248308Y-1252880D01*
X1235811Y-1255014D01*
X1226718Y-1256182D01*
X1223975Y-1256334D01*
X1218488Y-1257249D01*
X1213408Y-1260297D01*
X1207922Y-1266139D01*
X1201420Y-1275334D01*
X1198524Y-1279956D01*
X1194003Y-1288643D01*
X1192326Y-1292707D01*
X1191006Y-1296568D01*
X1190091Y-1300226D01*
X1189532Y-1303680D01*
X1189278Y-1306931D01*
X1189431Y-1309979D01*
X1189888Y-1312824D01*
X1190701Y-1315415D01*
X1191818Y-1317853D01*
X1193241Y-1320088D01*
X1194968Y-1322070D01*
X1196949Y-1323848D01*
X1199235Y-1325473D01*
X1201775Y-1326794D01*
X1204620Y-1327962D01*
X1207668Y-1328877D01*
X1210970Y-1329588D01*
X1218285Y-1330299D01*
X1226464Y-1330147D01*
X1235405Y-1329029D01*
X1245006Y-1326997D01*
X1255318Y-1324051D01*
X1266139Y-1320139D01*
X1277416Y-1315212D01*
X1289151Y-1309370D01*
X1301191Y-1302461D01*
X1313434Y-1294587D01*
X1324711Y-1286814D01*
X1335379Y-1279042D01*
X1345641Y-1271219D01*
X1355445Y-1263243D01*
X1364945Y-1255064D01*
X1374241Y-1246581D01*
X1383385Y-1237742D01*
X1392428Y-1228445D01*
X1401521Y-1218590D01*
X1410766Y-1208176D01*
X1441348Y-1170940D01*
X1449933Y-1161084D01*
X1484528Y-1119174D01*
X1526184Y-1067816D01*
X1545437Y-1043432D01*
X1554581Y-1032713D01*
X1558239Y-1029055D01*
X1561541Y-1026312D01*
X1564741Y-1024382D01*
X1567992Y-1023112D01*
X1571447Y-1022400D01*
X1579981Y-1021994D01*
X1601876Y-1021842D01*
X1610969Y-1021334D01*
X1614373Y-1020876D01*
X1616557Y-1021080D01*
X1617522Y-1022096D01*
X1617268Y-1024077D01*
X1615744Y-1027074D01*
X1612798Y-1031290D01*
X1602841Y-1043635D01*
X1575968Y-1074724D01*
X1549298Y-1107795D01*
X1545183Y-1112469D01*
X1521104Y-1141831D01*
X1508810Y-1156462D01*
X1496110Y-1170838D01*
X1473657Y-1199032D01*
X1456436Y-1220114D01*
X1452981Y-1223924D01*
X1431188Y-1250848D01*
X1419860Y-1264513D01*
X1411681Y-1274013D01*
X1407363Y-1279499D01*
X1403451Y-1284986D01*
X1399997Y-1290320D01*
X1397000Y-1295603D01*
X1394460Y-1300683D01*
X1392377Y-1305560D01*
X1390802Y-1310182D01*
X1389735Y-1314500D01*
X1389176Y-1318463D01*
X1389176Y-1322019D01*
X1389684Y-1325168D01*
X1390751Y-1327810D01*
X1392428Y-1329944D01*
X1394663Y-1331518D01*
X1397457Y-1332433D01*
X1399540Y-1332534D01*
X1402080Y-1332179D01*
X1405026Y-1331315D01*
X1412138Y-1328267D01*
X1420571Y-1323594D01*
X1430121Y-1317447D01*
X1440586Y-1310030D01*
X1451660Y-1301496D01*
X1463192Y-1291945D01*
X1474876Y-1281684D01*
X1486509Y-1270762D01*
X1498041Y-1259382D01*
X1509318Y-1248613D01*
X1520291Y-1238758D01*
X1531010Y-1229715D01*
X1541475Y-1221486D01*
X1551838Y-1214069D01*
X1561998Y-1207363D01*
X1572158Y-1201369D01*
X1582267Y-1196035D01*
X1592376Y-1191361D01*
X1606956Y-1185570D01*
X1624787Y-1179017D01*
X1641043Y-1173683D01*
X1655673Y-1169619D01*
X1662430Y-1167993D01*
X1674723Y-1165758D01*
X1680311Y-1165047D01*
X1690370Y-1164590D01*
X1694840Y-1164793D01*
X1698955Y-1165301D01*
X1702714Y-1166114D01*
X1706118Y-1167231D01*
X1709166Y-1168654D01*
X1711807Y-1170381D01*
X1719529Y-1177442D01*
X1722882Y-1179423D01*
X1725371Y-1178509D01*
X1728012Y-1174800D01*
X1731416Y-1171244D01*
X1737106Y-1169111D01*
X1746656Y-1168044D01*
X1761540Y-1167790D01*
X1790649Y-1167790D01*
X1779473Y-1183081D01*
X1771599Y-1192834D01*
X1762963Y-1202588D01*
X1730197Y-1241958D01*
X1691995Y-1288643D01*
X1685747Y-1297025D01*
X1680819Y-1304442D01*
X1677212Y-1310843D01*
X1674825Y-1316329D01*
X1674063Y-1318666D01*
X1673606Y-1320850D01*
X1673504Y-1324457D01*
X1673860Y-1325930D01*
X1674469Y-1327200D01*
X1675333Y-1328216D01*
X1677771Y-1329690D01*
X1681124Y-1330248D01*
X1685340Y-1330045D01*
X1690319Y-1329029D01*
X1696008Y-1327251D01*
X1702409Y-1324711D01*
X1709420Y-1321460D01*
X1716938Y-1317498D01*
X1724964Y-1312824D01*
X1733448Y-1307490D01*
X1742287Y-1301496D01*
X1751431Y-1294892D01*
X1760829Y-1287729D01*
X1770430Y-1279906D01*
X1780184Y-1271574D01*
X1789988Y-1262684D01*
X1799793Y-1253286D01*
X1809546Y-1243380D01*
X1815998Y-1237183D01*
X1820976Y-1233373D01*
X1824532Y-1232001D01*
X1826615Y-1233068D01*
X1827275Y-1235202D01*
X1826869Y-1237843D01*
X1825447Y-1241044D01*
X1822957Y-1244803D01*
X1819351Y-1249172D01*
X1814677Y-1254099D01*
X1808886Y-1259687D01*
X1784908Y-1281379D01*
X1775714Y-1290167D01*
X1765401Y-1299210D01*
X1754936Y-1307338D01*
X1744472Y-1314551D01*
X1734007Y-1320800D01*
X1723694Y-1326184D01*
X1713585Y-1330604D01*
X1703781Y-1334109D01*
X1694383Y-1336649D01*
X1685391Y-1338275D01*
X1677009Y-1338935D01*
X1673047Y-1338884D01*
X1665630Y-1338072D01*
X1662175Y-1337310D01*
X1658975Y-1336294D01*
X1655978Y-1335024D01*
X1653184Y-1333550D01*
X1650593Y-1331823D01*
X1648307Y-1329791D01*
X1646224Y-1327556D01*
X1644446Y-1325067D01*
X1642922Y-1322324D01*
X1641703Y-1319326D01*
X1640738Y-1316126D01*
X1640128Y-1312621D01*
X1639824Y-1308862D01*
X1639824Y-1304848D01*
X1640179Y-1300632D01*
X1641500Y-1292250D01*
X1641449Y-1289710D01*
X1640636Y-1288592D01*
X1638807Y-1288846D01*
X1635861Y-1290675D01*
X1631645Y-1294028D01*
X1613611Y-1310436D01*
X1608429Y-1314602D01*
X1603197Y-1318463D01*
X1597914Y-1321968D01*
X1592580Y-1325118D01*
X1587246Y-1327912D01*
X1581861Y-1330401D01*
X1576527Y-1332534D01*
X1571193Y-1334363D01*
X1565910Y-1335836D01*
X1560677Y-1337005D01*
X1555546Y-1337818D01*
X1550466Y-1338326D01*
X1545488Y-1338478D01*
X1540662Y-1338326D01*
X1535988Y-1337868D01*
X1531467Y-1337106D01*
X1527098Y-1336040D01*
X1522882Y-1334617D01*
X1518920Y-1332890D01*
X1515211Y-1330909D01*
X1511706Y-1328572D01*
X1508455Y-1325930D01*
X1505458Y-1323035D01*
X1502765Y-1319784D01*
X1500378Y-1316278D01*
X1498346Y-1312468D01*
X1496618Y-1308404D01*
X1495247Y-1303985D01*
X1494231Y-1299311D01*
X1493621Y-1294333D01*
X1493418Y-1289100D01*
X1492656Y-1287526D01*
X1490522Y-1287424D01*
X1487017Y-1288796D01*
X1482344Y-1291488D01*
X1476552Y-1295552D01*
X1469694Y-1300784D01*
X1461973Y-1307236D01*
X1448308Y-1319123D01*
X1443126Y-1322984D01*
X1437792Y-1326438D01*
X1432407Y-1329436D01*
X1427022Y-1332077D01*
X1421587Y-1334262D01*
X1416151Y-1336040D01*
X1410766Y-1337411D01*
X1405432Y-1338376D01*
X1400200Y-1338986D01*
X1395120Y-1339189D01*
X1390142Y-1339037D01*
X1385366Y-1338529D01*
X1380794Y-1337614D01*
X1376426Y-1336395D01*
X1372362Y-1334770D01*
X1368552Y-1332839D01*
X1365046Y-1330553D01*
X1361897Y-1327962D01*
X1359154Y-1325067D01*
X1356766Y-1321816D01*
X1354785Y-1318260D01*
X1353261Y-1314399D01*
X1352245Y-1310284D01*
X1351686Y-1305814D01*
X1351686Y-1301089D01*
X1352245Y-1296111D01*
X1353362Y-1290828D01*
X1357274Y-1276299D01*
X1331569Y-1295400D01*
X1319276Y-1303680D01*
X1306982Y-1311097D01*
X1294790Y-1317650D01*
X1282649Y-1323340D01*
X1270660Y-1328115D01*
X1264767Y-1330248D01*
X1253185Y-1333754D01*
X1241856Y-1336446D01*
X1230985Y-1338275D01*
X1220470Y-1339240D01*
X1210513Y-1339392D01*
X1201064Y-1338681D01*
X1192276Y-1337106D01*
X1184097Y-1334668D01*
X1176731Y-1331417D01*
X1170076Y-1327353D01*
X1164336Y-1322425D01*
X1161796Y-1319631D01*
X1159510Y-1316634D01*
X1157427Y-1313434D01*
X1155649Y-1310030D01*
X1154074Y-1306423D01*
X1152804Y-1302613D01*
X1151788Y-1298600D01*
X1151026Y-1294333D01*
X1150569Y-1289913D01*
X1150416Y-1274927D01*
X1130046Y-1291793D01*
X1120749Y-1299210D01*
X1111910Y-1305864D01*
X1103426Y-1311808D01*
X1095095Y-1317091D01*
X1086866Y-1321765D01*
X1078433Y-1325829D01*
X1069797Y-1329334D01*
X1060704Y-1332331D01*
X1051052Y-1334871D01*
X1040688Y-1336954D01*
X1029462Y-1338681D01*
X1017219Y-1340002D01*
X1003808Y-1341018D01*
X989076Y-1341780D01*
X955090Y-1342593D01*
X894689Y-1342796D01*
X870762Y-1342694D01*
X852525Y-1342390D01*
X839216Y-1341932D01*
X830173Y-1341170D01*
X824585Y-1340205D01*
X822858Y-1339545D01*
X821740Y-1338834D01*
X821131Y-1338072D01*
X820978Y-1337157D01*
X821486Y-1335024D01*
X822960Y-1333042D01*
X825347Y-1331315D01*
X828548Y-1329842D01*
X832510Y-1328623D01*
X837133Y-1327607D01*
X842416Y-1326946D01*
X848258Y-1326489D01*
X854557Y-1326388D01*
X861263Y-1326591D01*
X868324Y-1327099D01*
X880719Y-1328521D01*
X890117Y-1329182D01*
X894537Y-1329182D01*
X903274Y-1328420D01*
X907694Y-1327658D01*
X912215Y-1326591D01*
X921816Y-1323543D01*
X932586Y-1319123D01*
X945032Y-1313230D01*
X959662Y-1305712D01*
X965555Y-1302156D01*
X972210Y-1297178D01*
X979627Y-1290929D01*
X987602Y-1283512D01*
X996035Y-1275130D01*
X1004824Y-1265885D01*
X1013866Y-1255928D01*
X1023010Y-1245311D01*
X1032205Y-1234236D01*
X1041247Y-1222857D01*
X1050036Y-1211224D01*
X1058519Y-1199540D01*
X1066546Y-1187907D01*
X1081836Y-1163929D01*
X924763Y-1163929D01*
X915517Y-1179423D01*
X909980Y-1187653D01*
X903935Y-1195730D01*
X897382Y-1203655D01*
X890371Y-1211427D01*
X882853Y-1219047D01*
X874877Y-1226515D01*
X866495Y-1233779D01*
X857758Y-1240891D01*
X848614Y-1247800D01*
X839165Y-1254556D01*
X829360Y-1261110D01*
X819251Y-1267460D01*
X808888Y-1273606D01*
X798271Y-1279550D01*
X776325Y-1290777D01*
X753719Y-1301140D01*
X742238Y-1305966D01*
X718870Y-1314907D01*
X701243Y-1320952D01*
X677621Y-1328115D01*
X654100Y-1334262D01*
X636625Y-1338122D01*
X613765Y-1342237D01*
X602538Y-1343914D01*
X591464Y-1345234D01*
X570026Y-1347012D01*
X559663Y-1347419D01*
X549605Y-1347470D01*
X539800Y-1347266D01*
X530352Y-1346708D01*
X521208Y-1345793D01*
X512470Y-1344523D01*
X504139Y-1342948D01*
X496214Y-1341018D01*
X488696Y-1338732D01*
X481685Y-1336040D01*
X475132Y-1333042D01*
X469138Y-1329639D01*
X463651Y-1325880D01*
X458724Y-1321714D01*
X454406Y-1317142D01*
X450697Y-1312214D01*
X447598Y-1306880D01*
X445160Y-1301140D01*
X443433Y-1295044D01*
X442366Y-1288491D01*
X442061Y-1281480D01*
X442163Y-1277874D01*
X442823Y-1273048D01*
X444093Y-1268476D01*
X445973Y-1264208D01*
X448360Y-1260246D01*
X451205Y-1256639D01*
X454456Y-1253286D01*
X458114Y-1250340D01*
X461975Y-1247698D01*
X466140Y-1245463D01*
X470408Y-1243584D01*
X474827Y-1242060D01*
X479247Y-1240993D01*
X483717Y-1240282D01*
X488086Y-1240028D01*
X492302Y-1240231D01*
X496366Y-1240840D01*
X500126Y-1241907D01*
X503631Y-1243482D01*
X506730Y-1245514D01*
X509422Y-1248054D01*
X511606Y-1251102D01*
X513232Y-1254658D01*
X514248Y-1258722D01*
X514604Y-1263345D01*
X513740Y-1268120D01*
X511301Y-1272590D01*
X507593Y-1276654D01*
X502869Y-1280210D01*
X497382Y-1283157D01*
X491388Y-1285494D01*
X485241Y-1287018D01*
X479145Y-1287729D01*
X473405Y-1287526D01*
X468274Y-1286256D01*
X464058Y-1283919D01*
X460959Y-1280414D01*
X458978Y-1277416D01*
X457758Y-1277112D01*
X457149Y-1279702D01*
X456895Y-1285494D01*
X457047Y-1288745D01*
X457606Y-1291945D01*
X458470Y-1294993D01*
X459689Y-1297940D01*
X461264Y-1300784D01*
X465378Y-1306118D01*
X470712Y-1311046D01*
X477215Y-1315516D01*
X484733Y-1319479D01*
X493268Y-1323035D01*
X502666Y-1326083D01*
X512876Y-1328674D01*
X523798Y-1330807D01*
X535381Y-1332382D01*
X547522Y-1333500D01*
X560120Y-1334109D01*
X573074Y-1334160D01*
X586384Y-1333703D01*
X599846Y-1332738D01*
X613511Y-1331163D01*
X627176Y-1329131D01*
X640842Y-1326489D01*
X654354Y-1323289D01*
X667664Y-1319530D01*
X680720Y-1315161D01*
X693420Y-1310233D01*
X703021Y-1305864D01*
X711047Y-1301343D01*
X720344Y-1295450D01*
X730707Y-1288389D01*
X741883Y-1280312D01*
X753719Y-1271422D01*
X778357Y-1251966D01*
X802843Y-1231442D01*
X825500Y-1211326D01*
X835558Y-1201877D01*
X844499Y-1193139D01*
X852119Y-1185214D01*
X858215Y-1178306D01*
X862533Y-1172616D01*
X863904Y-1170330D01*
X864819Y-1168349D01*
X865174Y-1166825D01*
X864616Y-1166418D01*
X860298Y-1165707D01*
X852271Y-1165047D01*
X827328Y-1164183D01*
X780186Y-1163726D01*
X757326Y-1162812D01*
X749300Y-1162151D01*
X743458Y-1161389D01*
X738784Y-1160119D01*
X738327Y-1159611D01*
X738428Y-1159154D01*
X740257Y-1158189D01*
X744169Y-1157224D01*
X750265Y-1156258D01*
X758444Y-1155293D01*
X768705Y-1154430D01*
X795528Y-1152956D01*
X879449Y-1150467D01*
X899820Y-1126947D01*
X917651Y-1107744D01*
X927811Y-1097280D01*
X943711Y-1081430D01*
X964590Y-1061415D01*
X974242Y-1052576D01*
X982980Y-1044905D01*
X1016660Y-1017219D01*
X1020775Y-1014069D01*
X1026921Y-1010158D01*
X1034135Y-1005992D01*
X1049223Y-998169D01*
X1061974Y-990955D01*
X1065682Y-988466D01*
X1069898Y-986028D01*
X1077112Y-982776D01*
X1086307Y-979119D01*
X1117701Y-967943D01*
X1125880Y-964590D01*
X1132484Y-961542D01*
X1137615Y-958748D01*
X1141222Y-956056D01*
X1143457Y-953566D01*
X1144270Y-951128D01*
X1143762Y-948740D01*
X1141984Y-946403D01*
X1138936Y-944016D01*
X1134719Y-941527D01*
X1130858Y-939952D01*
X1126388Y-938885D01*
X1121359Y-938326D01*
X1115872Y-938326D01*
X1109929Y-938784D01*
X1103680Y-939749D01*
X1097076Y-941171D01*
X1090269Y-943051D01*
X1083259Y-945387D01*
X1076147Y-948182D01*
X1068984Y-951433D01*
X1055573Y-958443D01*
X1044854Y-964946D01*
X1040130Y-968197D01*
X1035659Y-971600D01*
X1031443Y-975156D01*
X1023112Y-983335D01*
X1014374Y-993444D01*
X1004417Y-1006195D01*
X997051Y-1015136D01*
X989228Y-1023416D01*
X981049Y-1030884D01*
X972515Y-1037691D01*
X963777Y-1043736D01*
X954836Y-1049020D01*
X945794Y-1053642D01*
X936701Y-1057554D01*
X927608Y-1060754D01*
X918667Y-1063244D01*
X909828Y-1065072D01*
X901242Y-1066190D01*
X893013Y-1066596D01*
X885088Y-1066342D01*
X877620Y-1065428D01*
X870661Y-1063853D01*
X864311Y-1061567D01*
X858570Y-1058672D01*
X853541Y-1055116D01*
X851306Y-1053084D01*
X847496Y-1048562D01*
X844550Y-1043381D01*
X842568Y-1037590D01*
X841959Y-1034440D01*
X841552Y-1027684D01*
X841756Y-1024077D01*
X842264Y-1020318D01*
X844143Y-1012342D01*
X845566Y-1008126D01*
X849426Y-999236D01*
X869492Y-961390D01*
X882345Y-936701D01*
X870051Y-924712D01*
X867003Y-922274D01*
X863803Y-920089D01*
X856742Y-916228D01*
X848969Y-913028D01*
X840536Y-910590D01*
X831494Y-908812D01*
X821893Y-907643D01*
X811784Y-907135D01*
X801217Y-907237D01*
X790295Y-907948D01*
X779018Y-909218D01*
X767486Y-911047D01*
X755751Y-913384D01*
X743864Y-916279D01*
X731824Y-919632D01*
X719785Y-923493D01*
X707745Y-927760D01*
X695807Y-932484D01*
X683971Y-937564D01*
X672287Y-943102D01*
X660908Y-948994D01*
X649782Y-955192D01*
X639013Y-961796D01*
X628700Y-968654D01*
X618794Y-975817D01*
X609447Y-983234D01*
X600710Y-990904D01*
X592582Y-998829D01*
X585165Y-1006906D01*
X581710Y-1011021D01*
X575462Y-1019454D01*
X572617Y-1023670D01*
X567639Y-1032306D01*
X563422Y-1041400D01*
X560070Y-1050645D01*
X557784Y-1059535D01*
X556514Y-1068070D01*
X556260Y-1076248D01*
X556463Y-1080211D01*
X557580Y-1087780D01*
X558444Y-1091438D01*
X560882Y-1098397D01*
X562356Y-1101750D01*
X565962Y-1108049D01*
X570331Y-1113942D01*
X575411Y-1119378D01*
X581152Y-1124356D01*
X587502Y-1128826D01*
X594410Y-1132789D01*
X601878Y-1136243D01*
X609803Y-1139139D01*
X618236Y-1141526D01*
X627075Y-1143355D01*
X636219Y-1144625D01*
X645769Y-1145286D01*
X655523Y-1145387D01*
X665581Y-1144828D01*
X675843Y-1143660D01*
X686206Y-1141882D01*
X696722Y-1139444D01*
X707288Y-1136345D01*
X717905Y-1132535D01*
X728522Y-1128064D01*
X739038Y-1122883D01*
X749503Y-1116990D01*
X759815Y-1110335D01*
X777392Y-1097381D01*
X783539Y-1093165D01*
X788466Y-1090320D01*
X792124Y-1088847D01*
X794512Y-1088694D01*
X795731Y-1089914D01*
X795731Y-1092504D01*
X794562Y-1096416D01*
X793292Y-1099108D01*
X791464Y-1101801D01*
X789178Y-1104544D01*
X786434Y-1107338D01*
X779576Y-1112875D01*
X771245Y-1118362D01*
X761542Y-1123746D01*
X750722Y-1128877D01*
X739038Y-1133703D01*
X726643Y-1138174D01*
X713740Y-1142187D01*
X700582Y-1145641D01*
X687374Y-1148486D01*
X674319Y-1150569D01*
X661619Y-1151940D01*
X649528Y-1152398D01*
X637794Y-1152093D01*
X626821Y-1151280D01*
X616508Y-1149908D01*
X606856Y-1148029D01*
X597916Y-1145641D01*
X589635Y-1142847D01*
X582066Y-1139545D01*
X575106Y-1135837D01*
X568807Y-1131773D01*
X563219Y-1127302D01*
X558241Y-1122476D01*
X553923Y-1117346D01*
X550214Y-1111859D01*
X547166Y-1106119D01*
X544779Y-1100074D01*
X542950Y-1093825D01*
X541832Y-1087323D01*
X541274Y-1080668D01*
X541324Y-1073810D01*
X541985Y-1066800D01*
X543255Y-1059637D01*
X545134Y-1052372D01*
X547624Y-1045006D01*
X550672Y-1037590D01*
X554278Y-1030122D01*
X558495Y-1022654D01*
X563270Y-1015187D01*
X568655Y-1007719D01*
X574548Y-1000302D01*
X581050Y-992936D01*
X588060Y-985672D01*
X595680Y-978509D01*
X603808Y-971448D01*
X612444Y-964590D01*
X621690Y-957884D01*
X631393Y-951382D01*
X641654Y-945134D01*
X652424Y-939088D01*
X663752Y-933348D01*
X675538Y-927862D01*
X687882Y-922680D01*
X700684Y-917803D01*
X710031Y-914704D01*
X718921Y-912114D01*
X726440Y-910285D01*
X734415Y-909269D01*
X736041Y-908761D01*
X736295Y-908050D01*
X734974Y-907237D01*
X732688Y-906729D01*
X728980Y-906678D01*
X723696Y-907084D01*
X716483Y-907948D01*
X695553Y-911402D01*
X664260Y-917346D01*
X586232Y-933043D01*
X562305Y-938072D01*
X542493Y-942594D01*
X520395Y-947928D01*
X488289Y-956157D01*
X457809Y-964895D01*
X443128Y-969365D01*
X415035Y-978712D01*
X388518Y-988364D01*
X363626Y-998423D01*
X351790Y-1003553D01*
X329387Y-1014069D01*
X308559Y-1024890D01*
X298805Y-1030376D01*
X289458Y-1035964D01*
X280517Y-1041603D01*
X263906Y-1053033D01*
X256286Y-1058824D01*
X249021Y-1064666D01*
X242214Y-1070559D01*
X235813Y-1076452D01*
X229870Y-1082446D01*
X224332Y-1088440D01*
X219252Y-1094486D01*
X214579Y-1100531D01*
X210362Y-1106627D01*
X206603Y-1112774D01*
X203250Y-1118870D01*
X200355Y-1125067D01*
X197866Y-1131214D01*
X195834Y-1137412D01*
X194310Y-1143609D01*
X193141Y-1149807D01*
X192481Y-1156004D01*
X192278Y-1162202D01*
X192481Y-1168400D01*
X193141Y-1174546D01*
X194310Y-1180744D01*
X195884Y-1186891D01*
X197916Y-1193038D01*
X200406Y-1199184D01*
X203403Y-1205280D01*
X206806Y-1211376D01*
X210718Y-1217422D01*
X215087Y-1223467D01*
X219913Y-1229461D01*
X225196Y-1235405D01*
X230936Y-1241298D01*
X237185Y-1247190D01*
X243890Y-1253032D01*
X251053Y-1258773D01*
X258724Y-1264513D01*
X266852Y-1270152D01*
X275488Y-1275791D01*
X284581Y-1281328D01*
X294182Y-1286814D01*
X304241Y-1292250D01*
X314756Y-1297584D01*
X325831Y-1302867D01*
X369824Y-1322324D01*
X384454Y-1328572D01*
X403707Y-1335633D01*
X428701Y-1344015D01*
X456844Y-1353007D01*
X492353Y-1363776D01*
X528624Y-1373886D01*
X544474Y-1377543D01*
X606958Y-1390802D01*
X641502Y-1397812D01*
X682345Y-1405331D01*
X694893Y-1407414D01*
X728675Y-1412443D01*
X748792Y-1415745D01*
X781253Y-1420215D01*
X823010Y-1424838D01*
X878636Y-1430172D01*
X952753Y-1436674D01*
X984707Y-1439214D01*
X1012342Y-1440992D01*
X1064971Y-1443278D01*
X1095603Y-1444040D01*
X1127150Y-1444548D01*
X1172464Y-1444650D01*
X1225651Y-1444040D01*
X1266190Y-1443024D01*
X1300276Y-1441856D01*
X1341323Y-1440078D01*
X1375562Y-1438300D01*
X1409598Y-1436217D01*
X1470253Y-1431747D01*
X1509877Y-1428242D01*
X1542237Y-1425092D01*
X1567637Y-1422349D01*
X1598625Y-1418691D01*
X1622755Y-1415592D01*
X1651965Y-1411478D01*
X1714855Y-1401419D01*
X1735226Y-1397812D01*
X1754378Y-1394104D01*
X1775663Y-1389684D01*
X1803095Y-1383690D01*
X1832102Y-1376934D01*
X1866646Y-1368145D01*
X1893011Y-1360830D01*
X1924304Y-1351381D01*
X1948027Y-1343558D01*
X1970633Y-1335532D01*
X1992071Y-1327302D01*
X2012340Y-1318920D01*
X2031441Y-1310335D01*
X2049424Y-1301597D01*
X2066239Y-1292707D01*
X2081885Y-1283716D01*
X2096414Y-1274521D01*
X2103272Y-1269898D01*
X2112975Y-1262938D01*
X2124913Y-1253540D01*
X2135682Y-1243990D01*
X2145334Y-1234389D01*
X2149703Y-1229563D01*
X2155799Y-1222298D01*
X2159457Y-1217472D01*
X2165959Y-1207668D01*
X2170074Y-1200302D01*
X2174595Y-1190447D01*
X2176424Y-1185519D01*
X2179218Y-1175664D01*
X2180183Y-1170686D01*
X2181250Y-1160830D01*
X2181402Y-1155852D01*
X2180742Y-1145997D01*
X2180031Y-1141069D01*
X2179015Y-1136142D01*
X2176119Y-1126286D01*
X2172106Y-1116482D01*
X2168347Y-1109218D01*
X2162302Y-1099515D01*
X2158898Y-1094689D01*
X2151176Y-1085138D01*
X2142388Y-1075639D01*
X2135022Y-1068578D01*
X2124202Y-1059281D01*
X2112264Y-1050086D01*
X2099208Y-1040993D01*
X2085035Y-1032103D01*
X2069744Y-1023315D01*
X2053285Y-1014679D01*
X2035759Y-1006246D01*
X2017064Y-997966D01*
X1997303Y-989888D01*
X1970989Y-980084D01*
X1948637Y-972464D01*
X1919224Y-963269D01*
X1894382Y-956208D01*
X1861769Y-947724D01*
X1834489Y-941222D01*
X1806041Y-934974D01*
X1768906Y-927557D01*
X1683969Y-912266D01*
X1656994Y-907694D01*
X1633626Y-904341D01*
X1564182Y-895858D01*
X1504391Y-889609D01*
X1456283Y-885190D01*
X1400911Y-880871D01*
X1388821Y-880262D01*
X1345031Y-878992D01*
X1283411Y-877773D01*
X1139037Y-875893D01*
G37*
G36*
X1689100Y-1172514D02*
G01*
X1683715Y-1172921D01*
X1678381Y-1174343D01*
X1668525Y-1178255D01*
X1658366Y-1182979D01*
X1648002Y-1188415D01*
X1637588Y-1194460D01*
X1627276Y-1201115D01*
X1617218Y-1208176D01*
X1607464Y-1215644D01*
X1598269Y-1223416D01*
X1584401Y-1235862D01*
X1574393Y-1245311D01*
X1565402Y-1254709D01*
X1554378Y-1266952D01*
X1549603Y-1272743D01*
X1545437Y-1278585D01*
X1541881Y-1284427D01*
X1538884Y-1290218D01*
X1536547Y-1295857D01*
X1534769Y-1301343D01*
X1533601Y-1306626D01*
X1533093Y-1311554D01*
X1533144Y-1316177D01*
X1533804Y-1320342D01*
X1535125Y-1324051D01*
X1537055Y-1327251D01*
X1539595Y-1329791D01*
X1542796Y-1331722D01*
X1546606Y-1332941D01*
X1551076Y-1333347D01*
X1553819Y-1333042D01*
X1556969Y-1332230D01*
X1560525Y-1330960D01*
X1568704Y-1326946D01*
X1578102Y-1321308D01*
X1588516Y-1314196D01*
X1599692Y-1305814D01*
X1611376Y-1296416D01*
X1623364Y-1286256D01*
X1635455Y-1275435D01*
X1647393Y-1264310D01*
X1658874Y-1252982D01*
X1669796Y-1241755D01*
X1679803Y-1230833D01*
X1688744Y-1220368D01*
X1696364Y-1210614D01*
X1702409Y-1201826D01*
X1704797Y-1197813D01*
X1706676Y-1194155D01*
X1708048Y-1190853D01*
X1708912Y-1187907D01*
X1709216Y-1185316D01*
X1708454Y-1181760D01*
X1706372Y-1178661D01*
X1703120Y-1176121D01*
X1699056Y-1174191D01*
X1694281Y-1172921D01*
G37*
G36*
X1335786Y-1176731D02*
G01*
X1326337Y-1178153D01*
X1321968Y-1179779D01*
X1315262Y-1182827D01*
X1298295Y-1191463D01*
X1282192Y-1200353D01*
X1276604Y-1203807D01*
X1262532Y-1215085D01*
X1248359Y-1225854D01*
X1241247Y-1231595D01*
X1235303Y-1236776D01*
X1230680Y-1241196D01*
X1227632Y-1244650D01*
X1226261Y-1246886D01*
X1226820Y-1247800D01*
X1229461Y-1247190D01*
X1240637Y-1243584D01*
X1272184Y-1234592D01*
X1287424Y-1229258D01*
X1302004Y-1223264D01*
X1315669Y-1216914D01*
X1328013Y-1210310D01*
X1338681Y-1203756D01*
X1343304Y-1200505D01*
X1347317Y-1197356D01*
X1350772Y-1194308D01*
X1353566Y-1191412D01*
X1355648Y-1188669D01*
X1357020Y-1186078D01*
X1357579Y-1183690D01*
X1357376Y-1181557D01*
X1353515Y-1178661D01*
X1345590Y-1176985D01*
G37*
D10*
X7302751Y-4227324D02*
G01*
X7302751Y-4287268D01*
X7259063Y-4254502D01*
X7259063Y-4271012D01*
X7253475Y-4281934D01*
X7248141Y-4287268D01*
X7231885Y-4292856D01*
X7220963Y-4292856D01*
X7204453Y-4287268D01*
X7193531Y-4276346D01*
X7188197Y-4260090D01*
X7188197Y-4243580D01*
X7193531Y-4227324D01*
X7199119Y-4221736D01*
X7210041Y-4216402D01*
X7215375Y-4334258D02*
G01*
X7210041Y-4328670D01*
X7204453Y-4334258D01*
X7210041Y-4339592D01*
X7215375Y-4334258D01*
X7302751Y-4386582D02*
G01*
X7302751Y-4446526D01*
X7259063Y-4413760D01*
X7259063Y-4430270D01*
X7253475Y-4441192D01*
X7248141Y-4446526D01*
X7231885Y-4452114D01*
X7220963Y-4452114D01*
X7204453Y-4446526D01*
X7193531Y-4435604D01*
X7188197Y-4419348D01*
X7188197Y-4402838D01*
X7193531Y-4386582D01*
X7199119Y-4381248D01*
X7210041Y-4375660D01*
X7302751Y-4487928D02*
G01*
X7188197Y-4531616D01*
X7302751Y-4575304D02*
G01*
X7188197Y-4531616D01*
D11*
X2222500Y-5422900D02*
G01*
X3892593Y-5439476D01*
X5670506Y-5457123D02*
G01*
X7340600Y-5473700D01*
X2348737Y-5500357D02*
G01*
X2222500Y-5422900D01*
X2350249Y-5347964D01*
X7212850Y-5548635D02*
G01*
X7340600Y-5473700D01*
X7214361Y-5396242D01*
X4083400Y-5302867D02*
G01*
X3967835Y-5301719D01*
X3955374Y-5405488D01*
X3966918Y-5393918D01*
X4001574Y-5382831D01*
X4036372Y-5383176D01*
X4070799Y-5394947D01*
X4093684Y-5418289D01*
X4105020Y-5453202D01*
X4104792Y-5476316D01*
X4092765Y-5510743D01*
X4069425Y-5533626D01*
X4034769Y-5544713D01*
X3999971Y-5544367D01*
X3965544Y-5532594D01*
X3954228Y-5520796D01*
X3942773Y-5497822D01*
X4182249Y-5350078D02*
G01*
X4205224Y-5338622D01*
X4240362Y-5304424D01*
X4237959Y-5546730D01*
X4326155Y-5489943D02*
G01*
X4314611Y-5501512D01*
X4325927Y-5513057D01*
X4337723Y-5501744D01*
X4326155Y-5489943D01*
X4415409Y-5352392D02*
G01*
X4438639Y-5340939D01*
X4473524Y-5306738D01*
X4471118Y-5549044D01*
X4607374Y-5308066D02*
G01*
X4572718Y-5319153D01*
X4560806Y-5342150D01*
X4560577Y-5365264D01*
X4572030Y-5388493D01*
X4595030Y-5400151D01*
X4641141Y-5412292D01*
X4675568Y-5424065D01*
X4698453Y-5447408D01*
X4709652Y-5470634D01*
X4709307Y-5505432D01*
X4697651Y-5528175D01*
X4685852Y-5539745D01*
X4651197Y-5550829D01*
X4604969Y-5550372D01*
X4570542Y-5538599D01*
X4558974Y-5526801D01*
X4547770Y-5503826D01*
X4548116Y-5469031D01*
X4559774Y-5446031D01*
X4583117Y-5423148D01*
X4618027Y-5412064D01*
X4664369Y-5400840D01*
X4687341Y-5389638D01*
X4699254Y-5366641D01*
X4699485Y-5343527D01*
X4688029Y-5320299D01*
X4653600Y-5308526D01*
X4607374Y-5308066D01*
X4903017Y-5311002D02*
G01*
X4785850Y-5471391D01*
X4959068Y-5473110D01*
X4903017Y-5311002D02*
G01*
X4900612Y-5553306D01*
X5036065Y-5393098D02*
G01*
X5034462Y-5554634D01*
X5035608Y-5439323D02*
G01*
X5070749Y-5404873D01*
X5093721Y-5393672D01*
X5128519Y-5394017D01*
X5151516Y-5405676D01*
X5162600Y-5440586D01*
X5161457Y-5555894D01*
X5162600Y-5440586D02*
G01*
X5197744Y-5406133D01*
X5220715Y-5394932D01*
X5255511Y-5395277D01*
X5278511Y-5406936D01*
X5289595Y-5441845D01*
X5288450Y-5557156D01*
X5366250Y-5396374D02*
G01*
X5364647Y-5557911D01*
X5365790Y-5442602D02*
G01*
X5400934Y-5408150D01*
X5423905Y-5396948D01*
X5458701Y-5397294D01*
X5481700Y-5408952D01*
X5492785Y-5443862D01*
X5491640Y-5559173D01*
X5492785Y-5443862D02*
G01*
X5527926Y-5409410D01*
X5550898Y-5398208D01*
X5585696Y-5398554D01*
X5608695Y-5410212D01*
X5619777Y-5445122D01*
X5618634Y-5560433D01*
D10*
X7008627Y-4348987D02*
G01*
X7019549Y-4343654D01*
X7030471Y-4332731D01*
X7036059Y-4321810D01*
X7036059Y-4299965D01*
X7030471Y-4289044D01*
X7019549Y-4278121D01*
X7008627Y-4272534D01*
X6992371Y-4267200D01*
X6965193Y-4267200D01*
X6948683Y-4272534D01*
X6937761Y-4278121D01*
X6926839Y-4289044D01*
X6921505Y-4299965D01*
X6921505Y-4321810D01*
X6926839Y-4332731D01*
X6937761Y-4343654D01*
X6948683Y-4348987D01*
X6965193Y-4348987D01*
X6965193Y-4321810D02*
G01*
X6965193Y-4348987D01*
X7036059Y-4385055D02*
G01*
X6921505Y-4385055D01*
X7036059Y-4385055D02*
G01*
X6921505Y-4461255D01*
X7036059Y-4461255D02*
G01*
X6921505Y-4461255D01*
X7036059Y-4497323D02*
G01*
X6921505Y-4497323D01*
X7036059Y-4497323D02*
G01*
X7036059Y-4535678D01*
X7030471Y-4551934D01*
X7019549Y-4562855D01*
X7008627Y-4568189D01*
X6992371Y-4573778D01*
X6965193Y-4573778D01*
X6948683Y-4568189D01*
X6937761Y-4562855D01*
X6926839Y-4551934D01*
X6921505Y-4535678D01*
X6921505Y-4497323D01*
X6782059Y-4368800D02*
G01*
X6667505Y-4368800D01*
X6782059Y-4368800D02*
G01*
X6782059Y-4417821D01*
X6776471Y-4434331D01*
X6771137Y-4439665D01*
X6760215Y-4445254D01*
X6749293Y-4445254D01*
X6738371Y-4439665D01*
X6732783Y-4434331D01*
X6727449Y-4417821D01*
X6727449Y-4368800D01*
X6727449Y-4406900D02*
G01*
X6667505Y-4445254D01*
X6782059Y-4481068D02*
G01*
X6667505Y-4557521D01*
X6782059Y-4557521D02*
G01*
X6667505Y-4481068D01*
X6528059Y-4406900D02*
G01*
X6413505Y-4406900D01*
X6528059Y-4368800D02*
G01*
X6528059Y-4445254D01*
X6528059Y-4481068D02*
G01*
X6413505Y-4557521D01*
X6528059Y-4557521D02*
G01*
X6413505Y-4481068D01*
X6257549Y-4242054D02*
G01*
X6268471Y-4231131D01*
X6274059Y-4214621D01*
X6274059Y-4192778D01*
X6268471Y-4176521D01*
X6257549Y-4165600D01*
X6246627Y-4165600D01*
X6235705Y-4170934D01*
X6230371Y-4176521D01*
X6224783Y-4187444D01*
X6213861Y-4220210D01*
X6208527Y-4231131D01*
X6203193Y-4236465D01*
X6192271Y-4242054D01*
X6175761Y-4242054D01*
X6164839Y-4231131D01*
X6159505Y-4214621D01*
X6159505Y-4192778D01*
X6164839Y-4176521D01*
X6175761Y-4165600D01*
X6246627Y-4359655D02*
G01*
X6257549Y-4354321D01*
X6268471Y-4343400D01*
X6274059Y-4332478D01*
X6274059Y-4310634D01*
X6268471Y-4299712D01*
X6257549Y-4288789D01*
X6246627Y-4283455D01*
X6230371Y-4277868D01*
X6203193Y-4277868D01*
X6186683Y-4283455D01*
X6175761Y-4288789D01*
X6164839Y-4299712D01*
X6159505Y-4310634D01*
X6159505Y-4332478D01*
X6164839Y-4343400D01*
X6175761Y-4354321D01*
X6186683Y-4359655D01*
X6274059Y-4395723D02*
G01*
X6159505Y-4395723D01*
X6159505Y-4395723D02*
G01*
X6159505Y-4461255D01*
X6274059Y-4497323D02*
G01*
X6159505Y-4497323D01*
X6274059Y-4573523D02*
G01*
X6197605Y-4497323D01*
X6224783Y-4524502D02*
G01*
X6159505Y-4573523D01*
X6020059Y-4178300D02*
G01*
X5905505Y-4178300D01*
X6020059Y-4178300D02*
G01*
X5905505Y-4221987D01*
X6020059Y-4265676D02*
G01*
X5905505Y-4221987D01*
X6020059Y-4265676D02*
G01*
X5905505Y-4265676D01*
X6020059Y-4334255D02*
G01*
X6014471Y-4323334D01*
X6003549Y-4312412D01*
X5992627Y-4307078D01*
X5976371Y-4301489D01*
X5949193Y-4301489D01*
X5932683Y-4307078D01*
X5921761Y-4312412D01*
X5910839Y-4323334D01*
X5905505Y-4334255D01*
X5905505Y-4356100D01*
X5910839Y-4367021D01*
X5921761Y-4377944D01*
X5932683Y-4383278D01*
X5949193Y-4388865D01*
X5976371Y-4388865D01*
X5992627Y-4383278D01*
X6003549Y-4377944D01*
X6014471Y-4367021D01*
X6020059Y-4356100D01*
X6020059Y-4334255D01*
X6003549Y-4501134D02*
G01*
X6014471Y-4490212D01*
X6020059Y-4473955D01*
X6020059Y-4452112D01*
X6014471Y-4435855D01*
X6003549Y-4424934D01*
X5992627Y-4424934D01*
X5981705Y-4430268D01*
X5976371Y-4435855D01*
X5970783Y-4446778D01*
X5959861Y-4479289D01*
X5954527Y-4490212D01*
X5949193Y-4495800D01*
X5938271Y-4501134D01*
X5921761Y-4501134D01*
X5910839Y-4490212D01*
X5905505Y-4473955D01*
X5905505Y-4452112D01*
X5910839Y-4435855D01*
X5921761Y-4424934D01*
X5998215Y-4537202D02*
G01*
X6003549Y-4548123D01*
X6020059Y-4564379D01*
X5905505Y-4564379D01*
X5766059Y-4229100D02*
G01*
X5651505Y-4229100D01*
X5766059Y-4229100D02*
G01*
X5651505Y-4272787D01*
X5766059Y-4316476D02*
G01*
X5651505Y-4272787D01*
X5766059Y-4316476D02*
G01*
X5651505Y-4316476D01*
X5766059Y-4352289D02*
G01*
X5651505Y-4352289D01*
X5749549Y-4464812D02*
G01*
X5760471Y-4453889D01*
X5766059Y-4437379D01*
X5766059Y-4415536D01*
X5760471Y-4399279D01*
X5749549Y-4388357D01*
X5738627Y-4388357D01*
X5727705Y-4393945D01*
X5722371Y-4399279D01*
X5716783Y-4410202D01*
X5705861Y-4442968D01*
X5700527Y-4453889D01*
X5695193Y-4459223D01*
X5684271Y-4464812D01*
X5667761Y-4464812D01*
X5656839Y-4453889D01*
X5651505Y-4437379D01*
X5651505Y-4415536D01*
X5656839Y-4399279D01*
X5667761Y-4388357D01*
X5766059Y-4533392D02*
G01*
X5760471Y-4517136D01*
X5744215Y-4506213D01*
X5716783Y-4500626D01*
X5700527Y-4500626D01*
X5673349Y-4506213D01*
X5656839Y-4517136D01*
X5651505Y-4533392D01*
X5651505Y-4544313D01*
X5656839Y-4560823D01*
X5673349Y-4571745D01*
X5700527Y-4577079D01*
X5716783Y-4577079D01*
X5744215Y-4571745D01*
X5760471Y-4560823D01*
X5766059Y-4544313D01*
X5766059Y-4533392D01*
X5484627Y-4348987D02*
G01*
X5495549Y-4343654D01*
X5506471Y-4332731D01*
X5512059Y-4321810D01*
X5512059Y-4299965D01*
X5506471Y-4289044D01*
X5495549Y-4278121D01*
X5484627Y-4272534D01*
X5468371Y-4267200D01*
X5441193Y-4267200D01*
X5424683Y-4272534D01*
X5413761Y-4278121D01*
X5402839Y-4289044D01*
X5397505Y-4299965D01*
X5397505Y-4321810D01*
X5402839Y-4332731D01*
X5413761Y-4343654D01*
X5424683Y-4348987D01*
X5495549Y-4461510D02*
G01*
X5506471Y-4450587D01*
X5512059Y-4434078D01*
X5512059Y-4412234D01*
X5506471Y-4395978D01*
X5495549Y-4385055D01*
X5484627Y-4385055D01*
X5473705Y-4390389D01*
X5468371Y-4395978D01*
X5462783Y-4406900D01*
X5451861Y-4439665D01*
X5446527Y-4450587D01*
X5441193Y-4455921D01*
X5430271Y-4461510D01*
X5413761Y-4461510D01*
X5402839Y-4450587D01*
X5397505Y-4434078D01*
X5397505Y-4412234D01*
X5402839Y-4395978D01*
X5413761Y-4385055D01*
X5512059Y-4530089D02*
G01*
X5506471Y-4513834D01*
X5490215Y-4502912D01*
X5462783Y-4497323D01*
X5446527Y-4497323D01*
X5419349Y-4502912D01*
X5402839Y-4513834D01*
X5397505Y-4530089D01*
X5397505Y-4541012D01*
X5402839Y-4557268D01*
X5419349Y-4568189D01*
X5446527Y-4573778D01*
X5462783Y-4573778D01*
X5490215Y-4568189D01*
X5506471Y-4557268D01*
X5512059Y-4541012D01*
X5512059Y-4530089D01*
X5230627Y-4336287D02*
G01*
X5241549Y-4330954D01*
X5252471Y-4320031D01*
X5258059Y-4309110D01*
X5258059Y-4287265D01*
X5252471Y-4276344D01*
X5241549Y-4265421D01*
X5230627Y-4259834D01*
X5214371Y-4254500D01*
X5187193Y-4254500D01*
X5170683Y-4259834D01*
X5159761Y-4265421D01*
X5148839Y-4276344D01*
X5143505Y-4287265D01*
X5143505Y-4309110D01*
X5148839Y-4320031D01*
X5159761Y-4330954D01*
X5170683Y-4336287D01*
X5187193Y-4336287D01*
X5187193Y-4309110D02*
G01*
X5187193Y-4336287D01*
X5258059Y-4372355D02*
G01*
X5143505Y-4372355D01*
X5258059Y-4372355D02*
G01*
X5143505Y-4448555D01*
X5258059Y-4448555D02*
G01*
X5143505Y-4448555D01*
X5258059Y-4484623D02*
G01*
X5143505Y-4484623D01*
X5258059Y-4484623D02*
G01*
X5258059Y-4522978D01*
X5252471Y-4539234D01*
X5241549Y-4550155D01*
X5230627Y-4555489D01*
X5214371Y-4561078D01*
X5187193Y-4561078D01*
X5170683Y-4555489D01*
X5159761Y-4550155D01*
X5148839Y-4539234D01*
X5143505Y-4522978D01*
X5143505Y-4484623D01*
X5016759Y-4318000D02*
G01*
X4902205Y-4361687D01*
X5016759Y-4405376D02*
G01*
X4902205Y-4361687D01*
X5016759Y-4441189D02*
G01*
X5011171Y-4446778D01*
X5016759Y-4452112D01*
X5022093Y-4446778D01*
X5016759Y-4441189D01*
X4978405Y-4446778D02*
G01*
X4902205Y-4446778D01*
X4978405Y-4488179D02*
G01*
X4902205Y-4488179D01*
X4956561Y-4488179D02*
G01*
X4973071Y-4504436D01*
X4978405Y-4515357D01*
X4978405Y-4531868D01*
X4973071Y-4542789D01*
X4956561Y-4548123D01*
X4902205Y-4548123D01*
X4750059Y-4298187D02*
G01*
X4635505Y-4254500D01*
X4750059Y-4298187D02*
G01*
X4635505Y-4341876D01*
X4673605Y-4270755D02*
G01*
X4673605Y-4325365D01*
X4750059Y-4377689D02*
G01*
X4635505Y-4377689D01*
X4750059Y-4377689D02*
G01*
X4750059Y-4416044D01*
X4744471Y-4432300D01*
X4733549Y-4443221D01*
X4722627Y-4448555D01*
X4706371Y-4454144D01*
X4679193Y-4454144D01*
X4662683Y-4448555D01*
X4651761Y-4443221D01*
X4640839Y-4432300D01*
X4635505Y-4416044D01*
X4635505Y-4377689D01*
X4722627Y-4572000D02*
G01*
X4733549Y-4566412D01*
X4744471Y-4555489D01*
X4750059Y-4544568D01*
X4750059Y-4522978D01*
X4744471Y-4512055D01*
X4733549Y-4501134D01*
X4722627Y-4495545D01*
X4706371Y-4490212D01*
X4679193Y-4490212D01*
X4662683Y-4495545D01*
X4651761Y-4501134D01*
X4640839Y-4512055D01*
X4635505Y-4522978D01*
X4635505Y-4544568D01*
X4640839Y-4555489D01*
X4651761Y-4566412D01*
X4662683Y-4572000D01*
X4483359Y-4267200D02*
G01*
X4368805Y-4267200D01*
X4483359Y-4336034D02*
G01*
X4477771Y-4325112D01*
X4466849Y-4314189D01*
X4455927Y-4308602D01*
X4439671Y-4303268D01*
X4412493Y-4303268D01*
X4395983Y-4308602D01*
X4385061Y-4314189D01*
X4374139Y-4325112D01*
X4368805Y-4336034D01*
X4368805Y-4357623D01*
X4374139Y-4368545D01*
X4385061Y-4379468D01*
X4395983Y-4385055D01*
X4412493Y-4390389D01*
X4439671Y-4390389D01*
X4455927Y-4385055D01*
X4466849Y-4379468D01*
X4477771Y-4368545D01*
X4483359Y-4357623D01*
X4483359Y-4336034D01*
X4461515Y-4426457D02*
G01*
X4466849Y-4437379D01*
X4483359Y-4453636D01*
X4368805Y-4453636D01*
X4466849Y-4555236D02*
G01*
X4477771Y-4549647D01*
X4483359Y-4533392D01*
X4483359Y-4522470D01*
X4477771Y-4506213D01*
X4461515Y-4495292D01*
X4434083Y-4489704D01*
X4406905Y-4489704D01*
X4385061Y-4495292D01*
X4374139Y-4506213D01*
X4368805Y-4522470D01*
X4368805Y-4527804D01*
X4374139Y-4544313D01*
X4385061Y-4555236D01*
X4401571Y-4560570D01*
X4406905Y-4560570D01*
X4423161Y-4555236D01*
X4434083Y-4544313D01*
X4439671Y-4527804D01*
X4439671Y-4522470D01*
X4434083Y-4506213D01*
X4423161Y-4495292D01*
X4406905Y-4489704D01*
X4242059Y-4267200D02*
G01*
X4127505Y-4267200D01*
X4242059Y-4336034D02*
G01*
X4236471Y-4325112D01*
X4225549Y-4314189D01*
X4214627Y-4308602D01*
X4198371Y-4303268D01*
X4171193Y-4303268D01*
X4154683Y-4308602D01*
X4143761Y-4314189D01*
X4132839Y-4325112D01*
X4127505Y-4336034D01*
X4127505Y-4357623D01*
X4132839Y-4368545D01*
X4143761Y-4379468D01*
X4154683Y-4385055D01*
X4171193Y-4390389D01*
X4198371Y-4390389D01*
X4214627Y-4385055D01*
X4225549Y-4379468D01*
X4236471Y-4368545D01*
X4242059Y-4357623D01*
X4242059Y-4336034D01*
X4220215Y-4426457D02*
G01*
X4225549Y-4437379D01*
X4242059Y-4453636D01*
X4127505Y-4453636D01*
X4242059Y-4544313D02*
G01*
X4165605Y-4489704D01*
X4165605Y-4571492D01*
X4242059Y-4544313D02*
G01*
X4127505Y-4544313D01*
X3988059Y-4267200D02*
G01*
X3873505Y-4267200D01*
X3988059Y-4336034D02*
G01*
X3982471Y-4325112D01*
X3971549Y-4314189D01*
X3960627Y-4308602D01*
X3944371Y-4303268D01*
X3917193Y-4303268D01*
X3900683Y-4308602D01*
X3889761Y-4314189D01*
X3878839Y-4325112D01*
X3873505Y-4336034D01*
X3873505Y-4357623D01*
X3878839Y-4368545D01*
X3889761Y-4379468D01*
X3900683Y-4385055D01*
X3917193Y-4390389D01*
X3944371Y-4390389D01*
X3960627Y-4385055D01*
X3971549Y-4379468D01*
X3982471Y-4368545D01*
X3988059Y-4357623D01*
X3988059Y-4336034D01*
X3966215Y-4426457D02*
G01*
X3971549Y-4437379D01*
X3988059Y-4453636D01*
X3873505Y-4453636D01*
X3988059Y-4500626D02*
G01*
X3988059Y-4560570D01*
X3944371Y-4527804D01*
X3944371Y-4544313D01*
X3938783Y-4555236D01*
X3933449Y-4560570D01*
X3917193Y-4566157D01*
X3906271Y-4566157D01*
X3889761Y-4560570D01*
X3878839Y-4549647D01*
X3873505Y-4533392D01*
X3873505Y-4517136D01*
X3878839Y-4500626D01*
X3884427Y-4495292D01*
X3895349Y-4489704D01*
X3734059Y-4267200D02*
G01*
X3619505Y-4267200D01*
X3734059Y-4336034D02*
G01*
X3728471Y-4325112D01*
X3717549Y-4314189D01*
X3706627Y-4308602D01*
X3690371Y-4303268D01*
X3663193Y-4303268D01*
X3646683Y-4308602D01*
X3635761Y-4314189D01*
X3624839Y-4325112D01*
X3619505Y-4336034D01*
X3619505Y-4357623D01*
X3624839Y-4368545D01*
X3635761Y-4379468D01*
X3646683Y-4385055D01*
X3663193Y-4390389D01*
X3690371Y-4390389D01*
X3706627Y-4385055D01*
X3717549Y-4379468D01*
X3728471Y-4368545D01*
X3734059Y-4357623D01*
X3734059Y-4336034D01*
X3712215Y-4426457D02*
G01*
X3717549Y-4437379D01*
X3734059Y-4453636D01*
X3619505Y-4453636D01*
X3706627Y-4495292D02*
G01*
X3712215Y-4495292D01*
X3723137Y-4500626D01*
X3728471Y-4506213D01*
X3734059Y-4517136D01*
X3734059Y-4538726D01*
X3728471Y-4549647D01*
X3723137Y-4555236D01*
X3712215Y-4560570D01*
X3701293Y-4560570D01*
X3690371Y-4555236D01*
X3673861Y-4544313D01*
X3619505Y-4489704D01*
X3619505Y-4566157D01*
X3492759Y-4267200D02*
G01*
X3378205Y-4267200D01*
X3492759Y-4336034D02*
G01*
X3487171Y-4325112D01*
X3476249Y-4314189D01*
X3465327Y-4308602D01*
X3449071Y-4303268D01*
X3421893Y-4303268D01*
X3405383Y-4308602D01*
X3394461Y-4314189D01*
X3383539Y-4325112D01*
X3378205Y-4336034D01*
X3378205Y-4357623D01*
X3383539Y-4368545D01*
X3394461Y-4379468D01*
X3405383Y-4385055D01*
X3421893Y-4390389D01*
X3449071Y-4390389D01*
X3465327Y-4385055D01*
X3476249Y-4379468D01*
X3487171Y-4368545D01*
X3492759Y-4357623D01*
X3492759Y-4336034D01*
X3470915Y-4426457D02*
G01*
X3476249Y-4437379D01*
X3492759Y-4453636D01*
X3378205Y-4453636D01*
X3492759Y-4522470D02*
G01*
X3487171Y-4506213D01*
X3470915Y-4495292D01*
X3443483Y-4489704D01*
X3427227Y-4489704D01*
X3400049Y-4495292D01*
X3383539Y-4506213D01*
X3378205Y-4522470D01*
X3378205Y-4533392D01*
X3383539Y-4549647D01*
X3400049Y-4560570D01*
X3427227Y-4566157D01*
X3443483Y-4566157D01*
X3470915Y-4560570D01*
X3487171Y-4549647D01*
X3492759Y-4533392D01*
X3492759Y-4522470D01*
X3226059Y-4318000D02*
G01*
X3111505Y-4318000D01*
X3226059Y-4386834D02*
G01*
X3220471Y-4375912D01*
X3209549Y-4364989D01*
X3198627Y-4359402D01*
X3182371Y-4354068D01*
X3155193Y-4354068D01*
X3138683Y-4359402D01*
X3127761Y-4364989D01*
X3116839Y-4375912D01*
X3111505Y-4386834D01*
X3111505Y-4408423D01*
X3116839Y-4419345D01*
X3127761Y-4430268D01*
X3138683Y-4435855D01*
X3155193Y-4441189D01*
X3182371Y-4441189D01*
X3198627Y-4435855D01*
X3209549Y-4430268D01*
X3220471Y-4419345D01*
X3226059Y-4408423D01*
X3226059Y-4386834D01*
X3226059Y-4542789D02*
G01*
X3226059Y-4488179D01*
X3176783Y-4482845D01*
X3182371Y-4488179D01*
X3187705Y-4504436D01*
X3187705Y-4520945D01*
X3182371Y-4537202D01*
X3171449Y-4548123D01*
X3155193Y-4553712D01*
X3144271Y-4553712D01*
X3127761Y-4548123D01*
X3116839Y-4537202D01*
X3111505Y-4520945D01*
X3111505Y-4504436D01*
X3116839Y-4488179D01*
X3122427Y-4482845D01*
X3133349Y-4477257D01*
X2972059Y-4318000D02*
G01*
X2857505Y-4318000D01*
X2972059Y-4386834D02*
G01*
X2966471Y-4375912D01*
X2955549Y-4364989D01*
X2944627Y-4359402D01*
X2928371Y-4354068D01*
X2901193Y-4354068D01*
X2884683Y-4359402D01*
X2873761Y-4364989D01*
X2862839Y-4375912D01*
X2857505Y-4386834D01*
X2857505Y-4408423D01*
X2862839Y-4419345D01*
X2873761Y-4430268D01*
X2884683Y-4435855D01*
X2901193Y-4441189D01*
X2928371Y-4441189D01*
X2944627Y-4435855D01*
X2955549Y-4430268D01*
X2966471Y-4419345D01*
X2972059Y-4408423D01*
X2972059Y-4386834D01*
X2972059Y-4531868D02*
G01*
X2895605Y-4477257D01*
X2895605Y-4559045D01*
X2972059Y-4531868D02*
G01*
X2857505Y-4531868D01*
X2703327Y-4336287D02*
G01*
X2714249Y-4330954D01*
X2725171Y-4320031D01*
X2730759Y-4309110D01*
X2730759Y-4287265D01*
X2725171Y-4276344D01*
X2714249Y-4265421D01*
X2703327Y-4259834D01*
X2687071Y-4254500D01*
X2659893Y-4254500D01*
X2643383Y-4259834D01*
X2632461Y-4265421D01*
X2621539Y-4276344D01*
X2616205Y-4287265D01*
X2616205Y-4309110D01*
X2621539Y-4320031D01*
X2632461Y-4330954D01*
X2643383Y-4336287D01*
X2659893Y-4336287D01*
X2659893Y-4309110D02*
G01*
X2659893Y-4336287D01*
X2730759Y-4372355D02*
G01*
X2616205Y-4372355D01*
X2730759Y-4372355D02*
G01*
X2616205Y-4448555D01*
X2730759Y-4448555D02*
G01*
X2616205Y-4448555D01*
X2730759Y-4484623D02*
G01*
X2616205Y-4484623D01*
X2730759Y-4484623D02*
G01*
X2730759Y-4522978D01*
X2725171Y-4539234D01*
X2714249Y-4550155D01*
X2703327Y-4555489D01*
X2687071Y-4561078D01*
X2659893Y-4561078D01*
X2643383Y-4555489D01*
X2632461Y-4550155D01*
X2621539Y-4539234D01*
X2616205Y-4522978D01*
X2616205Y-4484623D01*
X2478531Y-4227324D02*
G01*
X2478531Y-4287268D01*
X2434844Y-4254502D01*
X2434844Y-4271012D01*
X2429255Y-4281934D01*
X2423921Y-4287268D01*
X2407665Y-4292856D01*
X2396744Y-4292856D01*
X2380234Y-4287268D01*
X2369312Y-4276346D01*
X2363978Y-4260090D01*
X2363978Y-4243580D01*
X2369312Y-4227324D01*
X2374900Y-4221736D01*
X2385821Y-4216402D01*
X2391155Y-4334258D02*
G01*
X2385821Y-4328670D01*
X2380234Y-4334258D01*
X2385821Y-4339592D01*
X2391155Y-4334258D01*
X2478531Y-4386582D02*
G01*
X2478531Y-4446526D01*
X2434844Y-4413760D01*
X2434844Y-4430270D01*
X2429255Y-4441192D01*
X2423921Y-4446526D01*
X2407665Y-4452114D01*
X2396744Y-4452114D01*
X2380234Y-4446526D01*
X2369312Y-4435604D01*
X2363978Y-4419348D01*
X2363978Y-4402838D01*
X2369312Y-4386582D01*
X2374900Y-4381248D01*
X2385821Y-4375660D01*
X2478531Y-4487928D02*
G01*
X2363978Y-4531616D01*
X2478531Y-4575304D02*
G01*
X2363978Y-4531616D01*
D12*
X5486405Y-3365502D02*
G01*
X5486405Y-3474722D01*
X5486405Y-3365502D02*
G01*
X5553969Y-3365502D01*
X5486405Y-3417572D02*
G01*
X5528061Y-3417572D01*
X5588259Y-3365502D02*
G01*
X5588259Y-3474722D01*
X5588259Y-3474722D02*
G01*
X5650489Y-3474722D01*
X5726435Y-3365502D02*
G01*
X5684779Y-3474722D01*
X5726435Y-3365502D02*
G01*
X5768091Y-3474722D01*
X5700527Y-3438146D02*
G01*
X5752343Y-3438146D01*
X5875025Y-3380996D02*
G01*
X5864611Y-3370582D01*
X5849117Y-3365502D01*
X5828289Y-3365502D01*
X5812795Y-3370582D01*
X5802381Y-3380996D01*
X5802381Y-3391410D01*
X5807461Y-3401824D01*
X5812795Y-3407158D01*
X5822955Y-3412238D01*
X5854197Y-3422652D01*
X5864611Y-3427732D01*
X5869945Y-3433066D01*
X5875025Y-3443480D01*
X5875025Y-3458974D01*
X5864611Y-3469388D01*
X5849117Y-3474722D01*
X5828289Y-3474722D01*
X5812795Y-3469388D01*
X5802381Y-3458974D01*
X5909315Y-3365502D02*
G01*
X5909315Y-3474722D01*
X5981959Y-3365502D02*
G01*
X5981959Y-3474722D01*
X5909315Y-3417572D02*
G01*
X5981959Y-3417572D01*
X6578594Y-3365502D02*
G01*
X6578594Y-3474722D01*
X6578594Y-3365502D02*
G01*
X6625330Y-3365502D01*
X6640824Y-3370582D01*
X6646158Y-3375916D01*
X6651238Y-3386330D01*
X6651238Y-3396744D01*
X6646158Y-3407158D01*
X6640824Y-3412238D01*
X6625330Y-3417572D01*
X6578594Y-3417572D01*
X6614916Y-3417572D02*
G01*
X6651238Y-3474722D01*
X6685528Y-3365502D02*
G01*
X6685528Y-3474722D01*
X6685528Y-3365502D02*
G01*
X6753092Y-3365502D01*
X6685528Y-3417572D02*
G01*
X6727184Y-3417572D01*
X6685528Y-3474722D02*
G01*
X6753092Y-3474722D01*
X6860280Y-3380996D02*
G01*
X6849866Y-3370582D01*
X6834118Y-3365502D01*
X6813544Y-3365502D01*
X6797796Y-3370582D01*
X6787382Y-3380996D01*
X6787382Y-3391410D01*
X6792716Y-3401824D01*
X6797796Y-3407158D01*
X6808210Y-3412238D01*
X6839452Y-3422652D01*
X6849866Y-3427732D01*
X6854946Y-3433066D01*
X6860280Y-3443480D01*
X6860280Y-3458974D01*
X6849866Y-3469388D01*
X6834118Y-3474722D01*
X6813544Y-3474722D01*
X6797796Y-3469388D01*
X6787382Y-3458974D01*
X6894570Y-3365502D02*
G01*
X6894570Y-3474722D01*
X6894570Y-3365502D02*
G01*
X6962134Y-3365502D01*
X6894570Y-3417572D02*
G01*
X6935972Y-3417572D01*
X6894570Y-3474722D02*
G01*
X6962134Y-3474722D01*
X7032746Y-3365502D02*
G01*
X7032746Y-3474722D01*
X6996424Y-3365502D02*
G01*
X7069068Y-3365502D01*
X6857997Y-2654305D02*
G01*
X6966963Y-2654305D01*
X6857997Y-2654305D02*
G01*
X6857997Y-2607569D01*
X6863077Y-2592075D01*
X6868157Y-2586741D01*
X6878571Y-2581661D01*
X6888985Y-2581661D01*
X6899399Y-2586741D01*
X6904733Y-2592075D01*
X6909813Y-2607569D01*
X6909813Y-2654305D01*
X6909813Y-2617983D02*
G01*
X6966963Y-2581661D01*
X6857997Y-2484887D02*
G01*
X6857997Y-2536957D01*
X6904733Y-2542037D01*
X6899399Y-2536957D01*
X6894319Y-2521209D01*
X6894319Y-2505715D01*
X6899399Y-2490221D01*
X6909813Y-2479807D01*
X6925307Y-2474473D01*
X6935721Y-2474473D01*
X6951469Y-2479807D01*
X6961883Y-2490221D01*
X6966963Y-2505715D01*
X6966963Y-2521209D01*
X6961883Y-2536957D01*
X6956549Y-2542037D01*
X6946135Y-2547371D01*
X6210305Y-3111500D02*
G01*
X6210305Y-3220465D01*
X6210305Y-3220465D02*
G01*
X6272535Y-3220465D01*
X6306825Y-3111500D02*
G01*
X6306825Y-3220465D01*
X6306825Y-3111500D02*
G01*
X6374389Y-3111500D01*
X6306825Y-3163315D02*
G01*
X6348481Y-3163315D01*
X6306825Y-3220465D02*
G01*
X6374389Y-3220465D01*
X6408679Y-3111500D02*
G01*
X6408679Y-3220465D01*
X6408679Y-3111500D02*
G01*
X6445255Y-3111500D01*
X6460749Y-3116579D01*
X6471163Y-3126994D01*
X6476243Y-3137407D01*
X6481577Y-3152902D01*
X6481577Y-3178810D01*
X6476243Y-3194557D01*
X6471163Y-3204971D01*
X6460749Y-3215386D01*
X6445255Y-3220465D01*
X6408679Y-3220465D01*
X5399280Y-3086605D02*
G01*
X5393946Y-3076191D01*
X5383532Y-3065777D01*
X5373372Y-3060697D01*
X5352544Y-3060697D01*
X5342130Y-3065777D01*
X5331716Y-3076191D01*
X5326382Y-3086605D01*
X5321302Y-3102099D01*
X5321302Y-3128007D01*
X5326382Y-3143755D01*
X5331716Y-3154169D01*
X5342130Y-3164583D01*
X5352544Y-3169663D01*
X5373372Y-3169663D01*
X5383532Y-3164583D01*
X5393946Y-3154169D01*
X5399280Y-3143755D01*
X5443984Y-3060697D02*
G01*
X5501134Y-3060697D01*
X5469892Y-3102099D01*
X5485386Y-3102099D01*
X5495800Y-3107433D01*
X5501134Y-3112513D01*
X5506214Y-3128007D01*
X5506214Y-3138421D01*
X5501134Y-3154169D01*
X5490720Y-3164583D01*
X5474972Y-3169663D01*
X5459478Y-3169663D01*
X5443984Y-3164583D01*
X5438650Y-3159249D01*
X5433570Y-3148835D01*
X2679700Y-2133600D02*
G01*
X2679700Y-2242565D01*
X2679700Y-2133600D02*
G01*
X2726436Y-2133600D01*
X2741929Y-2138679D01*
X2747263Y-2143760D01*
X2752343Y-2154173D01*
X2752343Y-2164587D01*
X2747263Y-2175002D01*
X2741929Y-2180336D01*
X2726436Y-2185415D01*
X2679700Y-2185415D01*
X2716022Y-2185415D02*
G01*
X2752343Y-2242565D01*
X2849118Y-2149094D02*
G01*
X2843784Y-2138679D01*
X2828290Y-2133600D01*
X2817875Y-2133600D01*
X2802381Y-2138679D01*
X2791968Y-2154173D01*
X2786634Y-2180336D01*
X2786634Y-2206244D01*
X2791968Y-2227071D01*
X2802381Y-2237486D01*
X2817875Y-2242565D01*
X2823209Y-2242565D01*
X2838704Y-2237486D01*
X2849118Y-2227071D01*
X2854197Y-2211323D01*
X2854197Y-2206244D01*
X2849118Y-2190750D01*
X2838704Y-2180336D01*
X2823209Y-2175002D01*
X2817875Y-2175002D01*
X2802381Y-2180336D01*
X2791968Y-2190750D01*
X2786634Y-2206244D01*
X3896865Y-2438402D02*
G01*
X3896865Y-2547368D01*
X3896865Y-2438402D02*
G01*
X3943601Y-2438402D01*
X3959095Y-2443482D01*
X3964429Y-2448562D01*
X3969509Y-2458976D01*
X3969509Y-2469390D01*
X3964429Y-2479804D01*
X3959095Y-2485138D01*
X3943601Y-2490218D01*
X3896865Y-2490218D01*
X3933187Y-2490218D02*
G01*
X3969509Y-2547368D01*
X4009133Y-2464310D02*
G01*
X4009133Y-2458976D01*
X4014213Y-2448562D01*
X4019547Y-2443482D01*
X4029961Y-2438402D01*
X4050535Y-2438402D01*
X4060949Y-2443482D01*
X4066283Y-2448562D01*
X4071363Y-2458976D01*
X4071363Y-2469390D01*
X4066283Y-2479804D01*
X4055869Y-2495552D01*
X4003799Y-2547368D01*
X4076697Y-2547368D01*
X5016497Y-3175000D02*
G01*
X5125463Y-3175000D01*
X5016497Y-3175000D02*
G01*
X5016497Y-3128263D01*
X5021577Y-3112770D01*
X5026657Y-3107436D01*
X5037071Y-3102355D01*
X5047485Y-3102355D01*
X5057899Y-3107436D01*
X5063233Y-3112770D01*
X5068313Y-3128263D01*
X5068313Y-3175000D01*
X5068313Y-3138678D02*
G01*
X5125463Y-3102355D01*
X5016497Y-2995168D02*
G01*
X5125463Y-3047237D01*
X5016497Y-3068065D02*
G01*
X5016497Y-2995168D01*
X7150102Y-2679694D02*
G01*
X7259068Y-2679694D01*
X7150102Y-2679694D02*
G01*
X7150102Y-2632958D01*
X7155182Y-2617464D01*
X7160262Y-2612130D01*
X7170676Y-2607050D01*
X7181090Y-2607050D01*
X7191504Y-2612130D01*
X7196838Y-2617464D01*
X7201918Y-2632958D01*
X7201918Y-2679694D01*
X7201918Y-2643372D02*
G01*
X7259068Y-2607050D01*
X7170676Y-2572760D02*
G01*
X7165596Y-2562346D01*
X7150102Y-2546598D01*
X7259068Y-2546598D01*
X3924305Y-2133600D02*
G01*
X3924305Y-2242565D01*
X3924305Y-2133600D02*
G01*
X3971041Y-2133600D01*
X3986535Y-2138679D01*
X3991869Y-2143760D01*
X3996949Y-2154173D01*
X3996949Y-2164587D01*
X3991869Y-2175002D01*
X3986535Y-2180336D01*
X3971041Y-2185415D01*
X3924305Y-2185415D01*
X3960627Y-2185415D02*
G01*
X3996949Y-2242565D01*
X4083309Y-2133600D02*
G01*
X4031239Y-2206244D01*
X4109217Y-2206244D01*
X4083309Y-2133600D02*
G01*
X4083309Y-2242565D01*
X4737608Y-2464051D02*
G01*
X4727193Y-2469385D01*
X4716779Y-2479799D01*
X4711700Y-2489959D01*
X4711700Y-2510787D01*
X4716779Y-2521201D01*
X4727193Y-2531615D01*
X4737608Y-2536949D01*
X4753102Y-2542029D01*
X4779009Y-2542029D01*
X4794758Y-2536949D01*
X4805172Y-2531615D01*
X4815586Y-2521201D01*
X4820665Y-2510787D01*
X4820665Y-2489959D01*
X4815586Y-2479799D01*
X4805172Y-2469385D01*
X4794758Y-2464051D01*
X4727193Y-2367531D02*
G01*
X4716779Y-2372611D01*
X4711700Y-2388359D01*
X4711700Y-2398519D01*
X4716779Y-2414267D01*
X4732274Y-2424681D01*
X4758436Y-2429761D01*
X4784343Y-2429761D01*
X4805172Y-2424681D01*
X4815586Y-2414267D01*
X4820665Y-2398519D01*
X4820665Y-2393439D01*
X4815586Y-2377945D01*
X4805172Y-2367531D01*
X4789424Y-2362197D01*
X4784343Y-2362197D01*
X4768850Y-2367531D01*
X4758436Y-2377945D01*
X4753102Y-2393439D01*
X4753102Y-2398519D01*
X4758436Y-2414267D01*
X4768850Y-2424681D01*
X4784343Y-2429761D01*
X2781294Y-2425697D02*
G01*
X2781294Y-2534663D01*
X2781294Y-2425697D02*
G01*
X2817616Y-2425697D01*
X2833364Y-2430777D01*
X2843524Y-2441191D01*
X2848858Y-2451605D01*
X2853938Y-2467099D01*
X2853938Y-2493007D01*
X2848858Y-2508755D01*
X2843524Y-2519169D01*
X2833364Y-2529583D01*
X2817616Y-2534663D01*
X2781294Y-2534663D01*
X2888228Y-2446271D02*
G01*
X2898642Y-2441191D01*
X2914390Y-2425697D01*
X2914390Y-2534663D01*
X6413505Y-2431795D02*
G01*
X6491483Y-2431795D01*
X6506977Y-2426715D01*
X6517391Y-2416302D01*
X6522471Y-2400554D01*
X6522471Y-2390139D01*
X6517391Y-2374645D01*
X6506977Y-2364231D01*
X6491483Y-2359152D01*
X6413505Y-2359152D01*
X6434333Y-2324862D02*
G01*
X6428999Y-2314447D01*
X6413505Y-2298700D01*
X6522471Y-2298700D01*
X5258561Y-2372868D02*
G01*
X5248147Y-2378202D01*
X5237734Y-2388615D01*
X5232400Y-2398776D01*
X5232400Y-2419604D01*
X5237734Y-2430018D01*
X5248147Y-2440431D01*
X5258561Y-2445765D01*
X5274056Y-2450845D01*
X5299963Y-2450845D01*
X5315711Y-2445765D01*
X5325872Y-2440431D01*
X5336286Y-2430018D01*
X5341620Y-2419604D01*
X5341620Y-2398776D01*
X5336286Y-2388615D01*
X5325872Y-2378202D01*
X5315711Y-2372868D01*
X5232400Y-2286762D02*
G01*
X5305297Y-2338578D01*
X5305297Y-2260600D01*
X5232400Y-2286762D02*
G01*
X5341620Y-2286762D01*
X5424680Y-2794505D02*
G01*
X5419346Y-2784091D01*
X5408932Y-2773677D01*
X5398772Y-2768597D01*
X5377944Y-2768597D01*
X5367530Y-2773677D01*
X5357116Y-2784091D01*
X5351782Y-2794505D01*
X5346702Y-2809999D01*
X5346702Y-2835907D01*
X5351782Y-2851655D01*
X5357116Y-2862069D01*
X5367530Y-2872483D01*
X5377944Y-2877563D01*
X5398772Y-2877563D01*
X5408932Y-2872483D01*
X5419346Y-2862069D01*
X5424680Y-2851655D01*
X5464050Y-2794505D02*
G01*
X5464050Y-2789171D01*
X5469384Y-2778757D01*
X5474464Y-2773677D01*
X5484878Y-2768597D01*
X5505706Y-2768597D01*
X5516120Y-2773677D01*
X5521200Y-2778757D01*
X5526534Y-2789171D01*
X5526534Y-2799585D01*
X5521200Y-2809999D01*
X5510786Y-2825747D01*
X5458970Y-2877563D01*
X5531614Y-2877563D01*
X5944359Y-2828797D02*
G01*
X5933945Y-2834131D01*
X5923531Y-2844545D01*
X5918197Y-2854705D01*
X5918197Y-2875534D01*
X5923531Y-2885947D01*
X5933945Y-2896362D01*
X5944359Y-2901695D01*
X5959853Y-2906776D01*
X5985761Y-2906776D01*
X6001509Y-2901695D01*
X6011669Y-2896362D01*
X6022083Y-2885947D01*
X6027417Y-2875534D01*
X6027417Y-2854705D01*
X6022083Y-2844545D01*
X6011669Y-2834131D01*
X6001509Y-2828797D01*
X5939025Y-2794507D02*
G01*
X5933945Y-2784094D01*
X5918197Y-2768600D01*
X6027417Y-2768600D01*
X4660900Y-4686300D02*
G01*
X4660900Y-4795265D01*
X4660900Y-4686300D02*
G01*
X4707636Y-4686300D01*
X4723129Y-4691379D01*
X4728463Y-4696460D01*
X4733543Y-4706873D01*
X4733543Y-4722621D01*
X4728463Y-4733036D01*
X4723129Y-4738115D01*
X4707636Y-4743450D01*
X4660900Y-4743450D01*
X4778247Y-4686300D02*
G01*
X4835397Y-4686300D01*
X4804409Y-4727702D01*
X4819904Y-4727702D01*
X4830318Y-4733036D01*
X4835397Y-4738115D01*
X4840731Y-4753610D01*
X4840731Y-4764023D01*
X4835397Y-4779771D01*
X4824984Y-4790186D01*
X4809490Y-4795265D01*
X4793995Y-4795265D01*
X4778247Y-4790186D01*
X4773168Y-4784852D01*
X4767834Y-4774437D01*
X-317500Y-3378200D02*
G01*
X-317500Y-3456178D01*
X-312420Y-3471671D01*
X-302005Y-3482086D01*
X-286257Y-3487165D01*
X-275844Y-3487165D01*
X-260350Y-3482086D01*
X-249936Y-3471671D01*
X-244855Y-3456178D01*
X-244855Y-3378200D01*
X-137668Y-3393694D02*
G01*
X-148081Y-3383279D01*
X-163829Y-3378200D01*
X-184404Y-3378200D01*
X-200152Y-3383279D01*
X-210565Y-3393694D01*
X-210565Y-3404107D01*
X-205231Y-3414521D01*
X-200152Y-3419602D01*
X-189737Y-3424936D01*
X-158495Y-3435350D01*
X-148081Y-3440429D01*
X-143002Y-3445763D01*
X-137668Y-3456178D01*
X-137668Y-3471671D01*
X-148081Y-3482086D01*
X-163829Y-3487165D01*
X-184404Y-3487165D01*
X-200152Y-3482086D01*
X-210565Y-3471671D01*
X-103378Y-3378200D02*
G01*
X-103378Y-3487165D01*
X-103378Y-3378200D02*
G01*
X-56642Y-3378200D01*
X-41147Y-3383279D01*
X-35813Y-3388613D01*
X-30734Y-3399028D01*
X-30734Y-3409187D01*
X-35813Y-3419602D01*
X-41147Y-3424936D01*
X-56642Y-3430015D01*
X-103378Y-3430015D02*
G01*
X-56642Y-3430015D01*
X-41147Y-3435350D01*
X-35813Y-3440429D01*
X-30734Y-3450844D01*
X-30734Y-3466337D01*
X-35813Y-3476752D01*
X-41147Y-3482086D01*
X-56642Y-3487165D01*
X-103378Y-3487165D01*
X8889Y-3404107D02*
G01*
X8889Y-3399028D01*
X13970Y-3388613D01*
X19050Y-3383279D01*
X29463Y-3378200D01*
X50292Y-3378200D01*
X60705Y-3383279D01*
X66039Y-3388613D01*
X71120Y-3399028D01*
X71120Y-3409187D01*
X66039Y-3419602D01*
X55626Y-3435350D01*
X3555Y-3487165D01*
X76200Y-3487165D01*
G36*
X5148122Y-2260295D02*
G01*
X5138978Y-2268220D01*
X5130342Y-2276703D01*
X5122316Y-2285796D01*
X5114950Y-2295398D01*
X5108194Y-2305456D01*
X5102148Y-2315921D01*
X5096865Y-2326843D01*
X5092293Y-2338019D01*
X5088483Y-2349500D01*
X5085435Y-2361234D01*
X5083200Y-2373172D01*
X5081778Y-2385161D01*
X5081168Y-2397252D01*
X5081371Y-2409393D01*
X5082387Y-2421432D01*
X5084216Y-2433421D01*
X5086858Y-2445258D01*
X5090261Y-2456840D01*
X5094478Y-2468219D01*
X5099405Y-2479243D01*
X5105095Y-2489962D01*
X5111496Y-2500223D01*
X5118557Y-2510078D01*
X5126278Y-2519426D01*
X5134610Y-2528214D01*
X5143500Y-2536444D01*
X5148122Y-2540304D01*
G37*
G36*
X6116777Y-2742895D02*
G01*
X6116777Y-3022904D01*
X6125921Y-3014980D01*
X6134557Y-3006496D01*
X6142583Y-2997403D01*
X6149949Y-2987802D01*
X6156706Y-2977743D01*
X6162751Y-2967278D01*
X6168034Y-2956356D01*
X6172606Y-2945180D01*
X6176416Y-2933700D01*
X6179464Y-2921965D01*
X6181699Y-2910027D01*
X6183122Y-2898038D01*
X6183731Y-2885948D01*
X6183528Y-2873806D01*
X6182512Y-2861767D01*
X6180683Y-2849778D01*
X6178042Y-2837942D01*
X6174638Y-2826359D01*
X6170422Y-2814980D01*
X6165494Y-2803956D01*
X6159804Y-2793238D01*
X6153404Y-2782976D01*
X6146342Y-2773121D01*
X6138621Y-2763774D01*
X6130290Y-2754985D01*
X6121400Y-2746756D01*
G37*
D13*
X6030569Y-4084726D02*
G01*
X6030569Y-3494836D01*
X5450713Y-3494836D01*
X5450713Y-4084726D01*
X6030569Y-4084726D01*
X6517030Y-3484473D02*
G01*
X6517030Y-4074363D01*
X7096886Y-4074363D01*
X7096886Y-3484473D01*
X6517030Y-3484473D01*
X6845300Y-2882900D02*
G01*
X6845300Y-2374900D01*
X6845300Y-2374900D02*
G01*
X6921500Y-2374897D01*
X6921500Y-2374897D02*
G01*
X6997700Y-2374900D01*
X6997700Y-2374900D02*
G01*
X6997700Y-2882900D01*
X6997700Y-2882900D02*
G01*
X6921500Y-2882902D01*
X6921500Y-2882902D02*
G01*
X6845300Y-2882900D01*
X6921500Y-2374897D02*
G01*
X6921500Y-2349500D01*
X6921500Y-2882902D02*
G01*
X6921500Y-2908300D01*
X6464300Y-3006852D02*
G01*
X6209512Y-3006318D01*
D14*
X5232654Y-3238245D02*
G01*
X5740654Y-3238245D01*
X5740654Y-2984245D01*
X5232654Y-2984245D01*
X5232654Y-3238245D01*
D13*
X3009900Y-2273300D02*
G01*
X2501900Y-2273300D01*
X2501900Y-2273300D02*
G01*
X2501900Y-2197100D01*
X2501900Y-2197100D02*
G01*
X2501900Y-2120900D01*
X2501900Y-2120900D02*
G01*
X3009900Y-2120900D01*
X3009900Y-2120900D02*
G01*
X3009900Y-2197100D01*
X3009900Y-2197100D02*
G01*
X3009900Y-2273300D01*
X2501900Y-2197100D02*
G01*
X2476500Y-2197100D01*
X3009900Y-2197100D02*
G01*
X3035300Y-2197100D01*
X3733800Y-2413000D02*
G01*
X4241800Y-2413000D01*
X4241800Y-2413000D02*
G01*
X4241800Y-2489200D01*
X4241800Y-2489200D02*
G01*
X4241800Y-2565400D01*
X4241800Y-2565400D02*
G01*
X3733800Y-2565400D01*
X3733800Y-2565400D02*
G01*
X3733800Y-2489200D01*
X3733800Y-2489200D02*
G01*
X3733800Y-2413000D01*
X4241800Y-2489200D02*
G01*
X4267200Y-2489200D01*
X3733800Y-2489200D02*
G01*
X3708400Y-2489200D01*
X4991100Y-3352800D02*
G01*
X4991100Y-2844800D01*
X4991100Y-2844800D02*
G01*
X5067300Y-2844800D01*
X5067300Y-2844800D02*
G01*
X5143500Y-2844800D01*
X5143500Y-2844800D02*
G01*
X5143500Y-3352800D01*
X5143500Y-3352800D02*
G01*
X5067300Y-3352800D01*
X5067300Y-3352800D02*
G01*
X4991100Y-3352800D01*
X5067300Y-2844800D02*
G01*
X5067300Y-2819400D01*
X5067300Y-3352800D02*
G01*
X5067300Y-3378200D01*
X7137400Y-2870200D02*
G01*
X7137400Y-2362200D01*
X7137400Y-2362200D02*
G01*
X7213600Y-2362200D01*
X7213600Y-2362200D02*
G01*
X7289800Y-2362200D01*
X7289800Y-2362200D02*
G01*
X7289800Y-2870200D01*
X7289800Y-2870200D02*
G01*
X7213600Y-2870200D01*
X7213600Y-2870200D02*
G01*
X7137400Y-2870200D01*
X7213600Y-2362200D02*
G01*
X7213600Y-2336800D01*
X7213600Y-2870200D02*
G01*
X7213600Y-2895600D01*
X4241800Y-2273300D02*
G01*
X3733800Y-2273300D01*
X3733800Y-2273300D02*
G01*
X3733800Y-2197100D01*
X3733800Y-2197100D02*
G01*
X3733800Y-2120900D01*
X3733800Y-2120900D02*
G01*
X4241800Y-2120900D01*
X4241800Y-2120900D02*
G01*
X4241800Y-2197100D01*
X4241800Y-2197100D02*
G01*
X4241800Y-2273300D01*
X3733800Y-2197100D02*
G01*
X3708400Y-2197100D01*
X4241800Y-2197100D02*
G01*
X4267200Y-2197100D01*
D14*
X4648454Y-2146554D02*
G01*
X4648454Y-2654554D01*
X4902454Y-2654554D01*
X4902454Y-2146554D01*
X4648454Y-2146554D01*
D15*
X2597150Y-2352039D02*
G01*
X3117850Y-2352039D01*
X3117850Y-2626360D01*
X2597150Y-2626360D01*
X2597150Y-2352039D01*
X3054350Y-2352039D02*
G01*
X3054350Y-2626360D01*
D13*
X5515203Y-2120290D02*
G01*
X6575196Y-2120290D01*
X6575196Y-2600299D01*
X5515203Y-2600299D01*
X5515203Y-2120290D01*
X6575196Y-2170303D02*
G01*
X5515203Y-2170303D01*
X5562803Y-2357120D02*
G01*
X5562803Y-2435860D01*
X5522163Y-2395220D02*
G01*
X5605983Y-2395220D01*
D14*
X5232654Y-2958845D02*
G01*
X5740654Y-2958845D01*
X5740654Y-2704845D01*
X5232654Y-2704845D01*
X5232654Y-2958845D01*
D13*
X5702096Y-2926079D02*
G01*
X5702096Y-2847339D01*
X5742736Y-2887979D02*
G01*
X5658916Y-2887979D01*
D10*
X7353300Y-4635500D02*
G01*
X7353300Y-4622800D01*
X2273300Y-4622800D01*
X2273300Y-4889500D01*
X7353300Y-4889500D01*
X7353300Y-4635500D01*
D13*
G75*
G01*
X6210757Y-3006852D02*
G03*
X6464249Y-3006852I126746J-154710D01*
D16*
G75*
G01*
X5615178Y-2380234D02*
G03*
X5615432Y-2380234I127J-20000D01*
D13*
G75*
G01*
X5283327Y-2600198D02*
G03*
X5280025Y-2600198I-1651J199993D01*
G75*
G01*
X5981573Y-2683002D02*
G03*
X5984875Y-2683002I1651J-199993D01*
G75*
G01
X5194300Y-3784600D02*
G03X5194300Y-3784600I-114300J0D01*
G75*
G01
X6642100Y-2806700D02*
G03X6642100Y-2806700I-114300J0D01*
G75*
G01
X6375400Y-3784600D02*
G03X6375400Y-3784600I-114300J0D01*
G75*
G01
X5819902Y-3789426D02*
G03X5819902Y-3789426I-74930J0D01*
G75*
G01
X5919978Y-3789426D02*
G03X5919978Y-3789426I-175006J0D01*
G75*
G01
X6877558Y-3779774D02*
G03X6877558Y-3779774I-74930J0D01*
G75*
G01
X6977634Y-3779774D02*
G03X6977634Y-3779774I-175006J0D01*
M02*
